<svg width="45" height="45" viewBox="0 0 45 45" fill="none" xmlns="http://www.w3.org/2000/svg">
<path d="M33.75 12.6562C33.717 12.6562 33.6855 12.6622 33.6525 12.6622C33.7095 12.198 33.75 11.7292 33.75 11.25C33.75 5.03775 28.713 0 22.5 0C16.2855 0 11.25 5.03775 11.25 11.25C11.25 11.7292 11.2897 12.198 11.3475 12.6622C11.3145 12.6622 11.283 12.6562 11.25 12.6562C5.0355 12.6562 0 17.694 0 23.9062C0 30.1185 5.0355 35.1562 11.25 35.1562C14.8552 35.1562 18.0562 33.453 20.1142 30.8153L19.6875 34.4535C19.3087 37.1452 17.442 39.6075 14.7652 40.0785L11.25 40.7812V45H33.75V40.7812L30.234 40.0778C27.5565 39.6068 25.689 37.146 25.3117 34.4528L24.8835 30.8145C26.9415 33.453 30.1432 35.1555 33.7492 35.1555C39.9622 35.1555 44.9992 30.1178 44.9992 23.9055C44.9992 17.6933 39.963 12.6562 33.75 12.6562Z" fill="black"/>
</svg>
