<svg width="45" height="45" viewBox="0 0 45 45" fill="none" xmlns="http://www.w3.org/2000/svg">
<path d="M45 23.2035C45 12.3532 22.5 0 22.5 0C22.5 0 0 12.3532 0 23.2035C0 29.6355 5.4195 35.157 11.9535 35.157C15.0982 35.157 17.8972 33.9442 19.98 31.9755L19.6875 34.4542C19.3095 37.146 17.4435 39.6082 14.7653 40.0792L11.25 40.7812V45H33.75V40.7812L30.234 40.0778C27.5573 39.6068 25.6905 37.146 25.3118 34.4528L25.0208 31.974C27.102 33.9443 29.901 35.1555 33.0458 35.1555C39.5805 35.1563 45 29.6355 45 23.2035Z" fill="black"/>
</svg>
