<svg width="239" height="333" viewBox="0 0 239 333" fill="none" xmlns="http://www.w3.org/2000/svg">
<path d="M238.11 0H0V332.6H238.11V0Z" fill="white"/>
<path d="M204.807 24.7378H33.3035C28.3183 24.7378 24.277 29.0591 24.277 34.3897V298.21C24.277 303.541 28.3183 307.862 33.3035 307.862H204.807C209.792 307.862 213.833 303.541 213.833 298.21V34.3897C213.833 29.0591 209.792 24.7378 204.807 24.7378Z" fill="#800000"/>
<path d="M36.9285 36.4784C69.4851 140.514 97.6397 206.409 119.055 243.07C140.47 206.409 168.625 140.514 201.182 36.4784M160.121 41.1256C143.976 66.1613 130.35 90.5679 119.055 113.63C107.76 90.5679 94.1338 66.1613 77.9893 41.1256M36.9285 296.122C69.4851 192.086 97.6397 126.191 119.055 89.5305C140.47 126.191 168.625 192.086 201.182 296.122M160.121 291.475C143.976 266.439 130.35 242.032 119.055 218.971C107.76 242.032 94.1338 266.439 77.9893 291.475" stroke="white" stroke-width="3.64724"/>
</svg>
