<svg width="239" height="333" viewBox="0 0 239 333" fill="none" xmlns="http://www.w3.org/2000/svg">
<g clip-path="url(#clip0_11_2885)">
<path d="M226.721 0H11.3894C5.09921 0 0 5.09275 0 11.375V321.224C0 327.506 5.09921 332.598 11.3894 332.598H226.721C233.012 332.598 238.111 327.506 238.111 321.224V11.375C238.111 5.09275 233.012 0 226.721 0Z" fill="white"/>
<path d="M119.05 35.3174C108.578 35.5445 103.881 47.321 111.638 56.4659C112.763 57.7998 112.879 58.5654 110.819 57.2841C105.596 53.7964 95.5834 56.0892 95.0706 66.7515C94.4372 79.8888 112.817 83.6742 116.268 69.7046C116.45 68.2306 117.649 68.2643 117.36 70.3564C117.046 76.0347 115.27 81.342 112.829 86.5174C116.943 86.5174 121.54 86.5174 125.28 86.5174C122.839 81.342 121.064 76.0347 120.749 70.3564C120.46 68.2643 121.659 68.2306 121.841 69.7046C125.292 83.6742 143.672 79.8888 143.039 66.7515C142.526 56.0892 132.513 53.7964 127.291 57.2841C125.231 58.5654 125.347 57.7998 126.472 56.4659C134.228 47.321 129.532 35.5446 119.059 35.3174C119.059 35.3174 119.059 35.3174 119.048 35.3174H119.05Z" fill="black"/>
<path d="M119.05 298.167C108.578 297.94 103.882 286.163 111.638 277.018C112.763 275.684 112.879 274.919 110.819 276.2C105.596 279.688 95.5834 277.395 95.0706 266.733C94.4372 253.595 112.817 249.81 116.268 263.78C116.45 265.254 117.649 265.22 117.36 263.128C117.046 257.45 115.27 252.142 112.829 246.967C116.943 246.967 121.54 246.967 125.28 246.967C122.839 252.142 121.064 257.45 120.749 263.128C120.46 265.22 121.659 265.254 121.841 263.78C125.292 249.81 143.672 253.595 143.039 266.733C142.526 277.395 132.513 279.688 127.291 276.2C125.231 274.919 125.347 275.684 126.472 277.018C134.228 286.163 129.532 297.94 119.059 298.167C119.059 298.167 119.059 298.167 119.048 298.167H119.05Z" fill="black"/>
<path d="M219.747 279.293C223.937 279.199 225.815 274.292 222.713 270.481C222.262 269.926 222.216 269.607 223.04 270.141C225.129 271.594 229.134 270.638 229.339 266.196C229.593 260.722 222.241 259.145 220.86 264.965C220.788 265.58 220.308 265.565 220.424 264.694C220.549 262.328 221.26 260.116 222.236 257.96C220.576 257.96 218.916 257.96 217.256 257.96C218.232 260.116 218.942 262.328 219.068 264.694C219.184 265.565 218.704 265.58 218.631 264.965C217.251 259.145 209.899 260.722 210.152 266.196C210.357 270.638 214.363 271.594 216.451 270.141C217.276 269.607 217.229 269.926 216.779 270.481C213.677 274.292 215.555 279.199 219.744 279.293C219.744 279.293 219.745 279.293 219.744 279.293H219.747Z" fill="black"/>
<path d="M18.3631 53.3042C14.1739 53.3984 12.2954 58.3057 15.398 62.1161C15.848 62.6719 15.8944 62.9909 15.0703 62.457C12.9814 61.0039 8.97616 61.9591 8.77104 66.4017C8.51771 71.8756 15.8697 73.4528 17.25 67.6322C17.3226 67.0181 17.8026 67.0321 17.6869 67.9038C17.561 70.2697 16.8508 72.4811 15.8746 74.6376C17.5346 74.6376 19.1947 74.6376 20.8546 74.6376C19.8784 72.4811 19.1682 70.2697 19.0424 67.9038C18.9266 67.0321 19.4064 67.0181 19.4793 67.6322C20.8596 73.4528 28.2115 71.8756 27.9582 66.4017C27.7531 61.9591 23.7478 61.0039 21.659 62.457C20.8349 62.9909 20.8813 62.6719 21.3313 62.1161C24.4338 58.3057 22.5553 53.3989 18.3663 53.3042H18.3631Z" fill="black"/>
<path d="M7.81158 49.8843L7.98312 47.7137C8.52478 41.0061 9.96608 38.7433 18.141 31.7411C22.1099 28.3469 23.4114 26.672 23.5938 24.7291C24.1135 20.1462 20.0583 18.7159 17.417 18.6949C13.9939 18.6639 10.121 20.7468 11.9697 25.5882L8.12843 26.7379C7.35637 22.2219 8.15078 17.9853 11.7448 16.1053C16.5447 13.6538 22.6995 14.6149 25.8072 18.4771C27.8958 21.0682 28.373 24.6538 27.2526 27.46C23.9791 34.6284 12.8749 37.7823 11.9587 46.0765H24.2314V41.4588H27.8478V49.9597L7.81158 49.8843Z" fill="black"/>
<path d="M229.762 282.713L229.591 284.884C229.049 291.591 227.608 293.854 219.433 300.857C215.464 304.251 214.163 305.925 213.98 307.869C213.46 312.451 217.516 313.882 220.157 313.903C223.58 313.934 227.453 311.851 225.604 307.009L229.446 305.86C230.218 310.376 229.423 314.612 225.829 316.492C221.029 318.944 214.875 317.983 211.767 314.121C209.678 311.53 209.201 307.944 210.321 305.138C213.595 297.969 224.699 294.815 225.615 286.521H213.343V291.139H209.726V282.638L229.762 282.713Z" fill="black"/>
</g>
<defs>
<clipPath id="clip0_11_2885">
<rect width="238.111" height="332.598" fill="white"/>
</clipPath>
</defs>
</svg>
