<svg width="239" height="333" viewBox="0 0 239 333" fill="none" xmlns="http://www.w3.org/2000/svg">
<g clip-path="url(#clip0_11_2953)">
<path d="M226.721 0H11.3894C5.09921 0 0 5.09275 0 11.375V321.224C0 327.506 5.09921 332.598 11.3894 332.598H226.721C233.012 332.598 238.111 327.506 238.111 321.224V11.375C238.111 5.09275 233.012 0 226.721 0Z" fill="white"/>
<path d="M174.272 35.3174C163.799 35.5446 159.103 47.321 166.859 56.4659C167.984 57.7998 168.1 58.5653 166.04 57.2839C160.818 53.7963 150.805 56.0891 150.292 66.7513C149.658 79.8887 168.038 83.6741 171.489 69.7045C171.671 68.2306 172.871 68.2641 172.581 70.3563C172.267 76.0346 170.491 81.342 168.051 86.5174C172.164 86.5174 176.761 86.5174 180.501 86.5174C178.061 81.342 176.285 76.0346 175.97 70.3563C175.681 68.2641 176.881 68.2306 177.063 69.7045C180.514 83.6741 198.893 79.8887 198.26 66.7513C197.747 56.0891 187.734 53.7963 182.512 57.2839C180.452 58.5653 180.568 57.7998 181.693 56.4659C189.449 47.321 184.753 35.5446 174.28 35.3174C174.28 35.3174 174.28 35.3174 174.269 35.3174H174.272Z" fill="black"/>
<path d="M63.8363 35.3174C53.3634 35.5446 48.6673 47.321 56.4236 56.4659C57.5485 57.7998 57.6645 58.5653 55.6043 57.2839C50.3823 53.7963 40.3692 56.0891 39.8564 66.7513C39.2231 79.8887 57.6027 83.6741 61.0537 69.7045C61.2359 68.2306 62.4351 68.2641 62.146 70.3563C61.8314 76.0346 60.0558 81.342 57.6153 86.5174C61.7287 86.5174 66.3256 86.5174 70.0657 86.5174C67.6252 81.342 65.8497 76.0346 65.535 70.3563C65.2458 68.2641 66.4452 68.2306 66.6274 69.7045C70.0784 83.6741 88.4581 79.8887 87.8246 66.7513C87.312 56.0891 77.2987 53.7963 72.0766 57.2839C70.0164 58.5653 70.1325 57.7998 71.2574 56.4659C79.0138 47.321 74.3176 35.5446 63.8449 35.3174C63.8449 35.3174 63.8449 35.3174 63.8342 35.3174H63.8363Z" fill="black"/>
<path d="M174.272 298.167C163.799 297.94 159.103 286.163 166.859 277.018C167.984 275.684 168.1 274.919 166.04 276.2C160.818 279.688 150.805 277.395 150.292 266.733C149.658 253.595 168.038 249.81 171.489 263.78C171.671 265.254 172.871 265.22 172.581 263.128C172.267 257.45 170.491 252.142 168.051 246.967C172.164 246.967 176.761 246.967 180.501 246.967C178.061 252.142 176.285 257.45 175.97 263.128C175.681 265.22 176.881 265.254 177.063 263.78C180.514 249.81 198.893 253.595 198.26 266.733C197.747 277.395 187.734 279.688 182.512 276.2C180.452 274.919 180.568 275.684 181.693 277.018C189.449 286.163 184.753 297.94 174.28 298.167C174.28 298.167 174.28 298.167 174.269 298.167H174.272Z" fill="black"/>
<path d="M63.8363 298.167C53.3634 297.94 48.6673 286.163 56.4236 277.018C57.5485 275.684 57.6645 274.919 55.6043 276.2C50.3823 279.688 40.3692 277.395 39.8564 266.733C39.2231 253.595 57.6027 249.81 61.0537 263.78C61.2359 265.254 62.4351 265.22 62.146 263.128C61.8314 257.45 60.0558 252.142 57.6153 246.967C61.7287 246.967 66.3256 246.967 70.0657 246.967C67.6252 252.142 65.8497 257.45 65.535 263.128C65.2458 265.22 66.4452 265.254 66.6274 263.78C70.0784 249.81 88.4581 253.595 87.8246 266.733C87.312 277.395 77.2987 279.688 72.0766 276.2C70.0164 274.919 70.1325 275.684 71.2574 277.018C79.0138 286.163 74.3176 297.94 63.8449 298.167C63.8449 298.167 63.8449 298.167 63.8342 298.167H63.8363Z" fill="black"/>
<path d="M119.054 141.142C108.581 141.369 103.885 153.146 111.641 162.291C112.766 163.625 112.882 164.39 110.822 163.109C105.6 159.621 95.5869 161.914 95.0741 172.576C94.4408 185.713 112.82 189.499 116.271 175.529C116.454 174.055 117.653 174.089 117.364 176.181C117.049 181.859 115.273 187.167 112.833 192.342C116.946 192.342 121.543 192.342 125.283 192.342C122.843 187.167 121.067 181.859 120.753 176.181C120.463 174.089 121.663 174.055 121.845 175.529C125.296 189.499 143.676 185.713 143.042 172.576C142.53 161.914 132.516 159.621 127.294 163.109C125.234 164.39 125.35 163.625 126.475 162.291C134.231 153.146 129.535 141.369 119.063 141.142C119.063 141.142 119.063 141.142 119.052 141.142H119.054Z" fill="black"/>
<path d="M219.751 279.293C223.94 279.199 225.819 274.292 222.716 270.481C222.266 269.926 222.22 269.607 223.044 270.141C225.132 271.594 229.138 270.638 229.343 266.196C229.596 260.722 222.244 259.145 220.864 264.965C220.791 265.579 220.311 265.565 220.427 264.694C220.553 262.328 221.263 260.116 222.239 257.96C220.579 257.96 218.919 257.96 217.259 257.96C218.236 260.116 218.946 262.328 219.072 264.694C219.187 265.565 218.708 265.579 218.635 264.965C217.254 259.145 209.903 260.722 210.156 266.196C210.361 270.638 214.366 271.594 216.455 270.141C217.279 269.607 217.233 269.926 216.783 270.481C213.68 274.292 215.559 279.199 219.748 279.293C219.748 279.293 219.749 279.293 219.748 279.293H219.751Z" fill="black"/>
<path d="M18.3665 53.3042C14.1773 53.3984 12.2989 58.3056 15.4014 62.116C15.8514 62.6718 15.8979 62.9908 15.0738 62.4569C12.9849 61.0037 8.97966 61.959 8.77458 66.4017C8.52119 71.8755 15.8731 73.4527 17.2536 67.6321C17.3264 67.0179 17.8061 67.0321 17.6903 67.9038C17.5645 70.2697 16.8542 72.4811 15.878 74.6375C17.538 74.6375 19.1981 74.6375 20.8581 74.6375C19.8819 72.4811 19.1716 70.2697 19.0458 67.9038C18.9301 67.0321 19.4098 67.0179 19.4827 67.6321C20.8631 73.4527 28.215 71.8755 27.9617 66.4017C27.7565 61.959 23.7514 61.0037 21.6625 62.4569C20.8384 62.9908 20.8848 62.6718 21.3348 62.116C24.4373 58.3056 22.5588 53.3989 18.3698 53.3042H18.3665Z" fill="black"/>
<path d="M7.27153 40.8471L10.7221 40.8139C11.3803 42.9385 12.8366 45.098 14.8143 45.6973C20.4013 47.0341 23.9958 43.8533 25.1793 40.1867C26.6152 35.7391 25.1473 29.4937 21.301 27.2769C18.1139 25.4387 13.3785 26.9892 11.2035 30.9214L8.78702 29.4155L10.0844 14.7598H25.8705V18.224H13.0781L12.8752 24.3296C15.629 22.36 19.8611 22.3809 22.6133 23.7624C27.826 26.295 30.248 32.0529 29.2359 38.8388C27.8316 45.5883 24.735 49.4129 17.7505 49.9591C9.9815 50.0308 7.23853 44.5893 7.27153 40.8471Z" fill="black"/>
<path d="M230.843 291.751L227.392 291.784C226.734 289.659 225.277 287.5 223.3 286.9C217.713 285.563 214.118 288.744 212.935 292.411C211.499 296.858 212.967 303.104 216.813 305.321C220 307.159 224.736 305.608 226.911 301.676L229.327 303.182L228.03 317.838H212.244V314.374H225.036L225.239 308.268C222.485 310.237 218.253 310.217 215.501 308.835C210.288 306.302 207.866 300.545 208.878 293.759C210.283 287.009 213.379 283.185 220.364 282.638C228.133 282.567 230.876 288.008 230.843 291.751Z" fill="black"/>
</g>
<defs>
<clipPath id="clip0_11_2953">
<rect width="238.111" height="332.598" fill="white"/>
</clipPath>
</defs>
</svg>
