<svg width="239" height="333" viewBox="0 0 239 333" fill="none" xmlns="http://www.w3.org/2000/svg">
<g clip-path="url(#clip0_11_3003)">
<path d="M226.721 0H11.3895C5.09928 0 0.00012207 5.09272 0.00012207 11.3749V321.224C0.00012207 327.506 5.09928 332.599 11.3895 332.599H226.721C233.012 332.599 238.111 327.506 238.111 321.224V11.3749C238.111 5.09272 233.012 0 226.721 0Z" fill="white"/>
<path d="M174.269 35.3184C163.796 35.5455 159.1 47.3218 166.856 56.4669C167.981 57.8008 168.097 58.5663 166.037 57.285C160.815 53.7974 150.801 56.0902 150.289 66.7524C149.655 79.8898 168.035 83.6751 171.486 69.7055C171.668 68.2317 172.867 68.2653 172.578 70.3574C172.263 76.0357 170.488 81.343 168.048 86.5184C172.161 86.5184 176.758 86.5184 180.498 86.5184C178.057 81.343 176.282 76.0357 175.967 70.3574C175.678 68.2653 176.877 68.2317 177.059 69.7055C180.51 83.6751 198.89 79.8898 198.257 66.7524C197.744 56.0902 187.731 53.7974 182.509 57.285C180.449 58.5663 180.565 57.8008 181.69 56.4669C189.446 47.3218 184.75 35.5455 174.277 35.3184C174.277 35.3184 174.277 35.3184 174.266 35.3184H174.269Z" fill="black"/>
<path d="M63.8332 35.3184C53.3603 35.5455 48.6642 47.3218 56.4205 56.4669C57.5454 57.8008 57.6614 58.5663 55.6012 57.285C50.3791 53.7974 40.3662 56.0902 39.8533 66.7524C39.22 79.8898 57.5995 83.6751 61.0505 69.7055C61.2326 68.2317 62.4321 68.2653 62.1429 70.3574C61.8282 76.0357 60.0528 81.343 57.6122 86.5184C61.7256 86.5184 66.3225 86.5184 70.0626 86.5184C67.6222 81.343 65.8466 76.0357 65.532 70.3574C65.2428 68.2653 66.4419 68.2317 66.6241 69.7055C70.0751 83.6751 88.4549 79.8898 87.8216 66.7524C87.3089 56.0902 77.2955 53.7974 72.0734 57.285C70.0133 58.5663 70.1295 57.8008 71.2544 56.4669C79.0106 47.3218 74.3146 35.5455 63.8419 35.3184C63.8419 35.3184 63.8419 35.3184 63.8311 35.3184H63.8332Z" fill="black"/>
<path d="M174.269 298.168C163.796 297.941 159.1 286.164 166.856 277.019C167.981 275.685 168.097 274.92 166.037 276.201C160.815 279.689 150.801 277.396 150.289 266.734C149.655 253.596 168.035 249.811 171.486 263.781C171.668 265.255 172.867 265.221 172.578 263.129C172.263 257.451 170.488 252.143 168.048 246.968C172.161 246.968 176.758 246.968 180.498 246.968C178.057 252.143 176.282 257.451 175.967 263.129C175.678 265.221 176.877 265.255 177.059 263.781C180.51 249.811 198.89 253.596 198.257 266.734C197.744 277.396 187.731 279.689 182.509 276.201C180.449 274.92 180.565 275.685 181.69 277.019C189.446 286.164 184.75 297.941 174.277 298.168C174.277 298.168 174.277 298.168 174.266 298.168H174.269Z" fill="black"/>
<path d="M63.8332 298.168C53.3603 297.941 48.6642 286.164 56.4205 277.019C57.5454 275.685 57.6614 274.92 55.6012 276.201C50.3791 279.689 40.3662 277.396 39.8533 266.734C39.22 253.596 57.5995 249.811 61.0505 263.781C61.2326 265.255 62.4321 265.221 62.1429 263.129C61.8282 257.451 60.0528 252.143 57.6122 246.968C61.7256 246.968 66.3225 246.968 70.0626 246.968C67.6222 252.143 65.8466 257.451 65.532 263.129C65.2428 265.221 66.4419 265.255 66.6241 263.781C70.0751 249.811 88.4549 253.596 87.8216 266.734C87.3089 277.396 77.2955 279.689 72.0734 276.201C70.0133 274.92 70.1295 275.685 71.2544 277.019C79.0106 286.164 74.3146 297.941 63.8419 298.168C63.8419 298.168 63.8419 298.168 63.8311 298.168H63.8332Z" fill="black"/>
<path d="M119.051 88.2308C108.578 88.4578 103.882 100.234 111.638 109.379C112.763 110.713 112.879 111.479 110.819 110.197C105.597 106.71 95.5838 109.002 95.071 119.665C94.4377 132.802 112.817 136.587 116.268 122.618C116.451 121.144 117.65 121.178 117.361 123.27C117.046 128.948 115.27 134.255 112.83 139.431C116.943 139.431 121.54 139.431 125.28 139.431C122.84 134.255 121.064 128.948 120.749 123.27C120.46 121.178 121.66 121.144 121.842 122.618C125.293 136.587 143.673 132.802 143.039 119.665C142.527 109.002 132.513 106.71 127.291 110.197C125.231 111.479 125.347 110.713 126.472 109.379C134.228 100.234 129.532 88.4578 119.059 88.2308C119.059 88.2308 119.059 88.2308 119.049 88.2308H119.051Z" fill="black"/>
<path d="M174.269 141.143C163.796 141.37 159.1 153.147 166.856 162.292C167.981 163.625 168.097 164.391 166.037 163.11C160.815 159.622 150.801 161.915 150.289 172.577C149.655 185.715 168.035 189.5 171.486 175.53C171.668 174.056 172.867 174.09 172.578 176.182C172.263 181.86 170.488 187.168 168.048 192.343C172.161 192.343 176.758 192.343 180.498 192.343C178.057 187.168 176.282 181.86 175.967 176.182C175.678 174.09 176.877 174.056 177.059 175.53C180.51 189.5 198.89 185.715 198.257 172.577C197.744 161.915 187.731 159.622 182.509 163.11C180.449 164.391 180.565 163.625 181.69 162.292C189.446 153.147 184.75 141.37 174.277 141.143C174.277 141.143 174.277 141.143 174.266 141.143H174.269Z" fill="black"/>
<path d="M63.8332 141.143C53.3603 141.37 48.6642 153.147 56.4205 162.292C57.5454 163.625 57.6614 164.391 55.6012 163.11C50.3791 159.622 40.3661 161.915 39.8533 172.577C39.2199 185.715 57.5995 189.5 61.0505 175.53C61.2326 174.056 62.4321 174.09 62.1429 176.182C61.8282 181.86 60.0528 187.168 57.6122 192.343C61.7256 192.343 66.3225 192.343 70.0626 192.343C67.6222 187.168 65.8466 181.86 65.532 176.182C65.2428 174.09 66.4419 174.056 66.6241 175.53C70.0751 189.5 88.4549 185.715 87.8216 172.577C87.3089 161.915 77.2955 159.622 72.0734 163.11C70.0133 164.391 70.1295 163.625 71.2544 162.292C79.0106 153.147 74.3146 141.37 63.8419 141.143C63.8419 141.143 63.8419 141.143 63.8311 141.143H63.8332Z" fill="black"/>
<path d="M219.748 279.294C223.937 279.199 225.816 274.293 222.713 270.482C222.263 269.926 222.217 269.607 223.041 270.141C225.13 271.594 229.135 270.639 229.34 266.197C229.593 260.723 222.241 259.145 220.861 264.966C220.788 265.58 220.308 265.566 220.424 264.694C220.55 262.328 221.26 260.117 222.236 257.961C220.576 257.961 218.916 257.961 217.257 257.961C218.233 260.117 218.943 262.328 219.069 264.694C219.185 265.566 218.705 265.58 218.632 264.966C217.251 259.145 209.9 260.723 210.153 266.197C210.358 270.639 214.363 271.594 216.452 270.141C217.276 269.607 217.23 269.926 216.78 270.482C213.677 274.293 215.556 279.199 219.745 279.294C219.745 279.294 219.746 279.294 219.745 279.294H219.748Z" fill="black"/>
<path d="M18.3637 53.3049C14.1746 53.3991 12.2961 58.3065 15.3986 62.1168C15.8486 62.6727 15.8949 62.9916 15.0709 62.4578C12.9819 61.0046 8.97673 61.9598 8.77166 66.4024C8.51826 71.8764 15.8702 73.4536 17.2504 67.6329C17.3233 67.0188 17.8032 67.0328 17.6875 67.9045C17.5615 70.2705 16.8515 72.4818 15.8752 74.6383C17.5352 74.6383 19.1953 74.6383 20.8553 74.6383C19.8791 72.4818 19.1688 70.2705 19.0428 67.9045C18.9272 67.0328 19.4069 67.0188 19.4799 67.6329C20.8601 73.4536 28.212 71.8764 27.9586 66.4024C27.7535 61.9598 23.7486 61.0046 21.6597 62.4578C20.8356 62.9916 20.882 62.6727 21.3319 62.1168C24.4345 58.3065 22.5558 53.3996 18.3668 53.3049H18.3637Z" fill="black"/>
<path d="M12.9526 49.9564C15.2676 37.7183 17.732 28.5307 24.2023 18.5594H11.0503V22.8515H7.55872V14.7603H26.7954L29.1679 18.5594C22.2959 26.0613 16.0066 50.3112 17.1202 49.9564H12.9526Z" fill="black"/>
<path d="M225.155 282.643C222.84 294.881 220.376 304.068 213.906 314.04H227.058V309.747H230.549V317.839H211.313L208.94 314.04C215.812 306.538 222.101 282.288 220.988 282.643H225.155Z" fill="black"/>
</g>
<defs>
<clipPath id="clip0_11_3003">
<rect width="238.111" height="332.599" fill="white"/>
</clipPath>
</defs>
</svg>
