<svg width="239" height="333" viewBox="0 0 239 333" fill="none" xmlns="http://www.w3.org/2000/svg">
<g clip-path="url(#clip0_11_2978)">
<path d="M226.721 0H11.3894C5.09916 0 0 5.09272 0 11.3749V321.224C0 327.506 5.09916 332.599 11.3894 332.599H226.721C233.012 332.599 238.111 327.506 238.111 321.224V11.3749C238.111 5.09272 233.012 0 226.721 0Z" fill="white"/>
<path d="M174.269 35.3184C163.796 35.5455 159.1 47.3219 166.856 56.4669C167.981 57.8009 168.097 58.5663 166.037 57.285C160.815 53.7974 150.801 56.09 150.289 66.7523C149.655 79.8898 168.035 83.6751 171.486 69.7055C171.668 68.2317 172.868 68.2653 172.578 70.3574C172.264 76.0357 170.488 81.3429 168.048 86.5184C172.161 86.5184 176.758 86.5184 180.498 86.5184C178.058 81.3429 176.282 76.0357 175.967 70.3574C175.678 68.2653 176.877 68.2317 177.06 69.7055C180.511 83.6751 198.89 79.8898 198.257 66.7523C197.744 56.09 187.731 53.7974 182.509 57.285C180.449 58.5663 180.565 57.8009 181.69 56.4669C189.446 47.3219 184.75 35.5455 174.277 35.3184C174.277 35.3184 174.277 35.3184 174.266 35.3184H174.269Z" fill="black"/>
<path d="M63.8333 35.3184C53.3605 35.5455 48.6645 47.3219 56.4207 56.4669C57.5456 57.8009 57.6616 58.5663 55.6014 57.285C50.3794 53.7974 40.3663 56.09 39.8536 66.7523C39.2202 79.8898 57.5998 83.6751 61.0507 69.7055C61.233 68.2317 62.4324 68.2653 62.1432 70.3574C61.8286 76.0357 60.0529 81.3429 57.6123 86.5184C61.7257 86.5184 66.3228 86.5184 70.0628 86.5184C67.6224 81.3429 65.8468 76.0357 65.5321 70.3574C65.2429 68.2653 66.4423 68.2317 66.6245 69.7055C70.0755 83.6751 88.4551 79.8898 87.8217 66.7523C87.3091 56.09 77.2958 53.7974 72.0737 57.285C70.0135 58.5663 70.1297 57.8009 71.2546 56.4669C79.0109 47.3219 74.3148 35.5455 63.842 35.3184C63.842 35.3184 63.842 35.3184 63.8313 35.3184H63.8333Z" fill="black"/>
<path d="M174.269 298.168C163.796 297.941 159.1 286.164 166.856 277.019C167.981 275.685 168.097 274.92 166.037 276.201C160.815 279.689 150.802 277.396 150.289 266.734C149.655 253.596 168.035 249.811 171.486 263.781C171.668 265.255 172.868 265.221 172.578 263.129C172.264 257.451 170.488 252.143 168.048 246.968C172.161 246.968 176.758 246.968 180.498 246.968C178.058 252.143 176.282 257.451 175.967 263.129C175.678 265.221 176.877 265.255 177.06 263.781C180.511 249.811 198.89 253.596 198.257 266.734C197.744 277.396 187.731 279.689 182.509 276.201C180.449 274.92 180.565 275.685 181.69 277.019C189.446 286.164 184.75 297.941 174.277 298.168C174.277 298.168 174.277 298.168 174.266 298.168H174.269Z" fill="black"/>
<path d="M63.8333 298.168C53.3605 297.941 48.6645 286.164 56.4207 277.019C57.5456 275.685 57.6616 274.92 55.6014 276.201C50.3794 279.689 40.3663 277.396 39.8536 266.734C39.2202 253.596 57.5998 249.811 61.0507 263.781C61.233 265.255 62.4324 265.221 62.1432 263.129C61.8286 257.451 60.0529 252.143 57.6123 246.968C61.7257 246.968 66.3228 246.968 70.0628 246.968C67.6224 252.143 65.8468 257.451 65.5321 263.129C65.2429 265.221 66.4423 265.255 66.6245 263.781C70.0755 249.811 88.4551 253.596 87.8217 266.734C87.3091 277.396 77.2958 279.689 72.0737 276.201C70.0135 274.92 70.1297 275.685 71.2546 277.019C79.0109 286.164 74.3148 297.941 63.842 298.168C63.842 298.168 63.842 298.168 63.8313 298.168H63.8333Z" fill="black"/>
<path d="M174.269 141.143C163.796 141.37 159.1 153.147 166.856 162.292C167.981 163.625 168.097 164.391 166.037 163.11C160.815 159.622 150.801 161.915 150.289 172.577C149.655 185.714 168.035 189.5 171.486 175.53C171.668 174.056 172.868 174.09 172.578 176.182C172.264 181.86 170.488 187.168 168.048 192.343C172.161 192.343 176.758 192.343 180.498 192.343C178.058 187.168 176.282 181.86 175.967 176.182C175.678 174.09 176.877 174.056 177.06 175.53C180.511 189.5 198.89 185.714 198.257 172.577C197.744 161.915 187.731 159.622 182.509 163.11C180.449 164.391 180.565 163.625 181.69 162.292C189.446 153.147 184.75 141.37 174.277 141.143C174.277 141.143 174.277 141.143 174.266 141.143H174.269Z" fill="black"/>
<path d="M63.8333 141.143C53.3605 141.37 48.6645 153.147 56.4207 162.292C57.5456 163.625 57.6616 164.391 55.6014 163.11C50.3794 159.622 40.3663 161.915 39.8536 172.577C39.2202 185.714 57.5998 189.5 61.0507 175.53C61.233 174.056 62.4324 174.09 62.1432 176.182C61.8286 181.86 60.0529 187.168 57.6123 192.343C61.7257 192.343 66.3228 192.343 70.0628 192.343C67.6224 187.168 65.8468 181.86 65.5321 176.182C65.2429 174.09 66.4423 174.056 66.6245 175.53C70.0755 189.5 88.4551 185.714 87.8217 172.577C87.3091 161.915 77.2958 159.622 72.0737 163.11C70.0135 164.391 70.1297 163.625 71.2546 162.292C79.0109 153.147 74.3148 141.37 63.842 141.143C63.842 141.143 63.842 141.143 63.8313 141.143H63.8333Z" fill="black"/>
<path d="M219.748 279.294C223.937 279.199 225.816 274.293 222.713 270.482C222.263 269.926 222.217 269.607 223.041 270.141C225.13 271.594 229.135 270.639 229.34 266.196C229.593 260.723 222.241 259.145 220.861 264.966C220.788 265.58 220.308 265.566 220.424 264.694C220.55 262.329 221.26 260.117 222.236 257.961C220.576 257.961 218.916 257.961 217.256 257.961C218.233 260.117 218.943 262.329 219.069 264.694C219.184 265.566 218.705 265.58 218.632 264.966C217.251 259.145 209.9 260.723 210.153 266.196C210.358 270.639 214.363 271.594 216.452 270.141C217.276 269.607 217.23 269.926 216.78 270.482C213.677 274.293 215.556 279.199 219.745 279.294C219.745 279.294 219.746 279.294 219.745 279.294H219.748Z" fill="black"/>
<path d="M18.3637 53.3049C14.1745 53.3991 12.296 58.3064 15.3986 62.1168C15.8486 62.6727 15.895 62.9915 15.0709 62.4576C12.9821 61.0045 8.97673 61.9598 8.77165 66.4024C8.51836 71.8764 15.8703 73.4536 17.2506 67.6329C17.3235 67.0188 17.8032 67.0328 17.6875 67.9045C17.5616 70.2705 16.8514 72.4818 15.8752 74.6383C17.5351 74.6383 19.1953 74.6383 20.8552 74.6383C19.879 72.4818 19.1688 70.2705 19.0429 67.9045C18.9272 67.0328 19.407 67.0188 19.4799 67.6329C20.8602 73.4536 28.2121 71.8764 27.9587 66.4024C27.7537 61.9598 23.7484 61.0045 21.6597 62.4576C20.8355 62.9915 20.8819 62.6727 21.3319 62.1168C24.4345 58.3064 22.5559 53.3995 18.367 53.3049H18.3637Z" fill="black"/>
<path d="M8.02668 39.1309C7.59328 36.1683 7.60424 28.5097 7.95814 26.2441C9.05113 19.3033 11.7021 16.127 16.1426 15.0905C20.4557 14.0807 26.5145 15.2052 27.8434 21.0061L24.238 21.0756C22.2878 17.1534 17.3535 18.201 14.5737 19.9079C12.3563 21.2669 11.3536 26.9421 11.7829 27.2913C11.7829 27.2913 15.9767 24.1849 19.2832 24.414C26.3485 25.1501 29.2628 31.2779 29.016 37.0634C28.7911 44.0236 26.5843 49.5899 19.0952 49.96C11.9749 49.6848 8.7123 45.8034 8.02668 39.1309ZM25.5874 37.2927C25.6259 32.464 23.4343 28.8449 19.2832 28.4482C15.136 28.0488 10.9518 32.0967 11.2412 37.019C11.5306 41.9623 13.4436 46.1206 18.474 46.0982C23.884 46.0768 25.5613 40.7302 25.5874 37.2927Z" fill="black"/>
<path d="M230.082 293.467C230.515 296.43 230.504 304.089 230.15 306.354C229.057 313.295 226.407 316.471 221.966 317.508C217.653 318.518 211.594 317.393 210.265 311.592L213.871 311.523C215.821 315.445 220.755 314.398 223.535 312.691C225.752 311.332 226.755 305.657 226.326 305.307C226.326 305.307 222.132 308.414 218.826 308.185C211.76 307.449 208.846 301.321 209.093 295.535C209.318 288.575 211.524 283.009 219.013 282.639C226.134 282.914 229.396 286.795 230.082 293.467ZM212.521 295.306C212.483 300.134 214.674 303.754 218.826 304.15C222.973 304.55 227.157 300.502 226.867 295.579C226.578 290.636 224.665 286.478 219.635 286.5C214.224 286.522 212.547 291.868 212.521 295.306Z" fill="black"/>
</g>
<defs>
<clipPath id="clip0_11_2978">
<rect width="238.111" height="332.599" fill="white"/>
</clipPath>
</defs>
</svg>
