<svg width="239" height="333" viewBox="0 0 239 333" fill="none" xmlns="http://www.w3.org/2000/svg">
<g clip-path="url(#clip0_11_3084)">
<path d="M226.721 0H11.3894C5.09916 0 0 5.09272 0 11.3749V321.224C0 327.506 5.09916 332.599 11.3894 332.599H226.721C233.012 332.599 238.111 327.506 238.111 321.224V11.3749C238.111 5.09272 233.012 0 226.721 0Z" fill="white"/>
<path d="M174.269 35.3181C163.796 35.5453 159.1 47.3216 166.856 56.4666C167.981 57.8006 168.097 58.566 166.037 57.2847C160.815 53.7971 150.801 56.0897 150.289 66.752C149.655 79.8895 168.035 83.6748 171.486 69.7052C171.668 68.2313 172.868 68.265 172.579 70.3571C172.264 76.0354 170.488 81.3426 168.048 86.5181C172.161 86.5181 176.758 86.5181 180.498 86.5181C178.058 81.3426 176.282 76.0354 175.967 70.3571C175.678 68.265 176.878 68.2313 177.06 69.7052C180.511 83.6748 198.89 79.8895 198.257 66.752C197.744 56.0897 187.731 53.7971 182.509 57.2847C180.449 58.566 180.565 57.8006 181.69 56.4666C189.446 47.3216 184.75 35.5453 174.277 35.3181C174.277 35.3181 174.277 35.3182 174.267 35.3181H174.269Z" fill="black"/>
<path d="M63.8336 35.3181C53.3607 35.5453 48.6645 47.3216 56.4208 56.4666C57.5457 57.8006 57.662 58.566 55.6018 57.2847C50.3798 53.7971 40.3664 56.0897 39.8536 66.752C39.2203 79.8895 57.6002 83.6748 61.0511 69.7052C61.2334 68.2313 62.4326 68.265 62.1435 70.3571C61.8288 76.0354 60.0531 81.3426 57.6126 86.5181C61.726 86.5181 66.323 86.5181 70.063 86.5181C67.6225 81.3426 65.847 76.0354 65.5323 70.3571C65.2431 68.265 66.4426 68.2313 66.6247 69.7052C70.0757 83.6748 88.4554 79.8895 87.8219 66.752C87.3094 56.0897 77.2962 53.7971 72.074 57.2847C70.0139 58.566 70.1298 57.8006 71.2548 56.4666C79.0111 47.3216 74.3149 35.5453 63.8422 35.3181C63.8422 35.3181 63.8422 35.3182 63.8315 35.3181H63.8336Z" fill="black"/>
<path d="M174.269 298.168C163.796 297.94 159.1 286.164 166.856 277.019C167.981 275.685 168.097 274.92 166.037 276.201C160.815 279.689 150.801 277.396 150.289 266.733C149.655 253.596 168.035 249.811 171.486 263.78C171.668 265.254 172.868 265.221 172.579 263.129C172.264 257.45 170.488 252.143 168.048 246.968C172.161 246.968 176.758 246.968 180.498 246.968C178.058 252.143 176.282 257.45 175.967 263.129C175.678 265.221 176.878 265.254 177.06 263.78C180.511 249.811 198.89 253.596 198.257 266.733C197.744 277.396 187.731 279.689 182.509 276.201C180.449 274.92 180.565 275.685 181.69 277.019C189.446 286.164 184.75 297.94 174.277 298.168C174.277 298.168 174.277 298.167 174.267 298.168H174.269Z" fill="black"/>
<path d="M63.8336 298.168C53.3607 297.94 48.6645 286.164 56.4208 277.019C57.5457 275.685 57.662 274.92 55.6018 276.201C50.3798 279.689 40.3664 277.396 39.8536 266.733C39.2203 253.596 57.6002 249.811 61.0511 263.78C61.2334 265.254 62.4326 265.221 62.1435 263.129C61.8288 257.45 60.0531 252.143 57.6126 246.968C61.726 246.968 66.323 246.968 70.063 246.968C67.6225 252.143 65.847 257.45 65.5323 263.129C65.2431 265.221 66.4426 265.254 66.6247 263.78C70.0757 249.811 88.4554 253.596 87.8219 266.733C87.3094 277.396 77.2962 279.689 72.074 276.201C70.0139 274.92 70.1298 275.685 71.2548 277.019C79.0111 286.164 74.3149 297.94 63.8422 298.168C63.8422 298.168 63.8422 298.167 63.8315 298.168H63.8336Z" fill="black"/>
<path d="M119.051 70.5933C108.578 70.8204 103.882 82.5968 111.638 91.7418C112.763 93.0756 112.879 93.8412 110.819 92.5598C105.597 89.0722 95.584 91.365 95.0712 102.027C94.4378 115.165 112.818 118.95 116.269 104.98C116.451 103.506 117.65 103.54 117.361 105.632C117.046 111.311 115.271 116.618 112.83 121.793C116.943 121.793 121.54 121.793 125.281 121.793C122.84 116.618 121.065 111.311 120.75 105.632C120.461 103.54 121.66 103.506 121.842 104.98C125.293 118.95 143.673 115.165 143.039 102.027C142.527 91.365 132.514 89.0722 127.292 92.5598C125.231 93.8412 125.347 93.0756 126.472 91.7418C134.229 82.5968 129.533 70.8204 119.06 70.5933C119.06 70.5933 119.06 70.5934 119.049 70.5933H119.051Z" fill="black"/>
<path d="M119.051 262.893C108.578 262.666 103.882 250.889 111.638 241.744C112.763 240.41 112.88 239.645 110.819 240.926C105.597 244.414 95.584 242.121 95.0712 231.459C94.4378 218.321 112.818 214.536 116.269 228.506C116.451 229.979 117.65 229.946 117.361 227.854C117.046 222.175 115.271 216.868 112.83 211.693C116.944 211.693 121.541 211.693 125.281 211.693C122.84 216.868 121.065 222.175 120.75 227.854C120.461 229.946 121.66 229.979 121.842 228.506C125.293 214.536 143.673 218.321 143.039 231.459C142.527 242.121 132.514 244.414 127.292 240.926C125.231 239.645 125.347 240.41 126.472 241.744C134.229 250.889 129.533 262.666 119.06 262.893C119.06 262.893 119.06 262.893 119.049 262.893H119.051Z" fill="black"/>
<path d="M219.748 279.294C223.937 279.199 225.816 274.292 222.713 270.482C222.263 269.926 222.217 269.607 223.041 270.141C225.13 271.594 229.135 270.639 229.34 266.196C229.593 260.722 222.241 259.145 220.861 264.966C220.788 265.58 220.309 265.566 220.424 264.694C220.55 262.328 221.26 260.117 222.236 257.96C220.577 257.96 218.917 257.96 217.257 257.96C218.233 260.117 218.943 262.328 219.069 264.694C219.185 265.566 218.705 265.58 218.632 264.966C217.252 259.145 209.9 260.722 210.153 266.196C210.358 270.639 214.363 271.594 216.452 270.141C217.276 269.607 217.23 269.926 216.78 270.482C213.677 274.292 215.556 279.199 219.745 279.294C219.745 279.294 219.746 279.294 219.745 279.294H219.748Z" fill="black"/>
<path d="M63.8336 105.868C53.3607 106.095 48.6646 117.871 56.4208 127.016C57.5457 128.35 57.662 129.116 55.6018 127.834C50.3798 124.347 40.3664 126.639 39.8536 137.302C39.2203 150.439 57.6002 154.224 61.0511 140.255C61.2334 138.781 62.4326 138.815 62.1435 140.907C61.8288 146.585 60.0531 151.892 57.6126 157.068C61.726 157.068 66.323 157.068 70.063 157.068C67.6225 151.892 65.847 146.585 65.5323 140.907C65.2431 138.815 66.4426 138.781 66.6247 140.255C70.0757 154.224 88.4554 150.439 87.8219 137.302C87.3094 126.639 77.2962 124.347 72.074 127.834C70.0139 129.116 70.1298 128.35 71.2548 127.016C79.0111 117.871 74.3149 106.095 63.8422 105.868C63.8422 105.868 63.8422 105.868 63.8315 105.868H63.8336Z" fill="black"/>
<path d="M63.8336 227.618C53.3607 227.391 48.6645 215.614 56.4208 206.469C57.5457 205.135 57.662 204.37 55.6018 205.651C50.3798 209.139 40.3664 206.846 39.8536 196.184C39.2203 183.046 57.6002 179.261 61.0511 193.231C61.2334 194.705 62.4326 194.671 62.1435 192.579C61.8288 186.9 60.0531 181.593 57.6126 176.418C61.726 176.418 66.323 176.418 70.063 176.418C67.6225 181.593 65.847 186.9 65.5323 192.579C65.2431 194.671 66.4426 194.705 66.6247 193.231C70.0757 179.261 88.4554 183.046 87.8219 196.184C87.3094 206.846 77.2962 209.139 72.074 205.651C70.0139 204.37 70.1298 205.135 71.2548 206.469C79.0111 215.614 74.3149 227.391 63.8422 227.618C63.8422 227.618 63.8422 227.618 63.8315 227.618H63.8336Z" fill="black"/>
<path d="M174.269 105.868C163.796 106.095 159.1 117.871 166.856 127.016C167.981 128.35 168.097 129.116 166.037 127.834C160.815 124.347 150.801 126.639 150.289 137.302C149.655 150.439 168.035 154.224 171.486 140.255C171.668 138.781 172.868 138.815 172.579 140.907C172.264 146.585 170.488 151.892 168.048 157.068C172.161 157.068 176.758 157.068 180.498 157.068C178.058 151.892 176.282 146.585 175.967 140.907C175.678 138.815 176.878 138.781 177.06 140.255C180.511 154.224 198.89 150.439 198.257 137.302C197.744 126.639 187.731 124.347 182.509 127.834C180.449 129.116 180.565 128.35 181.69 127.016C189.446 117.871 184.75 106.095 174.277 105.868C174.277 105.868 174.277 105.868 174.267 105.868H174.269Z" fill="black"/>
<path d="M174.269 227.618C163.796 227.391 159.1 215.614 166.856 206.469C167.981 205.135 168.097 204.37 166.037 205.651C160.815 209.139 150.801 206.846 150.289 196.184C149.655 183.046 168.035 179.261 171.486 193.231C171.668 194.705 172.868 194.671 172.579 192.579C172.264 186.9 170.488 181.593 168.048 176.418C172.161 176.418 176.758 176.418 180.498 176.418C178.058 181.593 176.282 186.9 175.967 192.579C175.678 194.671 176.878 194.705 177.06 193.231C180.511 179.261 198.89 183.046 198.257 196.184C197.744 206.846 187.731 209.139 182.509 205.651C180.449 204.37 180.565 205.135 181.69 206.469C189.446 215.614 184.75 227.391 174.277 227.618C174.277 227.618 174.277 227.618 174.267 227.618H174.269Z" fill="black"/>
<path d="M18.3638 53.3047C14.1747 53.3989 12.2963 58.3061 15.3988 62.1166C15.8488 62.6724 15.895 62.9913 15.071 62.4574C12.9821 61.0042 8.97685 61.9596 8.77178 66.4022C8.51838 71.8761 15.8703 73.4533 17.2508 67.6327C17.3236 67.0186 17.8034 67.0326 17.6876 67.9043C17.5618 70.2702 16.8516 72.4816 15.8754 74.638C17.5354 74.638 19.1954 74.638 20.8554 74.638C19.8792 72.4816 19.1689 70.2702 19.0432 67.9043C18.9274 67.0326 19.4071 67.0186 19.48 67.6327C20.8605 73.4533 28.2123 71.8761 27.959 66.4022C27.7538 61.9596 23.7487 61.0042 21.6598 62.4574C20.8357 62.9913 20.882 62.6724 21.332 62.1166C24.4345 58.3061 22.556 53.3993 18.367 53.3047H18.3638Z" fill="black"/>
<path d="M7.677 49.9601V14.7607H11.0891V49.9601H7.677Z" fill="black"/>
<path d="M21.2032 14.7603C17.9186 14.7603 15.2786 17.7605 15.2786 21.4869V43.2346C15.2786 46.9609 17.9199 49.9596 21.2032 49.9596H23.1203C26.4049 49.9596 29.0502 46.9609 29.0502 43.2346V21.4869C29.0502 17.7605 26.4035 14.7603 23.1203 14.7603H21.2032ZM22.1946 18.0886C24.1338 18.0886 25.693 19.576 25.693 21.4364V43.472C25.693 45.3324 24.1338 46.8338 22.1946 46.8338C20.2555 46.8338 18.6907 45.3324 18.6907 43.472V21.4364C18.6907 19.5774 20.2555 18.0886 22.1946 18.0886Z" fill="black"/>
<path d="M230.432 282.638V317.838H227.02V282.638H230.432Z" fill="black"/>
<path d="M216.906 317.838C220.19 317.838 222.83 314.838 222.83 311.112V289.364C222.83 285.638 220.189 282.639 216.906 282.639H214.988C211.704 282.639 209.058 285.638 209.058 289.364V311.112C209.058 314.838 211.705 317.838 214.988 317.838H216.906ZM215.914 314.51C213.975 314.51 212.416 313.023 212.416 311.162V289.127C212.416 287.266 213.975 285.765 215.914 285.765C217.853 285.765 219.418 287.266 219.418 289.127V311.162C219.418 313.021 217.853 314.51 215.914 314.51Z" fill="black"/>
</g>
<defs>
<clipPath id="clip0_11_3084">
<rect width="238.111" height="332.599" fill="white"/>
</clipPath>
</defs>
</svg>
