<svg width="239" height="333" viewBox="0 0 239 333" fill="none" xmlns="http://www.w3.org/2000/svg">
<g clip-path="url(#clip0_11_2907)">
<path d="M226.721 0H11.3894C5.09914 0 -6.10352e-05 5.09275 -6.10352e-05 11.375V321.224C-6.10352e-05 327.506 5.09914 332.598 11.3894 332.598H226.721C233.012 332.598 238.111 327.506 238.111 321.224V11.375C238.111 5.09275 233.012 0 226.721 0Z" fill="white"/>
<path d="M119.051 35.3174C108.578 35.5446 103.882 47.321 111.638 56.4659C112.763 57.7998 112.879 58.5654 110.819 57.2841C105.597 53.7964 95.5835 56.0892 95.0707 66.7515C94.4374 79.8888 112.817 83.6742 116.268 69.7046C116.45 68.2306 117.649 68.2643 117.36 70.3564C117.046 76.0347 115.27 81.342 112.83 86.5174C116.943 86.5174 121.54 86.5174 125.28 86.5174C122.84 81.342 121.064 76.0347 120.749 70.3564C120.46 68.2643 121.659 68.2306 121.842 69.7046C125.293 83.6742 143.672 79.8888 143.039 66.7515C142.526 56.0892 132.513 53.7964 127.291 57.2841C125.231 58.5654 125.347 57.7998 126.472 56.4659C134.228 47.321 129.532 35.5446 119.059 35.3174C119.059 35.3174 119.059 35.3174 119.048 35.3174H119.051Z" fill="black"/>
<path d="M119.051 298.167C108.578 297.94 103.882 286.163 111.638 277.018C112.763 275.684 112.879 274.919 110.819 276.2C105.597 279.688 95.5835 277.395 95.0707 266.733C94.4374 253.595 112.817 249.81 116.268 263.78C116.45 265.254 117.65 265.22 117.36 263.128C117.046 257.45 115.27 252.142 112.83 246.967C116.943 246.967 121.54 246.967 125.28 246.967C122.84 252.142 121.064 257.45 120.749 263.128C120.46 265.22 121.659 265.254 121.842 263.78C125.293 249.81 143.672 253.595 143.039 266.733C142.526 277.395 132.513 279.688 127.291 276.2C125.231 274.919 125.347 275.684 126.472 277.018C134.228 286.163 129.532 297.94 119.059 298.167C119.059 298.167 119.059 298.167 119.048 298.167H119.051Z" fill="black"/>
<path d="M119.051 141.142C108.578 141.369 103.882 153.146 111.638 162.291C112.763 163.625 112.879 164.39 110.819 163.109C105.597 159.621 95.5835 161.914 95.0707 172.576C94.4374 185.714 112.817 189.499 116.268 175.529C116.45 174.055 117.649 174.089 117.36 176.181C117.046 181.86 115.27 187.167 112.83 192.342C116.943 192.342 121.54 192.342 125.28 192.342C122.84 187.167 121.064 181.86 120.749 176.181C120.46 174.089 121.659 174.055 121.842 175.529C125.293 189.499 143.672 185.714 143.039 172.576C142.526 161.914 132.513 159.621 127.291 163.109C125.231 164.39 125.347 163.625 126.472 162.291C134.228 153.146 129.532 141.37 119.059 141.142C119.059 141.142 119.059 141.142 119.048 141.142H119.051Z" fill="black"/>
<path d="M219.748 279.293C223.937 279.199 225.815 274.292 222.713 270.481C222.262 269.926 222.216 269.607 223.04 270.141C225.129 271.594 229.134 270.638 229.339 266.196C229.593 260.722 222.241 259.145 220.861 264.965C220.788 265.58 220.308 265.565 220.424 264.694C220.549 262.328 221.26 260.116 222.236 257.96C220.576 257.96 218.916 257.96 217.256 257.96C218.232 260.116 218.942 262.328 219.068 264.694C219.184 265.565 218.704 265.58 218.631 264.965C217.251 259.145 209.899 260.722 210.152 266.196C210.357 270.638 214.363 271.594 216.451 270.141C217.276 269.607 217.229 269.926 216.779 270.481C213.677 274.292 215.555 279.199 219.744 279.293C219.744 279.293 219.745 279.293 219.744 279.293H219.748Z" fill="black"/>
<path d="M18.3631 53.3042C14.174 53.3984 12.2955 58.3057 15.398 62.1161C15.848 62.6719 15.8944 62.9909 15.0703 62.457C12.9814 61.0039 8.97628 61.9591 8.7711 66.4017C8.51782 71.8756 15.8696 73.4528 17.2501 67.6322C17.323 67.0181 17.8028 67.0321 17.6869 67.9038C17.5612 70.2697 16.8509 72.4811 15.8747 74.6376C17.5347 74.6376 19.1947 74.6376 20.8547 74.6376C19.8785 72.4811 19.1682 70.2697 19.0424 67.9038C18.9267 67.0321 19.4064 67.0181 19.4793 67.6322C20.8597 73.4528 28.2115 71.8756 27.9583 66.4017C27.7531 61.9591 23.7479 61.0039 21.659 62.457C20.835 62.9909 20.8813 62.6719 21.3313 62.1161C24.4338 58.3057 22.5554 53.3989 18.3663 53.3042H18.3631Z" fill="black"/>
<path d="M6.93988 42.2439L9.64983 40.2507C12.0018 44.0804 14.6321 46.603 18.6558 46.17C24.6927 45.7552 27.1942 39.4268 25.931 34.6584C24.7093 30.3803 19.7104 28.2965 15.7361 30.5773C14.7981 31.1178 13.893 31.5592 13.716 31.5592C13.2992 31.5592 12.3556 29.6821 12.4846 29.1094C15.1518 25.2141 21.629 18.3897 21.629 18.3897H11.5094V22.9598H7.62569V14.7598H27.404V17.5421C27.404 17.5421 22.1048 23.0379 20.3536 26.0478C24.6666 26.2057 28.1432 28.939 29.3912 33.2604C30.1194 35.5356 29.793 40.7397 28.8398 42.9827C27.2476 46.7217 22.8988 49.7553 18.9233 49.9298C12.2486 50.3782 8.70768 45.7021 6.93988 42.2439Z" fill="black"/>
<path d="M231.168 290.354L228.458 292.347C226.107 288.517 223.476 285.994 219.453 286.428C213.416 286.842 210.914 293.171 212.177 297.939C213.399 302.217 218.398 304.301 222.372 302.02C223.31 301.48 224.215 301.038 224.392 301.038C224.809 301.038 225.753 302.915 225.624 303.488C222.957 307.384 216.479 314.208 216.479 314.208H226.599V309.638H230.483V317.838H210.704V315.056C210.704 315.056 216.004 309.56 217.755 306.55C213.442 306.392 209.965 303.659 208.717 299.337C207.989 297.062 208.315 291.858 209.269 289.615C210.861 285.876 215.21 282.842 219.185 282.668C225.86 282.219 229.401 286.895 231.168 290.354Z" fill="black"/>
</g>
<defs>
<clipPath id="clip0_11_2907">
<rect width="238.111" height="332.598" fill="white"/>
</clipPath>
</defs>
</svg>
