<svg width="239" height="333" viewBox="0 0 239 333" fill="none" xmlns="http://www.w3.org/2000/svg">
<g clip-path="url(#clip0_11_2930)">
<path d="M226.721 0H11.3894C5.09916 0 0 5.09272 0 11.3749V321.224C0 327.506 5.09916 332.599 11.3894 332.599H226.721C233.012 332.599 238.111 327.506 238.111 321.224V11.3749C238.111 5.09272 233.012 0 226.721 0Z" fill="white"/>
<path d="M174.269 35.3182C163.796 35.5452 159.1 47.3217 166.856 56.4667C167.981 57.8007 168.097 58.566 166.037 57.2848C160.815 53.7972 150.802 56.0898 150.289 66.7522C149.655 79.8896 168.035 83.6749 171.486 69.7053C171.668 68.2314 172.867 68.265 172.578 70.3571C172.264 76.0355 170.488 81.3427 168.048 86.5182C172.161 86.5182 176.758 86.5182 180.498 86.5182C178.058 81.3427 176.282 76.0355 175.967 70.3571C175.678 68.265 176.878 68.2314 177.06 69.7053C180.511 83.6749 198.89 79.8896 198.257 66.7522C197.744 56.0898 187.731 53.7972 182.509 57.2848C180.449 58.566 180.565 57.8007 181.69 56.4667C189.446 47.3217 184.75 35.5452 174.277 35.3182C174.277 35.3182 174.277 35.3182 174.266 35.3182H174.269Z" fill="black"/>
<path d="M63.8333 35.3182C53.3605 35.5452 48.6645 47.3217 56.4207 56.4667C57.5456 57.8007 57.6616 58.566 55.6015 57.2848C50.3794 53.7972 40.3663 56.0898 39.8535 66.7522C39.2202 79.8896 57.5998 83.6749 61.0509 69.7053C61.233 68.2314 62.4323 68.265 62.1431 70.3571C61.8284 76.0355 60.0529 81.3427 57.6125 86.5182C61.7258 86.5182 66.3227 86.5182 70.0629 86.5182C67.6224 81.3427 65.8468 76.0355 65.5321 70.3571C65.2429 68.265 66.4423 68.2314 66.6246 69.7053C70.0755 83.6749 88.4552 79.8896 87.8218 66.7522C87.3091 56.0898 77.2958 53.7972 72.0738 57.2848C70.0136 58.566 70.1297 57.8007 71.2546 56.4667C79.0109 47.3217 74.3148 35.5452 63.842 35.3182C63.842 35.3182 63.842 35.3182 63.8313 35.3182H63.8333Z" fill="black"/>
<path d="M174.269 298.168C163.796 297.94 159.1 286.164 166.856 277.019C167.981 275.685 168.097 274.92 166.037 276.201C160.815 279.689 150.802 277.396 150.289 266.734C149.655 253.596 168.035 249.811 171.486 263.78C171.668 265.254 172.867 265.221 172.578 263.129C172.264 257.45 170.488 252.143 168.048 246.968C172.161 246.968 176.758 246.968 180.498 246.968C178.058 252.143 176.282 257.45 175.967 263.129C175.678 265.221 176.878 265.254 177.06 263.78C180.511 249.811 198.89 253.596 198.257 266.734C197.744 277.396 187.731 279.689 182.509 276.201C180.449 274.92 180.565 275.685 181.69 277.019C189.446 286.164 184.75 297.94 174.277 298.168C174.277 298.168 174.277 298.167 174.266 298.168H174.269Z" fill="black"/>
<path d="M63.8333 298.168C53.3605 297.94 48.6645 286.164 56.4207 277.019C57.5456 275.685 57.6616 274.92 55.6015 276.201C50.3794 279.689 40.3663 277.396 39.8535 266.734C39.2202 253.596 57.5998 249.811 61.0509 263.78C61.233 265.254 62.4323 265.221 62.1431 263.129C61.8284 257.45 60.0529 252.143 57.6125 246.968C61.7258 246.968 66.3227 246.968 70.0629 246.968C67.6224 252.143 65.8468 257.45 65.5321 263.129C65.2429 265.221 66.4423 265.254 66.6246 263.78C70.0755 249.811 88.4552 253.596 87.8218 266.734C87.3091 277.396 77.2958 279.689 72.0738 276.201C70.0136 274.92 70.1297 275.685 71.2546 277.019C79.0109 286.164 74.3148 297.94 63.842 298.168C63.842 298.168 63.842 298.167 63.8313 298.168H63.8333Z" fill="black"/>
<path d="M219.748 279.294C223.937 279.199 225.815 274.292 222.713 270.482C222.263 269.926 222.217 269.607 223.041 270.141C225.13 271.594 229.135 270.639 229.34 266.196C229.593 260.722 222.241 259.145 220.861 264.966C220.788 265.58 220.308 265.566 220.424 264.694C220.55 262.328 221.26 260.117 222.236 257.96C220.576 257.96 218.916 257.96 217.256 257.96C218.233 260.117 218.943 262.328 219.069 264.694C219.184 265.566 218.705 265.58 218.632 264.966C217.251 259.145 209.899 260.722 210.153 266.196C210.358 270.639 214.363 271.594 216.452 270.141C217.276 269.607 217.23 269.926 216.78 270.482C213.677 274.292 215.556 279.199 219.745 279.294C219.745 279.294 219.746 279.294 219.745 279.294H219.748Z" fill="black"/>
<path d="M18.3636 53.3047C14.1744 53.3989 12.2959 58.3061 15.3985 62.1166C15.8485 62.6724 15.8949 62.9913 15.0707 62.4574C12.982 61.0042 8.9766 61.9596 8.77153 66.4022C8.51824 71.8761 15.8702 73.4533 17.2505 67.6327C17.3234 67.0186 17.8031 67.0326 17.6874 67.9043C17.5615 70.2702 16.8513 72.4816 15.8751 74.638C17.535 74.638 19.1951 74.638 20.855 74.638C19.8788 72.4816 19.1687 70.2702 19.0428 67.9043C18.9271 67.0326 19.4069 67.0186 19.4797 67.6327C20.8601 73.4533 28.212 71.8761 27.9586 66.4022C27.7535 61.9596 23.7483 61.0042 21.6595 62.4574C20.8354 62.9913 20.8818 62.6724 21.3318 62.1166C24.4344 58.3061 22.5558 53.3993 18.3667 53.3047H18.3636Z" fill="black"/>
<path d="M18.6105 49.9561V46.847H21.4163V41.7185H7.38135V38.0998L22.5683 14.7603L25.0492 14.7732V38.1002H29.3458V41.7189H25.0492L24.9677 46.8475H27.3196V49.9606H18.61L18.6105 49.9561ZM21.4163 23.305L11.7741 38.1012H21.4163V23.305Z" fill="black"/>
<path d="M219.498 282.643V285.752H216.692V290.88H230.727V294.499L215.54 317.838L213.059 317.826V294.499H208.763V290.88H213.059L213.141 285.751H210.789V282.638H219.498L219.498 282.643ZM216.692 309.294L226.334 294.497H216.692V309.294Z" fill="black"/>
</g>
<defs>
<clipPath id="clip0_11_2930">
<rect width="238.111" height="332.599" fill="white"/>
</clipPath>
</defs>
</svg>
