<svg width="239" height="333" viewBox="0 0 239 333" fill="none" xmlns="http://www.w3.org/2000/svg">
<g clip-path="url(#clip0_11_3029)">
<path d="M226.721 0H11.3893C5.09904 0 -0.00012207 5.09272 -0.00012207 11.3749V321.224C-0.00012207 327.506 5.09904 332.599 11.3893 332.599H226.721C233.011 332.599 238.111 327.506 238.111 321.224V11.3749C238.111 5.09272 233.011 0 226.721 0Z" fill="white"/>
<path d="M174.269 35.3184C163.796 35.5455 159.1 47.3218 166.856 56.4669C167.981 57.8008 168.097 58.5663 166.036 57.285C160.814 53.7974 150.801 56.0902 150.289 66.7524C149.655 79.8898 168.035 83.6751 171.486 69.7055C171.668 68.2317 172.867 68.2653 172.578 70.3574C172.263 76.0357 170.488 81.3429 168.048 86.5184C172.161 86.5184 176.758 86.5184 180.498 86.5184C178.057 81.3429 176.282 76.0357 175.967 70.3574C175.678 68.2653 176.877 68.2317 177.059 69.7055C180.51 83.6751 198.89 79.8898 198.257 66.7524C197.744 56.0902 187.731 53.7974 182.509 57.285C180.449 58.5663 180.565 57.8008 181.69 56.4669C189.446 47.3218 184.75 35.5455 174.277 35.3184C174.277 35.3184 174.277 35.3184 174.266 35.3184H174.269Z" fill="black"/>
<path d="M63.8335 35.3184C53.3606 35.5455 48.6645 47.3218 56.4207 56.4669C57.5456 57.8008 57.6616 58.5663 55.6014 57.285C50.3794 53.7974 40.3664 56.0902 39.8535 66.7524C39.2203 79.8898 57.5998 83.6751 61.0507 69.7055C61.233 68.2317 62.4323 68.2653 62.1431 70.3574C61.8284 76.0357 60.053 81.3429 57.6125 86.5184C61.7259 86.5184 66.3228 86.5184 70.0628 86.5184C67.6225 81.3429 65.8469 76.0357 65.5322 70.3574C65.243 68.2653 66.4422 68.2317 66.6243 69.7055C70.0754 83.6751 88.4552 79.8898 87.8218 66.7524C87.3091 56.0902 77.2958 53.7974 72.0736 57.285C70.0135 58.5663 70.1297 57.8008 71.2546 56.4669C79.0109 47.3218 74.3149 35.5455 63.8421 35.3184C63.8421 35.3184 63.8421 35.3184 63.8314 35.3184H63.8335Z" fill="black"/>
<path d="M174.269 298.168C163.796 297.941 159.1 286.164 166.856 277.019C167.981 275.685 168.097 274.92 166.036 276.201C160.814 279.689 150.801 277.396 150.289 266.734C149.655 253.596 168.035 249.811 171.486 263.781C171.668 265.255 172.867 265.221 172.578 263.129C172.263 257.451 170.488 252.143 168.048 246.968C172.161 246.968 176.758 246.968 180.498 246.968C178.057 252.143 176.282 257.451 175.967 263.129C175.678 265.221 176.877 265.255 177.059 263.781C180.51 249.811 198.89 253.596 198.257 266.734C197.744 277.396 187.731 279.689 182.509 276.201C180.449 274.92 180.565 275.685 181.69 277.019C189.446 286.164 184.75 297.941 174.277 298.168C174.277 298.168 174.277 298.168 174.266 298.168H174.269Z" fill="black"/>
<path d="M63.8335 298.168C53.3606 297.941 48.6645 286.164 56.4207 277.019C57.5456 275.685 57.6616 274.92 55.6014 276.201C50.3794 279.689 40.3664 277.396 39.8535 266.734C39.2203 253.596 57.5998 249.811 61.0507 263.781C61.233 265.255 62.4323 265.221 62.1431 263.129C61.8284 257.451 60.053 252.143 57.6125 246.968C61.7259 246.968 66.3228 246.968 70.0628 246.968C67.6225 252.143 65.8469 257.451 65.5322 263.129C65.243 265.221 66.4422 265.255 66.6243 263.781C70.0754 249.811 88.4552 253.596 87.8218 266.734C87.3091 277.396 77.2958 279.689 72.0736 276.201C70.0135 274.92 70.1297 275.685 71.2546 277.019C79.0109 286.164 74.3149 297.941 63.8421 298.168C63.8421 298.168 63.8421 298.168 63.8314 298.168H63.8335Z" fill="black"/>
<path d="M119.051 88.2308C108.578 88.4578 103.882 100.234 111.638 109.379C112.763 110.713 112.879 111.479 110.819 110.197C105.597 106.71 95.5841 109.002 95.0713 119.665C94.4379 132.802 112.818 136.587 116.269 122.618C116.451 121.144 117.65 121.178 117.361 123.27C117.046 128.948 115.271 134.255 112.83 139.431C116.943 139.431 121.541 139.431 125.281 139.431C122.84 134.255 121.064 128.948 120.75 123.27C120.461 121.178 121.66 121.144 121.842 122.618C125.293 136.587 143.673 132.802 143.039 119.665C142.527 109.002 132.514 106.71 127.291 110.197C125.231 111.479 125.347 110.713 126.472 109.379C134.229 100.234 129.532 88.4578 119.06 88.2308C119.06 88.2308 119.06 88.2308 119.049 88.2308H119.051Z" fill="black"/>
<path d="M174.269 141.143C163.796 141.37 159.1 153.147 166.856 162.292C167.981 163.625 168.097 164.391 166.036 163.11C160.814 159.622 150.801 161.915 150.289 172.577C149.655 185.715 168.035 189.5 171.486 175.53C171.668 174.056 172.867 174.09 172.578 176.182C172.263 181.86 170.488 187.168 168.048 192.343C172.161 192.343 176.758 192.343 180.498 192.343C178.057 187.168 176.282 181.86 175.967 176.182C175.678 174.09 176.877 174.056 177.059 175.53C180.51 189.5 198.89 185.715 198.257 172.577C197.744 161.915 187.731 159.622 182.509 163.11C180.449 164.391 180.565 163.625 181.69 162.292C189.446 153.147 184.75 141.37 174.277 141.143C174.277 141.143 174.277 141.143 174.266 141.143H174.269Z" fill="black"/>
<path d="M63.8335 141.143C53.3606 141.37 48.6645 153.147 56.4207 162.292C57.5456 163.625 57.6616 164.391 55.6014 163.11C50.3794 159.622 40.3663 161.915 39.8535 172.577C39.2202 185.715 57.5998 189.5 61.0507 175.53C61.233 174.056 62.4323 174.09 62.1431 176.182C61.8284 181.86 60.053 187.168 57.6125 192.343C61.7259 192.343 66.3228 192.343 70.0629 192.343C67.6225 187.168 65.8469 181.86 65.5322 176.182C65.243 174.09 66.4422 174.056 66.6243 175.53C70.0754 189.5 88.4552 185.715 87.8218 172.577C87.3091 161.915 77.2958 159.622 72.0737 163.11C70.0135 164.391 70.1297 163.625 71.2546 162.292C79.0109 153.147 74.3149 141.37 63.8421 141.143C63.8421 141.143 63.8421 141.143 63.8314 141.143H63.8335Z" fill="black"/>
<path d="M119.051 245.255C108.578 245.028 103.882 233.252 111.638 224.107C112.763 222.773 112.879 222.007 110.819 223.289C105.597 226.776 95.5841 224.483 95.0713 213.821C94.4379 200.684 112.818 196.898 116.269 210.868C116.451 212.342 117.65 212.308 117.361 210.216C117.046 204.538 115.271 199.231 112.83 194.055C116.944 194.055 121.541 194.055 125.281 194.055C122.84 199.231 121.064 204.538 120.75 210.216C120.461 212.308 121.66 212.342 121.842 210.868C125.293 196.898 143.673 200.684 143.039 213.821C142.527 224.483 132.514 226.776 127.291 223.289C125.231 222.007 125.347 222.773 126.472 224.107C134.229 233.252 129.533 245.028 119.06 245.255C119.06 245.255 119.06 245.255 119.049 245.255H119.051Z" fill="black"/>
<path d="M219.748 279.294C223.937 279.199 225.816 274.293 222.713 270.482C222.263 269.926 222.217 269.607 223.041 270.141C225.13 271.594 229.135 270.639 229.34 266.197C229.594 260.723 222.242 259.145 220.861 264.966C220.788 265.58 220.309 265.566 220.424 264.694C220.55 262.329 221.26 260.117 222.237 257.961C220.577 257.961 218.917 257.961 217.257 257.961C218.233 260.117 218.943 262.329 219.069 264.694C219.185 265.566 218.705 265.58 218.632 264.966C217.252 259.145 209.9 260.723 210.153 266.197C210.358 270.639 214.363 271.594 216.452 270.141C217.276 269.607 217.23 269.926 216.78 270.482C213.677 274.293 215.556 279.199 219.745 279.294C219.745 279.294 219.745 279.294 219.745 279.294H219.748Z" fill="black"/>
<path d="M18.3639 53.3049C14.1748 53.3991 12.2964 58.3065 15.3989 62.1168C15.8489 62.6727 15.8951 62.9915 15.0711 62.4576C12.9821 61.0045 8.97708 61.9598 8.77189 66.4024C8.5186 71.8764 15.8703 73.4536 17.2506 67.6329C17.3235 67.0188 17.8036 67.0328 17.6877 67.9045C17.5618 70.2705 16.8517 72.4818 15.8755 74.6383C17.5355 74.6383 19.1955 74.6383 20.8555 74.6383C19.8793 72.4818 19.1689 70.2705 19.043 67.9045C18.9274 67.0328 19.4073 67.0188 19.4801 67.6329C20.8605 73.4536 28.2122 71.8764 27.9589 66.4024C27.7538 61.9598 23.7488 61.0045 21.6599 62.4576C20.8358 62.9915 20.8822 62.6727 21.3321 62.1168C24.4347 58.3065 22.556 53.3996 18.3671 53.3049H18.3639Z" fill="black"/>
<path d="M6.92928 39.6496C7.09654 34.9242 8.80531 33.1517 12.1693 30.6792C9.48547 28.7433 8.35423 25.8896 8.58459 23.4606C9.13724 17.5786 13.6791 14.6384 18.6355 14.7641C23.5957 14.8954 27.865 18.8273 28.1982 23.1016C28.4876 26.8171 27.3835 28.6107 24.7476 30.5648C27.8758 33.2062 29.8742 34.941 29.8001 39.5951C29.7262 44.2493 25.7668 49.7876 18.8659 49.9565C11.9651 50.1255 6.75785 44.375 6.92928 39.6496ZM26.1934 39.6667C26.4882 35.3883 22.7058 32.5025 18.4366 32.4606C14.28 32.4156 10.5619 35.9637 10.5619 39.805C10.5619 43.9298 15.3989 46.1717 18.523 46.1814C22.3205 46.1985 25.9368 43.3501 26.1934 39.6667ZM24.8274 24.362C24.9088 20.7624 21.5867 18.1797 18.1583 18.2831C15.1097 18.3762 11.8855 20.701 11.88 23.7124C11.88 27.4824 15.5499 29.3652 18.6836 29.4379C21.5279 29.5021 24.7629 27.0843 24.8274 24.362Z" fill="black"/>
<path d="M208.311 292.949C208.478 297.675 210.187 299.447 213.551 301.92C210.867 303.856 209.735 306.709 209.966 309.138C210.518 315.02 215.061 317.961 220.017 317.835C224.977 317.703 229.246 313.771 229.58 309.497C229.869 305.782 228.765 303.988 226.129 302.034C229.257 299.393 231.255 297.658 231.181 293.004C231.107 288.35 227.148 282.811 220.247 282.642C213.346 282.473 208.139 288.224 208.311 292.949ZM227.575 292.932C227.869 297.211 224.087 300.097 219.818 300.138C215.661 300.183 211.943 296.635 211.943 292.794C211.943 288.669 216.78 286.427 219.904 286.418C223.702 286.401 227.318 289.249 227.575 292.932ZM226.209 308.237C226.29 311.837 222.968 314.419 219.539 314.316C216.491 314.222 213.267 311.898 213.261 308.887C213.261 305.117 216.931 303.234 220.065 303.161C222.909 303.097 226.144 305.515 226.209 308.237Z" fill="black"/>
</g>
<defs>
<clipPath id="clip0_11_3029">
<rect width="238.111" height="332.599" fill="white"/>
</clipPath>
</defs>
</svg>
