<svg width="239" height="333" viewBox="0 0 239 333" fill="none" xmlns="http://www.w3.org/2000/svg">
<g clip-path="url(#clip0_11_2863)">
<path d="M226.721 0H11.3893C5.09911 0 -0.00012207 5.09272 -0.00012207 11.3749V321.224C-0.00012207 327.506 5.09911 332.599 11.3893 332.599H226.721C233.011 332.599 238.111 327.506 238.111 321.224V11.3749C238.111 5.09272 233.011 0 226.721 0Z" fill="white"/>
<path d="M119.051 141.143C108.578 141.37 103.882 153.146 111.638 162.291C112.763 163.625 112.879 164.391 110.819 163.109C105.597 159.622 95.5837 161.915 95.071 172.577C94.4376 185.714 112.817 189.5 116.268 175.53C116.45 174.056 117.65 174.09 117.361 176.182C117.046 181.86 115.27 187.167 112.83 192.343C116.943 192.343 121.54 192.343 125.28 192.343C122.84 187.167 121.064 181.86 120.75 176.182C120.46 174.09 121.66 174.056 121.842 175.53C125.293 189.5 143.673 185.714 143.039 172.577C142.527 161.915 132.513 159.622 127.291 163.109C125.231 164.391 125.347 163.625 126.472 162.291C134.228 153.146 129.532 141.37 119.059 141.143C119.059 141.143 119.059 141.143 119.049 141.143H119.051Z" fill="black"/>
<path d="M219.748 279.294C223.937 279.199 225.815 274.292 222.713 270.482C222.263 269.926 222.217 269.607 223.041 270.141C225.129 271.594 229.135 270.639 229.34 266.196C229.593 260.722 222.241 259.145 220.861 264.966C220.788 265.58 220.308 265.566 220.424 264.694C220.55 262.328 221.26 260.117 222.236 257.96C220.576 257.96 218.916 257.96 217.256 257.96C218.233 260.117 218.943 262.328 219.069 264.694C219.184 265.566 218.704 265.58 218.632 264.966C217.251 259.145 209.899 260.722 210.153 266.196C210.358 270.639 214.363 271.594 216.452 270.141C217.276 269.607 217.23 269.926 216.78 270.482C213.677 274.292 215.556 279.199 219.745 279.294C219.745 279.294 219.746 279.294 219.745 279.294H219.748Z" fill="black"/>
<path d="M7.5986 49.9602V46.9505H10.4704L16.5882 14.7603H20.0702L26.8093 46.9505H29.1283V49.9602H21.2263V46.9505H23.3588L22.5072 42.0174H14.5353L13.9195 46.9505H16.0519V49.9602H7.5986ZM21.827 38.5035L18.3614 21.2743L15.1153 38.5035H21.827Z" fill="black"/>
<path d="M208.98 282.638V285.648H211.852L217.969 317.838H221.451L228.19 285.648H230.51V282.638H222.607V285.648H224.74L223.888 290.581H215.916L215.301 285.648H217.433V282.638H208.98ZM223.208 294.095L219.743 311.324L216.496 294.095H223.208Z" fill="black"/>
<path d="M18.3634 53.3047C14.1743 53.3989 12.2958 58.3061 15.3983 62.1166C15.8483 62.6724 15.8948 62.9913 15.0707 62.4574C12.9818 61.0042 8.97656 61.9596 8.77144 66.4022C8.5181 71.8761 15.87 73.4533 17.2504 67.6327C17.3229 67.0186 17.803 67.0326 17.6873 67.9043C17.5614 70.2702 16.8512 72.4816 15.875 74.638C17.535 74.638 19.195 74.638 20.855 74.638C19.8788 72.4816 19.1686 70.2702 19.0427 67.9043C18.927 67.0326 19.4068 67.0186 19.4796 67.6327C20.86 73.4533 28.2119 71.8761 27.9586 66.4022C27.7534 61.9596 23.7482 61.0042 21.6593 62.4574C20.8352 62.9913 20.8816 62.6724 21.3317 62.1166C24.4342 58.3061 22.5557 53.3993 18.3667 53.3047H18.3634Z" fill="black"/>
</g>
<defs>
<clipPath id="clip0_11_2863">
<rect width="238.111" height="332.599" fill="white"/>
</clipPath>
</defs>
</svg>
