<svg width="239" height="333" viewBox="0 0 239 333" fill="none" xmlns="http://www.w3.org/2000/svg">
<g clip-path="url(#clip0_11_3179)">
<path d="M226.721 0H11.3894C5.09916 0 0 5.09272 0 11.3749V321.224C0 327.506 5.09916 332.599 11.3894 332.599H226.721C233.012 332.599 238.111 327.506 238.111 321.224V11.3749C238.111 5.09272 233.012 0 226.721 0Z" fill="white"/>
<path d="M219.748 279.294C223.937 279.199 225.816 274.292 222.713 270.482C222.263 269.926 222.217 269.607 223.041 270.141C225.13 271.594 229.135 270.639 229.34 266.196C229.594 260.722 222.242 259.145 220.861 264.966C220.788 265.58 220.309 265.566 220.424 264.694C220.55 262.328 221.261 260.117 222.237 257.96C220.577 257.96 218.917 257.96 217.257 257.96C218.233 260.117 218.943 262.328 219.069 264.694C219.185 265.566 218.705 265.58 218.632 264.966C217.252 259.145 209.9 260.722 210.153 266.196C210.358 270.639 214.364 271.594 216.452 270.141C217.276 269.607 217.23 269.926 216.78 270.482C213.677 274.292 215.556 279.199 219.745 279.294C219.745 279.294 219.746 279.294 219.745 279.294H219.748Z" fill="black"/>
<path d="M18.3641 53.3047C14.1749 53.3989 12.2965 58.3061 15.399 62.1166C15.849 62.6724 15.8953 62.9913 15.0712 62.4574C12.9823 61.0042 8.9772 61.9596 8.77202 66.4022C8.51873 71.8761 15.8706 73.4533 17.251 67.6327C17.3239 67.0185 17.8036 67.0325 17.6879 67.9043C17.5621 70.2702 16.8518 72.4816 15.8756 74.638C17.5356 74.638 19.1957 74.638 20.8556 74.638C19.8795 72.4816 19.1692 70.2702 19.0434 67.9043C18.9276 67.0325 19.4074 67.0185 19.4802 67.6327C20.8607 73.4533 28.2125 71.8761 27.9592 66.4022C27.7541 61.9596 23.7489 61.0042 21.66 62.4574C20.836 62.9913 20.8822 62.6724 21.3323 62.1166C24.4347 58.3061 22.5562 53.3993 18.3672 53.3047H18.3641Z" fill="black"/>
<path d="M19.2146 46.083H22.7556L17.5538 33.0857L13.5793 38.576L13.6072 46.083H16.3981V49.9546H6.56226V46.083H9.80276V18.1316L6.56226 18.1444V14.7603H16.542V18.2589H13.788L13.7291 31.882L22.4404 18.1444H19.3658V14.7603H29.9835V18.1444H27.1817L20.009 29.3708L27.032 46.0887H30.1493L30.1655 49.9604H19.2475L19.2146 46.083Z" fill="black"/>
<path d="M218.894 286.516H215.354L220.555 299.513L224.53 294.023L224.502 286.516H221.711V282.644H231.547V286.516H228.306V314.467L231.547 314.454V317.838H221.567V314.34H224.321L224.38 300.717L215.668 314.454H218.743V317.838H208.125V314.454H210.927L218.1 303.228L211.077 286.51H207.959L207.943 282.638H218.861L218.894 286.516Z" fill="black"/>
<path d="M171.695 27.6768L84.1521 28.1056L95.2692 49.3365C118.022 47.2736 137.961 49.1081 158.733 49.7912L171.695 27.6768ZM111.906 102.323C111.815 102.447 108.264 103.371 108.626 104.184C117.897 124.19 122.037 140.469 125.909 161.03C127.866 159.429 131.032 159.494 131.032 159.494C129.47 151.858 139.02 150.906 139.082 158.894C140.915 159.323 142.801 159.329 144.456 161.196C145.199 138.726 153.67 114.882 164 98.7737C152.227 103.47 134.484 115.771 134.484 115.771C134.484 115.771 120.11 109.787 111.906 102.323ZM183.463 104.716C167.795 119.706 162.113 159.971 162.787 161.893C142.591 161.214 136.47 183.653 153.976 195.752C153.284 198.099 151.575 200.008 150.25 202.081C152.055 203.123 154.027 203.346 155.996 203.564C157.49 205.349 158.96 207.409 160.583 207.579C162.344 206.461 163.596 204.824 165.062 203.409C166.893 202.94 168.708 202.421 170.444 201.622C168.906 199.459 167.083 197.272 167.036 195.246C182.257 184.432 180.168 169.726 166.446 162.198C168.477 136.361 176.054 121.382 183.417 110.363L183.463 104.716ZM75.5567 123.849C73.5663 124.828 72.4804 126.894 71.0361 128.515C69.0532 128.606 67.1435 129.288 65.2546 130.137C65.2546 130.137 69.7948 136.457 69.5138 136.797C54.7919 146.514 54.9122 160.717 69.0474 170.072C71.442 190.285 54.3984 222.273 53.5378 221.344L53.507 227.957C65.6369 214.598 72.5645 190.467 73.2554 170.982C97.479 169.357 98.3371 145.772 81.6611 136.901C80.3791 135.716 85.8537 130.235 85.8537 130.235C84.4639 128.856 82.139 128.7 80.103 128.53C78.8185 126.983 77.6986 125.441 75.5567 123.849ZM195.301 141.419C196.841 144.16 201.066 146.376 201.51 141.23C200.789 137.365 198.263 136.508 188.245 138.192C182.341 140.836 183.029 133.88 180.125 136.606C170.708 145.443 195.107 144.475 195.301 141.419ZM189.63 151.375C186.821 151.372 186.343 162.44 186.384 165.763C178.252 178.705 203.067 177.234 192.335 163.135C192.803 161.681 191.122 158.932 191.015 156.961C190.136 156.848 189.75 151.85 189.63 151.375ZM44.3837 168.068C44.1264 171.415 46.5611 181.574 47.4647 181.23C50.6447 176.069 50.2665 171.655 49.9377 166.615C57.5121 151.928 31.6436 157.956 44.3837 168.068ZM91.5994 170.429C90.4692 192.046 85.2136 213.256 73.3049 231.649C83.5559 226.834 93.5044 220.622 103.132 215.304L125.629 229.337C126.932 228.767 127.834 228.487 128.697 227.627C118.33 212.346 115.121 190.351 110.605 170.455C108.886 171.683 105.653 172.299 105.653 172.299C105.422 179.2 98.2396 181.437 96.7726 172.436L91.5994 170.429ZM37.3004 187.294C34.9006 187.447 33.0961 193.434 39.8938 194.321C44.691 195.004 50.8341 192.624 53.8812 193.727C57.4241 199.422 60.6046 191.038 55.8699 189.67C50.7836 188.201 40.4247 192.034 39.2788 188.777C38.6898 187.664 37.9723 187.251 37.3004 187.294ZM78.1041 280.929L64.5319 305.089L151.306 304.562L139.963 281.518C140.157 281.262 102.064 286.082 78.1041 280.929Z" fill="#FFCD00"/>
<path d="M124.474 48.5267C115.574 48.5981 106.356 49.5201 96.6307 51.6481L98.3513 54.7929C118.676 51.4171 134.681 50.8902 155.709 54.9849L157.628 51.7108C146.832 49.7499 135.916 48.435 124.474 48.5267ZM117.825 94.3511C117.825 94.3511 116.482 97.3876 115.802 99.0047L133.54 110.571C133.54 110.571 142.034 104.521 145.654 101.961L143.457 98.7069C135.956 115.375 122.769 102.194 117.825 94.3511ZM170.301 95.5327L165.03 98.7382C152.888 116.939 144.594 139.861 145.256 169.839C149.742 164.666 155.313 161.345 163.056 161.809C164.04 140.133 171.497 120.859 183.44 103.494L170.301 95.5327ZM168.969 102.104C169.754 102.05 170.639 102.273 171.508 102.857C173.515 104.207 173.426 107.474 171.233 108.079C169.462 108.567 169.416 109.035 170.972 108.958C173.764 108.822 174.507 112.576 172.52 114.411C170.236 116.522 167.324 115.026 167.058 112.38C166.936 111.631 166.78 111.642 166.534 112.066C165.83 113.287 165.766 114.875 165.903 116.312L161.777 113.733C163.245 113.001 164.141 112.558 165.202 111.447C165.341 111.302 165.445 111.195 165.444 111.131C165.444 111.018 164.985 111.17 164.145 111.259C161.653 111.521 159.736 109.892 160.247 107.528C160.681 105.516 161.715 104.64 163.443 104.601C164.672 104.574 165.352 105.052 165.969 106.313C166.667 107.737 166.934 107.386 166.485 105.61C165.999 103.685 167.242 102.223 168.969 102.104ZM46.7774 119.188C46.7774 119.188 37.8827 125.903 33.7505 129.146L33.9506 188.915C35.1924 188.462 37.0258 186.851 38.0902 186.266C35.6169 184.064 36.2553 182.371 35.7653 180.745C34.6551 179.025 35.6709 177.746 35.4867 176.667C35.2155 169.043 36.5921 168.039 42.7222 167.35C41.4299 167.821 38.1628 157.807 46.9971 157.857L46.7774 119.188ZM158.987 122.521C162.315 122.473 165.052 125.15 165.1 128.505C165.149 131.86 162.49 134.619 159.162 134.668C155.834 134.716 153.095 132.037 153.047 128.682C152.998 125.327 155.659 122.57 158.987 122.521ZM159.042 123.607C156.377 123.646 154.252 125.852 154.291 128.539C154.329 131.225 156.519 133.374 159.184 133.335C161.848 133.296 163.98 131.084 163.941 128.398C163.902 125.711 161.707 123.568 159.042 123.607ZM159.168 125.149C160.975 125.122 162.463 126.576 162.489 128.398C162.515 130.219 161.069 131.722 159.262 131.748C157.455 131.775 155.973 130.315 155.946 128.494C155.92 126.672 157.361 125.175 159.168 125.149ZM39.5384 127.645C39.7835 127.641 40.043 127.678 40.3075 127.763C41.8093 128.244 42.3353 129.577 41.5219 130.841C40.8829 131.833 40.9546 131.918 42.073 131.499C42.9527 131.17 43.4023 131.274 44.0958 131.966C46.1754 134.041 43.0786 137.53 41.043 135.416C40.0348 134.369 39.9399 134.678 40.639 136.476C40.8652 137.058 41.2392 137.963 41.2392 137.963L38.2552 137.918C38.2552 137.918 38.718 136.72 38.9321 136.155C39.4485 134.792 39.4654 134.592 38.3886 135.449C35.9605 137.383 33.2078 134.074 35.4419 131.911C35.8963 131.471 36.6249 131.452 37.6392 131.854C38.3782 132.147 38.469 131.944 37.914 131.241C36.7064 129.712 37.8225 127.676 39.5384 127.645ZM159.242 127.704C159.017 127.704 158.8 127.794 158.64 127.953C158.481 128.113 158.391 128.329 158.391 128.554C158.391 128.78 158.481 128.996 158.64 129.156C158.8 129.315 159.017 129.405 159.242 129.405C159.468 129.405 159.685 129.315 159.844 129.156C160.004 128.996 160.094 128.78 160.094 128.554C160.094 128.329 160.004 128.113 159.844 127.953C159.685 127.794 159.468 127.704 159.242 127.704ZM101.2 132.25C99.9868 140.26 101.234 152.252 101.21 158.259C104.446 158.88 104.482 161.101 104.979 163.863C106.552 163.31 109.992 165.652 110.462 165.446C110.834 157.698 106.575 136.763 101.203 132.25L101.2 132.25ZM155.077 141.03C159.671 141.401 158.79 144.976 157.422 146.446C156.774 147.199 156.894 147.537 157.606 147.104C159.546 145.922 161.085 146.777 161.71 148.813C162.779 152.29 158.245 155.284 156.223 152.163C155.538 151.106 155.119 151.345 155.287 152.451C155.391 153.517 156.423 155.727 156.423 155.727L151.917 155.32C151.917 155.32 153.294 153.01 153.535 152.388C154.037 151.098 153.772 150.755 152.809 151.795C149.991 154.395 146.085 151.066 147.905 147.619C148.802 145.92 150.457 145.37 152.244 146.724C153.448 147.517 153.708 147.172 152.631 146.21C150.618 144.414 152.373 140.811 155.077 141.03ZM201.809 142.474C196.757 147.737 198.343 144.627 200.685 148.638C201.944 155.534 200.384 155.641 200.579 158.931C200.968 163.353 196.851 164.084 193.203 164.821C193.793 164.782 198.847 174.197 189.416 174.933L189.524 213.204L204.311 202.214L204.248 142.474L201.809 142.474ZM39.9091 143.865C40.2951 143.872 40.7005 143.981 41.104 144.21C42.2238 144.845 42.53 146.097 41.8279 147.186C41.4241 147.813 41.5428 148.207 42.0123 147.798C42.6408 147.249 44.0275 147.615 44.5687 148.47C45.9586 150.664 43.244 153.533 41.5101 151.707C40.7447 150.9 40.4502 150.867 40.539 151.397C40.7883 152.391 41.4375 154.087 41.4375 154.087L38.3161 154.142C38.3161 154.142 38.9905 152.359 39.1401 151.454C39.255 150.738 38.9713 150.843 38.2279 151.689C37.5048 152.512 36.8484 152.597 35.9266 151.981C33.6517 150.461 35.4729 146.559 37.8452 147.87C38.6624 148.322 38.7762 148.061 38.1375 147.21C36.9968 145.69 38.1617 143.947 39.7562 143.869C39.8074 143.867 39.8568 143.864 39.9091 143.865ZM90.8416 162.681C87.1099 165.661 81.0438 172.368 73.3532 170.732C72.457 194.611 64.6836 213.096 53.5951 228.983C57.4235 231.265 61.6374 234.003 65.5528 235.759C68.8632 234.037 70.7206 233.32 73.9693 230.625C87.2999 209.866 91.5274 187.174 90.8416 162.681ZM125.651 167.049C126.4 179.312 128.379 190.924 134.707 200.241L135.137 174.179C132.882 173.635 131.033 172.166 130.375 167.999L125.651 167.049ZM79.9178 174.283L84.1457 174.383C84.1457 174.383 83.1876 176.309 82.7724 177.386C82.2679 178.703 82.5067 178.971 83.4708 178.057C84.7257 176.866 86.7266 176.755 87.7791 177.817C90.5735 180.64 87.6511 185.239 84.3458 183.221C82.9307 182.358 82.693 182.647 83.8159 183.87C86.0003 185.913 83.7205 188.856 81.1674 188.868C79.3216 188.86 78.1245 187.374 77.9795 185.735C77.9082 184.704 78.4219 183.669 79.3095 183.167C80.2349 182.642 79.5733 182.302 78.5679 182.847C75.2856 184.627 73.0895 180.055 75.5664 177.453C76.9944 175.953 78.5052 176.092 79.9569 177.524C80.9707 178.523 81.3339 178.436 81.0479 177.253C80.7598 175.922 79.9178 174.283 79.9178 174.283ZM194.062 177.87L197.091 177.874C196.793 178.63 196.409 179.4 196.167 180.147C195.907 180.961 196.097 181.066 196.899 180.279C198.987 178.865 201.214 180.279 200.762 182.518C200.449 184.063 199.166 184.821 197.683 184.15C196.377 183.559 196.797 183.811 197.54 184.713C198.424 185.785 198.199 187.035 197.03 187.863C194.963 189.329 192.233 186.894 193.601 184.77C194.407 183.506 194.037 183.643 193.303 184.254C192.2 185.067 190.534 183.917 190.501 182.322C190.374 180.028 192.673 178.735 194.293 180.359C195.065 181.014 195.256 180.935 194.907 179.983C194.588 179.291 194.486 178.548 194.062 177.87ZM197.399 194.523C197.399 194.523 197.355 194.769 196.865 195.695C196.291 196.784 196.379 197.909 196.979 197.145C197.992 195.855 200.143 196.215 200.848 197.792C201.669 199.629 200.067 201.657 198.405 200.885C197.325 200.384 197.252 200.492 197.97 201.538C198.668 202.555 198.359 203.806 197.224 204.536C194.995 205.971 192.32 203.107 194.178 201.273C194.675 200.783 194.52 200.543 193.917 200.874C191.455 202.222 189.638 198.87 191.766 196.906C192.673 196.07 193.366 196.128 194.856 197.167C195.32 197.49 195.41 197.156 195.076 196.336C194.507 194.938 194.223 194.561 194.223 194.561L197.399 194.523ZM76.351 196.567C79.885 196.515 82.7877 199.359 82.8391 202.921C82.8903 206.484 80.0714 209.416 76.5374 209.468C73.0034 209.519 70.0949 206.672 70.0435 203.109C69.9923 199.547 72.817 196.619 76.351 196.567ZM76.4233 197.719C73.5201 197.762 71.1998 200.165 71.242 203.092C71.2842 206.018 73.6732 208.358 76.5764 208.315C79.4795 208.273 81.7999 205.864 81.7577 202.937C81.7155 200.01 79.3265 197.677 76.4233 197.719ZM76.4846 199.755C78.2718 199.729 79.739 201.165 79.7649 202.966C79.791 204.768 78.366 206.253 76.5788 206.28C74.7915 206.306 73.3186 204.864 73.2927 203.062C73.2665 201.261 74.6975 199.781 76.4846 199.755ZM76.5258 202.29C76.3001 202.29 76.0835 202.38 75.9238 202.539C75.7641 202.699 75.6744 202.915 75.6744 203.141C75.6744 203.366 75.7641 203.582 75.9238 203.742C76.0835 203.901 76.3001 203.991 76.5258 203.991C76.7517 203.991 76.9682 203.901 77.1279 203.742C77.2876 203.583 77.3773 203.366 77.3773 203.141C77.3773 202.915 77.2876 202.699 77.1279 202.539C76.9682 202.38 76.7517 202.29 76.5258 202.29ZM68.4409 215.383L72.1352 217.203C72.1352 217.203 70.3878 218.636 69.6926 219.374C68.8041 220.325 68.8655 220.772 70.0654 220.317C72.3533 219.449 74.6447 220.748 74.6877 223.142C74.7449 226.337 70.9962 227.873 69.1963 225.454C68.6611 224.735 68.0219 224.438 68.2722 225.025C68.8815 226.455 68.5095 228.255 67.4482 228.995C66.5987 229.587 65.0442 229.761 64.2602 229.352C61.5636 227.942 61.4222 224.811 64.0012 223.573C65.2977 222.951 65.3413 222.367 64.0656 222.688C61.4101 223.355 59.8628 220.117 61.778 217.891C63.8108 215.529 67.1246 216.016 67.491 219.511C67.5563 220.133 67.9762 219.684 68.1639 218.732C68.3896 218.024 68.4409 215.383 68.4409 215.383ZM102.874 220.638L89.7587 228.725L92.7565 232.912C99.4677 217.582 115.541 230.277 118.116 238.104C118.674 238.451 118.768 238.353 119.375 238.627C119.433 238.075 120.548 232.637 120.548 232.637L102.874 220.638ZM137.556 277C115.41 282.695 80.3578 277.643 80.7007 277.241L78.5211 280.37C77.7683 280.693 112.244 286.578 139.437 280.6L137.556 277Z" fill="#C8102E"/>
<path d="M31.5964 25.5017L31.5964 307.102L206.529 307.102L206.529 25.5017L31.5964 25.5017ZM171.875 27.3377L155.64 55.3531C155.796 53.8763 124.079 49.3498 98.1571 54.8731L84.0453 27.6786L171.875 27.3377ZM203.165 27.7962L203.679 142.158L204.754 202.102L189.579 213.243L189.357 174.843C189.357 174.843 187.184 173.797 186.614 173.726C186.401 173.709 186.124 174.191 186.51 174.439C187.068 174.798 188.441 175.299 188.441 175.299L188.763 213.359C176.42 222.288 160.999 228.509 149.268 233.429C148.307 230.233 138.818 222.767 128.15 228.044C127.174 228.409 125.966 228.726 125.151 229.297C121.086 230.045 119.747 234.426 119.132 238.686C119.11 238.854 119.453 238.816 119.465 238.833C119.509 238.894 120.432 234.745 120.799 233.96C121.582 232.283 122.57 231.279 123.093 231.121C123.331 231.08 123.54 231.455 123.216 232.046C122.574 233.219 122.05 235.713 121.894 236.838C121.754 237.876 121.728 238.711 121.919 238.747C121.953 238.78 122.863 235.603 123.273 234.481C124.341 231.558 125.014 230.347 126.043 229.724C127.098 229.084 127.348 229.175 127.14 229.855C125.57 232.941 124.922 235.274 124.615 238.561C124.567 239.216 124.898 239.235 125.158 238.149C126.018 234.699 127.197 230.031 129.986 228.638C131.176 228.096 131.705 228.122 131.577 228.509C128.257 232.736 127.426 237.431 127.465 238.947C127.478 239.452 127.681 239.354 128.107 238.259C129.231 234.092 130.899 230.547 132.878 228.809C133.644 228.136 134.57 227.951 135.346 227.854C137.691 227.561 137.772 228.436 135.731 229.634C133.406 230.998 130.716 235.963 130.418 239.691C130.314 240.981 130.767 241.121 131.087 239.401C132.466 231.992 138.768 227.094 143.819 229.363C146.092 230.384 146.504 231.802 144.526 231.172C140.521 229.895 136.075 232.755 134.242 236.746C132.584 240.355 132.619 242.249 133.784 247.082C134.579 251.546 136.128 257.249 135.617 261.621C135.066 262.471 133.327 261.272 131.273 261.017C130.034 260.784 128.521 260.724 127.228 261.223C126.1 261.658 125.461 261.768 125.252 261.156C125.185 260.959 126.122 259.996 126.539 259.463C126.83 259.093 126.977 258.666 126.977 258.666C126.977 258.666 126.414 258.879 125.884 259.401C125.424 259.853 124.435 260.911 124.163 260.966C123.57 261.087 123.547 260.413 124.026 258.695C125.708 252.027 125.257 251.915 122.372 250.564C119.514 249.467 120.419 248.912 119.153 247.821C118.261 248.523 120.318 251.746 122.645 252.451C124.549 253.027 124.316 254.008 123.483 256.648C122.637 260.342 121.194 265.233 122.029 268.514C123.783 275.407 130.726 275.266 136.044 272.48L136.692 274.237C132.196 276.072 108.499 277.641 100.513 276.716C99.8958 274.54 99.8331 273.981 99.583 271.42C99.583 271.42 104.517 273.665 106.979 274.055C110.054 274.541 114.79 274.564 116.002 271.71C116.373 270.873 115.992 270.167 114.931 270.652C112.981 271.543 109.647 272.2 106.954 272.033C104.693 271.892 101.472 270.978 100.079 270.132C99.4173 269.73 98.8583 268.945 99.3769 267.957C99.8365 267.855 100.44 268.366 100.797 268.551C104.876 270.626 107.167 271.187 109.775 270.234C111.506 269.601 113.449 268.731 113.84 266.813C112.331 267.578 110.94 268.945 109.337 269.384C106.133 270.262 102.707 268.927 99.3731 266.75C98.3442 265.851 98.8135 265.194 100.074 265.914C105.067 268.448 107.151 270.128 111.929 266.572C112.997 265.774 113.592 265.877 114.219 266.36C116.7 268.6 116.691 267.341 114.874 265.014C114.461 264.486 114.087 263.747 113.84 262.959C113.657 262.376 113.616 261.792 113.285 261.409C112.721 260.756 111.706 260.44 110.546 259.926C109.476 259.451 108.708 259.593 108.708 259.593C108.708 259.593 109.105 259.928 109.551 260.147C111.716 261.211 112.77 262.351 110.081 261.736C107.641 260.636 103.567 261.252 101.262 262.865C99.4527 263.754 98.6564 264.706 98.2292 262.694C97.3349 258.495 98.2061 252.798 97.0071 245.469C96.7784 244.072 96.4974 243.186 96.7874 242.995C97.1596 242.749 98.0897 243.655 99.2417 245.285C99.7665 246.028 100.809 247.458 100.803 247.16C100.843 245.608 98.4477 242.696 96.4714 241.549C95.3863 240.918 94.6486 238.004 95.8908 238.645C96.8496 239.115 101.839 243.537 102.789 245.113C103.23 245.845 103.603 245.378 103.136 244.517C102.856 244.001 101.683 242.484 100.544 241.362C98.5232 239.373 98.2885 239.466 98.6767 239.058C99.4445 238.252 101.087 239.292 104.017 241.964C104.769 242.92 105.763 243.783 105.641 243.308C105.941 242.564 103.008 239.385 101.268 238.533C100.943 238.328 100.899 238.111 100.929 237.716C101.094 236.215 104.461 238.42 107.256 240.994C108.303 241.958 107.434 240.144 106.222 238.911C105.269 237.942 103.732 236.738 102.691 236.325C101.656 235.895 101.593 234.986 102.404 234.605C105.206 234.485 108.096 237.37 109.82 239.638C110.296 240.261 110.733 240.741 110.238 239.562C108.641 236.01 105.32 234.009 103.02 233.603C101.152 233.274 101.193 231.575 102.95 231.767C104.882 231.979 108.043 233.736 110.725 236.456C111.505 237.247 112.818 239.043 112.548 237.988C112.537 237.701 111.718 236.578 110.768 235.494C108.574 233.298 106.025 231.356 103.321 230.778C102.057 230.417 98.3051 231.148 98.2826 230.492C98.2725 230.008 98.6748 229.717 99.8697 229.316C104.507 227.761 111.293 231.777 115.006 237.951C115.271 238.393 115.775 238.582 115.806 238.482C114.014 233.437 108.445 228.862 104.015 228.078C101.002 227.591 97.965 228.367 96.5208 230.413C94.8956 232.716 95.5303 235.796 97.9706 235.549C99.2512 235.43 99.15 234.699 99.1262 234.675C99.0388 234.588 98.2954 234.941 97.8353 234.849C96.1664 234.519 96.3399 231.477 98.7829 231.777C101.592 232.122 101.989 236.587 98.8492 237.526C95.9519 238.393 94.8901 237.059 94.0975 235.476C92.9365 233.159 94.1829 229.422 96.2301 227.99C101.959 223.98 109.204 227.34 113.298 231.317C115.324 233.284 116.803 235.623 117.732 238.145C117.971 238.731 118.482 238.672 118.248 238.069C112.485 223.233 95.2732 221.503 92.7556 233.021C88.5894 226.437 84.9417 225.978 79.3599 228.852C73.6664 231.226 70.8655 233.161 65.5992 235.651L53.6573 229.187C52.9534 217.228 53.3545 205.233 53.4022 193.259C53.4364 192.98 50.8153 193.449 46.4493 194.139C34.8397 196.475 35.8358 190.203 34.3189 189.887C33.508 189.724 33.5668 190.074 33.3459 168.001C33.2816 161.59 33.1569 150.319 33.0633 142.954C32.9699 135.588 32.9456 129.452 33.0101 129.322C33.0754 129.193 33.7262 128.629 34.4777 128.092C37.3064 126.071 38.8968 124.847 45.0875 120.086C46.4894 119.007 46.8413 118.826 46.8413 118.826C47.552 132.088 46.9156 146.015 47.2651 157.416L47.7871 157.418L47.585 119.135C46.5172 118.853 71.995 103.823 85.9574 98.9478C86.2191 98.8564 86.8715 99.1496 86.8715 99.1496C94.8851 109.05 115.972 106.053 117.671 94.0003C121.165 101.348 136.512 115.624 143.525 98.4148C143.525 98.4148 146.066 103.359 148.247 103.686C153.148 104.341 153.692 103.562 164.48 98.2874C152.146 117.151 145.345 137.123 144.474 161.311C142.788 158.859 139.243 158.965 138.946 159.146C138.969 156.842 138.558 153.715 135.106 153.38C131.6 153.112 129.799 157.776 131.13 159.75C128.965 158.844 125.719 161.114 125.719 161.327C125.442 161.336 122.963 167.945 130.469 168.285C131.152 171.404 132.321 172.913 134.72 174.196L134.779 199.655L135.627 200.811L135.701 174.13C139.542 173.958 140.018 169.528 139.733 168.506C141.439 168.581 142.987 168.236 144.292 167.233L144.741 171.581C144.741 171.581 145.642 170.047 145.444 169.233C143.772 144.229 152.746 117.18 164.525 99.6473C165.155 98.9113 165.347 98.0333 165.659 98.0268C168.532 96.4667 170.346 95.4169 170.346 95.4169C175.083 97.7115 183.542 103.249 183.542 103.249L183.679 138.878C183.548 138.528 199.44 137.091 199.201 137.524C199.201 137.524 197.81 136.975 197.789 136.037L197.375 52.6629L190.422 48.0838C190.422 48.0838 184.705 51.8503 183.106 53.1371L183.28 102.222L170.966 94.9506C170.966 94.9506 171.162 93.2137 171.18 92.6503C171.702 86.9779 167.744 83.7383 161.51 85.6924C160.677 85.9587 160.098 86.1922 159.691 85.8492C157.076 78.1432 155.901 57.8923 155.904 57.8925L173.432 27.9608L203.165 27.7962ZM34.0684 28.333L81.8304 28.333L97.9354 57.4007C97.9354 57.4007 98.881 59.2176 98.3161 61.1177C97.6995 63.1911 97.1699 64.1113 96.6151 65.1697C96.6703 64.5659 91.9747 63.9674 92.3676 68.0206C92.6336 70.7641 96.0772 72.3144 98.6417 70.1799C99.0517 70.1453 99.0491 70.5291 98.9595 71.1987C98.7228 72.7706 97.068 77.759 95.9324 78.0899C90.1509 73.311 88.0869 82.038 91.9851 83.7781C94.2416 84.7854 97.7121 83.9539 99.3343 81.2191C100.575 79.127 100.438 79.4717 100.829 82.0107C100.975 82.9549 101.18 84.0502 101.286 84.5422C101.617 86.081 101.286 86.3794 98.7163 87.0777C96.6487 87.8896 94.5529 88.337 92.4206 88.802C88.5238 89.4462 86.5319 92.4103 86.4349 96.0165C86.4138 96.796 86.4449 97.1564 86.276 97.388C69.7893 103.696 52.4456 112.522 34.0684 127.594L34.0684 28.333ZM191.166 49.904C191.166 49.904 194.55 52.1572 196.182 53.284L196.206 56.905L191.315 53.6857L191.166 49.904ZM189.388 50.4468C190.438 53.7786 190.43 60.9223 190.036 64.1038C189.378 66.1757 189.086 75.3966 189.832 80.0885C190.427 83.8287 190.316 90.0147 189.756 92.9755C189.536 94.1323 189.706 99.5538 190.119 104.569C190.434 108.402 190.342 111.888 189.883 113.882C189.521 115.454 189.647 121.086 190.06 123.246C190.667 126.425 190.771 136.636 190.499 137.191C189.777 138.015 184.131 138.131 184.51 137.85L184.349 53.813C184.349 53.813 187.709 51.5618 189.388 50.4468ZM128.023 54.926C132.768 54.8973 135.985 55.0409 135.955 55.0925C136.409 56.9224 136.584 58.7528 136.761 60.5827C136.761 60.5827 132.448 58.4494 130.199 57.7397C126.733 56.6688 121.254 57.8447 120.283 59.8499C119.733 60.9869 120.02 61.7449 122.349 60.4808C126.16 58.4121 133.943 59.9881 136.687 62.1816C137.319 62.6869 137.286 62.7979 137.299 63.3906C137.317 64.2941 137.37 64.3453 136.121 63.6727C129.58 60.3016 123.991 60.693 122.063 65.1187C121.619 64.9835 119.922 64.6896 119.922 64.6896L121.745 67.4054L122.09 70.2465C123.9 71.1857 124.447 71.4858 127.507 72.9211C127.507 72.9211 126.493 71.9408 125.41 71.1811C123.955 70.1604 125.113 69.8323 126.073 70.223C128.047 70.6794 130.933 71.26 134.273 69.1218C135.311 68.4577 137.687 69.0327 137.724 69.3334C137.724 69.3334 138.04 71.8193 138.354 77.0044C138.503 79.4572 138.802 82.6606 138.972 83.976C139.486 87.9497 139.634 88.1758 137.56 86.2704C136.864 85.6311 135.705 84.5711 135.692 84.6343C135.429 85.8665 138.487 88.0298 139.2 88.7726C140.281 89.8998 141.149 92.7867 140.716 92.9578C140.442 93.0662 137.535 90.5805 135.246 88.3454C134.389 87.5081 133.113 86.3849 133.077 86.4233C132.604 86.7409 134.526 88.9271 136.326 90.5615C138.425 92.4688 138.668 92.6409 137.962 92.9284C136.658 93.4592 135.486 92.7992 132.321 90.1618C132.013 89.905 130.815 89.048 130.758 89.1096C130.469 89.4978 133.389 92.2832 134.052 92.5229C135.283 92.9679 135.637 94.1664 134.666 94.637C134.017 94.9512 131.602 93.6167 129.665 91.9252C129.318 91.6221 128.356 91.1075 128.292 91.1767C127.907 91.4256 130.073 93.3125 132.139 94.5665C134.161 95.7942 134.485 96.0967 133.969 97.1176C133.489 98.1689 129.051 95.7352 126.83 93.2282C126.358 92.6948 125.983 92.4644 126.077 92.6443C127.044 95.3465 130.226 97.2832 132.594 98.0542C133.017 98.1937 133.631 98.3661 133.907 98.5872C134.581 99.1271 134.43 99.6893 133.701 100.006C131.176 100.72 127.194 97.637 124.346 94.4078C124.017 94.2702 124.213 94.6932 124.299 94.833C126.674 98.6546 131.224 101.561 133.963 101.019C135.565 100.701 136.852 101.188 136.865 101.73C136.875 102.174 135.992 102.88 134.269 103.004C130.372 103.284 124.284 98.9872 120.722 93.5143C120.611 93.3437 120.48 93.2795 120.471 93.383C120.375 94.5431 122.589 97.3888 124.287 99.0163C129.334 103.852 134.105 105.487 137.826 102.763C139.924 101.124 141.952 97.5392 138.827 96.3417C137.171 95.7076 136.124 98.0043 137.54 97.3488C139.4 97.1231 139.822 98.1188 139.58 99.0535C139.106 100.659 137.527 100.914 136.245 100.239C134.012 99.02 134.487 94.8418 137.377 94.1119C139.981 93.478 142.254 95.7039 142.552 97.8152C143.016 101.095 139.347 104.643 136.404 105.525C126.364 108.537 118.521 94.4752 118.476 94.157C117.972 93.18 117.367 92.6614 116.985 93.8004C116.574 95.4498 114.309 100.288 113.097 100.259C113.474 98.5522 115.061 95.684 114.676 93.1714C114.006 95.2347 112.594 99.6361 109.891 101.981C109.19 102.624 107.134 103.383 108.549 101.728C110.257 99.3068 112.494 95.9962 112.031 92.8873C111.578 93.5858 111.329 95.3541 110.811 96.522C109.513 99.4459 106.678 102.916 104.806 103.478C103.423 103.893 103.553 103.422 104.969 101.92C106.486 100.309 109.172 95.5806 108.994 93.5417C108.918 92.6414 106.208 101.329 101.113 103.707C99.7379 104.214 98.9575 103.576 98.9575 103.576C100.96 102.414 106.491 96.9162 105.969 90.6712C105.969 90.6712 105.673 91.5965 105.237 92.9833C103.362 98.9437 99.3334 102.863 96.193 103.188C93.6861 103.447 91.9359 102.427 92.5578 101.977C95.8082 102.001 98.4792 100.868 100.566 97.6741C102.687 94.4282 103.478 89.2119 102.193 83.6919C101.033 78.7137 100.778 74.2383 100.374 69.4529C103.935 70.6791 107.518 71.4949 110.986 70.1289C110.638 71.5548 110.057 71.7302 109.143 72.8074C108.909 73.0839 108.839 73.3541 108.839 73.3541C110.123 72.9295 112.651 71.0459 112.651 71.0459C112.651 71.0459 112.338 72.8163 111.584 75.7426C110.457 80.1183 110.749 80.4323 114.919 82.0812C115.697 82.3888 115.989 82.6902 116.261 83.0178C116.389 83.1711 117.073 84.4123 117.138 84.456C117.29 84.5586 117.25 83.1896 117.165 82.8434C116.942 81.9242 116.449 81.2345 116.018 80.9624C115.199 80.2025 114.018 80.1343 113.261 79.7848C112.133 79.2568 111.703 79.2683 111.919 78.0272C112.061 77.2103 113.216 71.7112 113.765 69.5862C115.41 63.2223 113.865 59.6951 109.206 58.2726C106.048 57.3086 103.33 57.798 100.113 59.5227L99.5339 57.722C107.963 55.4992 120.114 54.9738 128.023 54.926ZM191.572 54.9887L196.126 58.0943L196.173 62.0327L191.586 58.9643L191.572 54.9887ZM137.308 55.1533L139.323 55.3825C139.323 55.3825 140.08 58.2957 140.895 66.169C141.299 70.0719 141.72 78.1865 142.056 81.9166C142.565 87.459 145.049 96.3206 146.588 98.5578C149.098 102.206 154.143 99.8471 152.456 95.5148C151.581 93.2672 148.192 93.6311 148.662 95.9636C148.672 96.3795 148.982 95.6653 149.478 95.2268C150.943 94.6675 152.592 96.2056 151.732 98.0562C150.664 100.419 147.503 99.3394 146.455 96.3613C145.202 92.8038 149.423 90.1377 152.58 92.3073C156.096 94.7243 156.102 100.85 153.27 102.784C148.504 104.536 145.264 101.036 143.708 97.4605C143.084 96.4425 141.087 91.0967 140.54 88.8666C139.109 78.0537 138.837 65.2184 137.308 55.1533ZM140.642 55.7548L142.735 55.8861C143.569 60.262 143.931 65.2357 144.263 70.223C144.369 77.9128 145.311 86.0234 147.102 91.3394L145.564 92.9657C142.944 86.874 142.737 77.2657 142.152 70.7618C141.896 63.4469 140.702 55.8017 140.642 55.7548ZM143.663 56.0448L145.501 56.2446C146.06 61.4402 146.919 64.9657 147.245 70.6893C147.667 78.0921 148.94 84.1718 149.731 89.9541L148.354 90.4145C147.432 90.8426 145.905 84.0096 145.225 70.1583C145.019 65.9663 144.314 61.2519 143.663 56.0448ZM146.445 56.2388L148.64 56.6365C149.611 69.7881 151.144 82.1397 152.75 89.2174L150.841 89.6092C148.474 79.4938 148.321 67.5239 146.445 56.2388ZM149.615 56.7051L151.634 57.0578C154.061 87.1344 155.559 86.7457 156.027 87.9281L153.843 88.8216C151.482 80.1787 151.005 67.9941 149.615 56.7051ZM152.505 57.2635L154.912 57.5104C154.834 57.5638 156.62 82.173 158.775 86.2469C158.43 87.26 157.612 87.1656 156.719 87.2697C155.72 84.5056 155.137 81.212 154.718 77.9861C153.798 70.9001 153.464 64.2564 152.505 57.2635ZM106.991 59.8107C110.164 59.9652 112.796 61.4015 113.05 63.5022C113.107 63.9748 112.736 63.7439 112.306 63.4122C109.578 61.3043 106.472 60.6476 102.722 62.0073C101.905 62.3036 101.238 62.7712 100.872 62.7068C100.544 62.4956 100.443 61.9831 100.694 61.5605C101.568 60.0872 105.422 59.7343 106.991 59.8107ZM191.629 60.3437L196.212 63.4983L196.183 66.9116L191.304 63.6257L191.629 60.3437ZM99.3578 61.3195C99.3578 61.3195 99.6294 63.1996 99.6364 64.0293C99.7047 67.3419 98.9043 69.1676 97.1801 69.933C95.0992 70.8568 92.4306 68.8798 93.7272 66.6667C94.7076 64.9934 96.3921 65.4965 96.7132 67.2545L99.3578 61.3195ZM105.912 62.3893C106.136 62.3823 106.359 62.3833 106.581 62.3933C107.651 62.4391 108.705 62.6732 109.658 63.0536C112.062 64.0132 112.945 65.1855 113.034 65.7066C112.895 66.095 112.655 65.8309 110.9 64.8759C108.197 63.2048 104.672 62.9308 101.577 65.0522C100.805 65.2059 100.727 64.7655 101.5 63.9275C102.79 62.9092 104.349 62.4396 105.912 62.3893ZM127.913 62.4148C130.028 62.3475 132.556 62.8887 134.691 63.9686C135.636 64.4462 136.483 64.7442 137.098 65.2931C137.591 65.5518 137.629 66.6777 137.269 66.7627C136.947 66.8082 136.421 66.5548 135.633 66.0005C130.559 62.6792 126.908 63.088 123.974 65.1325C123.811 65.2454 123.308 65.3632 123.108 65.348C122.549 65.3055 122.52 65.0736 122.753 64.768C124.111 63.2212 126.141 62.4761 127.913 62.4148ZM191.319 64.8053L196.208 68.2499L196.208 71.6357L191.009 67.9932L191.319 64.8053ZM103.058 66.1807L103.772 66.2023C105.436 70.2673 107.523 68.1709 108.39 66.5433L109.259 66.6863C107.899 72.1311 102.36 69.2821 103.058 66.1807ZM130.569 66.4766L131.142 66.6608C130.991 68.9819 127.114 71.4559 125.274 66.6216L126.043 66.5648C128.151 69.7978 129.368 67.8846 130.569 66.4766ZM101.844 66.7235C102.652 66.8214 102.623 67.7416 102.875 68.4125C103.441 69.9116 101.296 68.6444 100.929 68.2792C100.307 67.619 101.192 66.7913 101.844 66.7235ZM132.525 66.9292C132.751 66.9333 133.204 67.0966 133.62 67.2663C134.773 67.7362 134.712 68.0811 133.436 68.6535C131.394 69.5689 130.684 69.688 131.295 68.3949C131.647 67.8033 131.88 67.018 132.525 66.9292ZM124.285 67.3525C124.357 67.3416 124.435 67.3627 124.517 67.423C125.031 67.8037 125.368 68.2251 125.427 68.9102C125.469 69.3931 123.874 68.837 123.877 68.0676C123.916 67.7009 124.072 67.3851 124.285 67.3525ZM110.389 67.6072C111.437 67.9984 111.311 68.501 110.582 68.9572C109.271 69.6935 108.71 69.5486 109.558 68.3909C109.948 67.8569 110.033 67.6183 110.389 67.6072ZM190.991 69.3119L196.286 73.0641L196.239 76.5087L190.948 72.8721C190.702 71.396 190.935 70.405 190.991 69.3119ZM190.848 74.0085L196.139 77.8999L196.162 81.323L190.914 77.6843C190.707 76.159 190.798 75.0709 190.848 74.0085ZM121.044 74.4376C120.237 74.4835 120.363 75.0366 121.519 75.4722C123.143 76.0836 123.306 77.8219 121.876 78.6053C120.198 79.748 117.448 76.8457 115.431 77.0907C114.468 77.3811 113.851 78.2906 114.402 79.4008C114.831 80.1794 116.282 80.6506 116.87 80.1395C117.41 79.6049 117.573 79.5895 118.612 79.9847C121.866 81.223 124.463 78.8705 123.695 76.397C123.417 75.5013 122.199 74.5298 121.449 74.4514C121.295 74.4353 121.16 74.4311 121.044 74.4376ZM99.4814 74.6434C99.7324 74.6494 99.8306 75.4854 99.8895 76.7086C99.9869 78.7422 97.9339 81.5759 95.8578 82.5515C93.3576 83.7265 90.6797 82.0775 91.1277 79.6359C91.5408 77.3855 94.7137 77.2923 94.8337 79.3714C94.5253 79.9183 94.9568 80.3775 95.1339 80.3295C95.9496 80.1088 97.8731 78.3645 98.6555 76.4127C98.9603 75.6521 99.1455 74.8698 99.3637 74.6924C99.4059 74.658 99.4462 74.6425 99.4814 74.6434ZM129.355 78.1056C128.246 78.1183 126.913 78.713 126.644 79.4282C126.244 80.1055 126.571 81.3202 127.391 80.2864C129.499 77.8127 132.552 80.9078 130.919 82.8748C129.436 84.66 127.613 84.0852 123.76 82.6024C120.953 81.5223 120.51 81.8908 119.818 82.6711C119.249 83.3134 119.539 84.6066 120.277 84.5913C122.552 85.1116 124.521 85.6181 126.875 86.1118C131.852 87.1408 134.888 80.68 130.342 78.3055C130.07 78.1635 129.725 78.1014 129.355 78.1056ZM191.197 79.1794L196.173 82.722L196.143 86.0177L191.321 82.5123L191.197 79.1794ZM106.666 79.5066C105.958 79.4862 105.211 79.7285 104.68 80.1728C102.74 81.9265 104.331 86.5367 107.188 86.9484C107.786 87.0346 108.679 87.0082 109.693 86.7132C111.692 86.1318 113.895 84.9408 113.986 84.2464C114.396 81.0911 109.735 83.9214 109.118 84.2953C107.649 85.1945 106.093 85.0773 105.31 84.0093C103.545 81.6023 106.71 78.8406 108.632 81.7853C108.756 81.9765 108.949 82.2458 108.949 82.2458C108.949 82.2458 108.809 81.0493 108.416 80.4138C108.042 79.8098 107.374 79.5269 106.666 79.5066ZM191.57 84.0034L196.281 87.4186L196.361 90.8437L191.419 87.5636C191.515 86.3305 191.538 85.1717 191.57 84.0034ZM165.163 85.9707C169.304 86.0393 171.642 92.2078 169.458 94.7742C168.808 95.5377 168.288 95.7426 167.994 95.458C167.931 95.3967 168.036 94.7054 168.079 93.9258C168.213 91.4397 167.688 89.7382 165.883 87.8497C164.53 86.4331 164.018 85.9945 165.163 85.9707ZM115.673 86.5624C115.162 86.5524 114.699 86.7642 114.17 86.9543C113.388 87.2352 112.56 87.8041 111.92 87.6636C111.287 87.5248 110.985 87.8413 110.737 88.3415C109.789 90.2553 110.082 90.8742 111.961 89.7876C112.853 89.2719 113.165 89.4571 115.551 89.911C117.256 90.2353 118.416 90.2034 119.916 89.8111C121.782 89.3233 122.894 89.2852 123.838 89.805C124.782 90.3251 125.427 91.0412 125.451 90.4575C125.346 89.7744 124.755 88.0264 124.619 87.4459C124.554 87.1667 124.089 87.4138 123.65 87.4459C122.104 87.559 120.26 86.1561 119.065 86.8973C118.109 87.4905 117.981 87.6456 116.669 86.8699C116.303 86.6533 115.979 86.5683 115.673 86.5624ZM162.144 86.7015C162.846 86.6814 163.509 86.9277 164.051 87.3834C166.855 89.744 167.574 91.8369 167.302 93.5555C167.163 94.8055 167.069 96.1869 165.854 96.9393C165.63 97.0471 165.297 97.1148 164.987 97.1607C165.929 93.6101 164.817 90.4292 160.853 87.0366C161.285 86.8207 161.722 86.7136 162.144 86.7015ZM100.802 87.3775C101.586 87.3529 101.544 88.6212 101.382 89.2918C101.253 89.8316 100.691 89.3617 100.247 88.3415C99.9168 87.7859 100.263 87.3791 100.802 87.3775ZM159.115 88.1436C159.841 88.0934 160.808 88.4749 161.245 88.7687C163.859 90.538 165.363 95.1629 163.758 97.7917C163.584 98.1143 163.37 98.2996 163.088 98.4736C162.548 98.8149 162.23 99.0892 162.12 98.8498C162.037 98.6684 162.337 97.885 162.368 97.6271C163.51 92.2371 158.338 88.6437 158.234 88.8118C158.33 88.3588 158.679 88.1737 159.115 88.1436ZM98.2121 88.3768C99.2357 88.3555 99.6255 89.301 99.8012 90.054C99.9509 90.6958 99.76 92.6107 99.2166 91.9429C99.0861 91.5371 98.5315 90.2277 98.0865 89.8875C97.0954 89.1299 97.1925 88.398 98.2121 88.3768ZM191.437 88.5845L196.3 92.0996L196.31 95.8617L191.217 92.4112C191.331 91.0948 191.389 89.8342 191.437 88.5845ZM95.3301 89.3271C95.4797 89.3231 95.6718 89.3426 95.9049 89.382C97.5032 89.6517 98.7272 92.2161 98.3553 93.6711C97.5101 95.2361 97.1964 94.1809 96.9172 92.7619C96.699 92.1736 96.0453 91.2512 95.644 90.7751C94.8113 89.787 94.6817 89.3455 95.3301 89.3271ZM156.431 89.3604C160.31 89.2946 162.784 95.6173 160.994 98.7322C160.533 99.2257 159.127 100.235 159.081 99.7668C159.081 99.3799 159.338 98.1594 159.397 97.5624C159.627 95.2552 158.556 92.9123 156.662 91.0808C155.073 89.5437 154.927 89.3859 156.431 89.3604ZM92.1675 90.1089C94.5511 90.0678 96.5878 92.906 95.8362 95.5991C94.9046 98.4077 90.2631 97.808 91.0336 95.0074C91.2551 94.2019 92.1084 93.6136 92.9228 94.1178C94.0993 94.8461 93.9699 93.6607 93.223 93.24C92.0702 92.5907 90.4862 92.9838 90.133 94.2981C88.9019 98.8799 94.7436 100.442 97.9237 95.7088C99.0859 93.9788 100.35 92.127 101.049 91.3374C101.677 90.628 101.81 90.703 101.708 91.6176C101.303 95.8748 98.3592 101.194 92.8365 100.903C87.4693 100.389 85.7912 94.6499 89.8447 91.067C90.602 90.49 91.3415 90.1231 92.1675 90.1089ZM120.609 90.3401C118.645 91.2989 116.865 91.6607 114.931 90.8123C113.502 90.1852 113.525 90.8666 114.146 91.4256C115.942 92.9665 119.206 92.2694 120.605 91.4021C121.058 91.1214 121.208 90.3099 120.605 90.3401L120.609 90.3401ZM153.488 90.3636C154.933 90.4496 157.242 92.3031 157.94 94.1295C158.726 96.1792 158.923 98.2978 157.816 100.615C157.046 101.112 155.847 102.111 155.491 101.969C155.299 101.855 155.501 101.482 155.732 100.598C156.614 97.2908 156.06 94.7099 153.937 92.2779C152.755 90.923 152.31 90.6857 152.929 90.44C153.093 90.3749 153.282 90.3513 153.488 90.3636ZM191.082 93.5496L196.316 97.1451L196.332 100.568L190.9 96.8982C190.814 96.0793 190.899 94.8349 191.082 93.5496ZM191.082 98.2874L196.255 101.722L196.39 105.114L191.364 101.973L191.082 98.2874ZM191.443 103.047L196.385 106.491L196.455 110.195L191.558 106.948L191.443 103.047ZM71.0263 106.919C70.9741 106.66 67.4576 116.992 67.4576 116.992L70.8203 119.367L74.389 117.043L70.7163 112.134C70.7163 112.134 71.0785 107.177 71.0263 106.919ZM191.649 108.169L196.41 111.468L196.482 114.887L191.535 111.439L191.649 108.169ZM191.454 112.356L196.337 115.91L196.434 119.545L190.901 115.828L191.454 112.356ZM82.2993 114.535C82.247 114.276 78.7286 124.608 78.7286 124.608L82.0913 126.985L85.66 124.661L81.9873 119.753C81.9873 119.753 82.3515 114.793 82.2993 114.535ZM59.7259 115.342C59.6736 115.084 56.1572 125.415 56.1572 125.415L59.5179 127.79L63.0885 125.466L59.4159 120.56C59.4159 120.56 59.7781 115.6 59.7259 115.342ZM190.819 116.951L196.549 121.003L196.596 124.861L191.042 121.11L190.819 116.951ZM191.203 122.28L196.483 126.113L196.547 129.493L191.725 126.032L191.203 122.28ZM94.2314 126.661C94.1792 126.403 90.6628 136.735 90.6628 136.735L94.0254 139.111L97.5941 136.788L93.9214 131.879C93.9214 131.879 94.2836 126.92 94.2314 126.661ZM192.043 127.688L196.516 130.778L196.483 134.248L192.078 131.274L192.043 127.688ZM100.29 130.59C100.359 133.041 100.517 158.156 100.478 158.319C97.3939 158.678 96.5331 160.782 96.2541 163.608C93.8478 163.426 92.2824 164.886 92.2342 165.128C91.3458 163.898 92.0078 162.087 91.3062 160.804C89.1743 168.319 93.322 172.815 96.9408 172.396C97.5216 179.612 105.406 180.917 105.138 172.164C114.676 171.6 111.443 162.759 104.99 163.929C105.036 160.115 103.044 159.137 101.396 158.364C101.396 158.364 101.119 134.193 101.155 133.47C101.155 133.576 100.734 130.853 100.686 130.692C100.686 130.694 100.291 130.586 100.292 130.59L100.29 130.59ZM192.035 132.318L196.414 135.449L196.361 136.95L191.994 136.862L192.035 132.318ZM60.1359 133.743C60.0847 133.484 56.5672 143.816 56.5672 143.816L59.9279 146.193L63.4966 143.869L59.824 138.961C59.824 138.961 60.1881 134.001 60.1359 133.743ZM196.461 142.605C186.844 143.057 178.209 143.733 178.535 156.877C177.152 162.456 179.495 167.424 186.206 165.889C187.676 164.565 186.708 162.648 186.528 161.727C185.955 159.191 186.616 157.544 186.801 156.356C187.372 152.682 190.044 149.271 190.334 155.03C190.802 154.307 190.581 154.201 191.354 153.901C193.198 153.231 193.195 155.109 192.818 155.866C192.575 156.256 192.208 156.223 191.833 156.18C191.297 156.115 190.597 155.913 190.585 155.715C190.441 156.313 191.562 157.425 191.445 157.986C191.296 158.519 191.201 158.476 191.69 158.123C194.003 156.456 195.453 160.181 192.106 159.756C193.755 160.643 191.314 163.242 193.018 164.572C198.211 164.97 202.075 161.414 200.42 158.862C202.354 153.666 201.164 148.291 198.378 146.008C197.954 145.501 199.366 145.004 199.908 144.131C198.249 144.574 197.361 143.73 196.461 142.605ZM190.715 144.47C191.603 144.471 191.834 144.642 191.77 145.366C192.116 147.146 192.558 147.972 194.86 147.786C197.18 147.481 197.918 147.334 195.582 148.748C194.403 149.271 194.019 149.374 192.622 149.247C191.213 149.12 191.319 148.976 190.515 149.461C190.065 149.732 189.574 150.062 189.208 150.129C188.666 150.228 187.713 150.439 187.713 150.439C187.171 153.203 186.346 154.594 185.21 155.907C183.602 157.749 182.786 158.071 184.756 157.933C185.485 157.979 185.109 157.611 185.427 160.59C185.539 161.634 185.731 162.843 185.885 163.249C186.397 164.607 186.465 165.283 184.517 165.379C179.655 165.75 178.52 160.98 179.167 158.543C179.455 157.083 179.513 155.641 179.422 154.305C179.533 149.759 180.603 148.56 184.605 145.605C185.813 144.714 187.982 144.531 189.594 144.511C190.05 144.488 190.419 144.47 190.715 144.47ZM193.865 144.756C196.11 144.71 198.279 145.797 197.197 146.502C196.498 146.958 193.972 146.77 193.271 146.267C192.366 145.618 192.706 144.781 193.865 144.756ZM198.721 147.88C200.175 148.173 200.232 149.51 199.863 150.333C199.051 152.144 193.612 153.02 193.612 153.021C193.568 152.244 193.676 151.494 193.11 150.619C193.11 150.619 196.733 149.663 197.499 148.959C198.01 148.489 198.319 147.895 198.721 147.88ZM93.7252 148.712C93.6991 148.583 91.9234 153.645 91.9234 153.645L91.642 159.834L93.5173 161.16L97.086 158.837L93.4153 153.928C93.4153 153.928 93.7775 148.971 93.7252 148.712ZM191.448 150.952C191.894 150.919 192.481 151.323 192.598 151.875C192.682 153.523 190.484 153.153 190.415 152.112C190.365 151.373 191.03 150.983 191.448 150.952ZM199.798 151.998C200.325 152.005 200.605 152.391 200.748 153.174C200.815 153.594 200.659 153.95 200.32 154.408C198.939 155.921 195.057 156.97 193.656 156.585C193.556 156.454 193.795 154.86 193.897 154.152C195.763 154.208 198.907 152.54 199.798 151.998ZM135.097 154.667C136.286 154.706 137.411 155.403 137.921 156.607C138.19 157.44 138.27 158.398 137.972 159.227C137.722 159.918 137.265 160.022 137.265 160.022L134.878 157.965L132.541 160.149C132.541 160.149 131.111 158.696 131.896 156.683C132.657 155.248 133.909 154.628 135.097 154.667ZM199.641 156.276C201.17 156.178 200.379 157.953 198.117 159.154C196.697 159.908 195.521 160.12 195.011 159.848C194.732 159.015 194.968 158.256 195.143 157.918C196.108 157.418 198.76 156.542 199.641 156.276ZM100.917 159.616C102.615 159.575 104.086 160.794 104.141 162.953C104.163 163.833 103.715 164.707 103.715 164.707L100.878 162.599L98.7104 164.928C98.3408 165.059 97.013 163.39 97.9256 161.574C98.5891 160.254 99.7558 159.645 100.917 159.616ZM199.221 159.724C199.633 159.724 199.737 159.882 199.855 160.269C200.19 161.367 199.339 162.474 197.87 162.824C196.512 163.147 196.641 163.306 195.998 162.083C195.494 161.125 195.361 161.166 196.149 160.863C197.102 160.551 198.122 160.187 199.221 159.724ZM140.757 160.406C141.164 160.389 141.572 160.442 141.936 160.608C144.323 161.699 144.738 165.063 142.417 166.359C141.314 166.975 139.578 167.317 138.766 166.071L141.111 163.494L138.419 161.209C138.339 161.13 139.538 160.457 140.757 160.406ZM129.755 160.829C130.738 160.852 131.521 161.209 131.344 161.374C131.344 161.374 129.652 163.108 128.912 163.833L131.46 166.514C131.583 166.839 128.52 168.237 126.908 166.13C125.863 164.761 126.452 162.157 127.937 161.264C128.505 160.922 129.166 160.816 129.755 160.829ZM134.995 161.07C136.499 161.048 137.734 162.258 137.756 163.774C137.778 165.291 136.578 166.541 135.074 166.563C133.57 166.585 132.329 165.371 132.308 163.855C132.285 162.338 133.491 161.092 134.995 161.07ZM194.079 161.278C194.755 161.32 195.349 161.771 195.364 162.509C195.385 163.555 194.195 163.9 193.263 163.312C192.541 162.869 192.496 162.04 192.885 161.668C193.24 161.374 193.674 161.253 194.079 161.278ZM134.986 163.422C134.696 163.422 134.462 163.656 134.462 163.945C134.462 164.234 134.696 164.468 134.986 164.468C135.275 164.468 135.509 164.234 135.509 163.945C135.509 163.656 135.275 163.422 134.986 163.422ZM107.013 164.74C107.394 164.732 107.772 164.792 108.098 164.956C109.818 165.824 110.701 168.944 108.775 170.587C107.242 171.895 104.903 170.808 104.857 170.654L107.26 168.003L104.71 165.532C104.686 165.381 105.87 164.763 107.013 164.74ZM95.8814 165.083C96.5161 165.08 97.1026 165.286 97.7589 165.693L95.3163 168.271L97.959 171.169C97.959 171.169 95.8667 171.513 95.1241 171.373C91.527 170.694 91.879 166.443 94.6611 165.318C95.1013 165.163 95.5006 165.085 95.8814 165.083ZM101.286 165.689C102.739 165.667 103.933 166.836 103.954 168.3C103.976 169.765 102.815 170.968 101.363 170.989C99.9105 171.01 98.7158 169.841 98.6947 168.377C98.6736 166.913 99.8338 165.71 101.286 165.689ZM52.1138 166.218C51.4205 166.245 50.6507 166.36 49.7988 166.568C49.7988 166.568 50.2794 172.031 50.7189 173.897C50.4295 176.026 49.0637 177.473 48.449 179.659C48.1215 180.632 46.8896 181.94 46.6519 180.57C45.7634 178.877 46.6137 176.785 45.8789 175.58C45.3166 174.443 45.6171 173.804 45.3688 172.625C44.678 171.65 44.3498 171.21 44.4644 170.344C44.3187 166.483 43.3632 167.248 41.6628 167.564C35.0668 168.137 35.069 171.965 35.4751 176.826C34.5387 181.383 36.2648 180.305 36.2088 181.125C36.1204 182.425 36.3306 184.246 36.7189 184.446C39.0716 187.164 39.1869 189.049 42.2475 188.582C47.4264 188.99 55.6555 188.215 57.4344 181.85C58.4397 173.716 58.8158 165.949 52.1138 166.218ZM52.0666 167.082C53.0454 167.07 54.1979 167.276 55.1467 168.193C57.1794 170.157 56.7296 171.893 56.367 179.496C56.1526 183.991 52.2967 186.312 47.9858 187.346C46.9326 187.607 46.0167 187.612 45.304 187.606C44.5344 187.6 44.0858 187.242 44.0287 186.591C44.1981 184.831 42.4145 184.66 41.3822 184.759C39.5414 184.833 39.3531 185.029 40.5013 184.132C41.8117 183.109 44.8326 183.094 45.4061 183.694C46.584 182.505 47.8127 182.365 49.316 182.189C49.0933 181.859 48.5534 180.541 48.9099 179.694C49.6886 178.315 50.9996 175.879 52.3747 174.966C53.735 173.173 52.579 173.985 51.735 174.016C51.2529 174.034 51.2952 173.873 51.2171 173.548C50.8812 172.151 50.3971 169.538 50.3931 167.983C50.3931 167.234 51.0876 167.094 52.0666 167.082ZM137.558 167.331C139.543 169.745 137.84 172.621 135.176 172.801C132.969 172.912 131.152 170.531 131.984 168.159C132.439 167.517 132.635 167.609 132.635 167.609L135.148 169.872L137.558 167.331ZM101.259 167.83C100.969 167.83 100.735 168.065 100.735 168.353C100.735 168.642 100.969 168.876 101.259 168.877C101.549 168.877 101.784 168.643 101.785 168.353C101.784 168.064 101.549 167.829 101.259 167.83ZM42.5161 168.751C42.8334 168.722 43.1595 168.808 43.4009 169.016C43.9325 169.492 43.9259 170.157 43.3678 170.652C42.7291 171.218 41.4607 170.906 41.4295 169.841C41.4827 169.169 41.9872 168.799 42.5161 168.751ZM40.1326 168.922C40.3621 168.934 40.5786 168.988 40.7112 169.116C40.5303 169.81 40.7695 170.503 40.7996 170.84C40.3623 171.154 38.4987 171.702 37.4997 172.198C36.8055 172.438 36.303 171.781 36.3991 171.181C36.6621 170.063 38.2941 169.333 39.4793 168.986C39.6621 168.941 39.903 168.91 40.1326 168.922ZM142.372 170.697L138.801 173.023L138.855 173.093L138.801 173.126L142.468 178.025C142.455 178.207 142.164 183.147 142.164 183.147L142.174 183.135L142.164 183.251L144.692 172.316C144.692 172.316 143.351 171.389 142.372 170.697ZM103.742 171.812C105.403 175.543 103.49 177.251 101.455 177.206C99.2093 177.156 96.8147 175.012 98.9084 171.972L101.512 174.112L103.742 171.812ZM41.1212 172.315C41.7929 172.234 41.5952 173.709 41.3429 174.463C41.0925 175.002 40.3523 174.98 39.6871 175.019C38.5117 175.088 37.0313 176.454 36.3952 176.234C36.1845 176.136 36.0329 175.574 36.0105 175.217C36.1485 173.248 39.3943 172.525 41.1212 172.315ZM43.3932 172.392C44.5855 172.34 45.2221 173.55 44.6722 174.367C44.4478 174.697 43.726 174.855 43.1224 174.688C42.1353 174.415 41.9854 172.988 42.8516 172.498C43.0429 172.434 43.2229 172.399 43.3932 172.392ZM41.9178 175.829C42.5578 175.945 42.2413 177.923 42.1336 177.984C41.6073 178.18 39.3361 178.479 38.3805 179.291C36.3448 180.898 35.4777 179.918 36.4206 177.992C37.3134 176.872 40.5944 175.852 41.7765 175.83C41.8277 175.82 41.875 175.82 41.9178 175.829ZM44.3662 175.936C45.2737 175.851 45.9087 176.863 45.355 177.827C44.6032 178.532 43.2858 178.016 43.2911 177.018C43.2911 176.391 43.7995 175.969 44.3662 175.936ZM42.265 179.177C43.1923 179.18 42.2017 180.615 43.0282 181.636C43.1526 182.16 42.971 181.998 42.0178 182.281C41.4926 182.437 40.6666 182.79 39.8068 183.227C38.5456 183.869 38.1927 184.215 37.7448 184.142C37.3891 184.064 36.978 183.908 36.868 183.545C36.4287 182.093 37.6025 180.615 40.3345 179.598C40.9027 179.387 41.9171 179.216 42.265 179.177ZM44.6428 179.451C45.9634 179.432 46.2097 181.2 45.2216 181.511C42.9084 182.114 43.1052 179.45 44.6428 179.451ZM41.1879 185.694C42.0968 185.676 42.7157 185.673 43.0125 185.961C43.3841 186.32 43.4363 186.91 43.0225 187.217C42.2596 187.596 39.3303 187.273 39.3107 186.445C39.2996 185.898 40.2764 185.712 41.1861 185.694L41.1879 185.694ZM176.277 185.892L172.707 188.218L176.379 193.124C176.379 193.124 176.017 198.084 176.069 198.342C176.121 198.6 179.638 188.269 179.638 188.269L176.277 185.892ZM34.0702 191.529C35.5157 193.246 36.2871 194.372 38.7042 195.266C39.2629 220.44 39.1672 278.125 39.1672 278.125L46.2751 282.996L53.7577 277.576C53.6814 259.419 53.6093 246.893 53.538 230.082L64.5029 236.152C64.5029 236.152 64.8381 236.642 64.7874 238.913C64.0298 245.187 70.0488 249.259 74.0416 246.782C75.5822 246.13 75.7067 246.014 76.0329 246.504C76.9307 247.854 77.9432 253.633 78.1125 257.32C78.3674 262.875 79.817 274.2 80.1666 274.276L62.3193 304.608L34.0702 304.608L34.0702 191.529ZM142.337 192.983L138.768 195.309L142.439 200.215C142.439 200.215 142.077 205.175 142.129 205.433C142.181 205.691 145.697 195.36 145.697 195.36L142.337 192.983ZM52.2706 194.323L52.8984 276.857C52.8984 276.857 49.4269 279.37 48.3174 280.092C47.7344 280.312 47.4513 280.352 47.3129 279.79C47.1429 279.099 47.4163 277.794 47.6582 275.632C47.8818 273.634 47.88 273.521 47.5503 270.673C47.2059 267.698 47.1653 267.573 47.4445 263.647C47.7558 259.267 47.8162 255.013 47.4716 252.38C47.1446 249.877 47.1483 244.169 47.3992 240.982C47.7059 237.081 47.6058 233.657 47.0991 230.827C46.1954 225.78 46.0477 224.043 46.9892 220.246C47.3415 218.825 47.5154 218.07 47.4424 215.69C47.361 213.045 47.3127 212.18 46.3732 206.323C45.8328 202.95 45.79 202.489 46.2968 197.153C46.399 196.076 46.4332 195.355 46.8402 195.013C47.3156 194.614 52.2706 194.323 52.2706 194.323ZM45.2686 195.301C44.8522 197.004 44.7599 198.299 44.7174 199.531L39.9245 196.357L39.8732 195.36L45.2686 195.301ZM39.952 197.537L44.6977 200.658C44.7078 201.975 44.6044 203.233 44.7942 204.549L39.9857 201.332L39.952 197.537ZM39.962 202.49L45.0394 205.99C45.2373 207.352 45.6517 208.73 45.8105 209.955L40.0542 206.029L39.962 202.49ZM204.15 203.869L204.415 304.608L153.875 304.608L137.856 273.591C137.856 273.591 138.019 270.736 138.415 269.28C138.894 267.52 139.022 267.135 139.694 267.052C141.492 267.991 143.495 266.743 144.108 265.369C144.864 263.677 143.335 261.117 140.987 260.563C139.952 260.314 138.821 260.783 137.677 261.662C137.013 262.221 136.866 262.283 136.734 261.797C136.435 260.702 137.399 257.726 139.123 255.17C140.082 253.749 140.343 253.341 140.653 253.881C141.909 256.067 144.6 255.616 145.621 254.381C146.857 252.886 146.6 249.478 143.8 248.575C138.322 246.808 135.808 252.349 135.876 252.335L134.703 245.691C141.297 244.062 145.104 243.488 147.198 241.472C148.846 239.886 149.632 237.143 149.429 234.704C149.429 234.704 167.746 227.202 176.318 222.544C191.079 214.525 204.15 203.869 204.15 203.869ZM177.072 204.638L173.503 206.963L177.176 211.87C177.176 211.87 176.814 216.829 176.866 217.088C176.918 217.346 180.435 207.014 180.435 207.014L177.072 204.638ZM154.018 205.623L150.449 207.949L154.12 212.855C154.12 212.855 153.758 217.815 153.81 218.073C153.862 218.331 157.379 208 157.379 208L154.018 205.623ZM40.1995 207.51L46.0183 211.552C46.1455 212.865 46.3126 214.034 46.1381 215.522L40.013 211.439L40.1995 207.51ZM40.0975 212.673L46.1165 216.692C46.1396 217.933 46.1979 219.103 45.7693 219.98L40.0896 216.306L40.0975 212.673ZM165.318 213.008L161.75 215.332L165.422 220.24C165.422 220.24 165.06 225.2 165.112 225.458C165.165 225.716 168.681 215.385 168.681 215.385L165.318 213.008ZM40.1091 217.354L45.3277 221.218C45.4031 221.273 45.0369 222.981 45.1199 223.947L40.1543 220.863L40.1091 217.354ZM40.2504 222.133L45.116 225.503C45.127 226.781 45.2144 227.982 45.4142 229.069L40.1308 225.613L40.2504 222.133ZM40.166 227.002L45.7927 231.038L46.0888 234.283L40.1288 230.505L40.166 227.002ZM84.7948 228.142C85.3327 228.093 85.901 228.158 86.4841 228.354C91.8838 230.383 96.9453 240.733 96.7898 254.134C96.6819 263.437 99.4705 276.717 99.4186 276.563C99.4186 276.563 97.8528 276.774 97.4096 276.424C95.3759 269.593 94.6976 262.376 94.3767 256.422C94.1132 251.458 93.8315 246.585 93.5194 245.448C92.632 241.444 91.6691 236.774 89.1306 233.731C87.1526 231.436 84.8988 231.036 83.5511 233.613C82.4472 235.724 84.7703 239.216 86.6999 238.055C87.1662 237.791 87.4446 237.343 86.8332 237.356C84.8303 237.655 83.4862 234.862 84.7537 233.531C86.9858 231.187 90.8911 236.409 89.0796 239.284C88.2818 240.527 86.1943 240.747 84.5241 240.289C80.81 238.479 79.8792 234.047 81.1222 231.127C81.8333 229.456 83.1814 228.29 84.7948 228.142ZM79.951 229.684C80.3778 229.581 80.0915 230.521 79.6862 231.793C78.7307 234.842 80.5222 239.578 83.0036 240.522C83.7482 241.033 83.7086 241.228 83.2117 241.509C81.5916 242.427 78.6515 239.675 77.8753 236.609C77.3138 234.391 77.4513 231.773 78.509 230.662C78.8877 230.145 79.4325 229.81 79.951 229.684ZM76.3627 231.432C76.8083 231.418 76.6417 232.171 76.5177 233.544C76.2304 236.726 77.2101 239.038 79.439 240.959C80.3792 241.769 80.6363 242.023 80.2316 242.448C79.6571 243.051 78.0095 242.244 76.7178 240.886C74.3529 238.401 73.5703 233.71 75.4132 232.01C75.8176 231.637 76.1293 231.44 76.3627 231.432ZM40.1072 231.483L46.1164 235.441C46.3959 236.676 46.2727 237.993 46.0853 239.323L40.0703 235.098L40.1072 231.483ZM143.19 231.985C145.757 231.884 147.923 232.888 148.162 236.051C148.511 240.681 144.232 243.212 141.246 240.553C138.57 237.884 141.283 233.707 144.385 235.665C145.945 236.656 144.083 238.916 142.821 237.747C142.252 237.22 142.001 237.548 142.406 238.157C143.627 239.994 146.032 238.466 145.86 236.848C145.522 233.666 141.643 233.707 140.183 234.953C138.184 236.658 136.422 239.168 135.109 240.998C134.034 242.585 133.803 242.544 133.961 240.583C134.381 235.4 139.185 232.142 143.19 231.985ZM73.2747 232.996C73.6837 232.981 73.5202 233.573 73.5514 235.096C73.7163 239.008 75.3532 241.444 77.428 242.807C78.1232 243.581 77.2317 244.129 75.9233 243.755C72.9424 242.829 69.9007 236.373 72.4272 233.597C72.7814 233.208 73.0606 233.004 73.2747 232.996ZM70.3751 234.279C70.7881 234.253 70.5558 235.118 70.5948 236.75C70.6772 240.185 71.73 241.833 74.2635 243.929C75.0891 244.612 75.1919 244.536 74.8658 244.915C73.9981 245.922 71.0595 244.495 69.8061 242.438C68.3146 239.99 68.0946 236.298 69.4824 234.902C69.8704 234.512 70.1588 234.293 70.3751 234.279ZM67.4929 235.933C67.835 235.935 67.6445 236.556 67.6971 238.039C67.8249 241.636 68.639 243.416 70.9028 245.079C72.3253 246.125 72.6718 245.81 72.2369 246.224C71.4751 246.948 69.3899 246.327 67.8266 244.997C65.4832 243.003 64.8271 238.084 66.7319 236.399C67.0715 236.099 67.3137 235.932 67.4929 235.933ZM40.2092 236.442L45.983 240.475L45.8202 243.882L40.0758 239.963L40.2092 236.442ZM138.646 238.037C138.776 238.062 138.923 238.208 139.074 238.525C139.42 239.868 140.309 241.73 141.524 242.091C142.014 242.237 141.605 242.921 141.156 242.828C138.805 242.343 137.915 240.633 138.201 238.696C138.26 238.291 138.43 237.996 138.646 238.037ZM90.6099 238.807C93.2605 245.533 93.2132 252.884 93.6528 259.828C94.237 269.058 95.8564 275.274 96.3857 276.322C96.3857 276.322 93.7976 276.353 93.6665 275.975C93.6665 275.975 91.2249 263.733 91.5928 257.68C91.6189 250.906 90.3107 244.951 89.5112 242.276C88.6665 239.905 88.6296 241.471 90.6099 238.807ZM118.508 240.001C117.314 240.022 114.856 240.678 114.865 241.121C114.865 241.325 115.668 241.495 116.921 241.19C118.311 240.851 119.696 240.912 120.764 241.208C121.9 241.522 122.027 241.154 120.999 240.702C120.498 240.482 119.701 239.979 118.508 240.001ZM136.761 240.416C136.932 240.403 137.142 240.568 137.361 240.98C137.497 241.232 137.92 241.795 138.297 242.236C139.012 243.072 139.213 243.078 138.888 243.42C138.139 244.206 136.567 243.067 136.398 241.613C136.307 240.95 136.477 240.437 136.761 240.416ZM87.6297 241.266C90.2234 244.993 90.6057 253.733 90.6588 259.945C90.707 265.54 92.585 275.79 92.7365 275.746C92.2021 276.063 91.4827 275.951 90.8079 275.689C90.141 274.813 89.7324 272.359 88.9579 265.71C88.758 263.995 88.3654 258.537 88.2771 254.144C88.1987 250.267 86.0523 241.878 86.0523 241.878C86.0523 241.878 86.8862 241.282 87.6297 241.266ZM111.298 241.431C111.036 241.447 111.123 242.342 111.322 243.42C111.387 245.895 111.703 244.888 112.57 244.494C113.223 244.438 113.755 244.797 114.969 245.246C116.514 245.818 116.376 246.008 117.463 245.471C118.133 245.14 118.666 245.027 118.987 245.289C120.257 246.329 121.894 245.744 122.816 244.901C123.536 244.522 124.322 244.729 124.931 244.786C125.81 244.867 125.582 244.302 125.691 243.183C125.787 242.189 125.41 242.101 124.39 242.436C123.346 242.779 122.312 242.829 121.406 242.55C119.09 241.837 117.394 242.299 116.246 242.481C113.535 242.911 113.39 242.636 112.776 242.244C112.317 241.952 111.559 241.415 111.298 241.431ZM40.1757 241.435L45.7298 245.093C45.6515 246.346 45.6394 247.599 45.6555 248.851L40.2113 244.968L40.1757 241.435ZM84.7418 242.197C87.1062 247.515 87.49 252.795 87.5963 259.203C87.697 265.264 89.0334 272.364 89.5386 275.497C88.7404 275.581 87.8977 275.648 87.563 275.285C86.2152 270.856 85.811 263.481 85.4363 258.176C84.9739 250.705 84.8549 248.855 83.804 245.13C83.208 243.018 82.9972 243.062 83.447 242.656C83.789 242.347 84.4437 242.191 84.7418 242.197ZM135.551 242.27C135.71 242.335 135.844 242.621 136.114 242.975C136.714 243.763 136.889 244.136 136.386 244.209C135.055 244.404 134.723 244.262 134.77 243.428C134.807 242.762 134.953 242.503 135.378 242.283C135.442 242.25 135.498 242.248 135.551 242.27ZM81.954 243.457C83.9088 245.442 84.4057 256.58 84.628 258.977C85.3327 271.969 86.5554 273.836 85.9268 274.811C85.1869 274.799 84.9286 275.073 84.4455 274.421C82.7725 269.662 82.8701 264.773 82.5994 259.808C82.217 253.233 81.5691 249.67 80.6513 246.412C80.0418 244.245 80.0489 244.209 81.1496 243.614C81.3449 243.508 81.7782 243.451 81.954 243.457ZM78.554 244.85C78.7859 244.844 79.043 244.893 79.3211 245.023C80.0094 246.601 81.3935 253.775 81.5812 259.967C81.7303 264.884 82.8938 274.496 83.1095 274.549C82.3983 274.614 81.5461 274.467 81.2006 273.924C79.0683 264.447 79.7478 255.26 77.2827 245.73C77.3928 245.384 77.8584 244.868 78.554 244.85ZM128.76 245.132C127.892 245.071 126.922 245.27 125.871 245.744C122.619 247.016 121.777 248.061 122.288 248.979C122.719 249.751 124.013 249.48 127.477 248.022C130.067 246.933 130.879 247.409 131.405 249.053C131.379 251.481 129.052 251.724 127.725 251.428C127.513 251.381 127.269 251.275 127.269 251.275C127.269 251.275 127.389 251.831 127.846 252.219C130.453 254.431 133.815 250.195 132.176 247.566C131.374 246.065 130.208 245.235 128.76 245.132ZM107.947 245.914C107.085 245.884 106.27 246.087 105.457 246.729C102.774 248.852 103.732 252.676 105.965 253.25C106.587 253.568 107.513 253.418 107.876 253.176C108.211 252.952 108.209 252.587 107.523 252.472C105.45 252.125 104.273 250.592 105.275 249.037C106.247 247.529 108.048 247.819 111.512 249.324C114.506 250.624 115.818 250.223 116.171 248.661C116.327 247.972 116.138 247.326 114.702 247.272C111.955 247.169 109.842 245.98 107.947 245.914ZM40.2562 246.192L46.0162 250.356L46.1379 253.908L40.2601 249.704L40.2562 246.192ZM142.166 249.365C143.995 249.454 145.157 250.609 145.209 251.916C145.325 254.855 141.845 254.885 141.369 252.584C141.191 251.483 139.417 252.613 138.24 254.563C137.083 256.482 136.963 256.755 136.728 254.763C136.377 251.792 139.436 249.468 141.344 249.394C141.631 249.361 141.905 249.352 142.166 249.365ZM40.1286 250.828L46.2281 255.051C46.2281 255.051 46.4342 257.315 46.3024 258.531L40.1776 254.581L40.1286 250.828ZM120.164 251.849C119.979 251.862 119.782 251.915 119.577 252.018C119.134 252.239 118.802 252.449 117.86 252.214C116.431 251.912 114.715 251.589 113.373 252.247C110.721 254.061 112.279 257.371 114.135 257.743C116.091 258.136 116.228 256.76 114.284 256.354C113.244 255.942 112.978 254.944 113.383 254.173C114.311 252.643 116.027 253.633 117.025 254.11C119.238 255.172 120.385 255.562 121.084 254.827C122.171 253.686 121.458 251.762 120.164 251.849ZM40.1796 255.85L46.181 259.99L45.9966 263.653L40.3641 259.485L40.1796 255.85ZM40.3032 260.882L45.9476 264.936C45.8642 266.483 45.9024 267.101 45.9636 268.087L40.2565 264.372L40.3032 260.882ZM140.108 261.662C144.634 262.108 143.135 267.35 139.975 265.935C139.132 265.296 138.878 265.347 137.942 267.646C136.744 270.586 136.451 270.347 136.616 266.95C136.736 263.624 138.252 261.688 140.108 261.662ZM129.777 262.236C131.017 262.287 132.279 263.403 133.277 265.786L131.907 265.869C130.679 262.892 128.941 262.447 127.468 265.387L126.406 265.079C127.319 263.2 128.537 262.185 129.777 262.236ZM126.434 262.391C127.134 262.348 127.043 262.673 126.314 263.678C125.68 264.551 125.527 264.69 124.89 264.213C123.845 263.431 125.581 262.449 126.434 262.391ZM107.674 262.404C108.817 262.37 109.911 263.139 110.49 265.159L109.681 265.277C108.46 262.534 105.921 263.161 105.137 265.708L104.021 265.581C104.655 263.824 106.205 262.449 107.674 262.404ZM104.451 262.461C104.558 262.464 104.644 262.481 104.698 262.524C105.004 262.87 104.085 264.237 103.307 265.04C102.733 265.419 101.34 264.395 101.679 263.896C102.074 263.409 103.721 262.536 104.451 262.461ZM132.92 262.479C133.054 262.487 133.21 262.499 133.387 262.544C134.798 262.895 135.444 263.57 134.752 264.434C134.321 264.973 133.902 265.185 133.618 264.824C132.666 263.242 132.138 262.432 132.92 262.479ZM110.715 263.01C111.073 262.967 111.527 263.172 111.604 263.415C111.752 264.004 111.289 264.423 110.774 263.933C110.564 263.733 110.381 263.394 110.407 263.143C110.487 263.067 110.596 263.024 110.715 263.01ZM40.2464 265.44L46.0496 269.64C46.2401 271.12 46.2783 272.243 46.2693 273.254L40.2954 269.264L40.2464 265.44ZM123.083 265.851C123.424 265.849 124.225 266.289 124.831 266.711C128.173 269.02 132.092 268.99 134.544 266.962C135.092 266.509 135.569 266.489 135.578 266.925C135.229 268.543 130.967 270.619 127.638 269.443C125.809 268.796 124.306 268.155 123.106 266.433C122.839 266.012 122.879 265.852 123.083 265.851ZM123.232 267.82C123.281 267.814 123.344 267.819 123.416 267.838C128.302 272.086 132.185 270.905 135.129 268.763C135.563 268.653 135.569 269.048 135.666 269.782C135.79 270.721 135.017 271.184 132.9 271.823C128.808 273.058 124.008 271.707 123.144 268.941C123.055 268.465 122.883 267.864 123.232 267.82ZM40.2248 270.381L46.1084 274.449L45.9201 277.558L40.1895 273.653L40.2248 270.381ZM40.3192 275.144L45.8733 278.94L45.8552 281.512L40.4522 277.633L40.3192 275.144ZM137.623 276.263L152.221 305.125L64.2424 305.245C69.9878 295.864 74.768 285.607 80.6574 276.351C104.351 281.755 121.144 279.191 137.623 276.263Z" fill="#004C97"/>
<path d="M82.8656 26.7209C85.4013 31.1126 87.4008 35.6495 89.6826 40.1419L90.0481 40.3783L90.5947 41.4176L90.6555 41.923L92.0086 44.1046L91.9999 44.573L97.7397 55.3354C102.474 53.5539 141.361 50.3462 155.76 55.5938L157.857 52.0108L158.359 52.0073L162.057 45.4674L161.998 44.9172L163.242 43.4868L163.423 42.8353L167.504 36.3978L167.518 35.36L172.623 26.783L82.8656 26.7209ZM170.916 27.9558C170.916 27.9558 168.254 33.1147 166.882 35.1999C165.772 34.3173 162.554 34.9165 162.746 38.3362C157.5 36.3329 156.234 42.6411 160.291 44.0612C158.209 45.8932 156.22 43.8212 154.642 42.4161C153.098 42.8016 149.893 43.9449 148.078 40.5802C148.078 40.5802 148.837 40.9931 149.594 41.4415C153.885 42.7566 154.231 36.9202 151.039 35.9646C150.637 35.8581 149.881 35.8148 149.881 35.8148C150.954 31.3265 144.066 29.7596 143.935 35.1534C143.935 35.1534 143.116 35.0185 142.495 35.1327C138.844 35.8036 139.68 41.2312 143.413 40.9714C143.927 40.9355 144.386 41.0282 144.386 41.0282C144.326 41.8974 139.809 43.5584 136.555 40.5683C135.012 41.7531 132.569 43.2382 129.384 40.2842C131.479 40.1983 133.487 39.5975 133.464 37.2047C133.449 35.6467 132.059 34.256 130.056 34.182C129.942 32.4413 128.656 30.7804 126.986 30.653C124.947 30.7729 123.904 32.431 123.89 34.182C122.156 34.3625 120.534 35.9028 120.907 37.6697C121.415 40.0801 123.258 40.3766 125.361 39.9173C122.803 44.0621 118.638 41.9001 117.355 40.5787C115.826 42.0165 113.16 43.9635 109.877 41.302C111.627 41.0002 113.573 39.9656 113.244 37.5043C112.985 35.5647 110.826 34.9888 109.887 35.0914C109.885 33.8098 108.925 31.6953 106.658 31.9137C104.185 32.1521 104.333 35.3042 104.362 35.3291C102.319 35.1593 100.837 37.5809 101.42 39.1268C102.129 41.008 103.613 41.5929 106.34 41.085C103.158 44.095 101.137 42.9267 99.4003 42.2941C97.863 43.9181 95.8104 44.4419 93.706 43.002C98.4132 43.2281 97.6644 34.8398 92.0812 37.8815C88.1105 33.1725 88.1824 35.265 84.6237 28.3382L170.916 27.9558ZM127.047 36.2229C127.275 36.2134 127.517 36.261 127.754 36.3831C128.491 36.7607 128.629 37.4197 128.18 38.3931C128.022 38.735 127.794 39.1271 127.831 39.4884C133.015 49.1245 144.444 44.818 145.519 40.341C145.587 40.0571 145.457 39.7463 145.309 39.4419C144.87 38.7054 144.928 38.1022 145.499 37.5973C146.715 36.5219 148.46 37.7912 147.754 39.2404C147.567 39.6228 147.371 40.0416 147.513 40.5528C150.447 47.2684 156.29 47.773 161.193 45.1152C158.934 49.1914 150.18 51.6906 146.503 41.8756C140.636 49.8716 131.324 49.7207 127.098 40.6923C123.297 49.927 111.831 50.1455 107.657 42.4749C103.859 51.2501 95.0482 49.2592 92.5527 43.7667C100.737 49.7369 106.13 43.5045 107.099 40.8473C107.099 40.8473 106.909 40.5371 106.648 40.279C105.601 39.243 105.629 38.0242 106.714 37.5405C108.104 36.9209 109.406 38.2661 108.693 39.5866C108.493 39.9565 108.316 40.0376 108.447 40.3565C110.994 46.3403 123.537 48.0788 126.078 39.6848C126.164 39.2052 126.115 38.762 125.899 38.3982C125.303 37.3957 126.061 36.2643 127.047 36.2229ZM90.4308 39.6124C92.4093 39.7257 91.8574 41.4405 91.461 41.5707L90.4308 39.6124ZM163.899 40.682C163.912 40.7142 162.679 42.9038 162.679 42.9038C162.026 41.8526 162.196 40.5438 163.899 40.682ZM157.21 51.7444C157.21 51.7444 155.947 54.5614 155.529 54.7981C132.094 48.7465 99.3947 54.0084 98.5905 54.5914L97.1503 51.8581C117.699 47.7198 138.186 48.6037 157.21 51.7444ZM117.621 93.6069C115.359 102.404 109.881 103.3 103.265 104.37C95.0703 105.695 89.73 102.685 87.2325 98.0866C87.2325 98.0866 75.5127 102.551 71.236 105.145C80.1281 109.251 91.8763 118.345 98.5546 128.67C100.934 131.818 100.814 131.106 100.81 138.012C100.8 152.987 100.835 158.555 100.835 158.555C104.504 159.109 104.705 161.653 104.505 164.509C107.45 163.198 110.283 164.802 110.271 167.604C110.248 172.752 105.229 171.354 104.187 170.786C105.819 175.324 103.903 177.203 101.948 177.426C99.5366 177.701 96.7709 176.533 97.5771 171.338C91.6036 172.773 91.3063 167.078 91.0305 162.074C97.5318 149.743 89.3704 139.717 81.7073 136.42C81.7073 136.42 83.8753 131.902 86.679 130.633C86.9642 130.546 84.9789 127.612 81.6407 128.251C80.1043 128.283 80.4618 128.273 79.0164 126.381C76.1594 122.641 74.8142 122.385 72.0304 126.386C70.8051 128.147 70.5121 128.195 69.0628 128.225C67.466 128.259 65.0158 129.414 64.4909 130.447C64.3707 130.683 64.9968 130.925 65.8286 131.904C67.0255 133.314 68.8723 135.25 68.581 137.221C62.2703 139.809 51.8021 151.166 62.8097 165.706L54.8499 165.81L54.4706 114.047L48.9351 117.153L49.1812 157.698L47.6025 157.171C47.7238 144.238 47.5303 131.314 47.1259 118.388L32.5286 129.109L33.1795 189.903L34.7325 190.234C35.8845 198.517 52.162 192.724 53.1124 193.442L53.3072 227.224L52.5947 228.898L65.5467 236.033L77.4275 229.823C77.4275 229.823 79.0311 229.532 79.6315 229.213C84.5579 226.596 88.2292 227.183 90.9075 231.022C92.5598 233.389 92.8398 233.739 92.8398 233.739C93.8412 226.908 99.8506 224.39 105.679 226.175C109.966 227.488 115.824 231.794 117.616 237.051C117.616 237.051 117.939 237.842 118.257 238.198L118.503 238.307C118.488 238.17 118.22 237.515 118.118 237.196C112.107 223.278 95.166 221.144 92.5527 232.515L90.154 229.125L102.768 221.328L120.005 232.763C120.005 232.763 119.194 236.782 119.103 238.519L119.4 238.658C119.519 236.555 120.143 234.152 121.132 232.37C121.54 231.636 122.013 231.038 122.542 230.593C123.571 229.99 124.526 230.052 125.571 229.063L123.054 227.167L122.998 221.08L128.057 228.221C129.647 227.85 135.843 225.987 139.517 228.051C139.932 228.18 145.321 226.631 148.676 234.209C154.603 231.696 161.214 229.058 165.872 226.707C149.763 220.715 133.498 199.498 135.063 199.157C135.063 199.157 135.016 196.98 135.14 191.639C135.271 185.686 135.2 179.608 135.299 173.635C129.817 171.871 131.18 167.417 131.18 167.417C127.884 168.145 127.359 167.5 126.524 166.915L125.955 161.278C127.932 159.583 129.117 159.425 131.563 159.966C131.563 159.966 130.377 157.517 131.455 155.502C132.363 153.908 134.779 152.902 136.709 154.024C139.135 155.626 138.731 158.812 138.102 159.741C138.086 159.76 138.065 159.8 138.059 159.824C140.645 158.678 143.816 159.971 144.591 162.544C144.98 154.904 145.638 146.35 147.159 139.686C149.964 127.657 154.555 115.061 160.306 105.155C161.827 102.565 163.355 100.604 164.745 98.0195C164.745 98.0195 163.515 98.7023 162.213 99.0683C160.341 99.5801 158.931 100.067 158.717 100.283C157.348 101.445 155.551 102.306 154.084 102.949C148.91 104.979 145.431 101.951 143.283 97.3282C142.087 103.2 136.75 108.168 128.877 105.081C124.43 102.701 123.031 101.179 118.872 94.971C118.523 94.3363 117.621 93.6069 117.621 93.6069ZM117.793 94.5665C120.736 100.433 125.142 104.589 129.426 106.25C137.073 108.778 142.118 103.842 143.54 99.3076L145.016 101.827L133.437 110.114L115.965 98.9169C116.257 98.647 117.82 94.7018 117.793 94.5665ZM170.372 94.971L165.186 98.0505C165.186 98.0505 161.74 103.654 160.583 105.765C154.532 116.538 149.989 128.259 147.621 139.887C145.502 149.517 144.723 161.434 144.95 169.545L145.355 169.99C145.355 169.99 144.719 171.114 144.263 172.062C143.025 174.637 142.722 176.093 142.798 179.078C142.97 185.948 147.113 192.524 152.966 195.204C153.296 195.355 153.735 195.551 153.735 195.551C153.735 195.551 152.732 198.285 150.911 200.211C149.696 201.496 149.436 201.558 149.866 202.19C150.463 203.069 152.391 203.832 154.786 203.797C155.634 203.784 155.628 203.782 157.195 205.502C160.253 208.86 161.173 208.791 163.955 204.985C164.783 203.854 165.253 203.583 166.462 203.554C168.239 203.511 171.484 202.065 171.469 201.389C169.281 200.412 166.745 195.376 167.149 195.323C179.116 188.94 181.652 175.709 172.911 165.98L181.259 165.846L181.566 218.626C183.201 217.532 186.897 215.18 186.897 215.18L186.775 174.108C187.349 174.218 187.934 174.633 189.05 174.816L189.378 213.924C189.378 213.924 200.103 206.303 205.205 202.324L204.892 142.476L203.673 142.476L203.867 202.293L189.695 212.725L189.603 175.549C189.603 175.549 190.723 175.381 191.141 175.322C195.289 174.737 197.21 169.405 194.457 165.923C193.48 164.687 194.173 164.775 196.251 164.373C199.936 164.046 201.976 161.238 200.905 159.237C200.445 158.379 201.043 158.472 201.433 157.656C201.688 157.015 201.64 156.219 201.53 155.589C201.386 154.763 201.722 154.397 201.93 153.869C202.255 153.042 201.94 152.108 201.397 151.332C200.824 150.513 200.982 149.633 200.977 149.089C200.952 147.874 200.516 147.7 199.239 146.527C198.273 145.639 199.048 145.445 200.469 144.708C202.704 143.548 202.858 139.444 199.885 137.696C196.16 136.165 190.343 137.832 183.97 138.466C183.97 138.466 183.949 115.067 183.786 103.006L170.372 94.971ZM170.372 95.7977C170.372 95.7977 183.097 103.302 182.996 103.512C178.723 109.412 162.784 132.922 162.669 161.351C150.981 159.872 146.195 169.084 145.627 169.049C144.091 134.252 158.1 109.356 165.278 98.7893L170.372 95.7977ZM162.001 99.6232L162.023 101.542L159.469 105.627L159.371 101.322L162.001 99.6232ZM158.451 101.698L158.543 107.816L153.376 111.795L153.231 105.413L158.451 101.698ZM110.564 103.099L113.219 104.948L113.126 111.019L109.128 103.688L110.564 103.099ZM183.242 105.145L183.263 109.537C173.077 124.021 167.732 140.564 166.098 161.516L163.617 161.433C164.274 140.599 171.231 121.591 183.242 105.145ZM114.254 105.594L120.538 109.733L120.266 116.657L114.561 112.967L114.028 111.552L114.254 105.594ZM152.295 105.889L152.269 112.327L147.416 115.959L147.19 109.568L152.295 105.889ZM93.4651 107.573C94.1851 107.582 94.7602 108.11 94.8951 109.113C95.428 113.392 98.6577 112.157 99.426 113.443C99.7165 113.882 99.0278 114.263 96.8171 114.083C92.7639 113.778 89.8095 110.473 91.8813 108.296C92.4138 107.803 92.9724 107.567 93.4651 107.573ZM121.476 110.332L126.842 113.779L126.827 120.888L121.568 117.654L121.476 110.332ZM145.96 110.353L146.375 116.641L140.501 120.578L140.291 114.331L145.96 110.353ZM157.139 110.379L153.766 117.618L134.089 131.889L117.76 121.229L114.731 114.244L133.782 126.773L157.139 110.379ZM104.075 113.252C109.304 113.187 113.316 118.782 114.69 123.684C115.688 126.925 115.84 128.091 115.945 133.237C116.053 138.479 116.216 139.384 117.191 140.125C117.791 140.581 117.966 140.458 118.042 139.531C118.211 137.471 120.654 138.74 120.697 140.91C120.744 143.32 118.112 144.095 116.166 142.243C115.129 141.257 115.116 141.267 114.792 143.204C114.576 144.502 113.076 152.627 116.909 154.649C117.631 154.718 117.803 154.134 117.268 153.456C116.192 152.093 118.34 150.522 120.092 151.389C122.208 152.437 121.994 155.876 119.733 157.098C117.147 158.497 113.802 156.907 112.24 153.538C111.093 151.065 111.098 147.636 112.26 142.543C112.796 140.196 113.031 138.701 113.152 136.901C113.192 136.31 113.261 135.666 113.306 135.469C113.43 134.921 113.162 134.895 112.234 135.366C109.704 136.652 106.943 135.738 106.263 133.387C105.45 130.576 108.558 127.672 110.476 129.45C111.205 130.125 111.116 130.795 110.246 131.227C108.737 131.977 109.252 133.948 110.856 133.558C116.142 131.963 111.309 117.01 105.356 115.975C101.42 115.29 98.3307 119.809 101.179 122.227C102.295 123.174 103.427 122.665 103.183 121.328C102.843 119.461 105.302 119.663 106.212 121.576C107.692 124.688 103.871 127.221 100.302 125.497C93.8977 121.663 98.276 113.369 104.075 113.252ZM127.78 114.44L133.054 118.01L133.1 124.95L127.862 121.818L127.78 114.44ZM139.399 115.039L139.425 121.41L134.335 125.141L134.335 118.362L139.399 115.039ZM153.11 119.214L150.506 126.525L134.079 137.851L120.527 129.285L118.195 122.521L134.161 132.948L153.11 119.214ZM46.4954 119.746L46.4903 156.757C41.1675 156.986 38.1117 162.293 42.0978 167.308C42.0978 167.308 41.4032 167.402 40.5909 167.515C36.9901 168.013 34.578 169.937 35.0555 172.268C35.2017 172.983 35.0537 173.704 34.8504 174.061C34.5299 175.02 34.6147 175.751 35.0452 176.578C35.3832 177.226 35.327 177.487 35.1375 177.967C34.729 179.002 34.8267 179.799 35.3066 180.587C35.8996 181.172 35.7349 181.644 35.6551 182.582C35.5601 183.905 35.7961 184.438 36.6238 184.953C37.6908 185.617 38.0885 186.706 36.875 186.617C36.2727 186.572 34.1534 188.632 34.1534 188.632L33.9534 129.238L46.4954 119.746ZM75.3568 124.495C76.3094 124.492 77.2903 125.699 78.6986 127.735C79.55 129.193 79.5648 128.995 81.5125 128.918C83.5019 129.064 84.7135 129.593 85.2336 130.199C85.4301 130.428 84.9084 130.488 83.6498 131.775C82.3451 133.11 82.164 133.64 81.2972 135.134C80.9851 135.672 80.304 135.723 79.9851 135.232C79.7275 134.834 80.3874 133.542 81.6253 132.018C83.3716 130.319 83.0047 130.148 80.4669 130.416C78.6842 130.605 78.4938 130.515 77.8171 129.424C75.7988 125.379 74.7266 125.516 72.7941 129.548C72.267 130.677 72.4765 130.604 70.1904 130.426C68.3901 130.287 67.9448 130.745 68.9603 131.698C70.5463 133.01 71.1642 136.106 71.0771 136.069L69.8521 136.182C69.8521 136.182 69.4778 135.485 69.3139 135.046C68.9819 134.156 68.0892 132.82 67.1202 131.765C65.7478 130.27 66.5017 129.453 69.5651 129.119C71.2723 128.934 71.3113 128.91 72.0971 127.75C73.4809 125.707 74.4043 124.497 75.3568 124.495ZM149.871 128.179L148.102 134.493L134.089 144.398L122.69 136.73L121.178 130.793L134.274 139.153L149.871 128.179ZM101.558 133.18C101.558 133.18 105.609 141.135 107.078 146.289C108.357 150.773 110.134 163.755 109.667 164.554C108.671 163.177 105.38 163.487 105.336 163.5C105.614 161.979 104.395 158.914 101.589 158.307L101.558 133.18ZM147.662 136.089L146.262 142.305L134.33 151.001L124.484 144.222L123.193 138.213L134.089 145.55L147.662 136.089ZM78.2937 136.436L79.8416 136.978L80.1338 148.206L92.0709 150.205L92.3426 152.128L78.5193 149.88C78.3743 145.092 78.2937 136.436 78.2937 136.436ZM72.2354 136.771L72.5686 149.828C72.4395 149.785 62.6174 151.196 58.858 152.19L59.0784 150.402C59.0784 150.402 65.9061 148.905 70.8516 148.33C70.8516 144.679 70.8231 140.839 70.8157 137.118L72.2354 136.771ZM183.294 139.174C183.294 139.174 184.918 139.326 188.394 138.709C197.353 137.129 199.78 137.769 200.925 140.554C202.177 144.871 197.481 144.976 196.644 142.235C196.112 140.459 194.188 140.848 187.763 142.383C182.269 143.696 178.787 142.645 178.854 139.507C178.923 136.281 182.569 135.995 183.294 139.174ZM109.661 136.813C110.769 136.797 111.685 137.69 111.701 138.807C111.718 139.924 110.831 140.842 109.723 140.859C108.615 140.875 107.704 139.986 107.688 138.869C107.672 137.752 108.554 136.829 109.661 136.813ZM80.5541 137.169L81.9687 137.598C81.9687 137.598 82.1772 146.115 82.2198 146.129C85.2641 146.805 91.6558 148.015 91.6558 148.015L91.9941 149.699C89.3186 149.066 80.7898 147.658 80.7898 147.658C80.5237 143.965 80.5541 137.169 80.5541 137.169ZM70.2263 137.33C70.2263 137.33 70.2317 144.126 70.1186 147.777C70.1662 147.745 62.8811 148.946 59.1809 149.72L59.4679 148.356C62.394 147.69 65.5788 147.022 68.8014 146.341C68.7375 143.667 68.7399 137.805 68.7399 137.805L70.2263 137.33ZM75.4286 138.792C76.3182 138.779 77.0558 139.502 77.0687 140.399C77.0817 141.295 76.3643 142.029 75.4747 142.042C74.5852 142.055 73.8578 141.342 73.8448 140.445C73.8319 139.548 74.5391 138.805 75.4286 138.792ZM196.656 143.034C197.647 144.514 198.478 144.47 199.454 144.326C199.208 144.398 198.056 145.086 198.122 145.312C198.155 145.426 197.635 147.297 198.424 147.374C201.397 147.663 199.893 150.776 200.249 151.254C201.053 152.178 201.641 152.764 201.089 153.915C200.6 154.938 199.898 154.905 200.444 155.781C201.628 157.576 199.992 157.948 200.136 159.17C200.236 159.908 200.493 160.916 200.223 161.49C199.409 163.221 196.535 164.207 193.34 164.342C192.884 164.363 193.23 163.613 193.017 163.138C192.227 162.635 192.659 161.787 192.924 161.232C193.187 160.495 193.189 160.494 192.699 160.121C191.335 159.267 191.406 158.873 191.515 158.256C191.814 156.431 191.533 156.252 190.987 155.982C190.288 155.636 190.384 154.866 190.695 153.879C190.91 153.197 190.758 153.026 190.428 152.407C190.235 152.043 190.177 151.845 190.172 151.611C190.27 150.669 189.433 150.672 188.26 151.595C187.266 153.322 186.925 155.589 186.302 157.021C185.821 158.121 185.744 159.27 186.318 161.805C187.418 165.681 186.601 166.327 182.274 165.5C179.02 164.693 178.058 161.192 178.963 156.907C179.109 156.214 179.069 155.544 179.004 155C178.65 152.051 179.406 149.217 181.449 147.281C184.858 144.049 186.543 143.557 193.591 144.01C196.349 144.207 196.558 144.382 196.558 144.382C196.558 144.382 196.57 143.044 196.656 143.034ZM145.898 143.923L145.078 149.932L138.35 154.594C135.388 151.836 132.247 152.751 130.748 155.641C129.011 154.753 125.54 152.334 125.54 152.334L124.653 145.519L134.274 152.246L145.898 143.923ZM75.5721 145.349C76.4615 145.336 77.1891 146.054 77.202 146.95C77.215 147.847 76.5076 148.586 75.6182 148.599C74.7287 148.612 73.991 147.899 73.9781 147.002C73.9651 146.105 74.6825 145.362 75.5721 145.349ZM144.791 151.502L144.427 157.289L142.075 159.072L139.041 158.918C139.322 157.446 138.875 155.418 138.904 155.398L144.791 151.502ZM75.5311 151.549C76.4207 151.536 77.1583 152.259 77.1713 153.156C77.1842 154.053 76.4668 154.786 75.5772 154.799C74.6877 154.812 73.9603 154.099 73.9473 153.202C73.9344 152.306 74.6416 151.562 75.5311 151.549ZM82.0199 151.73C82.9093 151.717 83.6369 152.43 83.6498 153.326C83.6628 154.223 82.9554 154.962 82.0661 154.975C81.1765 154.988 80.4442 154.27 80.431 153.373C80.4181 152.476 81.1304 151.743 82.0199 151.73ZM69.1192 152.04C70.0087 152.027 70.7413 152.745 70.7542 153.642C70.7671 154.538 70.06 155.277 69.1704 155.29C68.2809 155.303 67.5432 154.585 67.5303 153.688C67.5172 152.791 68.2296 152.053 69.1192 152.04ZM188.947 152.303C189.401 152.266 190.073 152.945 189.747 153.962C189.309 155.122 189.617 155.517 190.346 156.457C190.964 157.253 190.855 157.364 190.762 157.873C190.62 161.214 192.755 159.77 191.828 162.198C191.626 162.726 191.893 163.481 191.987 164.105C191.778 163.533 187.851 163.585 187.517 164.167C186.958 164.083 186.25 160.363 186.815 159.873C186.888 159.871 187.297 160.511 187.507 160.87C188.034 161.772 188.148 161.739 187.984 160.694C187.331 156.548 187.722 152.329 188.947 152.303ZM88.5241 152.593C89.4137 152.58 90.1462 153.298 90.1592 154.194C90.1721 155.091 89.4598 155.824 88.5703 155.837C87.6807 155.85 86.9533 155.138 86.9404 154.241C86.9274 153.344 87.6346 152.606 88.5241 152.593ZM62.4253 152.892C63.3149 152.879 64.0422 153.597 64.0552 154.494C64.0682 155.391 63.361 156.124 62.4715 156.137C61.5821 156.15 60.8442 155.437 60.8313 154.541C60.8184 153.644 61.5359 152.905 62.4253 152.892ZM125.612 153.362L130.44 156.519C130.506 157.398 130.248 157.691 130.717 159.423C127.566 159.127 125.971 160.937 125.971 160.937L125.612 153.362ZM91.2201 158.411L90.846 160.126C81.3328 157.658 70.6996 157.528 60.5392 160.24L59.7498 158.436C70.012 155.299 80.9161 155.184 91.2201 158.411ZM46.1776 158.302C47.563 158.278 48.9787 158.798 49.9756 159.925C51.8486 162.04 50.9473 165.963 48.2996 167.21C44.3376 169.076 40.2104 165.086 41.8928 160.973C42.5913 159.266 44.3965 158.333 46.1776 158.302ZM144.233 158.803L144.171 160.524L142.967 159.511L144.233 158.803ZM119.021 158.881C120.767 158.855 122.204 160.267 122.229 162.027C122.254 163.788 120.86 165.236 119.113 165.262C117.366 165.288 115.93 163.881 115.904 162.12C115.879 160.36 117.274 158.906 119.021 158.881ZM46.2648 158.984C45.8391 158.99 45.1307 159.165 44.8092 159.465C43.9661 160.249 44.8129 160.271 45.9265 160.477C47.904 160.844 48.4488 162.56 48.2688 164.415C48.1053 166.1 48.667 166.074 49.1197 165.448C50.9626 162.901 49.3893 159.19 46.2648 158.984ZM75.5465 160.834C77.913 160.785 78.1613 164.708 76.0693 169.091C75.4403 170.408 75.1193 170.244 74.4291 168.254C72.7278 163.347 73.0974 160.885 75.5465 160.834ZM81.0205 160.948C81.4768 160.924 81.9192 161.1 82.2813 161.516C83.5537 162.978 82.5751 165.345 79.1856 168.987C78.3615 169.873 77.935 170.211 77.6325 170.217C76.784 170.235 76.7877 170.093 77.7504 166.931C78.3771 165.07 78.6866 161.057 81.0205 160.948ZM73.3528 167.814C73.6126 168.576 73.7851 169.301 73.7423 169.421C73.5333 170.006 72.0226 169.211 70.9438 167.949C68.7716 165.407 67.9055 163.195 68.3546 162.008C69.0132 161.057 70.8606 160.509 71.475 161.466C72.6384 163.279 72.6337 165.67 73.3528 167.814ZM87.4273 161.924C89.7171 163.285 87.0791 166.393 81.9482 168.972C79.7529 170.075 79.9096 169.578 81.574 167.401C82.211 166.568 83.0641 165.212 83.4807 164.384C84.4017 162.552 85.3237 160.72 87.4273 161.924ZM64.5678 161.934C65.2947 161.928 66.0386 162.712 67.4175 164.725C68.4118 166.227 70.1838 167.757 70.6978 169.029C70.4612 170.439 63.3184 165.97 62.8046 164.089C62.6281 162.942 63.5234 161.916 64.5678 161.934ZM166.8 166.027C168.088 168.697 168.199 170.357 167.133 170.961C165.619 171.819 163.672 170.511 163.633 168.61C163.619 167.972 162.968 165.743 162.372 164.296C161.881 163.104 161.814 162.369 162.217 162.31C163.796 162.565 166.133 164.772 166.8 166.027ZM158.251 164.001C157.519 165.893 157.427 168.336 156.872 169.845C155.833 172.673 152.469 170.346 153.607 167.51C154.634 164.952 157.246 162.291 158.275 162.203C158.979 162.142 158.322 163.777 158.251 164.001ZM160.336 162.536C160.852 162.484 161.285 163.621 161.951 165.536C162.852 168.122 162.815 170.139 161.844 170.997C159.763 172.838 157.579 170.166 158.42 166.807C159.092 164.123 159.751 162.594 160.336 162.536ZM90.5128 163.009C93.1032 201.444 73.5583 231.014 72.1659 231.821L65.5155 235.487L53.8493 229.081C65.9381 212.371 73.1644 193.218 73.7116 170.977C84.895 172.071 90.6482 163.049 90.5128 163.009ZM154.603 163.131C155.418 162.906 154.849 163.624 154.04 164.8C153.176 166.056 152.055 169.468 151.166 170.015C149.172 170.981 146.915 169.14 148.125 167.539C149.239 166.065 152.513 163.709 154.603 163.131ZM166.467 163.392C166.78 163.39 167.365 163.598 168.215 164.017C172.367 166.061 174.415 168.757 172.638 170.047C171.39 170.953 170.056 170.25 168.809 167.866C168.386 167.056 167.613 165.854 167.097 165.19C166.163 163.985 165.945 163.394 166.467 163.392ZM189.813 164.761C192.482 164.722 194.674 166.865 194.713 169.556C194.752 172.246 192.62 174.461 189.952 174.5C187.283 174.54 185.091 172.385 185.052 169.695C185.013 167.005 187.145 164.8 189.813 164.761ZM188.343 166.025C185.203 167.428 186.149 172.398 188.855 173.116C189.998 173.438 191.388 172.959 190.815 172.404C187.24 171.273 187.217 168.617 188.657 166.672C188.889 166.36 188.578 165.92 188.343 166.025ZM57.5397 172.861C57.4177 175.67 58.0115 178.924 56.69 181.977C54.6634 186.659 48.1936 188.805 44.7323 188.389C44.0113 188.091 43.1713 187.808 42.4605 188.112C42.0304 188.296 41.5 188.272 41.0413 188.057C40.5988 187.85 40.174 188.121 39.7452 187.965C39.2436 187.624 38.424 186.848 38.5202 186.271C38.6768 185.457 38.6144 184.853 37.6694 184.586C36.3598 184.216 36.0949 183.503 36.4803 181.414C36.5636 180.962 36.664 180.758 36.3727 180.561C35.4082 179.91 35.0421 178.705 35.6756 177.435C36.0886 176.704 36.3557 176.421 35.7542 175.695C35.288 175.132 35.4234 174.683 36.055 173.829C36.7279 173.018 36.8453 172.925 36.4137 172.232C35.4439 170.675 36.5428 169.526 37.8488 168.884C39.5987 168.16 41.1276 167.787 42.9743 167.572C43.6612 167.611 43.632 168.22 44.0455 168.806C44.6537 169.76 43.7963 171.139 44.2916 171.628C45.007 171.96 45.3322 172.625 45.2757 173.193C45.2507 174.517 45.3301 174.969 45.6857 175.523C46.0795 176.137 46.2278 177.264 45.86 178.03C45.5325 178.712 45.5682 178.666 45.9983 179.068C46.4241 179.466 46.6338 181.461 46.4825 181.423L48.2784 181.257C48.091 181.459 48.9539 177.526 51.0009 174.486C50.8881 172.105 49.9879 169.914 50.0679 166.769C54.5047 165.168 57.7088 168.97 57.5397 172.861ZM126.452 167.51C127.093 168.017 130.272 168.909 130.389 168.806C130.289 170.341 131.216 173.323 134.53 174.32C134.57 178.598 134.535 198.351 134.535 198.351C129.919 190.553 127.058 180.487 126.452 167.51ZM49.2324 168.207C49.2324 168.207 49.4083 168.776 49.5707 169.876C49.8541 172.123 49.5484 172.43 48.9556 170.894C48.2616 169.095 48.2256 170.497 49.0069 174.614C49.196 175.611 49.1888 175.843 48.9454 176.516C48.7932 176.937 48.5217 177.917 48.3098 178.686C47.6855 180.946 47.3207 181.596 46.6799 179.797C46.3533 178.879 46.0798 178.736 46.313 178.018C46.6046 177.119 46.5344 176.445 45.947 175.57C45.851 175.427 45.6401 175.099 45.6036 174.17C45.7841 172.082 44.8625 172.063 44.6812 171.523C44.7121 170.707 44.3337 168.727 44.8912 168.781C45.3502 168.824 47.0111 168.871 47.7973 168.579C48.1457 168.45 49.2324 168.207 49.2324 168.207ZM118.047 168.465C119.761 168.44 121.169 169.822 121.194 171.55C121.219 173.278 119.848 174.698 118.134 174.723C116.419 174.748 115.007 173.371 114.982 171.643C114.957 169.915 116.332 168.491 118.047 168.465ZM70.1135 170.372L72.4661 170.822C72.9903 170.998 72.6082 203.697 53.7787 227.296L53.6147 221.83C62.5744 208.757 69.0264 192.726 70.1135 170.372ZM110.005 171.059L110.435 178.872C109.111 177.736 105.746 175.61 105.771 175.565L105.787 172.676C105.79 172.683 108.678 172.9 110.005 171.059ZM91.8711 171.168C92.4384 171.408 92.9331 171.962 93.4189 172.361L91.8813 173.405L91.8711 171.168ZM145.77 171.56C155.928 174.598 165.931 174.51 175.821 172.289L176.497 174.201C165.766 177.133 155.102 176.964 144.504 173.555L145.77 171.56ZM96.5762 173.023L97.1195 176.392L91.3873 180.132L91.666 175.017L94.6542 173.064L96.5762 173.023ZM147.323 175.828C148.249 175.815 149.012 176.563 149.025 177.497C149.038 178.431 148.295 179.199 147.369 179.213C146.443 179.226 145.686 178.478 145.673 177.544C145.659 176.61 146.397 175.842 147.323 175.828ZM173.422 175.968C174.348 175.954 175.11 176.703 175.124 177.637C175.137 178.571 174.395 179.339 173.468 179.352C172.542 179.366 171.785 178.617 171.772 177.683C171.758 176.749 172.496 175.981 173.422 175.968ZM124.541 181.224C125.292 183.893 125.128 189.925 124.161 194.016C123.871 195.244 123.695 199.605 123.695 199.605C123.516 199.834 129.448 194.656 131.356 201.446C132.012 203.78 129.346 205.994 127.562 205.346C127.215 205.22 127.32 204.064 127.652 203.384C128.641 201.353 125.82 200.298 124.213 202.097C120.499 206.255 124.32 216.782 130.143 217.804C134.977 218.653 138.853 213.803 135.627 210.912C134.216 209.648 131.96 211.39 132.993 212.999C134.096 214.718 132.064 215.404 130.527 213.81C127.847 211.032 130.856 206.849 134.904 207.817C141.376 209.3 140.044 219.499 133.259 220.073C128.07 220.512 124.577 218.233 122.383 214.193C120.322 210.31 120.169 207.216 121.112 200.407C121.672 196.365 121.211 192.959 120.097 192.983C119.486 192.995 119.01 193.292 118.913 194.016C118.715 195.497 118.547 195.773 117.626 195.235C116.458 194.552 115.808 192.353 117.719 190.864C119.677 189.338 122.215 191.72 122.111 192.13C122.158 192.054 122.356 191.668 122.619 189.934C123.474 184.294 121.574 178.335 119.226 179.29C118.71 179.5 118.772 179.735 119.446 180.117C121.01 181.004 119.632 183.276 117.667 183.047C114.886 182.721 114.253 178.809 116.704 177.079C120.564 174.981 123.708 178.266 124.541 181.224ZM105.551 176.526C105.551 176.526 110.486 179.56 110.748 180.339C110.916 180.839 111.117 185.191 111.117 185.191L102.552 179.786L90.2738 187.438C90.4747 185.759 91.3585 181.434 91.3585 181.434L97.8883 177.27C97.9207 177.521 102.405 180.505 105.551 176.526ZM166.867 176.815C167.793 176.802 168.555 177.55 168.568 178.484C168.582 179.418 167.844 180.186 166.918 180.2C165.992 180.213 165.23 179.47 165.216 178.536C165.203 177.602 165.941 176.829 166.867 176.815ZM153.797 176.841C154.723 176.827 155.49 177.571 155.504 178.505C155.517 179.439 154.769 180.212 153.843 180.225C152.917 180.239 152.16 179.49 152.146 178.556C152.133 177.623 152.87 176.855 153.797 176.841ZM160.368 177.223C161.294 177.21 162.061 177.958 162.074 178.892C162.088 179.826 161.345 180.594 160.419 180.608C159.492 180.621 158.731 179.873 158.717 178.939C158.704 178.005 159.441 177.237 160.368 177.223ZM143.915 179.621C148.362 180.554 152.819 181.512 157.082 181.982L157.256 195.173L156.011 195.101L155.832 183.315C151.713 183.018 147.829 182.127 144.181 181.176L143.915 179.621ZM176.979 180.05L176.749 181.6C176.749 181.6 169.055 182.942 165.037 183.465C164.973 186.12 164.981 194.992 164.981 194.992L163.443 195.277L163.438 181.848C168 181.348 172.556 180.831 176.979 180.05ZM102.537 180.794L111.594 186.829L112.66 193.225L102.101 186.152C102.101 186.152 92.5304 192.646 88.9495 195.054L90.0413 189.025L102.537 180.794ZM144.345 181.987C147.991 182.765 151.637 183.573 155.283 183.889L155.437 194.502L153.761 194.052L153.628 185.439C150.78 185.19 147.856 184.634 144.914 184.008L144.345 181.987ZM176.6 182.302L176.292 183.744C176.292 183.744 170.457 184.631 167.446 185.175C167.179 185.237 167.277 194.517 167.277 194.517L165.836 194.739L165.667 183.904L176.6 182.302ZM160.255 183.491C161.181 183.477 161.938 184.226 161.951 185.16C161.965 186.094 161.227 186.862 160.301 186.875C159.375 186.889 158.613 186.145 158.599 185.211C158.586 184.278 159.328 183.504 160.255 183.491ZM102.399 187.32L113.106 194.605C113.106 194.605 114.347 198.399 114.613 200.5L102.291 192.481L86.8737 202.784L88.6574 196.419L102.399 187.32ZM37.5003 187.542C38.1354 187.55 38.7693 187.979 39.0994 188.963C39.5642 190.348 40.4312 190.757 42.7128 190.714C47.1923 190.473 51.8878 188.351 56.1159 189.944C58.1708 190.708 58.9027 193.763 57.182 194.558C55.3144 195.422 54.5185 194.879 53.871 193.401C53.2727 192.773 52.5292 192.871 48.5149 193.566C46.744 193.856 44.6631 194.116 42.9127 194.259C38.4375 194.623 35.9662 193.202 35.4091 190.518C35.0531 188.802 36.4419 187.527 37.5003 187.542ZM160.163 190.006C161.089 189.993 161.85 190.736 161.864 191.67C161.878 192.604 161.135 193.377 160.209 193.391C159.282 193.404 158.521 192.656 158.507 191.722C158.494 190.788 159.236 190.02 160.163 190.006ZM127.36 192.068C128.565 192.05 129.556 193.023 129.574 194.238C129.591 195.453 128.626 196.453 127.421 196.47C126.216 196.488 125.23 195.515 125.212 194.3C125.195 193.085 126.155 192.086 127.36 192.068ZM102.414 193.608C102.414 193.608 111.226 199.542 115.305 202.283L117.56 208.814L102.552 198.976L84.1892 211.02L86.3919 204.303L102.414 193.608ZM166.031 195.649C166.831 197.819 168.28 199.472 169.814 201.151C169.814 201.151 168.96 202.783 165.913 202.686C164.249 202.633 164.16 202.897 163.592 204.035C162.658 205.476 161.899 206.418 161.295 206.887C160.228 207.715 158.228 206.478 156.58 203.962C155.979 203.046 155.73 202.829 153.92 202.867C151.14 202.925 150.133 202.148 151.577 200.888C152.837 199.341 153.741 197.641 154.868 196.016L156.119 196.16C156.172 196.347 155.146 199.469 153.705 200.738C152.973 201.571 153.997 201.873 155.785 201.492C156.92 201.148 157.21 201.283 158.051 203.032C159.801 206.368 160.711 206.207 162.787 202.826C163.512 201.316 163.484 201.166 165.478 201.601C167.618 201.818 168.263 201.547 167.384 200.795C165.607 199.275 164.627 195.69 164.627 195.69L166.031 195.649ZM102.491 200.118C102.491 200.118 118.426 210.64 118.385 210.411L121.578 217.996L102.875 205.456L80.0261 220.434L83.4448 212.927L102.491 200.118ZM103.106 207.026L108.662 210.71L108.647 217.339L102.973 213.495L103.106 207.026ZM101.681 207.217L101.784 213.759L96.8017 216.75L96.525 210.612L101.681 207.217ZM95.417 211.389L95.6536 217.649L89.9234 221.654L89.9439 214.994L95.417 211.389ZM110.036 211.506L115.258 215.02L115.474 222.036L109.805 218.295L110.036 211.506ZM116.483 215.789L121.722 219.458L121.906 226.464L116.555 222.832L116.483 215.789ZM88.7599 215.815L88.7343 222.289L83.5217 225.895L83.2757 219.344L88.7599 215.815ZM143.889 224.17C142.855 225.257 142.473 225.122 141.588 223.328C140.669 221.466 139.291 220.596 137.293 220.631C134.773 220.675 136.42 219.009 139.092 218.812C143.711 218.607 146.055 221.731 143.889 224.17ZM81.9688 220.129L82.2403 226.561L76.9906 229.547L76.8945 226.506L79.5648 221.799L81.9688 220.129ZM75.8997 227.721L75.9693 230.001L74.6342 230.89L75.8997 227.721ZM137.836 275.865C116.008 280.573 95.0802 278.91 80.062 276.108L73.199 287.93L72.7275 287.909L70.9592 290.968L71.1489 291.32C71.1489 291.32 65.4467 302.35 63.0455 305.828C91.099 305.556 152.674 305.42 152.674 305.42L148.922 297.814L149.127 297.608L145.422 289.666L144.217 288.292C144.217 288.292 143.482 286.857 142.931 285.316C142.424 283.897 140.25 280.014 140.25 280.014L139.943 280.04L137.836 275.865ZM80.8513 277.529C81.1407 277.76 108.811 283.017 137.493 277.617L139.061 280.262C113.959 286.086 77.6395 280.523 79.0728 279.983L80.8513 277.529ZM81.328 282.732C83.8583 282.641 86.422 284.011 88.15 286.297C88.6999 287.025 89.6005 289.17 89.6005 289.17C89.6005 289.17 90.8114 287.149 91.9992 286.137C93.7956 284.607 96.1259 283.329 99.4977 283.45C102.602 283.562 106.019 285.256 109.103 290.152C109.881 287.327 120.081 277.728 128.482 289.697C129.443 286.517 133.939 280.164 141.219 284.603C141.716 285.675 142.229 286.855 142.229 286.855C137.932 283.822 130.849 285.857 129.174 290.591C129.024 291.168 129.214 291.468 129.435 292.027C131.65 295.218 125.889 295.141 127.595 292.56C127.915 291.973 127.941 291.49 127.431 290.72C126.08 288.679 122.015 286.139 119.031 286.204C115.585 286.28 111.767 288.585 110.492 290.679C110.021 291.452 109.914 292.225 110.328 292.901C110.628 293.582 110.525 294.152 110.02 294.57C108.834 295.551 107.343 294.419 107.914 292.968C108.289 292.328 108.231 291.545 107.463 290.457C105.919 288.271 102.316 285.969 99.18 286.034C94.6922 286.138 90.159 289.396 90.4462 292.079C90.5724 293.258 90.2525 293.698 89.2981 293.562C88.1373 293.397 88.0056 292.292 88.8265 291.392C88.9482 291.104 89.1449 290.405 88.7702 289.894C84.0315 283.433 76.9362 285.316 75.3107 286.762C76.8901 284.033 79.0954 282.813 81.328 282.732ZM77.1098 287.217C78.8881 287.232 80.8033 288.587 81.41 289.646C81.8495 289.187 85.872 287.253 87.8271 290.018C82.7066 289.629 82.6438 295.106 86.4278 295.634C84.7022 300.919 92.4382 301.238 91.9479 296.275C97.7279 297.136 97.0148 289.749 91.5738 290.529C94.4242 288.437 96.3641 289.112 99.7899 291.511C100.941 289.999 105.638 288.587 106.791 291.227C101.408 290.892 102.325 297.176 106.345 297.231C105.151 301.586 113.059 303.187 111.84 296.683C116.859 297.038 116.133 290.201 111.322 290.767C111.679 289.523 116.561 288.985 118.718 291.361C120.7 289.537 122.889 288.288 126.842 290.896C121.452 289.99 121.385 297.044 126.391 296.621C125.924 301.292 133.001 301.371 131.819 295.975C137.207 294.509 134.244 288.695 130.286 290.297C132.048 288.185 135.04 289.181 136.227 289.609C139.894 285.378 143.09 288.917 143.09 288.917C136.707 288.245 138.095 297.416 144.315 294.089C144.308 295.976 145.112 297.61 147.651 297.876L150.67 304.175L65.1225 304.743L69.8427 296.374C70.3197 296.526 73.0477 296.776 73.6347 293.552C79.2564 295.349 79.6335 288.751 75.4337 287.708C75.9426 287.354 76.517 287.212 77.1098 287.217ZM73.7731 289.604C74.3321 290.51 73.864 291.099 72.9018 291.123C72.9018 291.123 73.5276 290.207 73.7731 289.604ZM144.151 290.772L144.704 291.945C144.105 291.7 144.032 291.441 144.151 290.772Z" fill="black"/>
<path d="M174.277 297.724C184.75 297.497 189.446 285.72 181.69 276.575C180.565 275.242 180.449 274.476 182.509 275.757C187.731 279.245 197.744 276.952 198.257 266.29C198.891 253.153 180.511 249.367 177.06 263.337C176.878 264.811 175.678 264.777 175.967 262.685C176.282 257.007 178.058 251.699 180.498 246.524C176.385 246.524 171.788 246.524 168.048 246.524C170.488 251.699 172.264 257.007 172.579 262.685C172.868 264.777 171.668 264.811 171.486 263.337C168.035 249.367 149.656 253.153 150.289 266.29C150.802 276.952 160.815 279.245 166.037 275.757C168.097 274.476 167.981 275.242 166.856 276.575C159.1 285.72 163.796 297.497 174.269 297.724C174.269 297.724 174.269 297.724 174.279 297.724H174.277Z" fill="black"/>
<path d="M63.8422 34.8748C74.3151 35.1019 79.0112 46.8782 71.255 56.0232C70.1301 57.3571 70.0139 58.1225 72.074 56.8413C77.2962 53.3537 87.3094 55.6464 87.8222 66.3087C88.4555 79.4462 70.0757 83.2313 66.6247 69.2617C66.4425 67.788 65.2431 67.8215 65.5323 69.9137C65.847 75.592 67.6227 80.8992 70.0632 86.0746C65.9498 86.0746 61.3527 86.0746 57.6126 86.0746C60.053 80.8992 61.8288 75.592 62.1435 69.9137C62.4327 67.8215 61.2333 67.788 61.0511 69.2617C57.6001 83.2313 39.2205 79.4462 39.8539 66.3087C40.3666 55.6464 50.3799 53.3537 55.602 56.8413C57.6621 58.1225 57.546 57.3571 56.4211 56.0232C48.6648 46.8782 53.3608 35.1019 63.8336 34.8748C63.8336 34.8748 63.8336 34.8748 63.8443 34.8748H63.8422Z" fill="black"/>
</g>
<defs>
<clipPath id="clip0_11_3179">
<rect width="238.111" height="332.599" fill="white"/>
</clipPath>
</defs>
</svg>
