<svg width="239" height="333" viewBox="0 0 239 333" fill="none" xmlns="http://www.w3.org/2000/svg">
<g clip-path="url(#clip0_11_3056)">
<path d="M226.721 0H11.3894C5.09916 0 0 5.09272 0 11.3749V321.224C0 327.506 5.09916 332.599 11.3894 332.599H226.721C233.012 332.599 238.111 327.506 238.111 321.224V11.3749C238.111 5.09272 233.012 0 226.721 0Z" fill="white"/>
<path d="M174.269 35.3184C163.796 35.5455 159.1 47.3219 166.856 56.4669C167.981 57.8009 168.097 58.5663 166.037 57.285C160.815 53.7974 150.801 56.09 150.289 66.7523C149.655 79.8898 168.035 83.6751 171.486 69.7055C171.668 68.2317 172.868 68.2653 172.578 70.3574C172.264 76.0357 170.488 81.3429 168.048 86.5184C172.161 86.5184 176.758 86.5184 180.498 86.5184C178.058 81.3429 176.282 76.0357 175.967 70.3574C175.678 68.2653 176.877 68.2317 177.06 69.7055C180.511 83.6751 198.89 79.8898 198.257 66.7523C197.744 56.09 187.731 53.7974 182.509 57.285C180.449 58.5663 180.565 57.8009 181.69 56.4669C189.446 47.3219 184.75 35.5455 174.277 35.3184C174.277 35.3184 174.277 35.3184 174.267 35.3184H174.269Z" fill="black"/>
<path d="M63.8336 35.3184C53.3607 35.5455 48.6645 47.3219 56.4208 56.4669C57.5457 57.8009 57.6617 58.5663 55.6015 57.285C50.3795 53.7974 40.3665 56.09 39.8536 66.7523C39.2203 79.8898 57.5999 83.6751 61.0509 69.7055C61.2331 68.2317 62.4323 68.2653 62.1432 70.3574C61.8286 76.0357 60.0531 81.3429 57.6126 86.5184C61.726 86.5184 66.323 86.5184 70.063 86.5184C67.6225 81.3429 65.847 76.0357 65.5323 70.3574C65.2431 68.2653 66.4423 68.2317 66.6244 69.7055C70.0755 83.6751 88.4554 79.8898 87.8219 66.7523C87.3094 56.09 77.2959 53.7974 72.0738 57.285C70.0136 58.5663 70.1298 57.8009 71.2548 56.4669C79.0111 47.3219 74.3148 35.5455 63.842 35.3184C63.842 35.3184 63.842 35.3184 63.8312 35.3184H63.8336Z" fill="black"/>
<path d="M174.269 298.168C163.796 297.941 159.1 286.164 166.856 277.019C167.981 275.685 168.097 274.92 166.037 276.201C160.815 279.689 150.801 277.396 150.289 266.734C149.655 253.596 168.035 249.811 171.486 263.781C171.668 265.255 172.868 265.221 172.578 263.129C172.264 257.451 170.488 252.143 168.048 246.968C172.161 246.968 176.758 246.968 180.498 246.968C178.058 252.143 176.282 257.451 175.967 263.129C175.678 265.221 176.877 265.255 177.059 263.781C180.511 249.811 198.89 253.596 198.257 266.734C197.744 277.396 187.731 279.689 182.509 276.201C180.449 274.92 180.565 275.685 181.69 277.019C189.446 286.164 184.75 297.941 174.277 298.168C174.277 298.168 174.277 298.168 174.267 298.168H174.269Z" fill="black"/>
<path d="M63.8336 298.168C53.3607 297.941 48.6645 286.164 56.4208 277.019C57.5457 275.685 57.6617 274.92 55.6015 276.201C50.3795 279.689 40.3665 277.396 39.8536 266.734C39.2203 253.596 57.5999 249.811 61.0509 263.781C61.2331 265.255 62.4323 265.221 62.1432 263.129C61.8286 257.451 60.0531 252.143 57.6126 246.968C61.726 246.968 66.323 246.968 70.063 246.968C67.6225 252.143 65.847 257.451 65.5323 263.129C65.2431 265.221 66.4423 265.255 66.6244 263.781C70.0755 249.811 88.4554 253.596 87.8219 266.734C87.3094 277.396 77.2959 279.689 72.0738 276.201C70.0136 274.92 70.1298 275.685 71.2548 277.019C79.0111 286.164 74.3148 297.941 63.842 298.168C63.842 298.168 63.842 298.168 63.8312 298.168H63.8336Z" fill="black"/>
<path d="M119.051 141.143C108.578 141.37 103.882 153.147 111.638 162.292C112.763 163.625 112.879 164.391 110.819 163.11C105.597 159.622 95.5838 161.915 95.0712 172.577C94.4378 185.714 112.817 189.5 116.268 175.53C116.451 174.056 117.65 174.09 117.361 176.182C117.046 181.86 115.271 187.168 112.83 192.343C116.943 192.343 121.541 192.343 125.281 192.343C122.84 187.168 121.065 181.86 120.75 176.182C120.461 174.09 121.66 174.056 121.842 175.53C125.293 189.5 143.673 185.714 143.039 172.577C142.527 161.915 132.513 159.622 127.291 163.11C125.231 164.391 125.347 163.625 126.472 162.292C134.229 153.147 129.532 141.37 119.06 141.143C119.06 141.143 119.06 141.143 119.049 141.143H119.051Z" fill="black"/>
<path d="M219.748 279.294C223.937 279.199 225.816 274.293 222.713 270.482C222.263 269.926 222.217 269.607 223.041 270.141C225.13 271.594 229.135 270.639 229.34 266.196C229.593 260.723 222.241 259.145 220.861 264.966C220.788 265.58 220.309 265.566 220.424 264.694C220.55 262.329 221.26 260.117 222.236 257.961C220.577 257.961 218.917 257.961 217.257 257.961C218.233 260.117 218.943 262.329 219.069 264.694C219.185 265.566 218.705 265.58 218.632 264.966C217.252 259.145 209.9 260.723 210.153 266.196C210.358 270.639 214.363 271.594 216.452 270.141C217.276 269.607 217.23 269.926 216.78 270.482C213.677 274.293 215.556 279.199 219.745 279.294C219.745 279.294 219.745 279.294 219.745 279.294H219.748Z" fill="black"/>
<path d="M63.8336 105.868C53.3608 106.095 48.6646 117.872 56.4208 127.017C57.5457 128.351 57.662 129.116 55.6018 127.835C50.3798 124.347 40.3664 126.64 39.8536 137.302C39.2202 150.44 57.6002 154.225 61.0511 140.255C61.2334 138.781 62.4325 138.815 62.1435 140.907C61.8288 146.585 60.0532 151.893 57.6126 157.068C61.726 157.068 66.323 157.068 70.063 157.068C67.6225 151.893 65.847 146.585 65.5323 140.907C65.2432 138.815 66.4423 138.781 66.6245 140.255C70.0755 154.225 88.4554 150.44 87.8219 137.302C87.3094 126.64 77.2959 124.347 72.0738 127.835C70.0136 129.116 70.1298 128.351 71.2548 127.017C79.0111 117.872 74.3148 106.095 63.842 105.868C63.842 105.868 63.842 105.868 63.8313 105.868H63.8336Z" fill="black"/>
<path d="M63.8336 227.618C53.3607 227.391 48.6645 215.614 56.4208 206.469C57.5457 205.136 57.6617 204.37 55.6015 205.651C50.3795 209.139 40.3665 206.846 39.8536 196.184C39.2203 183.047 57.5999 179.261 61.0509 193.231C61.2331 194.705 62.4323 194.671 62.1432 192.579C61.8286 186.901 60.0531 181.593 57.6126 176.418C61.726 176.418 66.323 176.418 70.063 176.418C67.6225 181.593 65.847 186.901 65.5323 192.579C65.2431 194.671 66.4423 194.705 66.6244 193.231C70.0755 179.261 88.4554 183.047 87.8219 196.184C87.3094 206.846 77.2959 209.139 72.0738 205.651C70.0136 204.37 70.1298 205.136 71.2548 206.469C79.0111 215.614 74.3148 227.391 63.842 227.618C63.842 227.618 63.842 227.618 63.8312 227.618H63.8336Z" fill="black"/>
<path d="M174.269 105.868C163.796 106.095 159.1 117.872 166.856 127.017C167.981 128.351 168.097 129.116 166.037 127.835C160.815 124.347 150.801 126.64 150.289 137.302C149.655 150.44 168.035 154.225 171.486 140.255C171.668 138.781 172.867 138.815 172.578 140.907C172.264 146.585 170.488 151.893 168.048 157.068C172.161 157.068 176.758 157.068 180.498 157.068C178.058 151.893 176.282 146.585 175.967 140.907C175.678 138.815 176.877 138.781 177.059 140.255C180.511 154.225 198.89 150.44 198.257 137.302C197.744 126.64 187.731 124.347 182.509 127.835C180.449 129.116 180.565 128.351 181.69 127.017C189.446 117.872 184.75 106.095 174.277 105.868C174.277 105.868 174.277 105.868 174.267 105.868H174.269Z" fill="black"/>
<path d="M174.269 227.618C163.796 227.391 159.1 215.614 166.856 206.469C167.981 205.136 168.097 204.37 166.037 205.651C160.815 209.139 150.801 206.846 150.289 196.184C149.655 183.047 168.035 179.261 171.486 193.231C171.668 194.705 172.867 194.671 172.578 192.579C172.264 186.901 170.488 181.593 168.048 176.418C172.161 176.418 176.758 176.418 180.498 176.418C178.058 181.593 176.282 186.901 175.967 192.579C175.678 194.671 176.877 194.705 177.059 193.231C180.511 179.261 198.89 183.047 198.257 196.184C197.744 206.846 187.731 209.139 182.509 205.651C180.449 204.37 180.565 205.136 181.69 206.469C189.446 215.614 184.75 227.391 174.277 227.618C174.277 227.618 174.277 227.618 174.267 227.618H174.269Z" fill="black"/>
<path d="M18.3641 53.3049C14.1749 53.3991 12.2965 58.3064 15.399 62.1168C15.849 62.6727 15.8952 62.9915 15.0712 62.4576C12.9822 61.0045 8.9772 61.9598 8.77202 66.4024C8.51873 71.8764 15.8704 73.4536 17.2508 67.6329C17.3236 67.0188 17.8036 67.0328 17.6879 67.9045C17.562 70.2705 16.8518 72.4818 15.8756 74.6383C17.5356 74.6383 19.1957 74.6383 20.8556 74.6383C19.8795 72.4818 19.169 70.2705 19.0431 67.9045C18.9274 67.0328 19.4073 67.0188 19.4802 67.6329C20.8606 73.4536 28.2124 71.8764 27.959 66.4024C27.7539 61.9598 23.7489 61.0045 21.66 62.4576C20.836 62.9915 20.8824 62.6727 21.3323 62.1168C24.4349 58.3064 22.5561 53.3995 18.3672 53.3049H18.3641Z" fill="black"/>
<path d="M8.53077 43.1747L11.7509 42.1538C12.9673 45.3997 15.4208 46.3606 18.0182 46.1525C22.6782 45.781 24.2265 40.5713 24.5748 35.9664C22.759 37.8925 20.0314 38.8702 17.7069 38.7711C10.2766 38.373 8.37464 32.4258 8.30607 26.2007C8.10303 20.9519 10.2725 17.1501 13.9945 15.4043C15.9665 14.5202 20.4813 14.52 22.4643 15.5675C27.0173 17.9699 28.7055 22.1196 28.3997 32.0278C28.3997 40.1788 26.669 49.6721 17.9319 49.8789C12.8865 50.5772 9.05053 46.6498 8.53077 43.1747ZM21.1792 34.2428C22.6946 33.2833 23.5477 32.3825 24.2279 31.0347C24.7847 29.9271 24.9779 29.3488 24.8175 27.0582C24.4047 21.1489 21.3082 17.794 16.8141 18.4588C14.3071 18.8359 12.9359 20.2382 12.1487 22.8458C10.6964 27.6686 12.5395 33.3099 15.9898 34.6088C17.5423 35.1982 19.9422 35.0292 21.1792 34.2428Z" fill="black"/>
<path d="M229.578 289.424L226.358 290.445C225.141 287.199 222.688 286.238 220.09 286.446C215.43 286.818 213.882 292.028 213.533 296.633C215.349 294.707 218.077 293.729 220.402 293.828C227.832 294.226 229.734 300.173 229.802 306.398C230.005 311.647 227.836 315.449 224.114 317.195C222.142 318.079 217.627 318.079 215.644 317.031C211.091 314.629 209.403 310.479 209.709 300.571C209.709 292.42 211.44 282.927 220.177 282.72C225.222 282.022 229.058 285.949 229.578 289.424ZM216.929 298.356C215.414 299.316 214.561 300.216 213.881 301.564C213.324 302.672 213.13 303.25 213.291 305.541C213.704 311.45 216.8 314.805 221.294 314.14C223.801 313.763 225.173 312.361 225.96 309.753C227.412 304.93 225.569 299.289 222.118 297.99C220.566 297.401 218.166 297.57 216.929 298.356Z" fill="black"/>
</g>
<defs>
<clipPath id="clip0_11_3056">
<rect width="238.111" height="332.599" fill="white"/>
</clipPath>
</defs>
</svg>
