<svg width="239" height="333" viewBox="0 0 239 333" fill="none" xmlns="http://www.w3.org/2000/svg">
<g clip-path="url(#clip0_11_3461)">
<g clip-path="url(#clip1_11_3461)">
<path d="M226.722 53H11.3895C5.09926 53 0 58.0928 0 64.375V374.225C0 380.507 5.09926 385.599 11.3895 385.599H226.722C233.012 385.599 238.111 380.507 238.111 374.225V64.375C238.111 58.0928 233.012 53 226.722 53Z" fill="white"/>
<path d="M119.056 139.075C113.524 129.939 107.704 121.06 100.43 113.475C107.704 105.89 113.524 97.0107 119.056 87.8748C124.588 97.0107 130.407 105.89 137.681 113.475C130.407 121.06 124.588 129.939 119.056 139.075Z" fill="#C8102E"/>
<path d="M18.3652 127.638C16.0602 123.832 13.6351 120.132 10.6047 116.972C13.6351 113.811 16.0602 110.112 18.3652 106.305C20.6701 110.112 23.0951 113.811 26.1256 116.972C23.0951 120.132 20.6701 123.832 18.3652 127.638Z" fill="#C8102E"/>
<path d="M219.747 332.295C217.442 328.488 215.017 324.788 211.986 321.628C215.017 318.468 217.442 314.768 219.747 310.961C222.052 314.768 224.477 318.468 227.507 321.628C224.477 324.788 222.052 328.488 219.747 332.295Z" fill="#C8102E"/>
<path d="M119.056 244.9C113.524 235.764 107.704 226.885 100.43 219.3C107.704 211.715 113.524 202.836 119.056 193.7C124.588 202.836 130.407 211.715 137.681 219.3C130.407 226.885 124.588 235.764 119.056 244.9Z" fill="#C8102E"/>
<path d="M119.056 350.725C113.524 341.589 107.704 332.71 100.43 325.125C107.704 317.54 113.524 308.661 119.056 299.525C124.588 308.661 130.407 317.54 137.681 325.125C130.407 332.71 124.588 341.589 119.056 350.725Z" fill="#C8102E"/>
<path d="M6.93945 95.2446L9.64942 93.2516C12.0013 97.0812 14.6316 99.6037 18.6553 99.1707C24.6922 98.7559 27.1936 92.4275 25.9306 87.6591C24.7087 83.3811 19.7099 81.2973 15.7356 83.578C14.7975 84.1185 13.8925 84.5599 13.7155 84.5599C13.2987 84.5599 12.3551 82.6828 12.4841 82.1101C15.1514 78.2147 21.6286 71.3905 21.6286 71.3905H11.5089V75.9605H7.6252V67.7605H27.4035V70.5427C27.4035 70.5427 22.1044 76.0387 20.3531 79.0485C24.6662 79.2064 28.1427 81.9397 29.3907 86.261C30.1189 88.5364 29.7925 93.7404 28.8393 95.9834C27.2472 99.7224 22.8984 102.756 18.9228 102.931C12.2481 103.379 8.70725 98.7028 6.93945 95.2446Z" fill="#C8102E"/>
</g>
</g>
<defs>
<clipPath id="clip0_11_3461">
<rect width="238.111" height="332.599" fill="white"/>
</clipPath>
<clipPath id="clip1_11_3461">
<rect width="238.111" height="332.599" fill="white" transform="translate(0 53)"/>
</clipPath>
</defs>
</svg>
