<svg width="239" height="333" viewBox="0 0 239 333" fill="none" xmlns="http://www.w3.org/2000/svg">
<g clip-path="url(#clip0_11_3346)">
<path d="M226.722 0H11.3894C5.09913 0 0 5.09275 0 11.375V321.225C0 327.507 5.09913 332.599 11.3894 332.599H226.722C233.012 332.599 238.111 327.507 238.111 321.225V11.375C238.111 5.09275 233.012 0 226.722 0Z" fill="white"/>
<path d="M18.3652 74.6383C16.0602 70.8318 13.6351 67.1321 10.6047 63.9716C13.6351 60.8113 16.0602 57.1116 18.3652 53.3049C20.6701 57.1116 23.0951 60.8113 26.1256 63.9716C23.0951 67.1321 20.6701 70.8318 18.3652 74.6383Z" fill="#C8102E"/>
<path d="M174.273 86.0749C168.741 76.9391 162.921 68.0598 155.648 60.4748C162.921 52.89 168.741 44.0107 174.273 34.8748C179.805 44.0107 185.625 52.89 192.898 60.4748C185.625 68.0598 179.805 76.9391 174.273 86.0749Z" fill="#C8102E"/>
<path d="M219.747 279.295C217.442 275.488 215.017 271.788 211.986 268.628C215.017 265.468 217.442 261.768 219.747 257.961C222.052 261.768 224.477 265.468 227.507 268.628C224.477 271.788 222.052 275.488 219.747 279.295Z" fill="#C8102E"/>
<path d="M63.8379 86.0749C58.306 76.9391 52.486 68.0598 45.2129 60.4748C52.486 52.89 58.306 44.0107 63.8379 34.8748C69.3699 44.0107 75.1899 52.89 82.463 60.4748C75.1899 68.0598 69.3699 76.9391 63.8379 86.0749Z" fill="#C8102E"/>
<path d="M119.055 138.97C113.524 129.834 107.704 120.955 100.43 113.37C107.704 105.785 113.524 96.9059 119.055 87.77C124.587 96.9059 130.407 105.785 137.681 113.37C130.407 120.955 124.587 129.834 119.055 138.97Z" fill="#C8102E"/>
<path d="M63.8379 191.865C58.306 182.73 52.486 173.85 45.2129 166.265C52.486 158.68 58.306 149.801 63.8379 140.665C69.3699 149.801 75.1899 158.68 82.463 166.265C75.1899 173.85 69.3699 182.73 63.8379 191.865Z" fill="#C8102E"/>
<path d="M174.273 191.882C168.741 182.746 162.921 173.867 155.648 166.282C162.921 158.697 168.741 149.818 174.273 140.682C179.805 149.818 185.625 158.697 192.898 166.282C185.625 173.867 179.805 182.746 174.273 191.882Z" fill="#C8102E"/>
<path d="M63.8379 297.73C58.306 288.594 52.486 279.715 45.2129 272.13C52.486 264.545 58.306 255.666 63.8379 246.53C69.3699 255.666 75.1899 264.545 82.463 272.13C75.1899 279.715 69.3699 288.594 63.8379 297.73Z" fill="#C8102E"/>
<path d="M174.273 297.738C168.741 288.602 162.921 279.723 155.648 272.138C162.921 264.553 168.741 255.674 174.273 246.538C179.805 255.674 185.625 264.553 192.898 272.138C185.625 279.723 179.805 288.602 174.273 297.738Z" fill="#C8102E"/>
<path d="M12.9526 49.9565C15.2676 37.7183 17.732 28.5306 24.2024 18.5594H11.0505V22.8515H7.55908V14.7603H26.7956L29.1683 18.5594C22.2961 26.0612 16.0067 50.3113 17.1203 49.9565H12.9526Z" fill="#C8102E"/>
<path d="M225.156 282.643C222.841 294.881 220.377 304.069 213.906 314.04H227.058V309.748H230.55V317.839H211.313L208.94 314.04C215.813 306.538 222.102 282.288 220.988 282.643H225.156Z" fill="#C8102E"/>
</g>
<defs>
<clipPath id="clip0_11_3346">
<rect width="238.111" height="332.599" fill="white"/>
</clipPath>
</defs>
</svg>
