<svg width="239" height="333" viewBox="0 0 239 333" fill="none" xmlns="http://www.w3.org/2000/svg">
<g clip-path="url(#clip0_11_3399)">
<path d="M226.722 0H11.3894C5.09913 0 0 5.09275 0 11.375V321.225C0 327.507 5.09913 332.599 11.3894 332.599H226.722C233.012 332.599 238.111 327.507 238.111 321.225V11.375C238.111 5.09275 233.012 0 226.722 0Z" fill="white"/>
<path d="M18.3652 74.6383C16.0602 70.8318 13.6351 67.1321 10.6047 63.9716C13.6351 60.8113 16.0602 57.1116 18.3652 53.3049C20.6701 57.1116 23.0951 60.8113 26.1256 63.9716C23.0951 67.1321 20.6701 70.8318 18.3652 74.6383Z" fill="#C8102E"/>
<path d="M174.273 86.0749C168.741 76.9391 162.921 68.0598 155.648 60.4748C162.921 52.89 168.741 44.0107 174.273 34.8748C179.805 44.0107 185.625 52.89 192.898 60.4748C185.625 68.0598 179.805 76.9391 174.273 86.0749Z" fill="#C8102E"/>
<path d="M219.747 279.295C217.442 275.488 215.017 271.788 211.986 268.628C215.017 265.468 217.442 261.768 219.747 257.961C222.052 261.768 224.477 265.468 227.507 268.628C224.477 271.788 222.052 275.488 219.747 279.295Z" fill="#C8102E"/>
<path d="M63.8379 86.0749C58.306 76.9391 52.486 68.0598 45.2129 60.4748C52.486 52.89 58.306 44.0107 63.8379 34.8748C69.3699 44.0107 75.1899 52.89 82.463 60.4748C75.1899 68.0598 69.3699 76.9391 63.8379 86.0749Z" fill="#C8102E"/>
<path d="M174.273 156.632C168.741 147.496 162.921 138.617 155.648 131.032C162.921 123.447 168.741 114.568 174.273 105.432C179.805 114.568 185.625 123.447 192.898 131.032C185.625 138.617 179.805 147.496 174.273 156.632Z" fill="#C8102E"/>
<path d="M63.8379 156.632C58.306 147.496 52.486 138.617 45.2129 131.032C52.486 123.447 58.306 114.568 63.8379 105.432C69.3699 114.568 75.1899 123.447 82.463 131.032C75.1899 138.617 69.3699 147.496 63.8379 156.632Z" fill="#C8102E"/>
<path d="M119.056 191.9C113.524 182.764 107.704 173.885 100.431 166.3C107.704 158.715 113.524 149.836 119.056 140.7C124.588 149.836 130.408 158.715 137.681 166.3C130.408 173.885 124.588 182.764 119.056 191.9Z" fill="#C8102E"/>
<path d="M63.8379 297.73C58.306 288.594 52.486 279.715 45.2129 272.13C52.486 264.545 58.306 255.666 63.8379 246.53C69.3699 255.666 75.1899 264.545 82.463 272.13C75.1899 279.715 69.3699 288.594 63.8379 297.73Z" fill="#C8102E"/>
<path d="M174.273 297.738C168.741 288.602 162.921 279.723 155.648 272.138C162.921 264.553 168.741 255.674 174.273 246.538C179.805 255.674 185.625 264.553 192.898 272.138C185.625 279.723 179.805 288.602 174.273 297.738Z" fill="#C8102E"/>
<path d="M174.273 227.173C168.741 218.037 162.921 209.158 155.648 201.573C162.921 193.988 168.741 185.109 174.273 175.973C179.805 185.109 185.625 193.988 192.898 201.573C185.625 209.158 179.805 218.037 174.273 227.173Z" fill="#C8102E"/>
<path d="M63.8379 227.139C58.306 218.003 52.486 209.124 45.2129 201.539C52.486 193.954 58.306 185.075 63.8379 175.939C69.3699 185.075 75.1899 193.954 82.463 201.539C75.1899 209.124 69.3699 218.003 63.8379 227.139Z" fill="#C8102E"/>
<path d="M8.5308 43.1747L11.7509 42.1538C12.9673 45.3997 15.4206 46.3606 18.0181 46.1525C22.6781 45.781 24.2265 40.5713 24.5749 35.9664C22.7591 37.8924 20.0314 38.8702 17.7069 38.771C10.2766 38.3729 8.37465 32.4258 8.30606 26.2007C8.10307 20.9519 10.2727 17.1501 13.9946 15.4042C15.9667 14.5201 20.4811 14.5201 22.4642 15.5676C27.0173 17.9699 28.7057 22.1195 28.3999 32.0277C28.3999 40.1789 26.6691 49.6722 17.9319 49.8789C12.8865 50.5773 9.05059 46.6498 8.5308 43.1747ZM21.1793 34.2428C22.6947 33.2834 23.5478 32.3825 24.228 31.0346C24.7848 29.9271 24.9781 29.3488 24.8176 27.0583C24.4048 21.1488 21.3083 17.7939 16.8142 18.4588C14.3072 18.8359 12.9357 20.2382 12.1485 22.8458C10.6961 27.6686 12.5395 33.3098 15.9899 34.6088C17.5424 35.1981 19.9423 35.0292 21.1793 34.2428Z" fill="#C8102E"/>
<path d="M229.578 289.425L226.358 290.446C225.141 287.2 222.688 286.239 220.09 286.447C215.43 286.818 213.882 292.028 213.534 296.633C215.349 294.707 218.077 293.729 220.402 293.829C227.832 294.227 229.734 300.174 229.803 306.399C230.006 311.648 227.836 315.449 224.114 317.195C222.142 318.079 217.627 318.079 215.644 317.032C211.091 314.63 209.403 310.48 209.709 300.572C209.709 292.421 211.44 282.927 220.177 282.721C225.222 282.022 229.058 285.95 229.578 289.425ZM216.929 298.357C215.414 299.316 214.561 300.217 213.881 301.565C213.324 302.672 213.131 303.251 213.291 305.541C213.704 311.451 216.8 314.806 221.295 314.141C223.802 313.764 225.173 312.361 225.96 309.754C227.412 304.931 225.569 299.29 222.119 297.991C220.566 297.401 218.166 297.57 216.929 298.357Z" fill="#C8102E"/>
</g>
<defs>
<clipPath id="clip0_11_3399">
<rect width="238.111" height="332.599" fill="white"/>
</clipPath>
</defs>
</svg>
