<svg width="239" height="333" viewBox="0 0 239 333" fill="none" xmlns="http://www.w3.org/2000/svg">
<g clip-path="url(#clip0_11_4292)">
<path d="M261.722 0H46.3894C40.0991 0 35 5.09275 35 11.375V321.225C35 327.507 40.0991 332.599 46.3894 332.599H261.722C268.012 332.599 273.111 327.507 273.111 321.225V11.375C273.111 5.09275 268.012 0 261.722 0Z" fill="white"/>
<path d="M184.813 28.0452C184.813 28.0452 211.857 67.2321 221.029 74.1872C221.703 74.5044 233.011 72.3392 233.011 72.3392C227.215 58.4297 223.487 44.0391 227.248 27.9055L184.813 28.0452ZM199.84 90.0207C181.196 95.2959 162.587 100.257 142.375 91.6578L120.302 113.036C120.119 113.588 146.968 125.215 147.42 123.854C134.258 159.366 154.78 165.814 167.845 126.751C184.948 124.506 205.466 122.181 222.424 110.379C207.745 101.535 199.825 89.9155 199.84 90.0207ZM87.7013 96.3424C80.635 91.9954 75.1118 100.942 80.2859 105.409C79.6777 108.019 79.4713 111.903 81.99 113.61C84.3044 115.076 88.6211 113.555 89.2442 113.571C89.289 113.572 89.3561 118.269 88.9963 118.257C88.327 118.234 85.8002 116.076 84.2416 115.608C78.9749 114.025 71.5041 112.993 71.6351 113.266C71.8548 113.723 70.3859 115.056 76.2629 118.756C78.446 120.13 85.3431 118.582 90.8362 120.319C94.1828 121.377 97.1893 123.066 99.0062 122.189C103.798 120.877 105.671 114.601 105.343 114.647C105.183 114.457 90.8534 118.343 92.2013 119.025L92.1575 113.576C97.8094 114.199 102.91 110.093 97.356 103.054C101.493 98.9318 95.7061 89.1081 87.7013 96.3424ZM111.247 121.263C97.3473 135.31 68.9351 161.671 68.9351 161.671L69.2392 181.346L96.9963 206.246C99.1953 179.813 114.179 155.144 128.446 142.802C129.757 139.049 114.269 122.58 111.247 121.263ZM210.282 126.123C208.188 142.375 206.285 164.54 178.78 189.177C183.546 197.314 189.612 205.596 198.343 209.549C198.963 210.947 223.578 184.014 238.722 171.281L238.641 154.032L210.282 126.123ZM86.3174 129.612C86.2598 129.966 85.2446 134.235 84.9828 134.122C85.003 134.354 87.7995 133.081 88.1156 131.91C88.3927 130.884 89.0338 129.493 89.0757 129.296C88.4453 124.902 87.2531 128.023 86.3174 129.612ZM76.0208 140.974C75.0215 143.393 74.0866 147.836 74.4314 150.728C79.3557 153.199 80.6941 142.921 79.3697 141.938C78.5766 141.602 76.6962 140.95 76.0208 140.974ZM228.1 188.102C227.644 190.152 227.74 190.76 228.65 191.16C230.244 191.86 230.961 191.014 232.241 187.676C233.002 185.689 233.681 182.699 233.067 181.51C230.046 179.398 228.45 186.554 228.1 188.102ZM141.977 205.35C121.766 208.56 101.542 210.541 85.4914 223.092C87.3 222.879 106.753 241.192 107.759 243.768C137.488 229.211 166.362 240.207 166.362 240.207L188.118 219.187C188.956 218.789 164.455 208.671 159.839 206.965C176.525 161.94 150.1 168.707 141.977 205.35ZM221.535 200.21C220.214 201.278 219.549 202.246 218.519 203.631L219.557 205.314L222.217 202.373L221.535 200.21ZM202.496 219.154C205.298 217.887 215.242 213.055 215.669 214.172L215.458 219.009C213.937 218.51 204.118 220.137 209.797 230.297C206.221 238.368 214.19 242.531 219.772 237.194C231.472 241.218 229.906 229.483 227.492 227.586C229.394 224.624 227.003 218.316 225.813 218.294C225.813 218.294 236.022 220.601 235.024 218.779C234.568 217.947 233.998 216.513 231.729 214.995C229.114 213.245 224.52 213.88 220.802 213.1C216.827 212.266 214.268 210.841 210.927 210.64C205.885 211.101 201.179 215.538 202.496 219.154ZM88.719 257.244L74.6517 261.013C80.5244 275.527 82.8464 288.869 81.1637 305.136L121.991 305.343L88.719 257.244Z" fill="#FFCD00"/>
<path d="M125.379 305.199C107.465 279.568 90.8664 255.186 68.8286 228.314C68.8286 228.314 68.8468 217.928 68.9247 207.628L136.627 304.946L125.379 305.199ZM161.645 263.815C161.068 258.947 160.079 253.121 158.656 248.107L171.018 236.423C169.684 246.864 167.636 254.874 161.645 263.815ZM220.724 226.989C223.49 230.672 218.822 232.717 217.059 231.078C213.485 227.754 218.72 224.32 220.724 226.989ZM98.1558 203.791C96.1047 205.109 101.842 171.67 117.59 154.389C127.169 181.895 110.269 197.316 98.1558 203.791ZM175.851 203.668L165.391 200.837L170.316 186.174C170.316 186.174 180.42 188.48 179.582 191.525C176.856 201.438 175.851 203.668 175.851 203.668ZM127.431 198.031C130.263 193.363 132.414 188.217 134.393 182.951L144.871 182.732L139.606 197.264L127.431 198.031ZM190.469 177.453C182.374 161.295 191.911 135.721 209.524 128.681C208.89 145.067 203.818 161.665 190.469 177.453ZM136.062 172.862C136.418 167.123 135.763 161.109 134.971 155.779C146.136 158.358 158.306 160.084 171.786 160.698L173.073 176.168C161.101 173.969 148.919 172.399 136.062 172.862ZM162.803 149.29C163.995 144.493 165.523 139.797 167.604 135.268L180.361 134.673C180.295 134.423 174.918 143.182 173.63 149.505C171.599 149.289 162.803 149.29 162.803 149.29ZM138.617 145.466C134.894 144.149 129.803 143.781 127.823 140.894L131.696 128.591L143.167 132.118L138.617 145.466ZM170.809 28.0738L179.798 27.9878C179.798 27.9878 222.992 83.3926 239.181 104.953C238.642 107.148 239.362 125.746 239.362 125.746C216.431 93.3963 170.809 28.0738 170.809 28.0738ZM87.4013 106.217C83.5692 102.347 89.5509 99.2815 91.7347 102.224C93.5001 104.602 89.7419 108.58 87.4013 106.217ZM136.444 96.2951C136.583 83.4558 145.665 68.2184 145.571 68.6078C145.466 68.5827 146.866 81.1593 148.611 85.1169C148.14 85.8142 136.873 97.0998 136.444 96.2951Z" fill="#C8102E"/>
<path d="M66.9819 25.9495V306.648H241.135V25.9495H66.9819ZM69.1518 28.0813H145.773C145.773 28.0813 145.854 29.1849 145.671 33.9555C145.34 43.6513 144.933 53.8091 145.567 63.6933C145.674 67.1139 145.605 70.4916 146.095 73.8762C146.573 77.1735 146.783 80.7295 148.32 83.8006C148.938 85.4654 148.959 85.3372 146.605 87.5175C145.451 88.5871 144.469 89.7249 144.512 89.9256C144.526 89.9924 144.46 90.2439 144.638 90.102C144.755 90.0075 145.608 89.1614 145.703 89.0498C146.34 88.2962 147.407 89.2629 151.047 90.292C151.761 90.4939 152.767 91.1679 153.537 91.7263C158.977 96.3222 166.633 94.8892 172.355 92.3827C173.979 91.6714 174.377 91.5976 176.987 91.2874C186.652 90.1387 196.979 85.9055 196.957 85.9187L198.219 87.9897C198.219 87.9897 198.693 87.9016 199.031 88.4228C204.59 98.9481 222.739 110.976 222.417 110.419L210.555 117.002C211.465 118.13 212.522 119.352 213.645 120.616L213.83 120.659L213.902 120.908C223.462 131.598 239.053 145.849 239.053 145.849V171.932C233.751 176.184 228.521 181.058 223.858 185.816C222.518 187.147 221.572 187.905 222.081 187.931C223.291 187.746 224.335 188.943 225.32 189.772C225.944 190.47 225.794 190.405 225.075 191.357C224.569 192.027 224.382 192.22 224.38 192.704C224.398 193.639 224.393 194.267 223.562 194.969C223.046 195.618 222.751 196.035 222.658 196.805C222.565 197.573 222.57 198.067 222.044 198.746C221.15 198.937 221.066 200.24 221.224 200.823C222.159 201.754 221.731 202.761 221.818 202.55C220.031 204.494 218.156 206.179 219.354 203.461C219.894 202.449 220.082 201.609 220.082 201.609C220.082 201.609 219.221 202.502 218.771 202.924C218.082 203.563 217.83 203.188 217.81 201.204C217.721 199.702 217.09 197.605 216.839 197.204C216.698 196.981 216.676 197.369 216.74 198.815C216.827 200.717 217.051 201.269 216.383 203.169C215.481 205.735 214.839 206.098 216.305 206.01C217.694 205.926 218.868 205.91 219.475 206.741C219.68 207.021 219.944 207.5 220.505 207.783C221.648 208.409 222.556 209.105 223.191 209.797C225.245 212.037 224.657 214.037 220.686 212.68C218.595 211.965 219.963 211.065 222.21 211.273C223.591 211.402 223.825 210.891 222.63 210.524C220.407 210.112 220.048 209.863 218.583 211.61C212.427 210.999 208.971 207.549 207.31 204.738C206.615 203.563 206.41 203.252 206.894 202.587C204.366 203.446 201.255 207.747 199.089 209.754C192.721 206.132 184.857 199.599 180.361 192.177C178.126 196.38 175.499 204.031 175.499 204.031L165.506 201.233L165.388 201.443L175.266 204.295L174.303 207.601C174.198 207.958 172.67 211.72 172.67 211.72L188.101 218.938C186.766 221.28 184.395 222.077 184.006 224.616L205.399 204.158C205.399 204.158 208.158 208.261 209.185 209.192C210.148 210.064 210.448 210.275 209.324 210.536C204.298 211.275 200.397 215.092 201.757 220.21C201.977 220.779 202.419 220.569 203.372 219.969C206.709 216.939 214.867 214.133 215.145 214.845L215.178 218.103C206.396 218.231 207.296 224.703 207.939 228.175C207.939 228.25 205.399 230.477 205.399 230.477C206.297 230.949 207.176 231.437 208.006 232.019C207.234 236.337 210.905 242.594 218.114 239.39C218.737 240.031 219.325 240.676 220.013 241.481C220.75 240.625 221.6 238.606 221.6 238.606C225.181 240.231 232.612 236.595 228.812 228.267L230.905 226.264L228.894 224.993C228.842 222.875 228.515 220.984 227.254 219.14C227.254 219.14 230.634 220.003 233.136 220.149C234.68 220.289 235.983 220.329 235.853 219.393C235.815 219.117 235.584 217.769 235.433 217.327C234.687 215.146 230.816 213.544 227.058 213.332C226.445 213.298 225.784 213.317 225.653 213.158C225.407 212.859 225.847 212.433 226.251 212.503C228.31 212.862 230.289 211.338 230.646 209.398C230.716 209.058 231.137 208.434 231.741 207.771C232.812 206.596 232.897 206.629 232.877 204.93C232.863 203.751 233.068 203.489 233.61 202.699C234.31 201.572 234.635 200.103 234.283 198.582C234.172 198.1 233.717 197.418 234.105 196.217C234.736 194.263 233.349 192.475 231.531 191.457C230.47 192.214 228.873 191.613 227.65 191.034C227.236 190.83 229.056 180.232 232.826 181.179C233.452 181.56 233.717 183.401 233.669 183.434C233.843 183.434 233.936 182.35 233.691 181.629C233.436 180.874 232.852 180.155 231.727 180.367C230.856 180.532 229.848 181.692 229.393 182.274C227.632 184.523 227.613 185.961 227.025 188.354C226.742 189.485 226.711 189.418 225.149 188.195C224.029 187.317 223.484 187.037 223.874 186.522C224.049 186.29 224.777 185.56 224.777 185.56L239.051 172.397V304.652L161.258 304.652L161.798 287.27C163.246 275.359 160.7 250.348 158.773 247.996C160.259 246.322 164.872 242.284 164.617 242.102L164.005 241.739L161.566 243.989L155.543 242.161C152.974 240.382 150.353 238.736 147.633 238.036C143.192 236.893 134.639 240.536 134.632 240.574C120.967 241.588 110.023 247.149 110.177 247.106C109.581 246.558 108.794 244.811 108.774 244.822C101.73 234.995 94.8054 229.489 85.345 222.773L97.3282 216.138L68.9317 186.396L68.6826 162.247L109.816 122.824C110.058 122.143 122.94 131.944 127.736 139.92C128.655 136.021 130.368 132.481 131.795 128.653C131.944 128.303 139.98 131.629 142.363 131.77C142.72 131.792 143.007 131.416 143.007 131.416L132.403 127.959L134.571 121.732C134.571 121.732 135.325 120.042 134.472 119.761C129.639 118.194 125.103 115.43 120.48 113.076C120.48 113.076 122.639 110.67 122.672 110.564C122.703 110.464 123.577 109.171 123.368 108.726C121.016 111.013 101.825 128.857 101.825 128.857C101.279 125.795 100.422 124.723 98.556 122.834C99.5726 122.785 101.164 121.777 102.083 121.105C104.896 119.051 106.427 115.388 106.058 113.246C103.358 114.107 100.919 115.115 97.5378 115.731C95.6376 116.077 93.836 116.938 92.7429 117.861L92.5742 114.444C92.5852 114.483 97.1246 115.243 99.2289 112.186C101.042 109.552 100.299 106.537 99.8822 104.999C99.9295 104.658 99.8279 104.696 100.61 103.974C101.187 103.442 102.087 102.752 102.087 102.752C102.126 102.558 99.7419 101.672 99.3388 100.863C99.9737 94.5305 94.9256 92.0864 90.6535 93.2116C89.855 93.453 89.4744 93.6035 88.5249 92.5434C88.3834 92.3854 87.2437 91.1777 87.2437 91.1777C87.2437 91.1777 86.742 92.3418 86.4845 92.851C85.6465 94.5071 85.4165 94.0085 83.6103 94.0972C79.0349 94.3221 76.9922 98.0252 78.0425 102.572C78.289 103.639 78.1783 103.474 77.4794 104.823C77.1224 105.512 76.5397 106.392 76.5397 106.392C76.5397 106.392 77.3789 106.858 77.9444 107.112C78.7818 107.487 78.8266 107.926 78.8233 108.763C78.9402 110.608 79.3426 111.844 80.4007 113.429C76.8165 113.511 74.068 113.175 70.8227 112.094C71.3193 117.097 74.9984 118.96 79.5041 119.693C79.5041 119.693 79.0304 120.136 78.5329 120.333C77.4789 120.64 76.8203 121.567 76.83 122.399C76.6783 123.193 76.1641 123.991 75.6921 124.415C74.9906 125.023 74.4154 125.881 74.6916 127.54C74.6212 128.742 74.3316 129.09 73.9794 129.549C73.2724 130.47 73.032 131.386 73.2084 132.597C73.2907 133.161 73.4658 134.369 73.3496 135.617C73.1557 137.696 73.8975 138.475 74.8407 139.939C75.4517 140.887 75.3233 140.913 75.182 141.601C74.8427 143.253 74.489 144.102 74.1226 145.359C73.3027 148.171 73.2717 150.302 73.9421 150.851C74.9524 151.678 76.0958 151.429 76.6279 151.264C80.6142 150.031 79.9238 146.107 80.1338 143.474C80.2477 142.797 80.4788 142.472 80.7028 142.504C81.8298 143.826 83.0217 144.59 84.5559 145.424C79.2506 150.836 75.8537 154.15 69.1472 160.054L69.1518 28.0813ZM146.947 28.0813H150.147C149.471 29.342 146.951 33.2785 146.723 32.2234L146.947 28.0813ZM151.392 28.0813H153.258C151.437 32.4127 148.888 35.0317 146.472 37.6549L146.554 34.8686C146.629 35.0432 150.173 30.9731 151.392 28.0813ZM154.604 28.0813H156.446C156.446 28.0813 156.499 28.9505 156.279 29.5587C154.884 34.0751 146.221 42.6486 146.47 41.364L146.382 39.1519C146.343 39.247 152.889 32.7743 154.604 28.0813ZM157.763 28.0813H159.775C166.36 39.5524 178.146 43.5668 181.111 44.3403L182.836 46.864C168.94 44.1341 161.498 35.1926 158.004 29.6625C157.732 29.2323 157.763 28.0813 157.763 28.0813ZM161.178 28.0813H163.305C167.712 35.4183 175.618 39.4561 178.355 40.3099C179.085 41.1165 179.873 42.5915 180.179 42.9178C172.799 40.9142 164.532 34.531 161.178 28.0813ZM164.409 28.0813H166.352C168.699 31.4763 172.377 33.9552 174.448 35.5799C175.562 36.4553 177.032 38.2425 176.895 38.5973C172.282 37.1357 166.886 31.8799 164.409 28.0813ZM167.38 28.0813H169.938C171.03 29.6654 172.021 30.9522 173.169 32.5722C173.383 32.881 173.513 33.2464 173.46 33.3854C173.285 33.8353 172.767 33.5015 171.333 32.2274C168.981 30.1373 167.38 28.0813 167.38 28.0813ZM170.748 28.0813H226.486C225.069 43.6244 224.821 55.6441 232.866 71.764C231.413 73.2917 220.466 73.725 217.016 75.5339C216.952 75.9681 217.902 76.7193 217.902 76.7193C221.512 75.0404 235.585 73.5079 235.585 73.5079C229.691 63.2096 224.841 43.2727 228.491 28.0813H239.054V103.089C239.054 103.089 239.178 117.347 239.479 125.487C234.071 118.48 227.104 108.884 222.421 101.619C216.739 93.6063 210.414 84.2056 203.918 75.3869C202.003 72.6085 199.273 69.0044 197.046 65.7585C193.548 60.7457 190.654 56.855 187.026 51.4588C183.152 45.8715 179.438 40.802 174.833 34.3141C170.93 28.7923 170.748 28.0813 170.748 28.0813ZM157.307 30.2797L158.589 32.3273C155.482 37.4628 151.586 42.0888 146.389 45.7354L146.362 43.053C152.259 38.7962 154.807 34.518 157.307 30.2797ZM159.381 33.2462C163.085 38.2484 171.067 45.9888 183.869 48.3022C183.869 48.3022 184.596 48.9611 185.657 50.4086C187.002 52.2448 187.023 52.3174 187.201 55.3267C187.32 60.8341 189.105 68.3096 190.877 73.0121C190.658 74.1813 190.453 74.7764 188.254 77.7539C179.091 90.1611 159.57 101.897 149.952 85.8795C146.745 80.7481 146.432 70.9095 146.229 64.7748C146.229 64.7748 146.29 64.3429 146.313 64.2262C146.545 63.1126 146.862 63.2888 148.599 63.7658C150.359 64.5231 152.192 63.9113 154.055 63.4033C156.176 62.5445 156.351 63.2061 154.306 65.1197C153.598 65.7815 152.734 66.7927 152.825 66.744C152.915 66.6954 154.105 66.2088 154.631 65.8074C156.266 64.5602 156.652 65.0383 156.046 66.4109C153.477 72.2338 153.02 72.4646 156.634 74.082C157.388 74.4191 157.901 74.7957 158.324 75.1655C160.795 77.4969 159.907 76.2417 159.216 75.1715C158.153 73.4961 159.114 72.6116 160.909 73.6491C162.109 74.3423 163.684 74.8999 164.541 74.6346C166.204 74.0919 166.712 72.2668 166.218 70.2574C165.824 69.146 163.552 67.1819 164.076 69.2365C165.442 69.1749 166.62 71.118 165.434 72.4323C164.538 73.643 162.941 72.9878 160.492 71.3644C159.138 70.3446 157.495 70.8664 157.559 72.1207C157.602 72.9629 156.411 72.7687 155.638 71.6955C155.209 71.0997 155.5 69.3844 156.307 67.7591C161.385 57.5245 157.105 47.6012 148.31 50.3989C147.343 50.7066 146.47 50.9554 146.47 50.9554L146.423 47.0405C151.472 43.5132 156.827 37.8885 159.379 33.2464L159.381 33.2462ZM171.398 49.133C168.764 49.047 166.29 49.7272 164.521 51.6195C163.195 53.2241 163.664 54.6527 166.575 53.2144C168.946 52.0432 169.275 51.9051 171.859 51.8115C175.526 51.6786 178.818 52.8475 182.89 55.3521C185.59 57.0122 185.983 57.1388 185.251 56.0987C183.752 53.2229 177.191 49.3221 171.398 49.133ZM149.988 51.9134C150.688 51.9126 151.452 51.9491 152.067 52.0995C154.612 52.7422 157.056 54.4267 156.631 55.1248C156.478 55.376 156.329 55.4237 156.005 55.2542C154.143 54.3322 151.176 52.825 146.886 54.6644C146.413 54.8671 146.15 54.5522 146.152 53.9805C146.152 52.8709 148.019 51.9849 149.988 51.9134ZM173.05 53.3888C171.144 53.3672 169.124 54.0104 166.852 55.3443C165.335 56.1346 164.815 56.5557 164.17 56.2025C162.631 55.3588 162.955 56.0205 163.911 57.7191C164.586 58.9177 164.58 59.1634 164.48 59.8979C164.371 60.6962 164.387 60.7276 165.161 61.581C166.609 63.4883 168.049 65.3285 170.217 66.7754C170.892 67.2265 171.796 67.7393 171.865 67.7414C172.08 67.7484 171.998 67.5743 171.612 67.1967C168.835 64.5196 166.646 62.1216 169.473 63.1407C172.765 64.2166 175.895 62.8754 178.462 62.0003C179.509 61.6768 180.609 61.4045 180.882 61.4047C183.252 61.4067 183.812 60.4168 182.296 58.9084C179.091 55.305 176.227 53.4247 173.05 53.3888ZM173.077 54.0707C175.081 54.0982 177.215 54.8382 179.021 56.4239C180.082 57.4056 180.64 57.9395 180.534 58.1952C180.42 58.4695 179.605 58.0055 178.237 57.2743C175.485 55.8034 172.365 55.4562 168.466 56.5846C165.44 57.4606 166.334 56.0701 169.706 54.7623C170.719 54.2943 171.874 54.0542 173.077 54.0707ZM150.76 54.439C153.072 54.4019 155.479 55.1616 157.089 56.5532C158.213 57.5241 157.392 57.751 155.567 56.9941C152.806 55.8492 150.477 55.6663 148.212 56.7296C147.501 57.0633 146.68 57.4606 146.456 57.4389C146.077 57.1819 145.916 56.4352 146.244 55.9066C147.155 55.0106 148.962 54.4679 150.76 54.439ZM188.864 55.2346C189.034 55.2416 189.29 55.5108 189.671 56.0457C190.362 57.019 190.387 57.5003 189.814 59.2043C189.114 61.2849 188.834 60.9471 188.658 58.0443C188.544 56.161 188.54 55.2205 188.864 55.2346ZM191.158 58.3716C191.421 58.334 191.729 58.7989 192.221 59.7627C192.565 60.4354 192.484 60.6367 191.411 63.7854C190.962 65.1031 190.539 66.153 190.528 66.1621C190.198 66.4228 190.239 66.3998 190.098 66.2189C189.333 65.2388 189.389 63.327 190.047 61.0363C190.546 59.3002 190.818 58.4198 191.158 58.3716ZM170.324 58.6086C170.408 58.6016 170.921 58.7144 170.921 58.7144C170.867 63.3781 174.466 62.4385 174.943 59.1259C174.943 59.1259 175.829 59.0344 175.965 59.2552C176.391 59.9488 175.401 61.9451 173.92 62.598C172.84 63.0815 171.37 62.9629 170.493 62.1532C170.248 61.6969 169.505 59.9641 169.644 59.2454C169.816 58.8258 170.074 58.6303 170.324 58.6086ZM153.899 59.1357C154.186 59.1544 154.305 59.2833 154.352 59.6647C154.536 61.2042 152.999 62.8773 151.007 62.9683C149.08 63.1844 148.039 61.6868 148.098 60.2251C148.098 59.114 149.057 58.9746 149.163 59.8529C149.469 62.389 151.631 62.5347 152.618 61.1343C152.992 60.5855 152.906 59.2336 153.554 59.1494C153.69 59.1362 153.804 59.1295 153.899 59.1357ZM168.182 59.1534C168.219 59.1513 168.253 59.1513 168.29 59.1534C168.643 59.1714 168.9 59.2674 169.039 59.6961L169.81 62.065C169.243 62.7446 167.087 61.3684 167.091 60.3349C167.091 59.6212 167.63 59.1807 168.182 59.1534ZM177.224 59.6647C177.378 59.6587 177.583 59.716 177.885 59.8195C179.874 60.4557 179.927 60.765 178.227 61.3792C176.199 62.1117 176.067 62.2059 176.543 60.7875C176.809 59.9963 176.887 59.6787 177.224 59.6647ZM156.148 59.8881C157.622 59.9796 157.746 61.2302 156.45 61.6477C154.52 62.5016 153.867 62.4451 154.615 61.1852C155.021 60.2929 155.384 59.9052 156.148 59.8881ZM146.927 60.3388C147.102 60.3378 147.304 60.4051 147.519 60.5661C147.741 61.2365 148.116 61.7519 148.412 62.4451C148.109 62.7463 147.387 62.7424 146.927 62.3766C146.004 61.6434 146.161 60.3484 146.927 60.3388ZM193.269 61.7829C193.841 61.7869 194.424 62.6946 194.614 63.3719C192.614 65.9475 192.929 70.7569 192.464 72.2088C192.061 73.3902 191.931 72.3707 190.818 69.3108C190.369 68.0757 192.631 61.935 193.155 61.7985C193.192 61.7885 193.231 61.7826 193.269 61.7829ZM195.315 64.4222C195.76 64.6769 196.364 65.2632 196.47 66.1837C196.533 66.7178 196.27 67.427 196.1 68.1293C195.696 69.7992 195.148 72.9541 194.952 75.8689C194.869 77.1094 194.874 78.2259 194.819 78.3339C194.217 79.5159 192.948 76.3358 193.057 73.8037C193.451 71.7822 193.672 64.6999 195.315 64.4222ZM197.159 67.2868C197.379 67.2236 197.687 67.4308 198.14 68.0568C198.422 68.4504 198.6 68.752 198.687 69.0914C198.839 69.6812 198.711 70.3853 198.366 71.8874C197.448 75.869 197.583 80.1611 198.181 84.5667C198.307 85.4935 197.665 85.0285 196.694 83.4322C196.156 82.5471 195.81 81.3338 195.644 79.9014C195.306 76.7697 195.959 72.5247 196.514 69.1756C196.667 68.2493 196.792 67.3921 197.159 67.2868ZM199.662 70.4806L201.269 72.4204C201.269 72.4204 200.582 76.8838 200.587 79.2646C200.475 80.1563 201.385 89.8545 201.681 90.6388C200.694 89.5306 200.232 88.8788 199.15 87.4862C199.027 87.5063 198.091 77.9322 198.738 74.2701C199.129 72.055 199.662 70.4806 199.662 70.4806ZM202.183 74.3367C202.453 74.3267 202.794 74.6319 203.225 75.238C203.614 75.7849 203.804 76.2341 203.826 76.9153C203.841 77.4117 203.596 77.7952 203.588 78.6807C203.542 83.9558 204.253 88.9329 205.148 93.7327C205.464 95.45 204.849 94.7507 203.833 93.6642C202.902 92.6692 202.885 92.29 202.387 90.8759C202.288 90.5938 201.298 80.866 201.306 80.1306C201.342 77.1077 201.428 75.4245 201.775 74.6992C201.889 74.4623 202.022 74.3426 202.183 74.3367ZM191.466 74.7462C193.04 78.1692 194.456 81.6715 196.345 84.937C196.345 84.937 194.476 85.9006 193.987 85.5621C193.197 83.4035 190.347 77.6251 190.298 76.6017C190.349 76.2656 191.466 74.7462 191.466 74.7462ZM161.82 77.5873C161.579 77.6188 161.355 77.7408 161.156 77.9968C160.592 78.6607 159.921 78.3839 158.561 77.7852C157.864 77.5707 157.972 77.8573 156.821 78.4573C155.927 78.9225 155.613 78.9346 155.021 78.9295C154.241 78.9225 153.96 78.6478 153.958 79.1979C153.958 79.5023 153.911 80.8795 153.727 81.5904C153.476 82.558 153.257 82.9841 153.395 83.152C153.792 83.5165 154.126 83.2942 154.963 82.4838C156.351 81.1396 157.287 81.5255 158.833 82.0254C160.592 82.5939 160.956 82.8025 162.565 82.2389C164.844 81.4405 166.215 81.4402 167.123 82.0195C168.686 83.0178 169.16 82.9582 168.515 80.2286C168.308 79.3486 168.292 77.9843 168.164 77.748C168.019 77.4803 167.623 78.2432 167.207 78.5239C166.411 79.0605 165.999 79.052 164.205 78.4631C163.408 78.2013 162.54 77.4927 161.82 77.5873ZM189.525 78.0576C189.693 78.0249 189.861 78.1049 190.002 78.3534C190.696 79.9929 193.459 85.4711 193.375 86.0833C192.836 86.5676 192.116 86.9201 191.689 86.4869C190.308 83.9606 189.894 82.5976 188.772 79.7623C188.521 79.2539 189.022 78.1557 189.525 78.0576ZM204.838 78.1516C205.034 78.1243 205.442 78.5316 205.746 78.9392C206.692 80.2078 206.748 80.3642 206.778 81.7235C206.887 86.6526 207.506 92.4546 208.891 96.9284C209.164 97.809 209.681 98.8797 209.625 99.0251C209.16 99.7039 207.004 97.8864 206.354 95.1219C205.458 91.6114 204.933 87.9482 204.647 85.564C204.286 81.3705 204.29 78.3704 204.838 78.1516ZM187.822 80.3696C187.989 80.3524 188.141 80.4852 188.266 80.8692C189.062 82.4076 190.063 85.0627 190.738 86.6554C191.045 87.3469 189.473 87.8918 189.111 87.6567C188.483 87.1862 188.184 85.862 187.771 85.0683C186.458 82.1899 186.223 82.1304 186.951 81.2337C187.231 80.8442 187.545 80.3982 187.822 80.3696ZM207.955 82.6347C208.071 82.6348 208.221 82.7488 208.41 82.9933C209.241 83.977 209.804 84.7273 210.021 85.4562C210.179 85.9853 210.053 86.3825 210.11 87.3411C210.258 89.8521 210.916 93.2784 212.78 100.293C212.961 100.977 213.207 101.787 213.176 102.007C212.996 103.295 211.113 101.207 210.565 99.0505C209.929 96.6028 208.768 93.4783 208.426 90.5878C207.722 85.9998 207.331 82.6343 207.955 82.6347ZM185.588 82.8679C186.04 82.9539 186.28 83.762 186.606 84.4903C188.173 88.1555 188.297 88.1483 187.31 88.4384C186.268 88.745 186.204 88.6456 184.98 86.1498C184.086 84.3286 183.908 84.0984 184.66 83.4419C184.947 83.103 185.182 82.9298 185.38 82.8776C185.454 82.8581 185.523 82.8561 185.588 82.8679ZM164.784 83.6163C164.605 83.6203 164.081 84.0183 163.554 84.2277C162.259 84.7413 159.96 84.7762 158.559 84.3531C156.076 83.3539 156.775 84.6509 158.971 85.4405C160.675 86.0152 164.051 85.5706 164.574 84.5059C164.896 84.1652 165.013 83.6117 164.784 83.6163ZM183.267 85.4171C183.416 85.3903 183.554 85.4231 183.661 85.5425C185.06 87.7095 185.481 88.5755 185.244 88.7441C185.021 88.9681 183.912 89.3871 183.457 89.1634C182.885 88.8826 182.388 87.5438 182.137 86.4947C182.268 86.1104 182.819 85.4975 183.267 85.4171ZM148.626 86.4555C149.251 86.4575 150.876 88.6487 150.546 89.0439C150.455 89.247 149.846 89.0539 148.422 88.6578C147.946 88.4825 146.871 88.3419 147.211 87.6508C147.38 87.3368 148.377 86.4545 148.626 86.4555ZM181.001 87.1727C181.055 87.1647 181.105 87.1696 181.15 87.1903C181.363 87.3813 182.052 89.0634 182.16 89.4593C182.021 89.8339 180.966 89.9201 180.518 89.8923C180.133 89.0889 180.033 88.7057 179.926 88.1739C180.053 87.8946 180.622 87.2265 181.001 87.1727ZM211.259 87.347H211.269C211.492 87.355 211.879 87.7457 212.452 88.5678C213.536 90.1212 213.389 90.0085 214.167 93.719C215.05 97.9271 216.106 100.924 217.173 105.223C217.188 105.936 216.898 105.746 216.107 105.264C214.816 104.476 214.393 103.601 213.986 101.319C213.293 97.5516 211.825 94.0652 211.263 89.614C210.968 88.1482 210.943 87.3427 211.263 87.347H211.259ZM178.731 88.8499C179.493 88.8239 179.391 90.0014 179.172 90.192C178.615 90.6785 177.08 90.5331 176.816 90.5605C176.226 89.6334 178.234 88.8813 178.731 88.8499ZM215.134 92.8549C215.358 92.8859 215.96 93.7372 217.086 95.3238C218.168 96.8481 217.931 96.5984 218.579 99.1073C219.495 102.574 221.01 105.075 221.898 108.266C221.898 108.63 221.458 108.583 221.037 108.411C220.217 108.066 219.485 107.485 218.791 106.915C218.316 106.401 218.318 105.748 216.915 100.91C216.409 99.1645 216.278 98.7102 215.646 96.0585C215.117 93.8411 214.88 92.8198 215.134 92.8549ZM97.8245 103.212C101.503 109.999 100.141 113.008 92.2273 113.948C91.656 113.867 92.1962 117.425 92.1801 119.015C96.1451 116.741 100.939 116.21 105.358 114.783C104.155 118.644 102.043 123.022 95.6468 122.348C88.8094 117.169 81.092 120.281 75.7532 118.178C72.8492 117.094 71.7404 113.86 71.7058 113.305C75.1883 113.655 79.1197 114.402 82.4942 114.158C78.8081 111.311 79.8853 107.373 80.4048 105.571C76.0167 100.294 79.69 93.9951 85.9589 95.412C86.6064 95.5594 87.8834 96.1899 87.8834 96.1899C95.0382 89.9503 100.924 97.0778 97.8245 103.212ZM220.098 99.9106C220.348 99.8868 220.9 100.542 222.008 102.095C225.294 106.704 228.139 110.991 228.096 111.232C227.954 112.026 224.53 110.635 223.666 109.498C222.682 108.203 219.913 101.534 219.917 100.475C219.917 100.121 219.967 99.9231 220.098 99.9106ZM86.2632 119.65C87.9725 119.901 88.4508 120.048 88.4329 120.717C88.5791 121.286 84.2849 121.361 83.7028 120.939C83.2378 120.602 83.8362 119.864 84.2954 119.687C84.9684 119.5 85.6054 119.587 86.2632 119.65ZM204.224 120.475C180.543 131.99 170.909 161.975 182.947 184.991L181.281 186.199C169.408 161.717 178.24 135.483 197.532 122.234C198.313 121.677 200.04 121.247 200.843 120.714C200.843 120.714 192.974 122.514 190.31 123.559C189.77 123.54 188.182 124.101 186.477 125.955C184.986 127.34 180.324 133.784 180.473 134.008L168.086 134.508L168.098 134.966L180.256 134.684C167.737 155.348 170.811 175.01 178.541 188.769L178.822 189.03C182.993 186.726 187.27 182.408 190.175 178.592C183.148 155.834 190.694 137.96 210.39 127.762C210.409 127.452 210.347 126.852 210.282 126.331L208.905 125.001C187.028 134.719 178.271 158.744 187.181 180.597L185.71 182.203C174.559 159.664 186.407 131.531 207.181 123.331L206.321 122.501C183.787 133.1 173.989 159.946 185.058 182.84L183.662 184.078C171.07 159.017 184.268 130.944 205.027 121.248L204.224 120.475ZM82.5315 120.496C82.5315 120.496 82.3739 121.834 82.8454 122.291C83.0621 123.246 82.716 123.141 81.9058 122.947C79.9112 122.471 81.4669 123.608 83.0986 124.527C84.7059 125.431 84.4896 125.401 83.0866 126.292C82.1441 126.891 82.2418 127.117 82.3686 127.571C82.5565 128.246 82.6861 127.796 83.0768 127.436C83.8973 126.68 84.5528 126.491 85.282 126.494C86.377 126.498 86.4882 127.378 86.2943 128.063C85.8589 129.502 84.3804 129.424 83.169 129.066C81.1872 128.481 77.9513 125.036 78.0014 123.008C77.8638 121.191 80.3432 120.413 82.5315 120.496ZM90.2574 120.551C90.6494 120.543 91.149 120.836 91.4385 120.939C92.2064 121.222 93.173 121.602 94.2362 122.048C95.7051 122.516 97.1941 123.278 98.1541 123.919C101.077 125.873 100.898 129.78 100.687 130.168L85.5842 144.516C85.5842 144.516 84.7317 144.098 83.9284 143.687C81.3891 142.389 80.7789 141.703 82.1882 140.984C82.8717 140.635 83.0929 139.885 83.1907 139.151C83.3218 138.168 83.2701 138.336 83.8558 137.888C84.8764 137.108 84.9259 136.787 84.9309 135.491C84.9309 134.634 85.0223 134.239 85.3331 133.7C86.0928 132.227 85.7662 131.099 86.3729 129.617C87.2076 128.788 87.6018 126.55 88.3387 127.178C89.0661 127.94 88.7882 128.98 88.8292 129.523C88.9642 129.389 89.5708 129.101 89.6963 129.072C90.0127 129 90.3292 129.108 90.4105 129.605C90.3005 131.01 90.3854 132.501 90.6361 133.836C91.7576 137.715 91.5972 137.17 91.154 133.949C90.9154 132.215 90.8921 130.778 91.5935 129.155C92.2564 127.997 92.2913 127.769 90.8539 127.199C90.3197 126.987 89.4097 126.615 89.2216 126.245C88.9913 125.792 88.307 125.178 87.4147 124.967C85.2451 124.456 83.982 122.354 84.2953 122.042C84.5005 121.838 85.3748 122.105 85.9276 122.124C87.9083 122.195 88.3283 122.094 89.2059 121.339C89.6732 120.936 89.8836 120.577 90.2555 120.551H90.2574ZM194.242 123.265C173.952 139.72 170.397 166.338 180.518 186.878L178.766 188.258C166.046 164.164 174.591 138.172 190.218 123.958L194.242 123.265ZM77.1069 125.226C77.465 125.192 77.8563 125.718 79.2808 127.244C80.2402 128.272 81.2391 129.166 81.7644 129.466C82.9562 130.038 82.6978 129.799 81.7032 130.744C80.688 131.911 81.249 132.873 80.0355 132.288C76.8787 130.802 74.6609 126.425 76.714 125.371C76.8689 125.292 76.9877 125.237 77.1069 125.226ZM75.5374 129.829C75.6137 129.823 75.6981 129.834 75.7806 129.854C76.17 129.949 76.641 130.683 77.1481 131.194C78.5514 132.611 79.203 133.24 80.3244 133.738C81.4266 134.226 81.4571 134.345 80.6815 135.207C80.3992 135.521 80.2298 135.899 80.1636 136.109C80.0973 136.319 80.0812 136.584 79.8437 136.63C78.6148 136.866 74.5307 134.383 74.37 132.67C74.502 131.067 74.9058 129.877 75.5374 129.829ZM84.1932 130.305C84.9018 130.287 85.3175 130.918 85.3135 131.945C85.3135 132.656 84.9108 132.945 84.0992 133.25C82.3644 133.901 81.2952 132.657 82.5081 131.283C83.0179 130.705 83.7085 130.317 84.1932 130.305ZM83.1338 134.482C84.4425 134.487 84.8212 135.593 83.8617 136.547C82.9605 137.444 81.1427 137.449 81.1465 136.465C81.1465 135.694 82.301 134.479 83.1338 134.482ZM75.0196 135.805C75.905 136.067 78.0603 137.624 79.0081 137.807C79.0583 138.332 78.4273 138.476 79.322 139.463C79.7282 139.911 79.7633 140.217 79.4103 140.405C78.3293 140.983 74.5838 139.157 74.3329 137.278C74.2111 136.361 74.5158 135.838 75.0196 135.805ZM79.9065 138.054C81.1949 138.108 82.6516 138.146 82.4982 138.764C82.3871 139.211 81.9266 140.393 81.3368 140.172C81.0502 140.065 80.7708 139.778 80.5716 139.586C79.8841 138.925 79.7025 138.046 79.9065 138.054ZM75.9024 141.127C76.6915 140.737 79.2039 141.526 79.4495 142.145C80.4724 144.726 79.1264 150.333 76.7813 150.892C75.8818 151.106 74.8353 151.434 74.1446 149.826C74.0481 149.816 75.5718 141.285 75.9024 141.127ZM129.466 142.62C128.913 143.022 128.842 143.079 128.628 143.401C132.381 146.808 146.016 182.388 117.602 208.31L111.572 210.123C138.852 188.649 134.314 158.163 126.953 145.012C126.174 145.172 125.87 145.876 125.748 146.043C134.062 158.867 137.17 195.074 104.46 212.578C104.471 212.59 104.607 212.728 104.609 212.731C104.642 212.796 104.82 212.97 104.964 213.097C105.021 212.626 119.721 209.047 118.683 208.957C132.385 196.815 144.316 167.858 129.466 142.62ZM124.536 147.036C123.857 147.751 123.793 147.647 123.559 148.077C135.364 171.311 124.403 199.883 102.615 210.679C103.009 211.083 103.111 211.189 103.42 211.508C128.409 197.947 135.459 169.194 124.536 147.036ZM122.605 149.015C122.087 149.357 122.017 149.355 121.734 149.905C131.54 169.746 123.853 197.277 100.571 208.575C100.766 208.774 101.074 209.094 101.454 209.482C128.592 194.859 131.107 167.054 122.605 149.015ZM120.353 151.384C119.431 152.612 117.577 154.333 117.577 154.333C120.507 156.562 127.466 189.368 97.9855 203.894C97.9714 204.947 97.0987 205.87 99.0488 207.137C120.399 197.441 129.688 171.669 120.353 151.384ZM227.457 191.938C228.243 191.993 228.948 192.232 229.677 192.327C232.329 192.672 234.051 194.611 232.865 195.79C232.476 196.177 231.932 195.954 230.209 195.11C229.417 194.722 229.29 194.357 229.126 193.482C228.93 192.432 228.721 192.326 228.455 193.141C228.186 193.963 227.897 194.473 226.992 194.265C224.449 193.673 225.409 191.918 227.457 191.938ZM225.675 195.292C227.011 195.36 226.906 196.279 225.973 197.124C225.097 197.789 224.496 197.918 224.002 197.418C223.135 196.543 224.339 195.224 225.675 195.292ZM228.924 195.88C229.766 195.88 230.84 196.265 232.116 197.328C233.639 198.597 233.987 201.669 232.589 202.201C232.003 202.423 231.911 202.201 230.662 201.015C229.82 200.213 228.907 199.489 228.008 199.06C226.172 198.184 225.938 197.852 227.178 197.255C227.439 197.121 227.777 196.806 227.931 196.558C228.25 196.046 228.348 195.882 228.924 195.88ZM224.376 198.839C225.667 198.932 225.836 200.463 224.688 201.027C224.357 201.296 223.285 200.9 223.227 201.198C223.306 201.719 222.781 201.5 222.679 201.311C222.502 201.09 222.461 200.774 222.462 200.52C222.482 199.673 223.437 198.729 224.376 198.839ZM226.75 199.965C226.8 199.965 226.862 199.965 226.941 199.975C227.184 199.985 227.51 200.13 228.02 200.404C231.114 202.099 232.628 204.756 231.58 206.255C230.893 207.238 229.774 206.862 228.922 205.467C228.442 204.682 227.167 203.677 225.72 202.942C224.063 202.1 224.029 201.979 225.226 201.404C225.717 201.168 226.084 200.835 226.325 200.41C226.533 200.041 226.598 199.975 226.75 199.969V199.965ZM223.599 203.41C224.181 203.44 224.746 203.646 224.902 204.223C225.106 204.978 223.662 205.424 222.493 205.444C221.898 205.455 221.21 205.57 221.031 205.152C220.864 204.759 221.439 204.036 221.679 203.858C222.153 203.526 222.55 203.496 223.027 203.433C223.21 203.411 223.405 203.4 223.599 203.41ZM226.399 204.826C226.992 204.954 227.615 205.984 227.931 206.3C230.269 208.636 230.002 209.902 228.483 210.854C227.446 211.503 225.783 211.664 225.238 211.126C224.356 210.354 224.379 209.47 225.353 209.186C226.262 208.991 225.922 208.626 225.073 208.41C222.041 207.548 220.179 205.934 223.474 206.284C224.42 206.385 225.335 205.648 225.83 205.06C226.009 204.842 226.201 204.784 226.399 204.826ZM68.4943 207.199L136.588 304.652H81.5643C83.5019 289.152 79.6127 271.95 74.4683 260.726C80.0671 259.774 85.4017 258.289 90.7402 256.815L89.6551 255.406C83.2854 257.958 77.4092 258.892 71.8766 259.525C79.2207 272.055 81.842 289.329 79.6398 304.652H69.1515V228.996L68.4943 207.199ZM211.773 210.505C216.487 211.96 220.976 214.244 225.343 213.889C227.749 213.903 230.209 214.292 232.54 215.546C234.113 216.29 234.931 219.081 234.931 219.081C232.463 220.375 224.781 218.052 224.781 218.052C229.656 221.19 227.937 226.981 226.893 227.693C233.626 236.22 223.159 240.585 219.839 237.519C214.922 242.416 206.488 238.313 209.737 230.242C209.737 230.242 203.561 218.418 215.738 219.208C215.738 219.208 215.948 214.43 215.605 214.212C211.52 213.88 206.618 217.398 202.542 219.569C201.32 213.21 207.385 211.481 211.773 210.505ZM80.6893 221.703C81.6528 221.665 84.0551 223.364 84.3484 224.642C84.4076 224.903 85.0319 226.475 85.7315 227.936C85.7455 228.205 88.1108 232.488 87.0713 232.115C85.0033 229.298 81.3088 224.502 80.3793 222.165C80.3793 221.854 80.4195 221.713 80.6893 221.703ZM85.7157 224.405C86.2534 224.432 87.6938 225.603 88.0601 225.986C88.1894 226.694 88.9057 228.545 89.4707 229.764C90.9434 232.941 93.2224 237.923 92.759 239.341C92.6059 239.809 92.6054 240.036 92.5465 240.007C91.4939 238.779 90.4914 237.012 89.5084 235.727C89.4531 235.62 89.5285 235.553 89.2747 234.58C88.2588 229.959 86.6175 227.532 85.551 224.832C85.4556 224.515 85.5369 224.396 85.7157 224.405ZM89.3728 226.691C89.571 226.831 92.2756 228.738 92.5491 229.011C93.5078 232.428 97.3392 243.375 96.3472 245.331C96.0016 245.06 94.541 243.295 94.3382 242.386C93.8963 237.151 92.239 233.385 90.4615 229.483C89.9614 228.307 89.5692 227.132 89.3728 226.691ZM94.458 230.536C95.3141 230.954 96.2003 231.913 96.7023 232.769C97.0378 233.351 97.2104 234.034 97.5263 235.473C98.5063 239.94 100.376 244.468 99.5352 249.234C99.0109 249.947 97.8698 248.332 97.7067 246.74C97.1664 241.462 96.7018 238.932 94.8504 232.724C94.4912 231.52 94.2193 230.577 94.458 230.536ZM98.8016 234.631C98.9844 234.641 99.3594 234.979 99.9845 235.567C101.2 236.711 101.372 237.132 101.38 239.03C101.419 241.819 102.346 245.005 102.49 247.821C102.573 249.446 102.868 253.65 102.617 253.899C102.264 254.389 100.695 252.607 100.816 249.877C101.016 246.595 100.852 244.124 99.4568 238.446C98.8118 235.821 98.4866 234.699 98.7662 234.635H98.8014L98.8016 234.631ZM102.547 238.581C102.997 238.635 104.102 240.213 104.601 241.655C105.059 242.993 104.909 244.691 105.242 246.132C105.992 251.072 105.945 256.021 105.747 257.516C105.647 258.261 105.168 257.959 104.513 257.248C103.559 256.215 103.691 256.192 103.702 253.323C103.713 250.865 103.168 244.79 102.918 243.556C102.454 241.273 102.261 239.094 102.37 238.72C102.4 238.615 102.463 238.571 102.547 238.581ZM145.216 239.051C145.871 239.051 146.526 239.092 147.182 239.171C152.097 239.955 156.025 243.319 158.276 248.856C160.45 254.486 160.986 262.169 161.323 269.232C161.3 270.921 160.605 270.495 158.784 269.445C156.795 268.471 156.373 268.753 153.47 269.42C151.658 269.836 151.822 268.6 154.802 266.552C155.817 265.888 156.997 265.001 156.609 264.868C156.412 264.801 155.505 265.046 154.849 265.578C151.925 267.947 151.131 268.524 151.975 266.22C152.188 265.638 152.865 264.023 153.148 263.25C154.207 260.356 152.986 259.118 149.389 257.286C148.489 256.827 147.898 256.061 148.796 257.662C149.531 258.971 148.011 260.029 146.13 258.497C144.823 257.432 142.197 258.142 141.349 259.471C140.528 260.757 140.968 263.158 142.587 263.936C144.013 264.552 144.546 264.107 143.166 263.148C141.391 261.915 141.736 259.835 143.729 259.843C144.221 259.843 145.09 260.395 147.288 261.592C148.86 262.445 149.98 262.084 149.981 260.811C149.981 259.958 150.47 260.028 151.504 260.54C152.897 261.23 152.744 261.856 152.008 263.785C151.512 265.132 151.264 266.664 150.809 268.072C149.636 272.812 149.48 278.179 150.778 279.852C154.228 284.302 157.892 283.831 161.029 280.89L160.896 285.764C157.697 288.338 153.959 290.092 148.189 299.634C146.176 297.1 137.543 286.742 123.698 284.402L120.583 280.128C120.636 279.863 118.255 264.236 116.698 258.916C116.698 258.916 118.411 256.307 119.967 254.386C125.794 247.188 135.393 239.016 145.216 239.051ZM130.219 242.523C130.704 242.553 130.692 243.109 129.126 243.607C128.594 243.776 128.421 242.712 128.711 242.51C129.225 242.449 129.781 242.497 130.219 242.523ZM126.719 242.788C126.963 242.774 127.15 242.778 127.312 242.99C128.057 243.947 128.36 244.526 127.681 245.051C126.781 245.804 125.961 245.614 125.462 244.183C125.141 243.164 125.898 242.843 126.719 242.788ZM105.762 242.809C106.454 243.302 107.297 244.631 108.123 245.842C108.591 248.616 108.571 251.495 108.774 254.416C108.987 257.489 108.701 260.059 108.252 260.986C107.794 262.095 106.866 261.328 106.635 259.811C106.58 259.446 106.884 255.678 106.884 253.609C106.884 250.05 105.976 245.657 105.762 242.809ZM123.988 243.743C124.674 244.221 125.345 245.707 125.628 246.618C125.577 246.9 125.33 247.138 124.791 247.574C124.256 248.066 124.087 248.034 123.49 247.09C122.554 245.624 122.116 244.659 122.299 244.153C122.891 243.603 123.454 243.371 123.988 243.743ZM156.67 243.816C158.011 243.93 159.337 244.545 160.642 244.855L158.649 246.785C158.057 245.795 157.383 244.806 156.67 243.816ZM119.717 244.582C120.111 244.539 120.711 244.558 120.967 244.823C121.703 245.784 122.986 248.295 122.917 249.228C122.729 249.546 122.439 249.828 122.13 250.006C121.886 250.072 121.664 249.644 120.834 248.172C119.39 245.613 118.968 244.89 119.717 244.582ZM118.055 245.415C118.863 246.114 120.731 250.01 120.839 251.016C120.817 251.318 120.73 251.579 120.551 251.783C119.34 253.088 119.646 252.879 117.844 249.159C116.321 246.099 115.919 245.796 116.925 245.452C117.327 245.291 117.746 245.147 118.055 245.415ZM115.162 246.414C115.69 246.404 115.838 247.293 116.869 249.31C118.593 253.125 119.241 253.654 118.85 254.062C118.369 254.67 118.087 255.099 117.63 254.36C116.59 252.664 115.559 250.502 114.591 248.603C113.816 247.186 113.746 247.012 114.244 246.665C114.529 246.466 114.955 246.417 115.162 246.414ZM147.804 247.353C147.005 247.343 146.276 247.413 145.946 247.498C145.298 247.681 142.692 248.506 144.288 248.656C144.611 248.686 145.428 248.482 146.003 248.442C147.616 248.331 150.971 248.635 150.851 248.325C150.659 247.599 149.135 247.368 147.804 247.353ZM113.739 249.391C116.255 254.105 117.555 255.866 117.12 256.617C116.761 257.07 116.207 257.64 115.88 257.504C115.353 257.287 114.65 255.734 112.896 252.216C111.083 248.581 110.895 248.309 111.827 247.837C113.013 247.181 113.266 248.503 113.739 249.391ZM109.588 248.438C109.928 248.403 110.275 249.23 110.457 249.53C111.584 251.365 111.435 251.123 111.422 257.097C111.411 260.815 110.938 263.187 110.318 264.102C109.993 264.581 109.419 264.299 109.135 263.361C109.005 262.932 109.375 262.296 109.445 261.617C109.883 257.143 109.578 252.673 109.588 248.438ZM139.003 249.218C138.882 249.218 138.796 249.255 138.767 249.33C138.652 249.627 138.889 250.094 139.517 250.994C140.041 251.744 139.913 252.351 139.909 253.36C139.898 254.789 140.007 254.893 140.99 254.172C141.862 253.532 141.932 253.491 143.488 254.55C144.411 255.178 145.573 255.249 146.326 254.56C146.857 254.071 147.042 254.292 147.753 254.478C148.526 254.909 148.746 254.974 150.407 254.166C151.528 253.669 151.573 253.597 152.24 253.949C153.413 254.985 153.587 254.61 153.429 253.255C153.429 252.782 153.568 251.899 153.707 251.325C154.291 248.914 153.346 248.887 152.096 250.424C151.612 251.019 150.534 251.276 149.515 250.796C148.055 250.108 145.775 250.386 144.09 250.67C142.097 251.006 141.175 250.456 140.374 249.771C140.034 249.48 139.364 249.213 139.003 249.223V249.218ZM112.786 254.375C113.035 254.321 113.418 255.063 113.979 256.633C114.702 258.659 113.439 265.703 112.678 266.857C112.276 267.462 112.017 267.833 111.191 266.712C110.862 266.219 111.119 266.061 111.444 264.676C111.94 262.568 112.357 259.159 112.384 257.573C112.395 255.515 112.503 254.437 112.786 254.375ZM115.326 261.208C115.506 261.221 115.716 261.628 116.003 262.43C116.41 263.533 116.212 265.658 115.678 267.286C115.368 268.234 115.075 269.244 114.548 270.092C114.368 270.567 113.448 270.402 113.194 269.347C113.034 268.68 113.588 267.85 113.855 266.788C114.124 265.721 114.431 264.365 114.583 263.682C114.864 262.016 115.064 261.189 115.326 261.208ZM134.993 264.329C134.971 264.329 134.949 264.329 134.935 264.339C134.935 264.329 134.921 264.35 134.915 264.355C134.874 264.397 136.832 266.537 137.358 267.136C137.633 267.369 139.995 270.246 138.527 269.585C134.824 268.046 130.489 268.8 127.821 271.38C127.487 271.703 127.21 271.37 126.199 271.297C124.126 271.143 123.372 271.967 124.633 272.99C124.826 273.147 125.228 273.217 125.41 273.468C125.577 273.699 125.527 274.113 125.614 274.229C129.622 279.562 137.045 280.601 141.705 277.117C142.292 276.678 142.621 276.525 143.167 276.688C144.251 277.011 144.348 276.1 143.391 274.828C142.973 274.274 142.457 273.635 142.757 273.451C143.349 272.94 143.641 272.106 142.612 271.793C141.902 271.578 141.107 270.787 140.709 269.683C140.243 268.393 135.679 264.43 134.988 264.336L134.993 264.329ZM116.782 266.641C116.98 266.614 117.093 266.893 117.118 266.943C117.657 268.035 117.573 272.025 116.747 273.37C116.252 273.962 115.121 272.859 115.291 271.728C115.42 270.867 116.365 267.007 116.557 266.788C116.641 266.692 116.716 266.65 116.782 266.641ZM134.559 269.884C135.29 269.874 136.29 270.206 137.086 270.926C137.516 271.316 138.27 273.003 137.957 273.664C137.87 274 136.966 273.981 136.884 273.734C136.387 270.329 133.634 269.835 132.76 273.013C132.76 273.013 132.193 273.497 132.12 272.566C132.316 270.762 133.163 269.898 134.559 269.884ZM156.728 270.172C157.603 270.156 158.436 270.597 158.865 271.534C159.164 272.187 159.197 272.736 159.079 273.023C158.99 273.237 158.696 273.144 158.696 273.144C157.299 269.302 155.397 271.079 154.708 273.204C154.708 273.204 153.989 273.427 153.899 273.194C153.81 272.964 153.864 272.532 154.15 271.934C154.696 270.792 155.737 270.187 156.728 270.168V270.172ZM138.033 270.419C138.528 270.392 139.376 270.794 140.009 271.434C140.653 272.084 140.715 272.473 140.196 272.954C139.883 273.244 138.773 273.531 138.557 273.027L137.623 270.838C137.535 270.63 137.809 270.431 138.033 270.419ZM131.3 270.521C131.854 270.521 131.97 270.649 131.1 272.678C130.914 273.112 128.684 272.482 129.109 271.645C129.747 270.98 130.746 270.52 131.3 270.521ZM154.135 270.807C153.935 270.879 153.093 273.017 153.093 273.017C152.297 272.921 151.343 273.033 151.17 272.38C151.008 271.763 151.329 271.387 152.451 270.956C153.104 270.661 154.08 270.606 154.135 270.807ZM160.187 271.23C161.024 271.563 161.229 272.259 161.121 272.629C161.039 272.91 160.615 272.943 160.358 272.696C160.06 272.409 159.765 271.848 159.723 271.491C159.673 271.081 160.066 271.182 160.187 271.23ZM118.085 273.207C118.345 273.697 118.813 276.474 118.265 276.403C117.734 276.265 117.486 275.427 117.392 274.673C117.373 274.517 117.847 273.225 118.085 273.207ZM127.384 274.688C127.63 274.653 128.251 274.872 129.172 275.394C132.202 276.861 135.309 277.069 138.608 276.33C140.511 275.835 140.998 275.545 141.267 275.872C141.723 276.428 141.001 276.985 138.314 277.89C135.367 278.883 132.309 278.716 128.289 275.872C127.208 275.108 127.068 274.734 127.384 274.688ZM160.756 275.249C160.86 275.266 160.946 275.329 161.013 275.455C161.512 276.387 159.836 277.372 158.953 277.522C156.573 277.924 154.28 277.716 152.414 276.611C151.142 275.661 151.668 274.983 153.085 275.715C154.609 276.503 157.709 276.647 159.353 275.852C159.971 275.553 160.445 275.196 160.756 275.249ZM123.384 277.194C123.215 277.233 123.5 277.662 124.09 278.303C128.236 282.968 138.127 285.497 143.686 280.69C145.427 279.052 145.161 278.316 142.414 279.624C137.852 280.757 131.898 281.823 124.989 278.137C124.033 277.437 123.533 277.161 123.384 277.194ZM151.792 277.244C151.816 277.234 151.903 277.244 151.939 277.254C152.192 277.274 152.634 277.511 153.625 277.954C155.356 278.727 158.333 278.412 159.265 278.048C161.451 277.196 161.917 278.269 159.832 279.424C157.509 280.833 154.303 280.282 152.432 278.466C151.853 277.945 151.538 277.299 151.792 277.247V277.244ZM124.44 285.585C132.604 286.332 145.367 294.897 150.171 304.652H147.007C142.181 296.975 134.755 290.353 125.942 288.048C125.594 287.779 124.253 285.925 124.44 285.585ZM160.337 287.416V290.07C158.969 291.194 153.724 295.687 150.005 302.208C149.74 301.866 149.363 301.094 148.875 300.548C152.799 293.649 156.755 289.701 160.337 287.416ZM127.637 289.482C129.51 289.353 141.697 296.357 145.8 304.652H143.643C139.027 298.626 133.896 294.251 129.342 292.674C128.235 291.503 126.933 289.533 127.637 289.482ZM160.337 291.45V295.003C157.422 297.849 155.275 301.154 153.606 304.652H151.344C151.411 304.694 150.919 304.091 150.669 303.208C153.136 298.885 155.905 295.085 160.337 291.45ZM130.823 294.355C131.916 294.355 140.604 300.764 141.832 304.652H139.64C137.791 302.031 135.046 299.067 132.524 297.566C131.491 296.283 130.243 294.698 130.709 294.441C130.709 294.382 130.75 294.355 130.823 294.355ZM160.337 296.679C160.36 296.695 160.347 296.732 160.337 296.794V299.718C159.069 301.191 157.824 302.432 156.433 304.652H154.567C156.161 301.202 159.979 296.451 160.337 296.679ZM135.157 300.864C135.18 300.864 135.211 300.864 135.248 300.876C135.924 301.055 138.391 303.86 138.312 304.652H137.202C136.578 303.863 135.839 302.565 135.401 301.758C135.161 301.311 134.996 300.894 135.157 300.864ZM160.337 301.526V304.652H157.737C157.535 304.615 159.365 302.026 160.337 301.37V301.526Z" fill="#004C97"/>
<path d="M198.413 27.5718C188.925 27.5728 179.51 27.6267 170.14 27.7227L239.903 126.952L239.962 104.909L217.575 75.9453C222.67 74.3701 228.891 73.2831 233.79 72.8456C227.498 58.8632 224.351 45.7302 227.123 27.7325C217.463 27.6211 207.9 27.5705 198.413 27.5718ZM225.961 28.1929C225.415 34.5467 224.698 41.6324 225.848 49.5013C222.217 48.1724 221.365 50.444 220.762 50.6828C220.079 49.1561 217.548 46.5143 214.683 49.6189C213.193 51.233 213.917 54.2689 217.374 55.6382C213.415 55.9428 211.357 52.5512 210.663 49.0526C208.523 47.6795 206.274 46.3218 206.06 41.507L207.157 41.6892C206.792 45.0486 210.275 46.7607 212.313 45.1574C213.63 44.1455 213.77 42.5827 213.25 40.157C214.309 39.9399 216.788 38.9013 216.132 35.7092C215.228 31.3023 210.713 31.8194 208.65 34.7177C206.935 32.5899 203.791 32.1933 202.531 35.4976C201.828 37.3382 203.429 39.4066 205.248 39.8063C201.21 40.5825 199.174 34.9999 198.948 31.2222L197.275 28.2458C208.192 28.1826 212.966 28.1939 225.961 28.1929ZM171.276 28.3027L179.378 28.3127L238.514 105.023L238.637 124.121L171.276 28.3027ZM191.762 28.3127L193.053 28.3303C194.065 35.0822 197.94 39.969 204.565 42.3478C204.909 47.8641 207.561 55.358 217.629 57.8897C217.333 64.1184 221.325 70.071 225.599 72.9242C225.599 72.924 224.444 73.21 223.542 73.2965C217.797 68.7296 215.813 59.23 215.813 59.23C213.988 58.574 204.663 55.1525 202.719 42.6535C198.538 41.8744 191.968 35.1019 191.762 28.3147V28.3127ZM186.551 28.3303H191.093C191.556 33.7695 194.892 40.3598 202.248 43.4529C203.977 52.2774 207.494 56.2446 215.287 59.8785C216.467 65.0189 219.564 71.4245 222.775 73.5042L220.984 73.8999L186.551 28.3303ZM208.726 36.6519C209.753 36.6519 210.584 37.4864 210.584 38.5153C210.584 39.5441 209.753 40.3747 208.726 40.3747C207.7 40.3747 206.866 39.5441 206.866 38.5153C206.866 37.4864 207.7 36.6519 208.726 36.6519ZM146.075 46.8211C146.183 47.0903 120.687 68.7115 123.168 109.39L122.429 110.217L122.633 110.507C121.791 111.465 120.977 112.234 120.059 113.168C125.346 116.546 134.561 120.235 134.59 120.138L132.829 124.227L143.845 127.793L142.367 131.682C142.367 131.682 134.704 129.135 131.528 128.073C129.961 131.556 129.014 135.235 127.873 138.858C127.765 139.15 127.514 139.008 127.123 138.442C121.402 128.66 109.651 121.601 110.047 122.301L68.3706 161.941L68.0861 186.438L96.9298 216.236C96.9298 216.236 88.5821 220.354 84.6327 223.055C87.7039 225.567 91.1794 227.501 94.2322 229.877C100.548 234.342 104.81 240.907 108.903 245.353C128.208 235.758 147.65 236.291 164.44 242.116C162.484 244.179 160.3 245.966 158.284 248.204C163.164 261.041 161.602 286.536 161.356 287.229C171.517 276.824 186.631 254.511 184.615 223.096L188.892 218.799C188.813 218.579 178.198 212.882 173.773 211.642L174.995 207.736L164.397 204.417L165.58 201.317L176.135 204.382C178.134 199.463 180.251 192.573 180.251 192.573C184.467 198.895 189.114 204.644 198.677 210.495L240.115 170.753L239.848 145.198L211.634 116.916L223.378 110.782C222.249 109.869 220.613 109.005 219.452 108.091C219.369 108.026 219.686 107.828 219.603 107.764C219.308 107.537 219.091 107.353 218.791 107.143C218.723 107.096 218.512 107.402 218.445 107.355C214.461 104.553 210.474 101.797 207.337 98.4453C207.258 98.361 207.377 98.0125 207.298 97.928C205.668 96.1821 204.044 94.5578 202.386 92.8394C201.617 92.0615 200.347 90.2139 200.347 90.2139L200.275 89.6045L198.493 87.3571C192.756 90.7494 168.295 99.2632 144.626 89.8357L149.124 85.3271C147.927 82.431 147.149 79.1998 146.841 76.553C145.603 65.9376 146.078 46.8211 146.078 46.8211H146.075ZM220.688 52.8325C221.771 52.8325 222.65 53.7141 222.65 54.7998C222.65 55.8855 221.771 56.767 220.688 56.767C219.605 56.767 218.73 55.8855 218.73 54.7998C218.73 53.7141 219.605 52.8325 220.688 52.8325ZM226.825 55.1721C227.823 60.0613 230.022 67.1607 232.21 71.9464L229.603 72.2364C227.48 70.8541 225.238 68.8372 225.002 65.9762C219.263 66.0203 217.581 56.9947 219.678 58.0778C219.41 61.1607 221.617 62.3755 223.782 62.0731C225.645 61.8126 227.257 59.2345 225.039 56.3869C226.025 56.0023 226.507 55.7113 226.825 55.1721ZM145.489 69.6304C145.869 75.883 147.09 80.443 148.233 85.1665L136.894 95.8941C137.778 86.1033 140.649 77.3523 145.489 69.6304ZM199.878 90.2256L201.316 92.2947C184.928 101.942 156.956 102.626 139.915 94.4912L142.177 92.332C157.162 99.1151 181.561 99.6197 199.878 90.2256ZM93.4377 93.4449C91.7868 93.4253 89.8793 94.0561 87.86 95.5983C80.3418 92.1648 75.4176 100.191 80.0674 105.507C79.3791 109.333 78.8608 110.047 81.733 113.921C78.6819 114.31 74.8268 113.509 71.5508 113.004C72.1044 118.67 80.1999 119.989 83.5694 119.366C87.2073 118.575 90.6376 120.38 90.7871 120.422C92.9261 121.02 94.2555 122.053 96.3648 122.55C100.335 123.023 104.915 119.868 105.619 114.34C103.241 114.95 100.629 115.808 98.313 116.317C96.0442 116.875 94.3336 117.426 92.6058 118.782L92.4606 114.101C104.238 114.663 99.1133 103.438 98.4464 102.956C100.634 98.5273 98.0036 93.5026 93.4396 93.4449H93.4377ZM200.49 93.7976L203.051 99.9736L196.245 102.288L194.505 96.241L200.49 93.7976ZM92.9472 93.9837C96.9505 94.0229 100.529 98.249 96.6846 102.981C104.137 109.571 94.5877 116.631 90.0397 111.73C83.985 117.288 77.5519 111.482 80.9345 105.429C74.4775 99.636 82.4419 91.8679 87.8816 96.8719C89.2178 94.8132 91.1276 93.9661 92.9472 93.9837ZM139.424 96.2449C140.383 96.2449 141.159 97.024 141.159 97.9848C141.159 98.9454 140.383 99.7248 139.424 99.7248C138.466 99.7248 137.688 98.9454 137.688 97.9848C137.688 97.024 138.466 96.2449 139.424 96.2449ZM95.2034 96.3546C95.1662 96.3385 95.1241 96.3429 95.0798 96.3742C93.4404 97.5294 92.4915 99.2674 91.0245 100.663C89.0663 100.021 87.6242 100.456 86.3337 101.275C84.3637 100.234 83.8316 99.4342 81.8841 98.4943C81.2506 98.1885 81.2195 98.9079 81.4073 99.0977C82.8067 100.512 84.1148 101.102 85.7078 102.319C85.5556 103.792 85.7951 104.989 86.3513 106.105C85.2558 108.186 84.2182 108.772 83.2751 111.005C83.131 111.346 83.4445 111.539 83.6929 111.332C85.3393 109.96 86.1254 108.676 87.4892 106.884C89.5845 107.612 90.3192 107.17 91.6327 106.702C92.9319 107.7 93.9626 108.67 95.6173 109.616C96.1345 109.911 96.1611 109.141 96.1431 109.126C94.9155 108.119 93.5489 107.131 92.3645 105.934C93.0763 103.273 92.3534 102.396 91.8054 101.535C92.8221 100.075 94.1551 98.8119 95.4054 96.7367C95.3874 96.621 95.314 96.4027 95.2034 96.3546ZM143.338 96.7523L149.469 98.6628L148.118 105.052L141.584 102.94L143.338 96.7523ZM187.699 98.3218L189.408 104.555L183.031 106.253L181.986 99.6366L187.699 98.3218ZM192.176 98.4257C193.134 98.4257 193.91 99.203 193.91 100.164C193.91 101.124 193.134 101.904 192.176 101.904C191.217 101.904 190.439 101.124 190.439 100.164C190.439 99.203 191.217 98.4257 192.176 98.4257ZM206.672 98.6471L212.032 103.432L206.082 106.444L203.217 100.211L206.672 98.6471ZM156.124 100.03L162.353 100.765L162.1 107.474L154.953 106.516L156.124 100.03ZM134.518 100.101L141.449 103.15L138.952 110.149L131.853 107.094L134.518 100.101ZM152.383 100.644C154.937 101.044 154.25 104.067 152.383 104.124C151.424 104.124 150.646 103.344 150.646 102.384C150.646 101.423 151.424 100.644 152.383 100.644ZM174.787 100.655L175.641 107.368L169.175 107.762L169.035 100.94L174.787 100.655ZM89.1568 101.23C90.5471 101.23 91.6778 102.354 91.6778 103.747C91.6778 105.141 90.5471 106.273 89.1568 106.273C87.767 106.273 86.6456 105.141 86.6456 103.747C86.6456 102.354 87.767 101.23 89.1568 101.23ZM179.235 101.42C180.193 101.42 180.969 102.199 180.969 103.16C180.969 104.12 180.193 104.898 179.235 104.898C178.277 104.898 177.499 104.12 177.499 103.16C177.499 102.199 178.277 101.42 179.235 101.42ZM165.788 101.984C166.747 101.984 167.525 102.763 167.525 103.724C167.525 104.685 166.747 105.462 165.788 105.462C164.83 105.462 164.052 104.685 164.052 103.724C164.052 102.763 164.83 101.984 165.788 101.984ZM196.241 102.413L198.76 109.314L191.695 111.597L189.696 104.51L196.241 102.413ZM89.198 102.46C88.4633 102.46 87.8679 103.055 87.8679 103.789C87.8679 104.522 88.4633 105.117 89.198 105.117C89.932 105.117 90.5282 104.522 90.5282 103.789C90.5282 103.055 89.932 102.46 89.198 102.46ZM201.197 102.599C202.155 102.599 202.933 103.378 202.933 104.339C202.933 105.3 202.155 106.079 201.197 106.079C200.238 106.079 199.462 105.3 199.462 104.339C199.462 103.378 200.238 102.599 201.197 102.599ZM213.413 104.557L217.975 107.792L215.715 109.055C215.122 107.633 214.077 105.946 213.413 104.557ZM148.159 105.184L154.898 106.647L153.868 113.725L146.515 112.255L148.159 105.184ZM128.114 105.572L131.693 107.259L129.332 113.156L123.545 110.064L128.114 105.572ZM144.113 105.954C145.072 105.954 145.848 106.733 145.848 107.694C145.848 108.654 145.072 109.434 144.113 109.434C143.155 109.434 142.379 108.654 142.379 107.694C142.379 106.733 143.155 105.954 144.113 105.954ZM183.035 106.342L184.238 113.419L176.638 114.491L176.167 107.274L183.035 106.342ZM211.496 106.477C212.455 106.477 213.229 107.256 213.229 108.217C213.229 109.177 212.455 109.957 211.496 109.957C210.538 109.957 209.76 109.177 209.76 108.217C209.76 107.256 210.538 106.477 211.496 106.477ZM206.105 106.53L208.618 112.766L201.183 115.884L198.982 109.641L206.105 106.53ZM187.142 106.978C188.1 106.978 188.876 107.758 188.876 108.718C188.876 109.679 188.1 110.458 187.142 110.458C186.183 110.458 185.405 109.679 185.405 108.718C185.405 107.758 186.183 106.978 187.142 106.978ZM162.029 107.688L169.143 107.817L169.061 114.973L161.268 114.755L162.029 107.688ZM218.942 108.185L221.739 110.133C192.934 128.702 152.469 131.003 120.89 112.725C120.89 112.725 122.183 111.437 122.917 110.682C151.385 127.761 192.943 125.363 218.942 108.185ZM158.17 108.993C159.129 108.993 159.905 109.772 159.905 110.733C159.905 111.693 159.129 112.473 158.17 112.473C157.212 112.473 156.434 111.693 156.434 110.733C156.434 109.772 157.212 108.993 158.17 108.993ZM172.779 109.386C173.737 109.386 174.515 110.166 174.515 111.126C174.515 112.087 173.737 112.866 172.779 112.866C171.82 112.866 171.044 112.087 171.044 111.126C171.044 110.166 171.82 109.386 172.779 109.386ZM138.889 110.345L146.318 112.498L145.053 118.378L136.903 116.029L138.889 110.345ZM133.97 110.386C134.929 110.386 135.707 111.165 135.707 112.126C135.707 113.086 134.929 113.864 133.97 113.864C133.012 113.864 132.238 113.086 132.238 112.126C132.238 111.165 133.012 110.386 133.97 110.386ZM191.691 111.638L193.467 118.239L185.25 119.999L184.26 113.507L191.691 111.638ZM196.41 112.596C197.368 112.596 198.146 113.375 198.146 114.336C198.146 115.297 197.368 116.076 196.41 116.076C195.451 116.076 194.675 115.297 194.675 114.336C194.675 113.375 195.451 112.596 196.41 112.596ZM89.0646 113.621L89.0465 118.249C87.684 117.123 86.1449 115.925 84.5694 114.714C86.1765 114.799 87.67 114.354 89.0622 113.621H89.0646ZM72.1531 113.734C72.528 113.734 73.405 114.039 74.4505 114.036C77.7961 114.025 84.0439 115.071 85.8922 116.593C86.5083 117.099 87.4308 117.546 87.9326 118.362C87.9326 118.752 87.3824 118.763 86.575 118.261C85.026 117.296 82.4494 116.436 79.0001 115.956C78.3768 115.87 78.2972 115.895 78.2958 116.189C78.2958 116.553 78.8708 116.765 80.6873 117.063C83.0382 117.45 83.5389 117.683 84.0598 117.826C85.4561 118.209 84.5632 118.721 83.126 118.858C77.2605 119.409 72.8701 116.879 71.9863 113.989C71.915 113.799 71.9864 113.736 72.1531 113.734ZM153.864 113.838L161.243 114.796L160.907 120.988L152.83 120.061L153.864 113.838ZM90.2869 114.058C90.5553 114.078 90.8073 114.182 91.1089 114.377C92.4859 115.269 91.5107 118.468 90.8087 119.373C90.3543 119.882 89.2905 119.612 89.2961 118.897C89.4567 118.255 89.2298 115.195 89.3685 114.248C89.7338 114.102 90.0185 114.038 90.2869 114.058ZM176.628 114.651L177.008 121.035L168.957 121.401L169.019 115.133L176.628 114.651ZM149.465 115.08C150.424 115.08 151.198 115.86 151.198 116.82C151.198 117.781 150.424 118.56 149.465 118.56C148.507 118.56 147.727 117.781 147.727 116.82C147.727 115.86 148.507 115.08 149.465 115.08ZM104.603 115.169C104.9 119.853 97.7233 123.031 95.0386 121.593C93.8498 120.957 94.3432 120.564 96.7003 120.087C99.7504 119.277 101.762 118.489 101.764 117.918C101.764 117.567 101.3 117.611 100.057 118.074C98.1427 118.719 96.1542 118.995 94.3264 119.818C92.96 120.44 92.4284 120.659 92.1212 120.285C91.4777 119.501 94.5128 117.522 97.6616 116.997C100.024 116.602 102.407 115.339 104.603 115.169ZM181.068 115.754C182.026 115.754 182.802 116.534 182.802 117.494C182.802 118.455 182.026 119.232 181.068 119.232C180.109 119.232 179.333 118.455 179.333 117.494C179.333 116.534 180.109 115.754 181.068 115.754ZM164.929 117.028C165.888 117.028 166.667 117.807 166.667 118.768C166.667 119.729 165.888 120.506 164.929 120.506C163.971 120.506 163.195 119.729 163.195 118.768C163.195 117.807 163.971 117.028 164.929 117.028ZM203.594 119.983C215.207 131.068 227.937 143.83 238.437 154.327C238.422 159.82 238.39 170.806 238.39 170.806L198.295 209.006C191.034 204.563 184.889 199.008 179.229 189.142C179.867 188.59 180.674 188.109 181.158 187.506L178.821 188.889C171.425 177.03 168.289 153.403 180.852 134.463L168.158 134.929L170.228 130.597L184.048 129.841L189.635 123.831C189.635 123.831 191.407 123.502 192.874 123.163C194.33 122.826 197.299 121.974 199.478 121.268C201.656 120.562 203.51 119.983 203.594 119.983ZM109.859 123.053C109.859 123.053 121.792 129.556 128.418 142.577C106.999 161.047 98.9283 182.555 97.1064 204.942C85.4483 194.011 79.5553 187.965 69.0219 177.35L69.4025 161.508L109.859 123.053ZM154.912 125.118C151.824 131.736 149.167 138.986 146.787 146.754L143.468 145.77C143.468 145.77 145.616 144.869 146.572 144.299L144.849 141.515L148.118 140.169L146.183 137.807L149.499 135.881L147.841 133.797L150.88 132.274L148.993 130.099L152.179 128.318L150.517 126.237L154.912 125.118ZM155.928 125.136C155.928 125.136 156.356 125.218 156.858 125.318C156.978 125.272 156.259 127.053 156.336 127.115C157.496 127.354 157.564 127.288 157.911 127.393L158.794 125.561L160.246 125.836C157.319 132.458 154.188 139.704 152.391 147.548L150.682 147.191C150.682 147.191 151.181 145.536 151.182 145.316C150.981 145.274 150.019 144.868 149.72 144.748C149.618 145.006 149.008 146.921 149.008 146.921L147.657 146.885C149.871 138.321 153.73 128.824 155.928 125.136ZM161.49 125.391L164.521 127.907L161.084 129.247L162.863 131.624L159.218 132.944L161.309 135.413L157.701 136.749L159.854 139.736L156.099 141.003L158.468 143.629L155.082 145.218L157.111 147.232C157.111 147.232 154.999 147.93 154.876 147.961C154.536 148.048 153.114 147.699 153.114 147.699C155.256 140.056 157.901 132.308 161.49 125.391ZM87.7403 126.664C86.9033 127.209 87.382 128.394 86.3317 129.408C86.1641 129.589 86.1523 130.007 86.0865 130.372C86.0362 130.648 85.2036 133.953 85.2036 133.953C85.2036 133.953 85.4149 133.701 85.747 132.646C86.0305 131.746 86.2762 130.038 86.4298 129.752C87.2038 129.515 87.3222 126.984 88.1072 127.331C88.5606 127.531 88.4729 127.945 88.2171 128.916C87.6584 130.856 87.4387 131.673 88.3976 130.35C89.8299 128.622 89.9719 127.061 88.3584 126.731C88.1883 126.698 87.8392 126.669 87.7405 126.666L87.7403 126.664ZM109.4 127.384L71.9353 162.649L71.8196 175.808L84.8603 189.057L94.1145 198.049C97.4737 177.91 105.179 158.697 124.153 142.071C121.246 137.385 116.266 131.481 109.4 127.384ZM210.392 127.746C188.378 138.118 183.313 159.389 190.129 178.645C200.62 165.12 208.857 152.413 210.392 127.746ZM132.042 128.824L142.038 132.049L138.273 144.918L129.272 142.179L128.351 139.902L132.042 128.824ZM209.283 129.159C208.327 146.369 201.854 163.179 190.591 176.368C184.895 162.283 188.319 139.762 209.283 129.159ZM155.437 129.253L154.81 130.854L156.195 131.245L156.781 129.619L155.437 129.253ZM154.056 133.032L153.487 134.657L154.906 135.139L155.437 133.487L154.056 133.032ZM213.029 133.328C209.947 157.201 197.084 178.924 183.492 189.994C187.824 197.037 192.916 201.566 198.091 205.348L236.375 168.582L236.228 156.318L213.029 133.328ZM110.81 134.067C112.128 133.981 112.503 137.249 111.852 139.665C111.617 140.538 111.534 140.982 111.534 140.982C111.534 140.982 111.975 140.572 113.139 139.933C120.662 136.172 118.237 141.891 114.693 144.007C113.901 144.43 113.086 144.932 113.086 144.932C113.086 144.932 113.836 145.103 114.652 145.255C119.217 146.206 118.246 148.885 113.484 148.469C112.78 148.407 111.952 148.27 111.952 148.31C111.952 148.349 112.238 149.355 112.568 150.187C114.173 154.24 111.179 154.557 109.209 151.98C108.935 151.621 108.315 150.63 108.315 150.63C108.315 150.63 108.119 151.381 108.001 152.105C106.299 158.458 102.102 158.295 103.669 151.85C103.865 151.184 104.103 149.991 104.103 149.991C104.103 149.991 103.16 150.564 102.133 151.024C96.6958 153.457 95.8126 150.953 100.752 147.291C102.157 146.249 102.635 145.839 102.635 145.839C101.76 145.772 100.952 145.638 100.24 145.459C96.2996 144.468 95.2508 142.105 101.564 142.216C102.496 142.235 103.443 142.298 103.443 142.298C103.443 142.298 103.133 140.94 102.804 139.918C101.281 135.182 104.352 134.62 106.941 138.862C107.492 139.764 107.648 139.769 107.648 139.769C107.998 137.309 109.169 134.219 110.81 134.067ZM179.565 134.955C176.935 139.612 174.641 144.241 173.548 149.07L163.318 148.894C164.026 144.612 165.835 140.158 167.993 135.448C172.157 135.334 175.912 135.154 179.565 134.955ZM152.555 137.018L151.967 138.732L153.45 139.189L153.989 137.519L152.555 137.018ZM76.0553 140.233C74.9593 143.088 74.5917 146.267 73.9835 148.815C73.7269 150.293 73.9841 150.909 74.8723 151.239C76.1292 151.709 77.9426 151.068 78.9569 149.613C79.5289 148.792 79.947 147.098 80.034 144.105L80.1325 141.438C78.5776 141.149 77.5153 140.732 76.0575 140.233H76.0553ZM151.172 140.605L150.682 142.179L152.114 142.712L152.659 141.123L151.172 140.605ZM217.415 141.195C219.154 141.238 219.479 141.396 221.055 142.33L224.098 145.467C223.3 146.232 222.799 147.308 222.799 148.502C222.799 150.823 224.678 152.707 226.993 152.707C228.141 152.707 229.938 151.492 229.938 151.492L234.757 156.498C231.726 157.671 229.487 155.389 227.855 153.326C227.694 155.375 226.186 161.939 223.103 162.472C220.742 162.078 223.146 152.678 223.171 152.895C221.548 154.615 213.638 156.446 214.192 154.525C215.293 150.709 221.21 149.239 221.988 148.576C218.843 146.68 214.857 141.42 217.411 141.195H217.415ZM76.4379 141.321C77.4398 141.391 78.1268 141.512 78.8078 141.797C79.125 141.882 79.1396 142.146 79.1747 142.396C79.1858 143.523 79.4612 146.83 78.4194 146.864C77.2621 146.84 76.1759 147.088 75.4138 147.671C74.8009 148.14 74.599 147.803 74.7644 146.601C74.9246 145.437 75.5005 142.989 75.7493 141.999C75.7884 141.59 76.1147 141.302 76.4379 141.321ZM107.695 141.364C105.38 141.364 103.502 143.246 103.502 145.567C103.502 147.887 105.38 149.772 107.695 149.772C110.01 149.772 111.889 147.887 111.889 145.567C111.889 143.246 110.01 141.364 107.695 141.364ZM107.695 142.833C109.2 142.833 110.424 144.058 110.424 145.567C110.424 147.075 109.2 148.296 107.695 148.296C106.19 148.296 104.97 147.075 104.97 145.567C104.97 144.058 106.19 142.833 107.695 142.833ZM129.332 142.884C138.944 159.516 137.831 182.345 126.499 198.952L138.681 198.098L137.08 201.223L124.092 202.493C122.108 204.314 120.302 206.394 118.35 208.342L118.331 209.031C113.878 210.068 109.422 211.26 104.884 212.899C102.488 210.541 97.9818 205.827 98.0113 205.708L98.3017 204.184C129.19 188.386 120.154 156.703 117.979 154.098C121.66 149.92 125.704 145.98 129.332 142.884ZM107.65 144.84C107.46 144.84 107.278 144.915 107.143 145.049C107.009 145.183 106.934 145.365 106.934 145.555C106.933 145.649 106.952 145.742 106.987 145.829C107.023 145.916 107.076 145.995 107.143 146.062C107.209 146.128 107.288 146.181 107.375 146.217C107.462 146.253 107.555 146.272 107.65 146.272C107.744 146.272 107.837 146.253 107.924 146.217C108.011 146.181 108.09 146.128 108.157 146.062C108.223 145.995 108.276 145.916 108.312 145.829C108.348 145.742 108.366 145.649 108.366 145.555C108.366 145.365 108.29 145.183 108.156 145.049C108.022 144.915 107.84 144.84 107.65 144.84ZM215.057 145.908C216.308 145.908 217.319 146.926 217.319 148.181C217.319 149.435 216.308 150.453 215.057 150.453C213.806 150.453 212.791 149.435 212.791 148.181C212.791 146.926 213.806 145.908 215.057 145.908ZM225.128 146.519L226.56 147.996C226.48 148.063 226.416 148.147 226.372 148.242C226.328 148.336 226.305 148.439 226.305 148.543C226.305 148.733 226.38 148.915 226.515 149.049C226.649 149.183 226.831 149.258 227.021 149.258C227.121 149.258 227.22 149.237 227.312 149.196C227.404 149.155 227.486 149.096 227.553 149.021L228.924 150.438C228.431 150.925 227.754 151.231 227.007 151.231C225.502 151.231 224.28 150.01 224.28 148.502C224.28 147.724 224.606 147.017 225.128 146.519ZM94.7619 147.007C96.013 147.007 97.022 148.02 97.022 149.274C97.022 150.528 96.013 151.547 94.7619 151.547C93.5111 151.547 92.494 150.528 92.494 149.274C92.494 148.02 93.5111 147.007 94.7619 147.007ZM77.2972 147.885C77.5167 147.872 77.7225 147.895 77.9034 147.959C78.9643 148.315 78.717 149.309 77.3462 150.183C76.4594 150.749 75.6466 150.872 74.8664 150.453C73.5729 149.759 75.7606 147.973 77.2972 147.885ZM95.4153 153.518L81.7664 166.756C82.6252 164.556 82.6569 162.363 82.7218 160.166C86.8289 160.59 88.5489 158.501 87.9483 154.202C90.6011 154.36 93.35 154.08 95.4153 153.518ZM117.284 155.031C123.613 173.12 118.118 192.264 98.3228 203.351C99.1377 186.017 106.394 169.445 117.284 155.031ZM135.314 156.614C146.177 159.464 158.541 160.794 171.38 160.803C171.476 165.7 171.711 170.879 172.712 175.878C161.776 173.011 149.562 171.677 136.219 171.913C136.772 166.737 135.885 160.865 135.314 156.614ZM215.866 159.29L204.296 172.849L204.783 165.447C208.679 165.944 210.065 163.883 209.491 159.813C211.617 160.077 213.74 159.704 215.866 159.29ZM103.461 160.041L102.547 165.456C100.238 165.519 97.9728 166.342 98.003 171.509L91.103 171.425L103.461 160.041ZM230.766 161.04C232.017 161.04 233.03 162.059 233.03 163.313C233.03 164.567 232.017 165.586 230.766 165.586C229.515 165.586 228.5 164.567 228.5 163.313C228.5 162.059 229.515 161.04 230.766 161.04ZM92.9668 161.73C94.2179 161.73 95.2348 162.748 95.2348 164.003C95.2348 165.257 94.2179 166.27 92.9668 166.27C91.7157 166.27 90.7028 165.257 90.7028 164.003C90.7028 162.748 91.7157 161.73 92.9668 161.73ZM225.714 164.059L224.504 172.259C221.352 171.982 218.723 172.468 219.532 178.026C216.866 177.764 213.162 178.397 210.68 178.612L225.714 164.059ZM214.418 165.544C215.669 165.544 216.684 166.563 216.684 167.817C216.684 169.071 215.669 170.084 214.418 170.084C213.167 170.084 212.15 169.071 212.15 167.817C212.15 166.563 213.167 165.544 214.418 165.544ZM76.3594 167.304C77.6104 167.304 78.6273 168.323 78.6273 169.577C78.6273 170.831 77.6104 171.844 76.3594 171.844C75.1083 171.844 74.0993 170.831 74.0993 169.577C74.0993 168.323 75.1083 167.304 76.3594 167.304ZM83.8734 169.992C86.7669 170.643 85.431 177.404 84.7798 179.243C84.7306 179.293 92.8498 174.976 93.3337 176.882C93.6511 180.701 86.6103 183.363 86.6103 183.363C86.6103 183.363 91.355 187.496 91.4895 190.094C91.5016 191.774 89.5057 191.463 86.9144 189.334C85.8068 188.243 84.9514 187.425 84.1893 186.667C85.0794 185.896 85.6391 184.754 85.6391 183.483C85.6391 181.162 83.7637 179.28 81.4485 179.28C80.1699 179.28 79.0238 179.854 78.2546 180.759C77.6537 180.179 76.9729 179.503 76.0592 178.637C74.5623 177.234 73.5125 176.119 73.6638 175.614C75.6387 174.22 79.5676 177.965 79.9183 178.306C79.624 177.576 81.7958 170.381 83.8734 169.992ZM202.954 175.774C205.088 175.774 204.06 180.158 203.402 182.287C203.402 182.287 204.562 181.378 205.075 181.137C208.821 179.379 210.216 181.369 208.328 183.679C207.421 184.866 206.184 185.131 205.179 186.128C207.727 186.298 209.812 186.729 211.206 188.949C210.132 190.916 206.622 190.384 203.874 189.706C205.484 191.615 206.206 196.647 204.218 196.705C202.209 196.166 201.229 193.927 200.443 192.32C199.798 194.112 199.174 196.029 197.738 197.361C196.314 198.682 195.583 197.587 195.656 195.349C195.685 194.459 196.337 191.802 196.337 191.802C187.9 194.658 188.53 190.794 195.115 187.411C191.059 185.473 188.593 183.727 195.491 183.332C195.309 183.166 194.106 179.463 195.393 178.596C196.591 177.79 199.143 180.558 199.266 180.693C200.032 178.062 200.882 175.776 202.954 175.774ZM81.4564 180.718C82.9613 180.718 84.1854 181.943 84.1854 183.451C84.1854 184.319 83.7786 185.09 83.1495 185.589C82.4759 184.916 82.1654 184.607 81.68 184.12C81.769 184.053 81.8411 183.966 81.8908 183.867C81.9405 183.768 81.9665 183.658 81.9665 183.547C81.9664 183.358 81.891 183.176 81.7567 183.042C81.6224 182.908 81.4403 182.832 81.2504 182.832C81.1396 182.833 81.0303 182.859 80.9312 182.908C80.8322 182.958 80.746 183.03 80.6795 183.118C80.2808 182.719 79.7359 182.169 79.3179 181.758C79.8175 181.125 80.5891 180.718 81.4564 180.718ZM232.426 180.887C230.957 181.021 230.043 182.327 229.363 183.467C229.226 183.698 228.97 183.781 228.875 184.086C228.266 186.051 227.735 188.404 227.409 191.334C228.34 191.718 230.44 192.366 231.368 192.018C231.63 191.908 231.549 191.23 231.637 191.007C232.189 189.515 235.713 180.642 232.426 180.887ZM232 181.343C232.383 181.305 232.726 181.483 232.946 182.019C233.314 182.916 232.13 183.89 230.597 183.884C229.686 183.884 229.389 184.008 229.795 183.216C230.127 182.554 231.159 181.426 232 181.343ZM212.387 181.386C213.638 181.386 214.655 182.405 214.655 183.659C214.655 184.913 213.638 185.926 212.387 185.926C211.136 185.926 210.123 184.913 210.123 183.659C210.123 182.405 211.136 181.386 212.387 181.386ZM92.8844 181.547C94.1355 181.547 95.1524 182.56 95.1524 183.814C95.1524 185.068 94.1355 186.087 92.8844 186.087C91.6334 186.087 90.6224 185.068 90.6224 183.814C90.6224 182.56 91.6334 181.547 92.8844 181.547ZM200.061 182.468C197.746 182.468 195.868 184.35 195.868 186.671C195.868 188.992 197.746 190.876 200.061 190.876C202.376 190.876 204.255 188.992 204.255 186.671C204.255 184.35 202.376 182.468 200.061 182.468ZM144.019 183.032C142.917 187.876 141.22 192.506 139.077 197.087C135.035 197.331 130.667 197.521 127.785 197.931C132.584 189.504 132.7 187.522 134.477 183.058L144.019 183.032ZM150.966 183.716C152.101 183.85 153.345 184.023 154.466 184.239C152.403 191.52 149.676 198.994 146.154 206.188L144.019 205.857L143.011 204.605L146.397 203.249L143.756 200.545L148.131 199.221L145.44 196.56L149.762 195.478L147.449 192.661L151.327 191.144L148.863 187.956L152.995 186.816L150.966 183.716ZM200.061 183.937C201.566 183.937 202.788 185.162 202.788 186.671C202.788 188.179 201.566 189.4 200.061 189.4C198.556 189.4 197.337 188.179 197.337 186.671C197.337 185.162 198.556 183.937 200.061 183.937ZM155.241 184.353L156.685 184.586L156.238 186.134L157.882 186.484L158.414 184.813C158.414 184.813 159.733 184.935 159.873 185.04C158.153 192.069 152.072 206.78 151.994 206.702L150.429 206.468L150.843 204.983L149.385 204.775C149.385 204.775 148.884 205.829 148.683 206.372L147.129 206.243C150.894 197.628 153.458 191.016 155.241 184.353ZM231.784 184.911C232.939 184.901 232.87 185.502 232.034 187.686C231.247 189.737 230.952 190.559 230.57 190.825C229.66 191.472 227.698 190.93 227.857 189.986C228.372 186.921 228.557 185.613 229.346 185.197C230.168 185.035 230.969 184.915 231.784 184.911ZM161.037 185.166L164.796 185.895L161.653 187.77L163.65 190.109L159.787 191.761L162.131 194.193L158.402 195.721L160.67 198.398L156.801 200.034L159.436 202.322L155.086 203.698L156.734 206.235L155.098 207.152L153.077 206.837C156.429 198.998 158.584 192.551 161.037 185.166ZM200.074 185.942C199.98 185.942 199.887 185.96 199.8 185.996C199.713 186.033 199.634 186.085 199.567 186.152C199.501 186.219 199.448 186.298 199.412 186.385C199.376 186.472 199.358 186.565 199.358 186.659C199.358 186.848 199.434 187.03 199.568 187.165C199.702 187.299 199.884 187.374 200.074 187.374C200.264 187.374 200.446 187.299 200.581 187.165C200.715 187.03 200.79 186.848 200.79 186.659C200.791 186.565 200.772 186.472 200.736 186.385C200.701 186.298 200.648 186.219 200.581 186.152C200.515 186.085 200.436 186.033 200.349 185.996C200.262 185.96 200.169 185.942 200.074 185.942ZM170.275 187.039L177.638 189.047L179.11 191.683L175.657 203.378L165.843 200.488L170.275 187.039ZM155.639 188.168L154.939 190.088L156.56 190.425L157.183 188.448L155.639 188.168ZM154.215 192.578L153.513 194.498L155.035 194.8L155.755 192.858L154.215 192.578ZM152.779 196.456L152.061 198.366L153.542 198.672L154.25 196.756L152.779 196.456ZM221.965 199.971C221.965 199.971 221.214 200.517 221.016 200.759C221.179 201.197 221.655 201.872 221.585 202.314C221.519 202.647 221.151 202.915 220.596 203.508C219.209 205.126 218.72 204.948 219.525 203.222C219.789 202.679 219.909 202.177 219.909 202.177C219.588 202.627 219.347 203.16 219.13 203.582C218.673 204.465 218.243 205.299 218.243 205.299C219.126 205.604 219.716 206.263 220.286 206.69C220.286 206.69 220.574 205.906 220.774 205.158C221.054 204.114 221.606 203.684 222.283 203.325C222.71 203.099 223.119 202.687 223.119 202.687C222.374 201.925 222.286 200.836 221.965 199.971ZM151.245 200.443L150.486 202.477L151.963 202.84L152.783 200.763L151.245 200.443ZM67.9272 205.557C67.7925 213.659 68.059 218.993 67.7761 227.73L89.6571 256.157L86.2454 257.305C86.2454 257.305 86.2062 257.701 86.0217 257.752C81.3461 259.041 73.7638 260.324 73.7638 260.324C79.4043 273.236 83.0636 289.38 80.5402 305.508L137.168 305.359L67.9272 205.557ZM140.248 207.225C156.712 207.358 173.038 211.515 187.693 219.287L185.741 221.248C156.941 205.623 117.276 205.684 88.3309 224.603L85.9727 222.868C102.756 212.089 121.59 207.073 140.248 207.225ZM68.9846 208.398L135.638 304.385L127.81 304.499L69.0435 227.43L68.9846 208.398ZM212.028 210.134C204.994 211.426 201.559 214.311 202.113 219.054C202.238 220.949 204.41 218.947 204.41 218.944C204.41 218.944 208.222 215.841 215.648 214.378L215.405 218.732C206.235 218.698 206.734 225.999 209.372 229.795C208.448 231.55 206.428 237.678 213.08 240.009C216.397 240.672 219.911 237.97 219.803 237.83C225.923 240.732 233.026 235.867 227.488 227.44C229.57 223.765 228.102 221.037 226.115 218.691C228.875 219.072 231.583 219.918 235.42 219.924C235.431 215.959 232.151 214.188 225.32 213.65C220.482 214.334 212.028 210.1 212.028 210.134ZM138.241 210.579H139.228L138.908 217.351L131.465 217.694L130.982 210.948C133.545 210.77 135.926 210.583 138.241 210.575V210.579ZM147.16 210.759L155.145 211.733L153.935 218.064L146.581 217.272L147.16 210.759ZM211.883 210.836C212.544 210.911 212.334 211.677 211.43 211.855C209.994 212.136 206.311 214.285 206.309 214.843C206.309 215.202 206.49 215.151 207.838 214.429C209.755 213.468 211.612 212.822 213.602 211.996C214.839 211.436 215.454 211.823 215.008 212.881C214.713 213.581 214.594 213.634 211.726 214.547C208.648 215.419 207.218 216.611 204.587 218.042C202.891 218.922 202.548 218.924 202.552 217.741C202.748 212.841 208.377 211.255 211.883 210.836ZM142.818 211.655C143.817 211.655 144.623 212.466 144.623 213.467C144.623 214.468 143.817 215.279 142.818 215.279C141.82 215.279 141.01 214.468 141.01 213.467C141.01 212.466 141.82 211.655 142.818 211.655ZM123.064 212.137L123.659 218.281L116.341 220.166L114.667 213.82C117.467 213.132 120.265 212.649 123.064 212.137ZM217.331 212.603C219.337 212.909 219.177 217.514 218.151 218.313C216.572 219.453 215.602 217.07 216.307 213.908C216.505 212.957 216.873 212.625 217.331 212.603ZM127.216 212.852C128.214 212.852 129.022 213.662 129.022 214.662C129.022 215.663 128.214 216.475 127.216 216.475C126.217 216.475 125.409 215.663 125.409 214.662C125.409 213.662 126.217 212.852 127.216 212.852ZM162.963 213.379L171.235 215.642L169.212 222.061L161.449 219.87L162.963 213.379ZM158.459 213.504C159.457 213.504 160.268 214.314 160.268 215.315C160.268 216.315 159.457 217.127 158.459 217.127C157.461 217.127 156.652 216.315 156.652 215.315C156.652 214.314 157.461 213.504 158.459 213.504ZM226.134 214.041C229.698 214.078 234.399 215.871 234.407 218.634C234.335 219.419 226.941 218.376 223.527 216.998C222.315 216.509 220.838 215.021 220.841 214.4C220.841 214.03 221.565 214.055 221.859 214.416C222.34 215.001 224.042 215.613 227.953 216.6C230.957 217.359 231.257 217.389 231.259 216.932C230.78 216.057 226.385 215.513 224.204 214.798C222.412 214.205 225.407 214.077 226.134 214.041ZM219.842 215.472C220.741 215.894 221.063 216.735 221.559 217.178C220.942 217.471 220.668 217.768 219.67 217.842C219.688 217.181 219.51 216.392 219.842 215.472ZM111.501 215.967C112.499 215.967 113.312 216.779 113.312 217.78C113.312 218.78 112.499 219.592 111.501 219.592C110.503 219.592 109.696 218.78 109.696 217.78C109.696 216.779 110.503 215.967 111.501 215.967ZM106.637 216.481L108.589 222.755L101.597 225.804L99.1193 219.586C101.536 218.312 104.179 217.387 106.637 216.481ZM138.969 217.505C138.969 217.505 144.541 217.515 146.464 217.535L146.012 224.616L139.063 224.671L138.969 217.505ZM131.528 217.893L131.916 224.965L125.222 225.866L123.9 218.754L131.528 217.893ZM173.842 217.955C174.84 217.955 175.653 218.766 175.653 219.767C175.653 220.768 174.84 221.577 173.842 221.577C172.844 221.577 172.037 220.768 172.037 219.767C172.037 218.766 172.844 217.955 173.842 217.955ZM222.269 218.119C226.344 218.137 230.23 222.837 226.203 227.759C232.807 232.853 225.625 241.416 219.787 236.426C211.44 244.645 206.775 233.484 210.229 230.524C205.127 222.12 211.396 216.81 217.863 220.517C219.053 218.824 220.675 218.112 222.269 218.119ZM154.056 218.321L161.398 219.957L159.92 226.952L152.748 225.492L154.056 218.321ZM178.356 218.493L185.07 221.836L179.865 226.858L175.996 224.928L178.356 218.493ZM135.314 219.285C136.312 219.285 137.121 220.097 137.121 221.097C137.121 222.098 136.312 222.908 135.314 222.908C134.316 222.908 133.505 222.098 133.505 221.097C133.505 220.097 134.316 219.285 135.314 219.285ZM149.82 219.512C150.819 219.512 151.629 220.324 151.629 221.325C151.629 222.325 150.819 223.137 149.82 223.137C147.16 222.72 147.876 219.572 149.82 219.512ZM116.384 220.533L118.02 227.526L111.218 229.83L108.788 223.018L116.384 220.533ZM121.055 221.029C122.053 221.029 122.862 221.84 122.862 222.841C122.862 223.842 122.053 224.654 121.055 224.654C120.057 224.654 119.248 223.842 119.248 222.841C119.248 221.84 120.057 221.029 121.055 221.029ZM224.253 221.642C224.07 221.642 223.847 221.736 223.662 221.971C222.687 223.21 221.586 224.452 220.547 225.643C218.855 224.944 217.214 225.222 216.117 225.976C214.644 224.808 213.466 223.688 211.814 222.714C211.56 222.564 211.27 222.749 211.422 222.971C212.458 224.487 214.033 225.344 215.318 226.823C214.818 228.443 214.824 229.711 215.779 231.073C215.071 232.268 213.622 233.758 212.734 235.436C212.401 236.066 213.125 235.981 213.174 235.944C214.608 234.855 215.305 233.402 216.89 232.101C218.58 232.559 219.516 232.972 221.206 231.574C222.803 232.312 223.727 233.434 225.516 234.478C226.104 234.821 226.283 234.076 226.022 233.812C224.526 232.297 223.521 231.689 221.951 230.408C222.309 229.82 222.563 227.731 221.339 226.3C222.462 224.901 222.976 224.348 224.468 222.314C224.75 221.93 224.557 221.647 224.253 221.642ZM169.279 222.252L175.904 225.042L173.534 231.984L167.134 229.364L169.279 222.252ZM96.3766 222.718C97.3749 222.718 98.1854 223.528 98.1854 224.528C98.1854 225.529 97.3749 226.341 96.3766 226.341C95.3786 226.341 94.5697 225.529 94.5697 224.528C94.5697 223.528 95.3785 222.718 96.3766 222.718ZM164.156 222.904C165.154 222.904 165.963 223.714 165.963 224.714C165.963 225.715 165.154 226.527 164.156 226.527C163.158 226.527 162.347 225.715 162.347 224.714C162.347 223.714 163.158 222.904 164.156 222.904ZM91.7485 223.4L93.9183 228.784L88.9861 225.098L91.7485 223.4ZM146.122 224.787L152.722 225.569L151.678 231.874L145.987 231.357L146.122 224.787ZM138.918 224.805L138.854 231.285L132.584 231.555L132.052 225.083L138.918 224.805ZM106.663 225.985C107.661 225.985 108.47 226.794 108.47 227.795C108.47 228.796 107.661 229.607 106.663 229.607C105.664 229.607 104.856 228.796 104.856 227.795C104.856 226.794 105.664 225.985 106.663 225.985ZM101.664 226.114L104.214 232.627L100.259 234.541L94.9562 229.511L101.664 226.114ZM125.262 226.196L126.282 232.396L119.745 234.014L118.157 227.709L125.262 226.196ZM218.704 226.258C220.127 226.258 221.28 227.414 221.28 228.841C221.28 230.268 220.127 231.425 218.704 231.425C217.281 231.425 216.127 230.268 216.127 228.841C216.127 227.414 217.281 226.258 218.704 226.258ZM142.206 226.454C143.205 226.454 144.015 227.266 144.015 228.267C144.015 229.267 143.205 230.079 142.206 230.079C141.208 230.079 140.399 229.267 140.399 228.267C140.399 227.266 141.208 226.454 142.206 226.454ZM160.012 227.122L166.985 229.386L164.641 234.982L158.62 233.345L160.012 227.122ZM129.117 227.355C130.115 227.355 130.924 228.167 130.924 229.168C130.924 230.169 130.115 230.979 129.117 230.979C128.118 230.979 127.312 230.169 127.312 229.168C127.312 228.167 128.118 227.356 129.117 227.355ZM218.691 227.483C217.956 227.483 217.361 228.078 217.361 228.811C217.361 229.545 217.956 230.14 218.691 230.14C219.425 230.14 220.021 229.545 220.021 228.811C220.021 228.078 219.425 227.483 218.691 227.483ZM155.626 228.024C156.624 228.024 157.431 228.834 157.431 229.834C157.431 230.835 156.624 231.647 155.626 231.647C154.627 231.647 153.817 230.835 153.817 229.834C153.817 228.834 154.627 228.024 155.626 228.024ZM111.358 230.146L113.759 235.685L107.2 238.528L104.344 232.879L111.358 230.146ZM116.007 230.477C117.005 230.477 117.812 231.289 117.812 232.289C117.812 233.29 117.005 234.102 116.007 234.102C115.009 234.102 114.196 233.29 114.196 232.289C114.196 231.289 115.009 230.477 116.007 230.477ZM140.168 232.148C150.935 232.126 160.656 234.383 168.458 237.621L166.136 239.806C140.828 231.088 124.275 235.015 107.302 242.476L105.59 240.354C117.586 234.472 129.401 232.171 140.168 232.148ZM168.798 232.216C169.796 232.216 170.605 233.028 170.605 234.029C170.605 235.03 169.796 235.839 168.798 235.839C167.8 235.839 166.993 235.03 166.993 234.029C166.993 233.028 167.8 232.216 168.798 232.216ZM102.847 236.178V236.188C104.299 236.275 104.438 238.99 103.761 238.207L102.145 236.322C102.407 236.209 102.639 236.164 102.847 236.177V236.178ZM170.501 237.315C170.448 239.375 168.505 253.18 161.937 262.671C161.538 257.871 160.38 252.132 159.088 248.301C159.088 248.301 166.155 241.754 170.501 237.315ZM86.4867 258.235L120.663 304.434L117.075 304.409C115.636 295.729 110.628 291.245 104.813 288.871C104.346 281.567 99.8182 274.96 92.4096 272.637C91.9273 267.753 89.7285 262.949 84.2148 258.904L86.4867 258.235ZM83.0946 259.297C89.6368 264.319 89.9577 265.538 91.8328 273.281C101.187 276.442 103.537 283.418 104.142 289.339C110.302 291.759 115.35 296.934 116.229 304.383L114.349 304.393C113.008 295.941 107.702 292.57 102.092 290.991C102.528 279.059 93.2737 275.337 90.0416 274.777C90.2315 266.183 84.6848 262.636 81.1052 259.752C81.8033 259.573 82.4734 259.444 83.0946 259.297ZM77.6307 260.528C80.4262 261.444 82.5464 265.347 82.3314 267.145C86.0187 267.61 89.8914 271.184 89.0411 274.906C88.7683 275.064 88.3374 275.096 87.911 274.669C88.8992 267.448 78.1485 271.022 82.4452 276.246L80.5225 277.504C78.9775 270.278 77.0762 266.184 75.0116 260.965C75.7646 260.765 77.6307 260.528 77.6307 260.528ZM86.5338 275.666C87.4887 275.666 88.2583 276.443 88.2583 277.4C88.2583 278.357 87.4887 279.134 86.5338 279.134C85.5788 279.134 84.8053 278.357 84.8053 277.4C84.8053 276.443 85.5788 275.666 86.5338 275.666ZM90.9637 276.501C93.4614 276.329 95.8848 280.968 95.7664 283.46C99.8722 284.625 101.201 288.791 101.065 290.307L100.165 290.287C98.7215 283.686 91.2187 287.277 94.3519 292.541C90.3398 294.027 90.6555 297.739 91.8368 299.207C93.4673 301.233 97.6226 301.171 98.8898 298.053C102.79 303.111 108.174 297.434 103.426 292.719C107.314 294.155 107.938 299.378 107.353 301.009C109.158 301.626 111.237 304.498 110.959 304.481L81.8252 304.491C81.8252 304.491 83.2336 292.706 81.7349 283.81C83.6734 284.278 84.9742 284.746 87.2046 282.121C90.8141 285.117 93.407 282.856 93.2198 280.267C92.9424 278.457 92.0105 277.559 90.4632 276.603C90.6296 276.547 90.7972 276.512 90.9637 276.501ZM99.0153 291.762C99.9993 291.762 100.797 292.563 100.797 293.549C100.797 294.536 99.9993 295.336 99.0153 295.336C98.0314 295.336 97.2359 294.536 97.2359 293.549C97.2359 292.563 98.0314 291.762 99.0153 291.762Z" fill="black"/>
<path d="M53.8146 74.6386C51.5097 70.8321 49.0846 67.1323 46.0542 63.9719C49.0846 60.8115 51.5097 57.1118 53.8146 53.3052C56.1196 57.1118 58.5446 60.8115 61.5751 63.9719C58.5446 67.1323 56.1196 70.8321 53.8146 74.6386Z" fill="#C8102E"/>
<path d="M99.0843 86.0749C93.5523 76.9391 87.7322 68.0598 80.4592 60.4748C87.7322 52.89 93.5523 44.0107 99.0843 34.8748C104.616 44.0107 110.436 52.89 117.709 60.4748C110.436 68.0598 104.616 76.9391 99.0843 86.0749Z" fill="#C8102E"/>
<path d="M209.027 297.738C203.495 288.602 197.675 279.723 190.402 272.138C197.675 264.553 203.495 255.674 209.027 246.538C214.559 255.674 220.379 264.553 227.652 272.138C220.379 279.723 214.559 288.602 209.027 297.738Z" fill="#C8102E"/>
<path d="M46.0613 38.3125H43.1196V34.3024H46.0613C46.0613 34.3024 46.0837 32.1415 46.1683 28.3297C46.3507 20.2045 46.5536 18.9432 48.9056 16.7069C53.5505 12.2875 61.3291 15.8885 61.2371 22.5343C61.1027 31.9139 61.1999 40.8561 60.9259 42.123C60.439 44.3537 60.3899 44.4794 60.5887 44.8873C60.9959 45.7058 64.5095 46.0606 64.5095 45.8315V49.7817C61.8257 49.9898 60.7107 49.738 58.5632 48.2046C57.2233 49.4981 53.142 50.7972 49.896 49.269C47.4274 48.1069 45.5566 45.1052 46.0613 38.3125ZM56.004 45.3133C54.5462 43.2069 52.0928 40.3323 49.7848 39.3113C49.6408 41.7333 49.8498 43.7643 50.7009 44.8566C52.0558 46.5955 54.246 46.9936 56.004 45.3133ZM57.2137 22.1461C56.1317 19.0815 53.3517 18.0423 51.3207 19.96C50.0508 21.153 49.8478 22.4087 49.8204 29.2292C49.8044 33.4364 49.8045 35.2047 49.8045 35.2047C53.7584 36.4869 57.4541 41.0963 57.4225 41.0363L57.5186 28.3129C57.5954 26.2485 57.4925 24.1812 57.2137 22.1461Z" fill="#C8102E"/>
</g>
<defs>
<clipPath id="clip0_11_4292">
<rect width="238.111" height="332.599" fill="white"/>
</clipPath>
</defs>
</svg>
