<svg width="239" height="333" viewBox="0 0 239 333" fill="none" xmlns="http://www.w3.org/2000/svg">
<g clip-path="url(#clip0_11_3321)">
<path d="M226.722 0H11.3895C5.09932 0 6.10352e-05 5.09275 6.10352e-05 11.375V321.225C6.10352e-05 327.507 5.09932 332.599 11.3895 332.599H226.722C233.012 332.599 238.111 327.507 238.111 321.225V11.375C238.111 5.09275 233.012 0 226.722 0Z" fill="white"/>
<path d="M18.3651 74.6383C16.0602 70.8318 13.635 67.1321 10.6046 63.9716C13.635 60.8113 16.0602 57.1116 18.3651 53.3049C20.6701 57.1116 23.095 60.8113 26.1256 63.9716C23.095 67.1321 20.6701 70.8318 18.3651 74.6383Z" fill="#C8102E"/>
<path d="M174.273 86.0749C168.741 76.9391 162.921 68.0598 155.648 60.4748C162.921 52.89 168.741 44.0107 174.273 34.8748C179.805 44.0107 185.625 52.89 192.898 60.4748C185.625 68.0598 179.805 76.9391 174.273 86.0749Z" fill="#C8102E"/>
<path d="M219.747 279.295C217.442 275.488 215.017 271.788 211.986 268.628C215.017 265.468 217.442 261.768 219.747 257.961C222.052 261.768 224.477 265.468 227.507 268.628C224.477 271.788 222.052 275.488 219.747 279.295Z" fill="#C8102E"/>
<path d="M63.8379 86.0749C58.3059 76.9391 52.4858 68.0598 45.2127 60.4748C52.4858 52.89 58.3059 44.0107 63.8379 34.8748C69.3699 44.0107 75.1897 52.89 82.4628 60.4748C75.1897 68.0598 69.3699 76.9391 63.8379 86.0749Z" fill="#C8102E"/>
<path d="M63.8379 191.865C58.3059 182.73 52.4858 173.85 45.2127 166.265C52.4858 158.68 58.3059 149.801 63.8379 140.665C69.3699 149.801 75.1897 158.68 82.4628 166.265C75.1897 173.85 69.3699 182.73 63.8379 191.865Z" fill="#C8102E"/>
<path d="M174.273 191.882C168.741 182.746 162.921 173.867 155.648 166.282C162.921 158.697 168.741 149.818 174.273 140.682C179.805 149.818 185.625 158.697 192.898 166.282C185.625 173.867 179.805 182.746 174.273 191.882Z" fill="#C8102E"/>
<path d="M63.8379 297.73C58.3059 288.594 52.4858 279.715 45.2127 272.13C52.4858 264.545 58.3059 255.666 63.8379 246.53C69.3699 255.666 75.1897 264.545 82.4628 272.13C75.1897 279.715 69.3699 288.594 63.8379 297.73Z" fill="#C8102E"/>
<path d="M174.273 297.738C168.741 288.602 162.921 279.723 155.648 272.138C162.921 264.553 168.741 255.674 174.273 246.538C179.805 255.674 185.625 264.553 192.898 272.138C185.625 279.723 179.805 288.602 174.273 297.738Z" fill="#C8102E"/>
<path d="M8.02654 39.1306C7.59315 36.1681 7.60418 28.5094 7.95831 26.2438C9.05133 19.303 11.7023 16.1268 16.1428 15.0903C20.4559 14.0804 26.5148 15.2049 27.8437 21.0058L24.2382 21.0762C22.2881 17.154 17.3538 18.2016 14.574 19.9085C12.3565 21.2675 11.3538 26.9427 11.7831 27.292C11.7831 27.292 15.9769 24.1855 19.2833 24.4145C26.3488 25.1506 29.263 31.2784 29.0161 37.064C28.7912 44.0242 26.5847 49.5905 19.0955 49.9606C11.9751 49.6854 8.7122 45.8031 8.02654 39.1306ZM25.5873 37.2924C25.6257 32.4637 23.4342 28.8446 19.2831 28.4479C15.136 28.0485 10.9517 32.0964 11.2411 37.0187C11.5305 41.962 13.4435 46.1203 18.4738 46.0979C23.884 46.0766 25.5612 40.73 25.5873 37.2924Z" fill="#C8102E"/>
<path d="M230.082 293.468C230.515 296.431 230.504 304.09 230.15 306.355C229.057 313.296 226.406 316.472 221.966 317.509C217.653 318.519 211.594 317.394 210.265 311.593L213.87 311.524C215.821 315.446 220.755 314.399 223.535 312.692C225.752 311.333 226.755 305.657 226.326 305.308C226.326 305.308 222.132 308.415 218.825 308.186C211.76 307.45 208.846 301.322 209.093 295.536C209.317 288.576 211.524 283.01 219.013 282.64C226.134 282.915 229.396 286.796 230.082 293.468ZM212.521 295.307C212.483 300.135 214.674 303.754 218.826 304.151C222.973 304.551 227.157 300.503 226.868 295.58C226.578 290.637 224.665 286.479 219.635 286.501C214.225 286.523 212.547 291.869 212.521 295.307Z" fill="#C8102E"/>
</g>
<defs>
<clipPath id="clip0_11_3321">
<rect width="238.111" height="332.599" fill="white"/>
</clipPath>
</defs>
</svg>
