<svg width="239" height="333" viewBox="0 0 239 333" fill="none" xmlns="http://www.w3.org/2000/svg">
<g clip-path="url(#clip0_11_3274)">
<path d="M226.721 0H11.3894C5.0992 0 -6.10352e-05 5.09275 -6.10352e-05 11.375V321.225C-6.10352e-05 327.507 5.0992 332.599 11.3894 332.599H226.721C233.012 332.599 238.111 327.507 238.111 321.225V11.375C238.111 5.09275 233.012 0 226.721 0Z" fill="white"/>
<path d="M18.3651 74.6383C16.0602 70.8318 13.6351 67.1321 10.6046 63.9716C13.6351 60.8113 16.0602 57.1116 18.3651 53.3049C20.6701 57.1116 23.0952 60.8113 26.1256 63.9716C23.0952 67.1321 20.6701 70.8318 18.3651 74.6383Z" fill="#C8102E"/>
<path d="M174.273 86.0749C168.741 76.9391 162.921 68.0598 155.648 60.4748C162.921 52.89 168.741 44.0107 174.273 34.8748C179.805 44.0107 185.625 52.89 192.898 60.4748C185.625 68.0598 179.805 76.9391 174.273 86.0749Z" fill="#C8102E"/>
<path d="M219.746 279.295C217.441 275.488 215.017 271.788 211.986 268.628C215.017 265.468 217.441 261.768 219.746 257.961C222.051 261.768 224.476 265.468 227.507 268.628C224.476 271.788 222.051 275.488 219.746 279.295Z" fill="#C8102E"/>
<path d="M63.8378 86.0749C58.3058 76.9391 52.4858 68.0598 45.2127 60.4748C52.4858 52.89 58.3058 44.0107 63.8378 34.8748C69.3697 44.0107 75.1897 52.89 82.4628 60.4748C75.1897 68.0598 69.3697 76.9391 63.8378 86.0749Z" fill="#C8102E"/>
<path d="M63.8378 297.73C58.3058 288.594 52.4858 279.715 45.2127 272.13C52.4858 264.545 58.3058 255.666 63.8378 246.53C69.3697 255.666 75.1897 264.545 82.4628 272.13C75.1897 279.715 69.3697 288.594 63.8378 297.73Z" fill="#C8102E"/>
<path d="M174.273 297.738C168.741 288.602 162.921 279.723 155.648 272.138C162.921 264.553 168.741 255.674 174.273 246.538C179.805 255.674 185.625 264.553 192.898 272.138C185.625 279.723 179.805 288.602 174.273 297.738Z" fill="#C8102E"/>
<path d="M18.6105 49.9561V46.8472H21.4163V41.7186H7.38141V38.0998L22.5683 14.7603L25.0492 14.7731V38.1001H29.3457V41.7188H25.0492L24.9681 46.8474H27.32V49.9606H18.6104L18.6105 49.9561ZM21.4163 23.305L11.774 38.1012H21.4163V23.305Z" fill="#C8102E"/>
<path d="M219.498 282.644V285.753H216.692V290.881H230.727V294.5L215.54 317.839L213.059 317.827V294.5H208.763V290.881H213.059L213.14 285.752H210.789V282.639H219.498L219.498 282.644ZM216.692 309.295L226.335 294.498H216.692V309.295Z" fill="#C8102E"/>
</g>
<defs>
<clipPath id="clip0_11_3274">
<rect width="238.111" height="332.599" fill="white"/>
</clipPath>
</defs>
</svg>
