<svg width="239" height="333" viewBox="0 0 239 333" fill="none" xmlns="http://www.w3.org/2000/svg">
<g clip-path="url(#clip0_11_3372)">
<path d="M226.721 0H11.3892C5.099 0 -0.00012207 5.09275 -0.00012207 11.375V321.225C-0.00012207 327.507 5.099 332.599 11.3892 332.599H226.721C233.012 332.599 238.111 327.507 238.111 321.225V11.375C238.111 5.09275 233.012 0 226.721 0Z" fill="white"/>
<path d="M18.3653 74.6383C16.0603 70.8318 13.6353 67.1321 10.6049 63.9716C13.6353 60.8113 16.0603 57.1116 18.3653 53.3049C20.6702 57.1116 23.0952 60.8113 26.1257 63.9716C23.0952 67.1321 20.6702 70.8318 18.3653 74.6383Z" fill="#C8102E"/>
<path d="M174.273 86.0749C168.741 76.9391 162.921 68.0598 155.648 60.4748C162.921 52.89 168.741 44.0107 174.273 34.8748C179.805 44.0107 185.625 52.89 192.898 60.4748C185.625 68.0598 179.805 76.9391 174.273 86.0749Z" fill="#C8102E"/>
<path d="M219.747 279.295C217.442 275.488 215.017 271.788 211.986 268.628C215.017 265.468 217.442 261.768 219.747 257.961C222.052 261.768 224.477 265.468 227.507 268.628C224.477 271.788 222.052 275.488 219.747 279.295Z" fill="#C8102E"/>
<path d="M63.8381 86.0749C58.3061 76.9391 52.486 68.0598 45.213 60.4748C52.486 52.89 58.3062 44.0107 63.8381 34.8748C69.37 44.0107 75.1901 52.89 82.4631 60.4748C75.1901 68.0598 69.37 76.9391 63.8381 86.0749Z" fill="#C8102E"/>
<path d="M119.056 138.97C113.524 129.834 107.704 120.955 100.431 113.37C107.704 105.785 113.524 96.9059 119.056 87.77C124.588 96.9059 130.408 105.785 137.681 113.37C130.408 120.955 124.588 129.834 119.056 138.97Z" fill="#C8102E"/>
<path d="M63.8381 191.865C58.3061 182.73 52.486 173.85 45.213 166.265C52.486 158.68 58.3062 149.801 63.8381 140.665C69.37 149.801 75.1901 158.68 82.4631 166.265C75.1901 173.85 69.37 182.73 63.8381 191.865Z" fill="#C8102E"/>
<path d="M174.273 191.882C168.741 182.746 162.921 173.867 155.648 166.282C162.921 158.697 168.741 149.818 174.273 140.682C179.805 149.818 185.625 158.697 192.898 166.282C185.625 173.867 179.805 182.746 174.273 191.882Z" fill="#C8102E"/>
<path d="M63.8381 297.73C58.3061 288.594 52.486 279.715 45.213 272.13C52.486 264.545 58.3062 255.666 63.8381 246.53C69.37 255.666 75.1901 264.545 82.4631 272.13C75.1901 279.715 69.37 288.594 63.8381 297.73Z" fill="#C8102E"/>
<path d="M174.273 297.738C168.741 288.602 162.921 279.723 155.648 272.138C162.921 264.553 168.741 255.674 174.273 246.538C179.805 255.674 185.625 264.553 192.898 272.138C185.625 279.723 179.805 288.602 174.273 297.738Z" fill="#C8102E"/>
<path d="M119.056 244.798C113.524 235.662 107.704 226.783 100.431 219.198C107.704 211.613 113.524 202.734 119.056 193.598C124.588 202.734 130.408 211.613 137.681 219.198C130.408 226.783 124.588 235.662 119.056 244.798Z" fill="#C8102E"/>
<path d="M6.92929 39.6497C7.09654 34.9243 8.80534 33.1517 12.1694 30.6794C9.48556 28.7435 8.3541 25.8897 8.5845 23.4607C9.13714 17.5787 13.6793 14.6385 18.6356 14.7641C23.5959 14.8954 27.8649 18.8275 28.1981 23.1017C28.4875 26.8173 27.3837 28.6108 24.7478 30.5648C27.8761 33.2062 29.874 34.941 29.7999 39.5952C29.7263 44.2494 25.7667 49.7877 18.8658 49.9568C11.965 50.1257 6.75777 44.3751 6.92929 39.6497ZM26.1931 39.6668C26.488 35.3883 22.7059 32.5025 18.4366 32.4606C14.2799 32.4158 10.5619 35.9639 10.5619 39.805C10.5619 43.9299 15.399 46.1717 18.5231 46.1815C22.3205 46.1986 25.9366 43.3501 26.1931 39.6668ZM24.8273 24.3619C24.9083 20.7624 21.5867 18.1797 18.1582 18.2831C15.1097 18.3769 11.8853 20.7009 11.8798 23.7124C11.8798 27.4824 15.5498 29.3653 18.6835 29.438C21.5278 29.502 24.7628 27.0844 24.8273 24.3619Z" fill="#C8102E"/>
<path d="M208.311 292.95C208.478 297.675 210.187 299.448 213.551 301.92C210.867 303.856 209.735 306.71 209.966 309.139C210.518 315.021 215.061 317.961 220.017 317.835C224.977 317.704 229.246 313.772 229.58 309.498C229.869 305.782 228.765 303.989 226.129 302.035C229.257 299.393 231.256 297.659 231.182 293.004C231.108 288.35 227.148 282.812 220.247 282.643C213.346 282.474 208.139 288.224 208.311 292.95ZM227.575 292.933C227.87 297.211 224.087 300.097 219.818 300.139C215.661 300.184 211.943 296.636 211.943 292.795C211.943 288.67 216.78 286.428 219.904 286.418C223.702 286.401 227.318 289.249 227.575 292.933ZM226.209 308.238C226.29 311.837 222.968 314.42 219.54 314.317C216.491 314.223 213.267 311.899 213.261 308.887C213.261 305.117 216.931 303.234 220.065 303.162C222.909 303.098 226.144 305.515 226.209 308.238Z" fill="#C8102E"/>
</g>
<defs>
<clipPath id="clip0_11_3372">
<rect width="238.111" height="332.599" fill="white"/>
</clipPath>
</defs>
</svg>
