<svg width="239" height="333" viewBox="0 0 239 333" fill="none" xmlns="http://www.w3.org/2000/svg">
<g clip-path="url(#clip0_11_3297)">
<path d="M226.722 0H11.3895C5.09932 0 6.10352e-05 5.09275 6.10352e-05 11.375V321.225C6.10352e-05 327.507 5.09932 332.599 11.3895 332.599H226.722C233.012 332.599 238.111 327.507 238.111 321.225V11.375C238.111 5.09275 233.012 0 226.722 0Z" fill="white"/>
<path d="M18.365 74.6383C16.06 70.8318 13.635 67.1321 10.6046 63.9716C13.635 60.8113 16.06 57.1116 18.365 53.3049C20.67 57.1116 23.0949 60.8113 26.1254 63.9716C23.0949 67.1321 20.67 70.8318 18.365 74.6383Z" fill="#C8102E"/>
<path d="M174.273 86.0749C168.741 76.9391 162.921 68.0598 155.648 60.4748C162.921 52.89 168.741 44.0107 174.273 34.8748C179.805 44.0107 185.625 52.89 192.898 60.4748C185.625 68.0598 179.805 76.9391 174.273 86.0749Z" fill="#C8102E"/>
<path d="M219.747 279.295C217.442 275.488 215.017 271.788 211.986 268.628C215.017 265.468 217.442 261.768 219.747 257.961C222.052 261.768 224.477 265.468 227.507 268.628C224.477 271.788 222.052 275.488 219.747 279.295Z" fill="#C8102E"/>
<path d="M63.8378 86.0749C58.3058 76.9391 52.4858 68.0598 45.2127 60.4748C52.4858 52.89 58.3058 44.0107 63.8378 34.8748C69.3697 44.0107 75.1897 52.89 82.4628 60.4748C75.1897 68.0598 69.3697 76.9391 63.8378 86.0749Z" fill="#C8102E"/>
<path d="M119.055 191.9C113.523 182.764 107.703 173.885 100.43 166.3C107.703 158.715 113.523 149.836 119.055 140.7C124.587 149.836 130.407 158.715 137.68 166.3C130.407 173.885 124.587 182.764 119.055 191.9Z" fill="#C8102E"/>
<path d="M63.8378 297.73C58.3058 288.594 52.4858 279.715 45.2127 272.13C52.4858 264.545 58.3058 255.666 63.8378 246.53C69.3697 255.666 75.1897 264.545 82.4628 272.13C75.1897 279.715 69.3697 288.594 63.8378 297.73Z" fill="#C8102E"/>
<path d="M174.273 297.738C168.741 288.602 162.921 279.723 155.648 272.138C162.921 264.553 168.741 255.674 174.273 246.538C179.805 255.674 185.625 264.553 192.898 272.138C185.625 279.723 179.805 288.602 174.273 297.738Z" fill="#C8102E"/>
<path d="M7.26866 40.8477L10.7191 40.8147C11.3773 42.9393 12.8338 45.0988 14.8114 45.6981C20.3984 47.0348 23.9928 43.8542 25.1764 40.1875C26.6122 35.7399 25.1444 29.4945 21.298 27.2778C18.1109 25.4395 13.3754 26.99 11.2004 30.9221L8.78403 29.4163L10.0813 14.7605H25.8675V18.2247H13.0752L12.8722 24.3303C15.626 22.3608 19.8582 22.3817 22.6105 23.7633C27.8232 26.2958 30.245 32.0536 29.2329 38.8395C27.8287 45.5891 24.732 49.4137 17.7475 49.9599C9.97849 50.0313 7.2357 44.5899 7.26866 40.8477Z" fill="#C8102E"/>
<path d="M230.84 291.752L227.389 291.785C226.731 289.66 225.275 287.501 223.297 286.902C217.71 285.565 214.116 288.746 212.932 292.412C211.496 296.86 212.964 303.105 216.81 305.322C219.998 307.16 224.733 305.61 226.908 301.678L229.324 303.183L228.027 317.839H212.241V314.375H225.033L225.236 308.269C222.483 310.239 218.25 310.218 215.498 308.837C210.285 306.304 207.863 300.546 208.876 293.76C210.28 287.011 213.376 283.186 220.361 282.64C228.13 282.568 230.873 288.01 230.84 291.752Z" fill="#C8102E"/>
</g>
<defs>
<clipPath id="clip0_11_3297">
<rect width="238.111" height="332.599" fill="white"/>
</clipPath>
</defs>
</svg>
