<svg width="239" height="333" viewBox="0 0 239 333" fill="none" xmlns="http://www.w3.org/2000/svg">
<g clip-path="url(#clip0_11_3231)">
<path d="M313.722 0H98.3895C92.0993 0 87 5.09275 87 11.375V321.225C87 327.507 92.0993 332.599 98.3895 332.599H313.722C320.012 332.599 325.111 327.507 325.111 321.225V11.375C325.111 5.09275 320.012 0 313.722 0Z" fill="white"/>
<path d="M206.056 86.0749C200.524 76.9391 194.704 68.0598 187.43 60.4748C194.704 52.89 200.524 44.0107 206.056 34.8748C211.588 44.0107 217.408 52.89 224.681 60.4748C217.408 68.0598 211.588 76.9391 206.056 86.0749Z" fill="#C8102E"/>
<path d="M105.365 74.6383C103.06 70.8318 100.635 67.1321 97.6047 63.9716C100.635 60.8113 103.06 57.1116 105.365 53.3049C107.67 57.1116 110.095 60.8113 113.126 63.9716C110.095 67.1321 107.67 70.8318 105.365 74.6383Z" fill="#C8102E"/>
<path d="M206.056 297.725C200.524 288.589 194.704 279.71 187.43 272.125C194.704 264.54 200.524 255.661 206.056 246.525C211.588 255.661 217.408 264.54 224.681 272.125C217.408 279.71 211.588 288.589 206.056 297.725Z" fill="#C8102E"/>
<path d="M95.3455 49.8849L95.5169 47.7143C96.0586 41.0067 97.4999 38.7439 105.675 31.7417C109.644 28.3474 110.945 26.6726 111.128 24.7296C111.647 20.1467 107.592 18.7164 104.951 18.6954C101.528 18.6645 97.6549 20.7473 99.5035 25.5887L95.6623 26.7383C94.8902 22.2223 95.6846 17.9858 99.2787 16.1057C104.079 13.6543 110.233 14.6154 113.341 18.4776C115.43 21.0686 115.907 24.6542 114.786 27.4604C111.513 34.6289 100.409 37.7829 99.4925 46.0772H111.765V41.4593H115.382V49.9603L95.3455 49.8849Z" fill="#C8102E"/>
</g>
<defs>
<clipPath id="clip0_11_3231">
<rect width="238.111" height="332.599" fill="white"/>
</clipPath>
</defs>
</svg>
