<svg width="239" height="333" viewBox="0 0 239 333" fill="none" xmlns="http://www.w3.org/2000/svg">
<g clip-path="url(#clip0_11_3662)">
<path d="M226.722 0H11.3894C5.09921 0 0 5.09276 0 11.375V321.225C0 327.507 5.09921 332.599 11.3894 332.599H226.722C233.012 332.599 238.111 327.507 238.111 321.225V11.375C238.111 5.09276 233.012 0 226.722 0Z" fill="white"/>
<path d="M18.3681 74.6425C18.3681 74.6425 15.9951 71.24 12.794 67.2397C10.6525 64.5627 8.94045 61.664 8.7812 59.1672C8.59869 56.315 10.3268 53.4537 13.4555 53.315C16.5823 53.1764 17.8514 55.5141 18.3681 57.4415C18.8848 55.5141 20.154 53.1764 23.2808 53.315C26.4094 53.4537 28.1376 56.315 27.955 59.1672C27.7959 61.664 26.0838 64.5627 23.9423 67.2397C20.7411 71.24 18.3681 74.6425 18.3681 74.6425Z" fill="#C8102E"/>
<path d="M219.75 257.965C219.75 257.965 217.377 261.368 214.175 265.368C212.034 268.045 210.322 270.944 210.163 273.441C209.98 276.293 211.708 279.154 214.837 279.293C217.964 279.431 219.233 277.094 219.75 275.166C220.266 277.094 221.536 279.431 224.662 279.293C227.791 279.154 229.519 276.293 229.336 273.441C229.177 270.944 227.465 268.045 225.324 265.368C222.123 261.368 219.75 257.965 219.75 257.965Z" fill="#C8102E"/>
<path d="M63.8407 86.0788C63.8407 86.0788 58.8633 77.9129 52.1491 68.3121C47.6573 61.8872 44.0663 54.9304 43.7324 48.9381C43.3495 42.0929 46.9742 35.2256 53.5366 34.8928C60.095 34.5601 62.7571 40.1707 63.8407 44.7964C64.9245 40.1707 67.5865 34.5601 74.145 34.8928C80.7073 35.2256 84.3321 42.0929 83.9492 48.9381C83.6153 54.9304 80.0242 61.8872 75.5325 68.3121C68.8182 77.9129 63.8407 86.0788 63.8407 86.0788Z" fill="#C8102E"/>
<path d="M174.276 191.904C174.276 191.904 169.299 183.738 162.584 174.137C158.093 167.712 154.502 160.756 154.168 154.763C153.785 147.918 157.41 141.051 163.972 140.718C170.53 140.385 173.193 145.996 174.276 150.622C175.36 145.996 178.022 140.385 184.58 140.718C191.143 141.051 194.768 147.918 194.385 154.763C194.051 160.756 190.46 167.712 185.968 174.137C179.254 183.738 174.276 191.904 174.276 191.904Z" fill="#C8102E"/>
<path d="M174.276 86.0788C174.276 86.0788 169.299 77.9129 162.584 68.3121C158.093 61.8872 154.502 54.9304 154.168 48.9381C153.785 42.0929 157.41 35.2256 163.972 34.8928C170.53 34.5601 173.193 40.1707 174.276 44.7964C175.36 40.1707 178.022 34.5601 184.58 34.8928C191.143 35.2256 194.768 42.0929 194.385 48.9381C194.051 54.9304 190.46 61.8872 185.968 68.3121C179.254 77.9129 174.276 86.0788 174.276 86.0788Z" fill="#C8102E"/>
<path d="M63.8407 191.904C63.8407 191.904 58.8633 183.738 52.1491 174.137C47.6573 167.712 44.0663 160.756 43.7324 154.763C43.3495 147.918 46.9742 141.051 53.5366 140.718C60.095 140.385 62.7571 145.996 63.8407 150.622C64.9245 145.996 67.5865 140.385 74.145 140.718C80.7073 141.051 84.3321 147.918 83.9492 154.763C83.6153 160.756 80.0242 167.712 75.5325 174.137C68.8182 183.738 63.8407 191.904 63.8407 191.904Z" fill="#C8102E"/>
<path d="M174.276 246.529C174.276 246.529 169.299 254.695 162.584 264.296C158.093 270.72 154.502 277.677 154.168 283.67C153.785 290.515 157.41 297.382 163.972 297.715C170.53 298.047 173.193 292.437 174.276 287.811C175.36 292.437 178.022 298.047 184.58 297.715C191.143 297.382 194.768 290.515 194.385 283.67C194.051 277.677 190.46 270.72 185.968 264.296C179.254 254.695 174.276 246.529 174.276 246.529Z" fill="#C8102E"/>
<path d="M63.8407 246.529C63.8407 246.529 58.8633 254.695 52.1491 264.296C47.6573 270.72 44.0663 277.677 43.7324 283.67C43.3495 290.515 46.9742 297.382 53.5366 297.715C60.095 298.047 62.7571 292.437 63.8407 287.811C64.9245 292.437 67.5865 298.047 74.145 297.715C80.7073 297.382 84.3321 290.515 83.9492 283.67C83.6153 277.677 80.0242 270.72 75.5325 264.296C68.8182 254.695 63.8407 246.529 63.8407 246.529Z" fill="#C8102E"/>
<path d="M8.03039 39.1359C7.597 36.1732 7.60802 28.5145 7.96216 26.2489C9.05517 19.3082 11.706 16.132 16.1466 15.0955C20.4596 14.0855 26.5185 15.21 27.8474 21.0109L24.242 21.0803C22.2919 17.1581 17.3575 18.2057 14.5777 19.9125C12.3602 21.2716 11.3577 26.9468 11.7869 27.296C11.7869 27.296 15.9807 24.1895 19.2872 24.4185C26.3526 25.1547 29.2668 31.2826 29.0199 37.0681C28.795 44.0284 26.5885 49.5946 19.0993 49.9647C11.979 49.6895 8.71604 45.8084 8.03039 39.1359ZM25.5911 37.2976C25.6295 32.4688 23.4381 28.8498 19.2869 28.4531C15.1398 28.0536 10.9556 32.1014 11.245 37.0238C11.5344 41.9671 13.4474 46.1255 18.4777 46.1031C23.8878 46.0817 25.5651 40.7351 25.5911 37.2976Z" fill="#C8102E"/>
<path d="M230.086 293.473C230.52 296.436 230.508 304.094 230.154 306.36C229.061 313.301 226.41 316.477 221.97 317.513C217.657 318.523 211.598 317.399 210.269 311.598L213.874 311.529C215.825 315.451 220.759 314.403 223.539 312.696C225.756 311.337 226.759 305.662 226.329 305.313C226.329 305.313 222.136 308.419 218.829 308.19C211.764 307.454 208.85 301.326 209.097 295.541C209.321 288.58 211.528 283.014 219.017 282.644C226.138 282.919 229.4 286.8 230.086 293.473ZM212.525 295.311C212.487 300.14 214.678 303.759 218.83 304.156C222.977 304.555 227.161 300.507 226.871 295.585C226.582 290.642 224.669 286.483 219.639 286.506C214.229 286.527 212.551 291.874 212.525 295.311Z" fill="#C8102E"/>
</g>
<defs>
<clipPath id="clip0_11_3662">
<rect width="238.111" height="332.599" fill="white"/>
</clipPath>
</defs>
</svg>
