<svg width="239" height="333" viewBox="0 0 239 333" fill="none" xmlns="http://www.w3.org/2000/svg">
<g clip-path="url(#clip0_11_3609)">
<path d="M226.722 0H11.3895C5.09933 0 0.00012207 5.09276 0.00012207 11.375V321.225C0.00012207 327.507 5.09933 332.599 11.3895 332.599H226.722C233.012 332.599 238.111 327.507 238.111 321.225V11.375C238.111 5.09276 233.012 0 226.722 0Z" fill="white"/>
<path d="M18.3681 74.6425C18.3681 74.6393 15.9951 71.24 12.794 67.2397C10.6525 64.5627 8.94045 61.664 8.7812 59.1672C8.59869 56.315 10.3268 53.4537 13.4555 53.315C16.5823 53.1764 17.8514 55.5141 18.3681 57.4415C18.8848 55.5141 20.154 53.1764 23.2808 53.315C26.4094 53.4537 28.1376 56.315 27.955 59.1672C27.7959 61.664 26.0838 64.5627 23.9423 67.2397C20.7411 71.24 18.3701 74.6397 18.3681 74.6425Z" fill="#C8102E"/>
<path d="M219.75 257.965C219.75 257.969 217.377 261.368 214.175 265.368C212.034 268.045 210.322 270.944 210.163 273.441C209.98 276.293 211.708 279.154 214.837 279.293C217.964 279.431 219.233 277.094 219.75 275.166C220.266 277.094 221.536 279.431 224.662 279.293C227.791 279.154 229.519 276.293 229.336 273.441C229.177 270.944 227.465 268.045 225.324 265.368C222.123 261.368 219.752 257.968 219.75 257.965Z" fill="#C8102E"/>
<path d="M63.8408 86.0788C63.8408 86.0724 58.8634 77.9129 52.1492 68.3121C47.6574 61.8872 44.0664 54.9304 43.7325 48.9381C43.3496 42.0929 46.9743 35.2256 53.5367 34.8928C60.0951 34.5601 62.7572 40.1707 63.8408 44.7964C64.9246 40.1707 67.5867 34.5601 74.1451 34.8928C80.7075 35.2256 84.3322 42.0929 83.9493 48.9381C83.6154 54.9304 80.0244 61.8872 75.5326 68.3121C68.8184 77.9129 63.8451 86.0722 63.8408 86.0788Z" fill="#C8102E"/>
<path d="M174.276 86.0788C174.276 86.0724 169.299 77.9129 162.584 68.3121C158.093 61.8872 154.502 54.9304 154.168 48.9381C153.785 42.0929 157.41 35.2256 163.972 34.8928C170.53 34.5601 173.193 40.1707 174.276 44.7964C175.36 40.1707 178.022 34.5601 184.58 34.8928C191.143 35.2256 194.768 42.0929 194.385 48.9381C194.051 54.9304 190.46 61.8872 185.968 68.3121C179.254 77.9129 174.28 86.0722 174.276 86.0788Z" fill="#C8102E"/>
<path d="M174.276 246.529C174.276 246.535 169.299 254.695 162.584 264.296C158.093 270.72 154.502 277.677 154.168 283.67C153.785 290.515 157.41 297.382 163.972 297.715C170.53 298.047 173.193 292.437 174.276 287.811C175.36 292.437 178.022 298.047 184.58 297.715C191.143 297.382 194.768 290.515 194.385 283.67C194.051 277.677 190.46 270.72 185.968 264.296C179.254 254.695 174.28 246.535 174.276 246.529Z" fill="#C8102E"/>
<path d="M63.8408 246.529C63.8408 246.535 58.8634 254.695 52.1492 264.296C47.6574 270.72 44.0664 277.677 43.7325 283.67C43.3496 290.515 46.9743 297.382 53.5367 297.715C60.0951 298.047 62.7572 292.437 63.8408 287.811C64.9246 292.437 67.5867 298.047 74.1451 297.715C80.7075 297.382 84.3322 290.515 83.9493 283.67C83.6154 277.677 80.0244 270.72 75.5326 264.296C68.8184 254.695 63.8451 246.535 63.8408 246.529Z" fill="#C8102E"/>
<path d="M18.6119 49.9609V46.8518H21.4178V41.7232H7.38281V38.1044L22.5698 14.7649L25.0507 14.7778V38.1048H29.3472V41.7234H25.0507L24.9696 46.852H27.3214V49.9652H18.6118L18.6119 49.9609ZM21.4178 23.3096L11.7755 38.106H21.4178V23.3096Z" fill="#C8102E"/>
<path d="M219.5 282.648V285.757H216.694V290.886H230.729V294.504L215.542 317.844L213.061 317.831V294.504H208.764V290.885H213.061L213.142 285.757H210.79V282.644H219.5V282.648ZM216.694 309.299L226.336 294.503H216.694V309.299Z" fill="#C8102E"/>
<g clip-path="url(#clip1_11_3609)">
<path d="M302.721 0H87.3894C81.0991 0 75.9999 5.09276 75.9999 11.375V321.225C75.9999 327.507 81.0991 332.599 87.3894 332.599H302.721C309.012 332.599 314.111 327.507 314.111 321.225V11.375C314.111 5.09276 309.012 0 302.721 0Z" fill="white"/>
<path d="M94.3628 74.6425C94.3628 74.6425 91.9898 71.24 88.7887 67.2397C86.6471 64.5627 84.9351 61.664 84.7759 59.1672C84.5934 56.315 86.3215 53.4537 89.4501 53.315C92.577 53.1764 93.8461 55.5141 94.3628 57.4415C94.8795 55.5141 96.1487 53.1764 99.2755 53.315C102.404 53.4537 104.132 56.315 103.95 59.1672C103.791 61.664 102.078 64.5627 99.937 67.2397C96.7358 71.24 94.3628 74.6425 94.3628 74.6425Z" fill="#C8102E"/>
<path d="M195.053 86.0788C195.053 86.0788 190.076 77.9129 183.361 68.3121C178.87 61.8872 175.279 54.9304 174.945 48.9381C174.562 42.0929 178.187 35.2256 184.749 34.8928C191.307 34.5601 193.969 40.1707 195.053 44.7964C196.137 40.1707 198.799 34.5601 205.357 34.8928C211.92 35.2256 215.544 42.0929 215.162 48.9381C214.828 54.9304 211.237 61.8872 206.745 68.3121C200.031 77.9129 195.053 86.0788 195.053 86.0788Z" fill="#C8102E"/>
<path d="M195.053 191.904C195.053 191.904 190.076 183.738 183.361 174.137C178.87 167.712 175.279 160.756 174.945 154.763C174.562 147.918 178.187 141.051 184.749 140.718C191.307 140.385 193.969 145.996 195.053 150.622C196.137 145.996 198.799 140.385 205.357 140.718C211.92 141.051 215.544 147.918 215.161 154.763C214.828 160.756 211.237 167.712 206.745 174.137C200.031 183.738 195.053 191.904 195.053 191.904Z" fill="#C8102E"/>
<path d="M195.053 246.529C195.053 246.529 190.076 254.695 183.361 264.296C178.87 270.72 175.279 277.677 174.945 283.67C174.562 290.515 178.187 297.382 184.749 297.715C191.307 298.047 193.969 292.437 195.053 287.811C196.137 292.437 198.799 298.047 205.357 297.715C211.92 297.382 215.544 290.515 215.161 283.67C214.828 277.677 211.237 270.72 206.745 264.296C200.031 254.695 195.053 246.529 195.053 246.529Z" fill="#C8102E"/>
<path d="M82.9396 42.2493L85.6496 40.2562C88.0015 44.086 90.6319 46.6084 94.6556 46.1754C100.692 45.7606 103.194 39.4322 101.931 34.6639C100.709 30.3858 95.7102 28.302 91.7359 30.5828C90.7979 31.1234 89.8927 31.5645 89.7158 31.5645C89.2989 31.5645 88.3554 29.6875 88.4843 29.1149C91.1516 25.2194 97.6287 18.3951 97.6287 18.3951H87.5092V22.9652H83.6254V14.7651H103.404V17.5473C103.404 17.5473 98.1046 23.0434 96.3533 26.0532C100.666 26.2111 104.143 28.9444 105.391 33.2658C106.119 35.5411 105.793 40.7451 104.84 42.9882C103.247 46.7271 98.8986 49.7608 94.923 49.9353C88.2483 50.3836 84.7074 45.7076 82.9396 42.2493Z" fill="#C8102E"/>
</g>
</g>
<defs>
<clipPath id="clip0_11_3609">
<rect width="238.111" height="332.599" fill="white"/>
</clipPath>
<clipPath id="clip1_11_3609">
<rect width="238.111" height="332.599" fill="white" transform="translate(76)"/>
</clipPath>
</defs>
</svg>
