<svg width="239" height="333" viewBox="0 0 239 333" fill="none" xmlns="http://www.w3.org/2000/svg">
<g clip-path="url(#clip0_11_3560)">
<path d="M226.722 0H11.3894C5.09921 0 0 5.09276 0 11.375V321.225C0 327.507 5.09921 332.599 11.3894 332.599H226.722C233.012 332.599 238.111 327.507 238.111 321.225V11.375C238.111 5.09276 233.012 0 226.722 0Z" fill="white"/>
<path d="M18.3649 74.6425C18.3649 74.6425 15.9919 71.24 12.7908 67.2397C10.6492 64.5627 8.93722 61.664 8.77796 59.1672C8.59546 56.315 10.3236 53.4537 13.4522 53.315C16.5791 53.1764 17.8482 55.5141 18.3649 57.4415C18.8816 55.5141 20.1508 53.1764 23.2775 53.315C26.4062 53.4537 28.1344 56.315 27.9518 59.1672C27.7926 61.664 26.0805 64.5627 23.9391 67.2397C20.7379 71.24 18.3649 74.6425 18.3649 74.6425Z" fill="#C8102E"/>
<path d="M219.746 257.965C219.746 257.965 217.373 261.368 214.172 265.368C212.031 268.045 210.319 270.944 210.159 273.441C209.977 276.293 211.705 279.154 214.834 279.293C217.961 279.431 219.23 277.094 219.746 275.166C220.263 277.094 221.532 279.431 224.659 279.293C227.788 279.154 229.516 276.293 229.333 273.441C229.174 270.944 227.462 268.045 225.321 265.368C222.119 261.368 219.746 257.965 219.746 257.965Z" fill="#C8102E"/>
<path d="M119.055 86.0788C119.055 86.0788 114.078 77.9129 107.364 68.3121C102.872 61.8872 99.2807 54.9304 98.9469 48.9381C98.5639 42.0929 102.189 35.2256 108.751 34.8928C115.309 34.5601 117.972 40.1707 119.055 44.7964C120.139 40.1707 122.801 34.5601 129.359 34.8928C135.922 35.2256 139.547 42.0929 139.164 48.9381C138.83 54.9304 135.239 61.8872 130.747 68.3121C124.033 77.9129 119.055 86.0788 119.055 86.0788Z" fill="#C8102E"/>
<path d="M119.055 246.529C119.055 246.529 114.078 254.695 107.364 264.296C102.872 270.72 99.2807 277.677 98.9469 283.67C98.5639 290.515 102.189 297.382 108.751 297.715C115.309 298.047 117.972 292.437 119.055 287.811C120.139 292.437 122.801 298.047 129.359 297.715C135.922 297.382 139.547 290.515 139.164 283.67C138.83 277.677 135.239 270.72 130.747 264.296C124.033 254.695 119.055 246.529 119.055 246.529Z" fill="#C8102E"/>
<path d="M8.34546 49.8898L8.51694 47.7191C9.0586 41.0116 10.4999 38.7487 18.6749 31.7466C22.6437 28.3522 23.9452 26.6774 24.1276 24.7345C24.6474 20.1515 20.5921 18.7212 17.9508 18.7002C14.5278 18.6693 10.6549 20.7522 12.5035 25.5936L8.66226 26.7432C7.8902 22.2272 8.68464 17.9907 12.2787 16.1106C17.0786 13.6592 23.2334 14.6203 26.341 18.4825C28.4297 21.0736 28.9069 24.6591 27.7865 27.4653C24.513 34.6338 13.4087 37.7878 12.4925 46.0821H24.7652V41.4642H28.3817V49.9652L8.34546 49.8898Z" fill="#C8102E"/>
<path d="M229.763 282.719L229.592 284.89C229.05 291.597 227.609 293.86 219.434 300.862C215.465 304.257 214.163 305.931 213.981 307.874C213.461 312.457 217.516 313.888 220.158 313.909C223.581 313.94 227.454 311.857 225.605 307.015L229.446 305.866C230.218 310.382 229.424 314.618 225.83 316.498C221.03 318.95 214.875 317.989 211.767 314.127C209.679 311.535 209.202 307.95 210.322 305.144C213.596 297.975 224.7 294.821 225.616 286.527H213.343V291.145H209.727V282.644L229.763 282.719Z" fill="#C8102E"/>
</g>
<defs>
<clipPath id="clip0_11_3560">
<rect width="238.111" height="332.599" fill="white"/>
</clipPath>
</defs>
</svg>
