<svg width="239" height="333" viewBox="0 0 239 333" fill="none" xmlns="http://www.w3.org/2000/svg">
<g clip-path="url(#clip0_11_3635)">
<path d="M226.721 0H11.3893C5.09909 0 -0.00012207 5.09276 -0.00012207 11.375V321.225C-0.00012207 327.507 5.09909 332.599 11.3893 332.599H226.721C233.012 332.599 238.111 327.507 238.111 321.225V11.375C238.111 5.09276 233.012 0 226.721 0Z" fill="white"/>
<path d="M18.3575 74.6425C18.3575 74.6425 15.9845 71.24 12.7834 67.2397C10.6418 64.5627 8.92983 61.664 8.77058 59.1672C8.58807 56.315 10.3162 53.4537 13.4448 53.315C16.5717 53.1764 17.8408 55.5141 18.3575 57.4415C18.8742 55.5141 20.1434 53.1764 23.2701 53.315C26.3988 53.4537 28.127 56.315 27.9444 59.1672C27.7852 61.664 26.0731 64.5627 23.9317 67.2397C20.7305 71.24 18.3575 74.6425 18.3575 74.6425Z" fill="#C8102E"/>
<path d="M219.739 257.965C219.739 257.965 217.366 261.368 214.165 265.368C212.023 268.045 210.311 270.944 210.152 273.441C209.969 276.293 211.698 279.154 214.826 279.293C217.953 279.431 219.222 277.094 219.739 275.166C220.256 277.094 221.525 279.431 224.651 279.293C227.78 279.154 229.508 276.293 229.326 273.441C229.167 270.944 227.454 268.045 225.313 265.368C222.112 261.368 219.739 257.965 219.739 257.965Z" fill="#C8102E"/>
<path d="M63.83 86.0788C63.83 86.0788 58.8526 77.9129 52.1383 68.3121C47.6466 61.8872 44.0555 54.9304 43.7217 48.9381C43.3387 42.0929 46.9635 35.2256 53.5258 34.8928C60.0843 34.5601 62.7463 40.1707 63.83 44.7964C64.9137 40.1707 67.5758 34.5601 74.1342 34.8928C80.6966 35.2256 84.3213 42.0929 83.9384 48.9381C83.6045 54.9304 80.0135 61.8872 75.5217 68.3121C68.8075 77.9129 63.83 86.0788 63.83 86.0788Z" fill="#C8102E"/>
<path d="M174.265 86.0788C174.265 86.0788 169.288 77.9129 162.574 68.3121C158.082 61.8872 154.491 54.9304 154.157 48.9381C153.774 42.0929 157.399 35.2256 163.961 34.8928C170.52 34.5601 173.182 40.1707 174.265 44.7964C175.349 40.1707 178.011 34.5601 184.57 34.8928C191.132 35.2256 194.757 42.0929 194.374 48.9381C194.04 54.9304 190.449 61.8872 185.957 68.3121C179.243 77.9129 174.265 86.0788 174.265 86.0788Z" fill="#C8102E"/>
<path d="M119.048 191.904C119.048 191.904 114.07 183.738 107.356 174.137C102.864 167.712 99.2732 160.756 98.9393 154.763C98.5564 147.918 102.181 141.051 108.743 140.718C115.302 140.385 117.964 145.996 119.048 150.622C120.131 145.996 122.793 140.385 129.352 140.718C135.914 141.051 139.539 147.918 139.156 154.763C138.822 160.756 135.231 167.712 130.739 174.137C124.025 183.738 119.048 191.904 119.048 191.904Z" fill="#C8102E"/>
<path d="M174.265 246.529C174.265 246.529 169.288 254.695 162.574 264.296C158.082 270.72 154.491 277.677 154.157 283.67C153.774 290.515 157.399 297.382 163.961 297.715C170.52 298.047 173.182 292.437 174.265 287.811C175.349 292.437 178.011 298.047 184.57 297.715C191.132 297.382 194.757 290.515 194.374 283.67C194.04 277.677 190.449 270.72 185.957 264.296C179.243 254.695 174.265 246.529 174.265 246.529Z" fill="#C8102E"/>
<path d="M63.83 246.529C63.83 246.529 58.8526 254.695 52.1383 264.296C47.6466 270.72 44.0555 277.677 43.7217 283.67C43.3387 290.515 46.9635 297.382 53.5258 297.715C60.0843 298.047 62.7463 292.437 63.83 287.811C64.9137 292.437 67.5758 298.047 74.1342 297.715C80.6966 297.382 84.3213 290.515 83.9384 283.67C83.6045 277.677 80.0135 270.72 75.5217 264.296C68.8075 254.695 63.83 246.529 63.83 246.529Z" fill="#C8102E"/>
<path d="M7.26592 40.8522L10.7163 40.8191C11.3746 42.9438 12.831 45.1033 14.8087 45.7026C20.3957 47.0394 23.9901 43.8587 25.1737 40.1921C26.6095 35.7444 25.1417 29.499 21.2953 27.2822C18.1082 25.4439 13.3726 26.9945 11.1977 30.9267L8.78129 29.4208L10.0786 14.7649H25.8648V18.2292H13.0724L12.8695 24.3348C15.6233 22.3653 19.8553 22.3862 22.6076 23.7678C27.8203 26.3003 30.2422 32.0581 29.2302 38.844C27.8259 45.5937 24.7293 49.4182 17.7447 49.9644C9.97574 50.0359 7.23296 44.5944 7.26592 40.8522Z" fill="#C8102E"/>
<path d="M230.837 291.757L227.387 291.79C226.728 289.665 225.272 287.506 223.294 286.906C217.707 285.57 214.113 288.75 212.929 292.417C211.493 296.865 212.961 303.11 216.808 305.327C219.995 307.165 224.73 305.614 226.905 301.682L229.322 303.188L228.024 317.844H212.238V314.38H225.031L225.234 308.274C222.48 310.244 218.248 310.223 215.495 308.841C210.283 306.309 207.861 300.551 208.873 293.765C210.277 287.015 213.374 283.191 220.358 282.644C228.127 282.573 230.87 288.014 230.837 291.757Z" fill="#C8102E"/>
</g>
<defs>
<clipPath id="clip0_11_3635">
<rect width="238.111" height="332.599" fill="white"/>
</clipPath>
</defs>
</svg>
