<svg width="239" height="333" viewBox="0 0 239 333" fill="none" xmlns="http://www.w3.org/2000/svg">
<g clip-path="url(#clip0_11_3690)">
<path d="M226.721 0H11.3893C5.0991 0 -0.00012207 5.09276 -0.00012207 11.375V321.224C-0.00012207 327.507 5.0991 332.599 11.3893 332.599H226.721C233.012 332.599 238.111 327.507 238.111 321.224V11.375C238.111 5.09276 233.012 0 226.721 0Z" fill="white"/>
<path d="M18.3651 74.6383C18.3651 74.6383 15.992 71.2359 12.791 67.2355C10.6494 64.5585 8.9374 61.6598 8.77815 59.163C8.59564 56.3109 10.3238 53.4495 13.4524 53.3108C16.5792 53.1722 17.8484 55.5099 18.3651 57.4373C18.8818 55.5099 20.151 53.1722 23.2777 53.3108C26.4064 53.4495 28.1346 56.3109 27.952 59.163C27.7928 61.6598 26.0807 64.5585 23.9393 67.2355C20.7381 71.2359 18.3651 74.6383 18.3651 74.6383Z" fill="#C8102E"/>
<path d="M219.746 257.961C219.746 257.961 217.373 261.364 214.172 265.364C212.031 268.041 210.319 270.94 210.159 273.436C209.977 276.289 211.705 279.15 214.834 279.289C217.961 279.427 219.23 277.09 219.746 275.162C220.263 277.09 221.532 279.427 224.659 279.289C227.788 279.15 229.516 276.289 229.333 273.436C229.174 270.94 227.462 268.041 225.321 265.364C222.119 261.364 219.746 257.961 219.746 257.961Z" fill="#C8102E"/>
<path d="M119.055 138.987C119.055 138.987 114.078 130.821 107.364 121.221C102.872 114.796 99.281 107.839 98.9471 101.847C98.5642 95.0014 102.189 88.1341 108.751 87.8012C115.31 87.4686 117.972 93.0791 119.055 97.7048C120.139 93.0791 122.801 87.4686 129.36 87.8012C135.922 88.1341 139.547 95.0014 139.164 101.847C138.83 107.839 135.239 114.796 130.747 121.221C124.033 130.821 119.055 138.987 119.055 138.987Z" fill="#C8102E"/>
<path d="M63.8379 86.0747C63.8379 86.0747 58.8605 77.9088 52.1463 68.3079C47.6545 61.8831 44.0635 54.9262 43.7296 48.9339C43.3467 42.0888 46.9714 35.2215 53.5338 34.8886C60.0922 34.556 62.7543 40.1665 63.8379 44.7922C64.9216 40.1665 67.5837 34.556 74.1422 34.8886C80.7045 35.2215 84.3293 42.0888 83.9463 48.9339C83.6125 54.9262 80.0214 61.8831 75.5297 68.3079C68.8154 77.9088 63.8379 86.0747 63.8379 86.0747Z" fill="#C8102E"/>
<path d="M174.273 191.9C174.273 191.9 169.296 183.734 162.581 174.133C158.09 167.708 154.499 160.751 154.165 154.759C153.782 147.914 157.406 141.047 163.969 140.714C170.527 140.381 173.189 145.992 174.273 150.617C175.357 145.992 178.019 140.381 184.577 140.714C191.14 141.047 194.764 147.914 194.381 154.759C194.048 160.751 190.456 167.708 185.965 174.133C179.25 183.734 174.273 191.9 174.273 191.9Z" fill="#C8102E"/>
<path d="M174.273 86.0747C174.273 86.0747 169.296 77.9088 162.581 68.3079C158.09 61.8831 154.499 54.9262 154.165 48.9339C153.782 42.0888 157.406 35.2215 163.969 34.8886C170.527 34.556 173.189 40.1665 174.273 44.7922C175.357 40.1665 178.019 34.556 184.577 34.8886C191.14 35.2215 194.764 42.0888 194.381 48.9339C194.048 54.9262 190.456 61.8831 185.965 68.3079C179.25 77.9088 174.273 86.0747 174.273 86.0747Z" fill="#C8102E"/>
<path d="M63.8379 191.9C63.8379 191.9 58.8605 183.734 52.1463 174.133C47.6545 167.708 44.0635 160.751 43.7296 154.759C43.3467 147.914 46.9714 141.047 53.5338 140.714C60.0922 140.381 62.7543 145.992 63.8379 150.617C64.9216 145.992 67.5837 140.381 74.1422 140.714C80.7045 141.047 84.3293 147.914 83.9463 154.759C83.6125 160.751 80.0214 167.708 75.5297 174.133C68.8154 183.734 63.8379 191.9 63.8379 191.9Z" fill="#C8102E"/>
<path d="M174.273 246.525C174.273 246.525 169.296 254.691 162.581 264.291C158.09 270.716 154.499 277.673 154.165 283.665C153.782 290.511 157.406 297.378 163.969 297.711C170.527 298.043 173.189 292.433 174.273 287.807C175.357 292.433 178.019 298.043 184.577 297.711C191.14 297.378 194.764 290.511 194.381 283.665C194.048 277.673 190.456 270.716 185.965 264.291C179.25 254.691 174.273 246.525 174.273 246.525Z" fill="#C8102E"/>
<path d="M63.8379 246.525C63.8379 246.525 58.8605 254.691 52.1463 264.291C47.6545 270.716 44.0635 277.673 43.7296 283.665C43.3467 290.511 46.9714 297.378 53.5338 297.711C60.0922 298.043 62.7543 292.433 63.8379 287.807C64.9216 292.433 67.5837 298.043 74.1422 297.711C80.7045 297.378 84.3293 290.511 83.9463 283.665C83.6125 277.673 80.0214 270.716 75.5297 264.291C68.8154 254.691 63.8379 246.525 63.8379 246.525Z" fill="#C8102E"/>
<path d="M12.9496 49.9571C15.2645 37.7189 17.7288 28.5312 24.1991 18.56H11.0475V22.852H7.55579V14.7607H26.7923L29.165 18.56C22.2928 26.0618 16.0037 50.3119 17.1173 49.9571H12.9496Z" fill="#C8102E"/>
<path d="M225.153 282.644C222.838 294.882 220.373 304.069 213.903 314.041H227.055V309.748H230.546V317.84H211.31L208.937 314.041C215.809 306.539 222.099 282.289 220.985 282.644H225.153Z" fill="#C8102E"/>
</g>
<defs>
<clipPath id="clip0_11_3690">
<rect width="238.111" height="332.599" fill="white"/>
</clipPath>
</defs>
</svg>
