<svg width="239" height="333" viewBox="0 0 239 333" fill="none" xmlns="http://www.w3.org/2000/svg">
<g clip-path="url(#clip0_11_3748)">
<path d="M226.722 0H11.3895C5.09933 0 0.00012207 5.09276 0.00012207 11.375V321.225C0.00012207 327.507 5.09933 332.599 11.3895 332.599H226.722C233.012 332.599 238.111 327.507 238.111 321.225V11.375C238.111 5.09276 233.012 0 226.722 0Z" fill="white"/>
<path d="M63.8408 156.629C63.8408 156.629 58.8634 148.463 52.1492 138.862C47.6574 132.437 44.0664 125.48 43.7325 119.488C43.3496 112.643 46.9743 105.776 53.5367 105.443C60.0951 105.11 62.7572 110.721 63.8408 115.346C64.9246 110.721 67.5867 105.11 74.1451 105.443C80.7075 105.776 84.3322 112.643 83.9493 119.488C83.6154 125.48 80.0244 132.437 75.5326 138.862C68.8184 148.463 63.8408 156.629 63.8408 156.629Z" fill="#C8102E"/>
<path d="M18.368 74.6425C18.368 74.6393 15.995 71.24 12.7939 67.2397C10.6523 64.5627 8.94033 61.664 8.78108 59.1672C8.59857 56.315 10.3267 53.4537 13.4553 53.315C16.5822 53.1764 17.8513 55.5141 18.368 57.4415C18.8847 55.5141 20.1539 53.1764 23.2806 53.315C26.4093 53.4537 28.1375 56.315 27.9549 59.1672C27.7957 61.664 26.0836 64.5627 23.9422 67.2397C20.741 71.24 18.37 74.6397 18.368 74.6425Z" fill="#C8102E"/>
<path d="M219.749 257.965C219.749 257.965 217.376 261.368 214.175 265.368C212.034 268.045 210.322 270.944 210.162 273.441C209.98 276.293 211.708 279.154 214.837 279.293C217.964 279.431 219.233 277.094 219.749 275.166C220.266 277.094 221.535 279.431 224.662 279.293C227.791 279.154 229.519 276.293 229.336 273.441C229.177 270.944 227.465 268.045 225.324 265.368C222.122 261.368 219.749 257.965 219.749 257.965Z" fill="#C8102E"/>
<path d="M63.8408 86.0788C63.8408 86.0788 58.8634 77.9129 52.1492 68.3121C47.6574 61.8872 44.0664 54.9304 43.7325 48.9381C43.3496 42.0929 46.9743 35.2256 53.5367 34.8928C60.0951 34.5601 62.7572 40.1707 63.8408 44.7964C64.9246 40.1707 67.5867 34.5601 74.1451 34.8928C80.7075 35.2256 84.3322 42.0929 83.9493 48.9381C83.6154 54.9304 80.0244 61.8872 75.5326 68.3121C68.8184 77.9129 63.8408 86.0788 63.8408 86.0788Z" fill="#C8102E"/>
<path d="M174.276 156.629C174.276 156.629 169.299 148.463 162.584 138.862C158.092 132.437 154.501 125.48 154.168 119.488C153.785 112.643 157.409 105.776 163.972 105.443C170.53 105.11 173.192 110.721 174.276 115.346C175.36 110.721 178.022 105.11 184.58 105.443C191.143 105.776 194.767 112.643 194.384 119.488C194.05 125.48 190.459 132.437 185.968 138.862C179.253 148.463 174.276 156.629 174.276 156.629Z" fill="#C8102E"/>
<path d="M174.276 86.0788C174.276 86.0788 169.299 77.9129 162.584 68.3121C158.092 61.8872 154.501 54.9304 154.168 48.9381C153.785 42.0929 157.409 35.2256 163.972 34.8928C170.53 34.5601 173.192 40.1707 174.276 44.7964C175.36 40.1707 178.022 34.5601 184.58 34.8928C191.143 35.2256 194.767 42.0929 194.384 48.9381C194.05 54.9304 190.459 61.8872 185.968 68.3121C179.253 77.9129 174.276 86.0788 174.276 86.0788Z" fill="#C8102E"/>
<path d="M119.058 191.904C119.058 191.904 114.081 183.738 107.367 174.137C102.875 167.712 99.2839 160.756 98.95 154.763C98.5671 147.918 102.192 141.051 108.754 140.718C115.313 140.385 117.975 145.996 119.058 150.622C120.142 145.996 122.804 140.385 129.363 140.718C135.925 141.051 139.55 147.918 139.167 154.763C138.833 160.756 135.242 167.712 130.75 174.137C124.036 183.738 119.058 191.904 119.058 191.904Z" fill="#C8102E"/>
<path d="M174.276 175.979C174.276 175.979 169.299 184.145 162.584 193.745C158.092 200.17 154.501 207.127 154.168 213.12C153.785 219.965 157.409 226.832 163.972 227.165C170.53 227.497 173.192 221.887 174.276 217.261C175.36 221.887 178.022 227.497 184.58 227.165C191.143 226.832 194.767 219.965 194.384 213.12C194.05 207.127 190.459 200.17 185.968 193.745C179.253 184.145 174.276 175.979 174.276 175.979Z" fill="#C8102E"/>
<path d="M63.8408 175.979C63.8408 175.979 58.8634 184.145 52.1492 193.745C47.6574 200.17 44.0664 207.127 43.7325 213.12C43.3496 219.965 46.9743 226.832 53.5367 227.165C60.0951 227.497 62.7572 221.887 63.8408 217.261C64.9246 221.887 67.5867 227.497 74.1451 227.165C80.7075 226.832 84.3322 219.965 83.9493 213.12C83.6154 207.127 80.0244 200.17 75.5326 193.745C68.8184 184.145 63.8408 175.979 63.8408 175.979Z" fill="#C8102E"/>
<path d="M174.276 246.529C174.276 246.529 169.299 254.695 162.584 264.296C158.092 270.72 154.501 277.677 154.168 283.67C153.785 290.515 157.409 297.382 163.972 297.715C170.53 298.047 173.192 292.437 174.276 287.811C175.36 292.437 178.022 298.047 184.58 297.715C191.143 297.382 194.767 290.515 194.384 283.67C194.05 277.677 190.459 270.72 185.968 264.296C179.253 254.695 174.276 246.529 174.276 246.529Z" fill="#C8102E"/>
<path d="M63.8408 246.529C63.8408 246.529 58.8634 254.695 52.1492 264.296C47.6574 270.72 44.0664 277.677 43.7325 283.67C43.3496 290.515 46.9743 297.382 53.5367 297.715C60.0951 298.047 62.7572 292.437 63.8408 287.811C64.9246 292.437 67.5867 298.047 74.1451 297.715C80.7075 297.382 84.3322 290.515 83.9493 283.67C83.6154 277.677 80.0244 270.72 75.5326 264.296C68.8184 254.695 63.8408 246.529 63.8408 246.529Z" fill="#C8102E"/>
<path d="M8.53287 43.1797L11.7529 42.1586C12.9694 45.4045 15.423 46.3655 18.0204 46.1574C22.6805 45.7859 24.2286 40.5761 24.5769 35.9712C22.7611 37.8973 20.0334 38.875 17.7089 38.7758C10.2786 38.3777 8.37672 32.4307 8.30813 26.2056C8.10515 20.9568 10.2748 17.155 13.9967 15.4091C15.9688 14.525 20.4832 14.525 22.4663 15.5725C27.0193 17.9748 28.7078 22.1243 28.4019 32.0325C28.4019 40.1837 26.6711 49.6771 17.9339 49.8838C12.8886 50.5822 9.05266 46.6547 8.53287 43.1797ZM21.1814 34.2477C22.6968 33.2882 23.5498 32.3873 24.2301 31.0394C24.7869 29.9319 24.9802 29.3537 24.8196 27.0631C24.4068 21.1537 21.3103 17.7988 16.8162 18.4636C14.3092 18.8407 12.9378 20.243 12.1506 22.8506C10.6982 27.6735 12.5415 33.3148 15.992 34.6137C17.5444 35.2031 19.9443 35.034 21.1814 34.2477Z" fill="#C8102E"/>
<path d="M229.58 289.429L226.36 290.45C225.144 287.204 222.69 286.243 220.092 286.452C215.432 286.823 213.884 292.033 213.536 296.638C215.351 294.712 218.079 293.734 220.404 293.833C227.834 294.231 229.736 300.178 229.805 306.403C230.008 311.652 227.838 315.454 224.116 317.2C222.144 318.084 217.629 318.084 215.646 317.037C211.093 314.634 209.405 310.485 209.711 300.576C209.711 292.425 211.442 282.932 220.179 282.725C225.224 282.027 229.06 285.954 229.58 289.429ZM216.932 298.361C215.416 299.321 214.563 300.222 213.883 301.57C213.326 302.677 213.133 303.255 213.293 305.546C213.706 311.455 216.803 314.81 221.297 314.145C223.804 313.768 225.175 312.366 225.962 309.758C227.414 304.936 225.571 299.294 222.121 297.995C220.568 297.406 218.169 297.575 216.932 298.361Z" fill="#C8102E"/>
</g>
<defs>
<clipPath id="clip0_11_3748">
<rect width="238.111" height="332.599" fill="white"/>
</clipPath>
</defs>
</svg>
