<svg width="239" height="333" viewBox="0 0 239 333" fill="none" xmlns="http://www.w3.org/2000/svg">
<g clip-path="url(#clip0_11_3718)">
<path d="M226.721 0H11.3893C5.09909 0 -0.00012207 5.09276 -0.00012207 11.375V321.225C-0.00012207 327.507 5.09909 332.599 11.3893 332.599H226.721C233.012 332.599 238.111 327.507 238.111 321.225V11.375C238.111 5.09276 233.012 0 226.721 0Z" fill="white"/>
<path d="M18.3575 74.6425C18.3575 74.6425 15.9845 71.24 12.7834 67.2397C10.6418 64.5627 8.92983 61.664 8.77058 59.1672C8.58807 56.315 10.3162 53.4537 13.4448 53.315C16.5717 53.1764 17.8408 55.5141 18.3575 57.4415C18.8742 55.5141 20.1434 53.1764 23.2701 53.315C26.3988 53.4537 28.127 56.315 27.9444 59.1672C27.7852 61.664 26.0731 64.5627 23.9317 67.2397C20.7305 71.24 18.3575 74.6425 18.3575 74.6425Z" fill="#C8102E"/>
<path d="M219.739 257.965C219.739 257.969 217.366 261.368 214.165 265.368C212.023 268.045 210.311 270.944 210.152 273.441C209.969 276.293 211.698 279.154 214.826 279.293C217.953 279.431 219.222 277.094 219.739 275.166C220.256 277.094 221.525 279.431 224.651 279.293C227.78 279.154 229.508 276.293 229.326 273.441C229.167 270.944 227.454 268.045 225.313 265.368C222.112 261.368 219.741 257.968 219.739 257.965Z" fill="#C8102E"/>
<path d="M119.051 138.992C119.051 138.992 114.074 130.826 107.359 121.225C102.868 114.8 99.2766 107.843 98.9427 101.851C98.5598 95.006 102.185 88.1387 108.747 87.8059C115.305 87.4732 117.967 93.0838 119.051 97.7095C120.135 93.0838 122.797 87.4732 129.355 87.8059C135.918 88.1387 139.542 95.006 139.16 101.851C138.826 107.843 135.235 114.8 130.743 121.225C124.029 130.826 119.051 138.992 119.051 138.992Z" fill="#C8102E"/>
<path d="M63.8299 86.0788C63.8299 86.0788 58.8525 77.9129 52.1382 68.3121C47.6464 61.8872 44.0554 54.9304 43.7215 48.9381C43.3386 42.0929 46.9634 35.2256 53.5257 34.8928C60.0841 34.5601 62.7462 40.1707 63.8299 44.7964C64.9136 40.1707 67.5757 34.5601 74.1341 34.8928C80.6965 35.2256 84.3212 42.0929 83.9383 48.9381C83.6044 54.9304 80.0134 61.8872 75.5216 68.3121C68.8074 77.9129 63.8299 86.0788 63.8299 86.0788Z" fill="#C8102E"/>
<path d="M174.265 191.904C174.265 191.904 169.288 183.738 162.574 174.137C158.082 167.712 154.491 160.756 154.157 154.763C153.774 147.918 157.399 141.051 163.961 140.718C170.52 140.385 173.182 145.996 174.265 150.622C175.349 145.996 178.011 140.385 184.57 140.718C191.132 141.051 194.757 147.918 194.374 154.763C194.04 160.756 190.449 167.712 185.957 174.137C179.243 183.738 174.265 191.904 174.265 191.904Z" fill="#C8102E"/>
<path d="M174.265 86.0788C174.265 86.0788 169.288 77.9129 162.574 68.3121C158.082 61.8872 154.491 54.9304 154.157 48.9381C153.774 42.0929 157.399 35.2256 163.961 34.8928C170.52 34.5601 173.182 40.1707 174.265 44.7964C175.349 40.1707 178.011 34.5601 184.57 34.8928C191.132 35.2256 194.757 42.0929 194.374 48.9381C194.04 54.9304 190.449 61.8872 185.957 68.3121C179.243 77.9129 174.265 86.0788 174.265 86.0788Z" fill="#C8102E"/>
<path d="M63.8299 191.904C63.8299 191.904 58.8525 183.738 52.1382 174.137C47.6464 167.712 44.0554 160.756 43.7215 154.763C43.3386 147.918 46.9634 141.051 53.5257 140.718C60.0841 140.385 62.7462 145.996 63.8299 150.622C64.9136 145.996 67.5757 140.385 74.1341 140.718C80.6965 141.051 84.3212 147.918 83.9383 154.763C83.6044 160.756 80.0134 167.712 75.5216 174.137C68.8074 183.738 63.8299 191.904 63.8299 191.904Z" fill="#C8102E"/>
<path d="M119.051 193.617C119.051 193.617 114.074 201.783 107.359 211.383C102.868 217.808 99.2765 224.765 98.9427 230.758C98.5598 237.603 102.185 244.47 108.747 244.803C115.305 245.135 117.968 239.525 119.051 234.899C120.135 239.525 122.797 245.135 129.355 244.803C135.918 244.47 139.542 237.603 139.16 230.758C138.826 224.765 135.235 217.808 130.743 211.383C124.029 201.783 119.051 193.617 119.051 193.617Z" fill="#C8102E"/>
<path d="M174.265 246.529C174.265 246.529 169.288 254.695 162.574 264.296C158.082 270.72 154.491 277.677 154.157 283.67C153.774 290.515 157.399 297.382 163.961 297.715C170.52 298.047 173.182 292.437 174.265 287.811C175.349 292.437 178.011 298.047 184.57 297.715C191.132 297.382 194.757 290.515 194.374 283.67C194.04 277.677 190.449 270.72 185.957 264.296C179.243 254.695 174.265 246.529 174.265 246.529Z" fill="#C8102E"/>
<path d="M63.8299 246.529C63.8299 246.529 58.8525 254.695 52.1382 264.296C47.6464 270.72 44.0554 277.677 43.7215 283.67C43.3386 290.515 46.9634 297.382 53.5257 297.715C60.0841 298.047 62.7462 292.437 63.8299 287.811C64.9136 292.437 67.5757 298.047 74.1341 297.715C80.6965 297.382 84.3212 290.515 83.9383 283.67C83.6044 277.677 80.0134 270.72 75.5216 264.296C68.8074 254.695 63.8299 246.529 63.8299 246.529Z" fill="#C8102E"/>
<path d="M6.92489 39.6546C7.09215 34.9292 8.80095 33.1566 12.165 30.6842C9.48117 28.7483 8.34971 25.8945 8.58011 23.4655C9.13275 17.5836 13.6749 14.6433 18.6312 14.769C23.5915 14.9003 27.8605 18.8324 28.1937 23.1067C28.4831 26.8222 27.3793 28.6156 24.7434 30.5697C27.8717 33.211 29.8696 34.9459 29.7955 39.6001C29.7219 44.2543 25.7623 49.7927 18.8614 49.9616C11.9606 50.1306 6.75337 44.38 6.92489 39.6546ZM26.1888 39.6717C26.4836 35.3933 22.7015 32.5073 18.4322 32.4654C14.2755 32.4206 10.5575 35.9688 10.5575 39.81C10.5575 43.9348 15.3946 46.1765 18.5187 46.1864C22.3161 46.2034 25.9322 43.355 26.1888 39.6717ZM24.8229 24.3668C24.9039 20.7673 21.5823 18.1845 18.1538 18.2879C15.1053 18.3818 11.8809 20.7057 11.8754 23.7172C11.8754 27.4872 15.5454 29.3702 18.6791 29.4429C21.5234 29.5069 24.7584 27.0893 24.8229 24.3668Z" fill="#C8102E"/>
<path d="M208.306 292.954C208.473 297.68 210.182 299.452 213.546 301.925C210.863 303.861 209.731 306.714 209.961 309.143C210.514 315.025 215.056 317.966 220.013 317.84C224.973 317.709 229.242 313.777 229.575 309.502C229.865 305.787 228.761 303.993 226.125 302.039C229.253 299.398 231.251 297.663 231.177 293.009C231.104 288.355 227.144 282.816 220.243 282.647C213.342 282.478 208.135 288.229 208.306 292.954ZM227.57 292.937C227.865 297.216 224.083 300.102 219.814 300.144C215.657 300.188 211.939 296.64 211.939 292.799C211.939 288.674 216.776 286.433 219.9 286.423C223.697 286.406 227.314 289.254 227.57 292.937ZM226.204 308.242C226.285 311.842 222.964 314.424 219.535 314.321C216.487 314.227 213.262 311.903 213.257 308.892C213.257 305.122 216.927 303.239 220.06 303.166C222.905 303.102 226.14 305.52 226.204 308.242Z" fill="#C8102E"/>
</g>
<defs>
<clipPath id="clip0_11_3718">
<rect width="238.111" height="332.599" fill="white"/>
</clipPath>
</defs>
</svg>
