<svg width="239" height="333" viewBox="0 0 239 333" fill="none" xmlns="http://www.w3.org/2000/svg">
<g clip-path="url(#clip0_11_3779)">
<path d="M226.722 0H11.3894C5.09921 0 0 5.09276 0 11.375V321.225C0 327.507 5.09921 332.599 11.3894 332.599H226.722C233.012 332.599 238.111 327.507 238.111 321.225V11.375C238.111 5.09276 233.012 0 226.722 0Z" fill="white"/>
<path d="M63.8407 156.629C63.8407 156.629 58.8633 148.463 52.1491 138.862C47.6573 132.437 44.0663 125.48 43.7324 119.488C43.3495 112.643 46.9742 105.776 53.5366 105.443C60.095 105.11 62.7571 110.721 63.8407 115.346C64.9245 110.721 67.5865 105.11 74.145 105.443C80.7073 105.776 84.3321 112.643 83.9492 119.488C83.6153 125.48 80.0242 132.437 75.5325 138.862C68.8182 148.463 63.8407 156.629 63.8407 156.629Z" fill="#C8102E"/>
<path d="M18.3681 74.6425C18.3681 74.6425 15.9951 71.24 12.794 67.2397C10.6525 64.5627 8.94045 61.664 8.7812 59.1672C8.59869 56.315 10.3268 53.4537 13.4555 53.315C16.5823 53.1764 17.8514 55.5141 18.3681 57.4415C18.8848 55.5141 20.154 53.1764 23.2808 53.315C26.4094 53.4537 28.1376 56.315 27.955 59.1672C27.7959 61.664 26.0838 64.5627 23.9423 67.2397C20.7411 71.24 18.3681 74.6425 18.3681 74.6425Z" fill="#C8102E"/>
<path d="M219.749 257.965C219.749 257.965 217.376 261.368 214.175 265.368C212.034 268.045 210.322 270.944 210.163 273.441C209.98 276.293 211.708 279.154 214.837 279.293C217.964 279.431 219.233 277.094 219.749 275.166C220.266 277.094 221.535 279.431 224.662 279.293C227.791 279.154 229.519 276.293 229.336 273.441C229.177 270.944 227.465 268.045 225.324 265.368C222.122 261.368 219.749 257.965 219.749 257.965Z" fill="#C8102E"/>
<path d="M119.058 131.562C119.058 131.562 114.081 123.396 107.367 113.795C102.875 107.371 99.2838 100.414 98.9499 94.4215C98.567 87.5763 102.192 80.709 108.754 80.3762C115.313 80.0435 117.975 85.6541 119.058 90.2798C120.142 85.6541 122.804 80.0435 129.362 80.3762C135.925 80.709 139.55 87.5763 139.167 94.4215C138.833 100.414 135.242 107.371 130.75 113.795C124.036 123.396 119.058 131.562 119.058 131.562Z" fill="#C8102E"/>
<path d="M63.8407 86.0788C63.8407 86.0788 58.8633 77.9129 52.1491 68.3121C47.6573 61.8872 44.0663 54.9304 43.7324 48.9381C43.3495 42.0929 46.9742 35.2256 53.5366 34.8928C60.095 34.5601 62.7571 40.1707 63.8407 44.7964C64.9245 40.1707 67.5865 34.5601 74.145 34.8928C80.7073 35.2256 84.3321 42.0929 83.9492 48.9381C83.6153 54.9304 80.0242 61.8872 75.5325 68.3121C68.8182 77.9129 63.8407 86.0788 63.8407 86.0788Z" fill="#C8102E"/>
<path d="M174.276 156.629C174.276 156.629 169.299 148.463 162.584 138.862C158.093 132.437 154.502 125.48 154.168 119.488C153.785 112.643 157.41 105.776 163.972 105.443C170.53 105.11 173.192 110.721 174.276 115.346C175.36 110.721 178.022 105.11 184.58 105.443C191.143 105.776 194.767 112.643 194.384 119.488C194.051 125.48 190.46 132.437 185.968 138.862C179.254 148.463 174.276 156.629 174.276 156.629Z" fill="#C8102E"/>
<path d="M174.276 86.0788C174.276 86.0788 169.299 77.9129 162.584 68.3121C158.093 61.8872 154.502 54.9304 154.168 48.9381C153.785 42.0929 157.41 35.2256 163.972 34.8928C170.53 34.5601 173.192 40.1707 174.276 44.7964C175.36 40.1707 178.022 34.5601 184.58 34.8928C191.143 35.2256 194.767 42.0929 194.384 48.9381C194.051 54.9304 190.46 61.8872 185.968 68.3121C179.254 77.9129 174.276 86.0788 174.276 86.0788Z" fill="#C8102E"/>
<path d="M119.058 201.045C119.058 201.045 114.081 209.211 107.367 218.812C102.875 225.237 99.2838 232.194 98.9499 238.186C98.567 245.031 102.192 251.899 108.754 252.231C115.313 252.564 117.975 246.954 119.058 242.328C120.142 246.954 122.804 252.564 129.362 252.231C135.925 251.899 139.55 245.031 139.167 238.186C138.833 232.194 135.242 225.237 130.75 218.812C124.036 209.211 119.058 201.045 119.058 201.045Z" fill="#C8102E"/>
<path d="M174.276 175.979C174.276 175.979 169.299 184.145 162.584 193.745C158.093 200.17 154.502 207.127 154.168 213.12C153.785 219.965 157.41 226.832 163.972 227.165C170.53 227.497 173.192 221.887 174.276 217.261C175.36 221.887 178.022 227.497 184.58 227.165C191.143 226.832 194.767 219.965 194.384 213.12C194.051 207.127 190.46 200.17 185.968 193.745C179.254 184.145 174.276 175.979 174.276 175.979Z" fill="#C8102E"/>
<path d="M63.8407 175.979C63.8407 175.979 58.8633 184.145 52.1491 193.745C47.6573 200.17 44.0663 207.127 43.7324 213.12C43.3495 219.965 46.9742 226.832 53.5366 227.165C60.095 227.497 62.7571 221.887 63.8407 217.261C64.9245 221.887 67.5865 227.497 74.145 227.165C80.7073 226.832 84.3321 219.965 83.9492 213.12C83.6153 207.127 80.0242 200.17 75.5325 193.745C68.8182 184.145 63.8407 175.979 63.8407 175.979Z" fill="#C8102E"/>
<path d="M174.276 246.529C174.276 246.529 169.299 254.695 162.584 264.296C158.093 270.72 154.502 277.677 154.168 283.67C153.785 290.515 157.41 297.382 163.972 297.715C170.53 298.047 173.192 292.437 174.276 287.811C175.36 292.437 178.022 298.047 184.58 297.715C191.143 297.382 194.767 290.515 194.384 283.67C194.051 277.677 190.46 270.72 185.968 264.296C179.254 254.695 174.276 246.529 174.276 246.529Z" fill="#C8102E"/>
<path d="M63.8407 246.529C63.8407 246.529 58.8633 254.695 52.1491 264.296C47.6573 270.72 44.0663 277.677 43.7324 283.67C43.3495 290.515 46.9742 297.382 53.5366 297.715C60.095 298.047 62.7571 292.437 63.8407 287.811C64.9245 292.437 67.5865 298.047 74.145 297.715C80.7073 297.382 84.3321 290.515 83.9492 283.67C83.6153 277.677 80.0242 270.72 75.5325 264.296C68.8182 254.695 63.8407 246.529 63.8407 246.529Z" fill="#C8102E"/>
<path d="M7.67944 49.966V14.7666H11.0916V49.966H7.67944Z" fill="#C8102E"/>
<path d="M21.2057 14.7659C17.9212 14.7659 15.2812 17.7659 15.2812 21.4923V43.2402C15.2812 46.9666 17.9225 49.9653 21.2057 49.9653H23.1229C26.4074 49.9653 29.0529 46.9666 29.0529 43.2402V21.4923C29.0529 17.7659 26.406 14.7659 23.1229 14.7659H21.2057ZM22.1972 18.0942C24.1364 18.0942 25.6956 19.5817 25.6956 21.4421V43.4776C25.6956 45.338 24.1364 46.8395 22.1972 46.8395C20.2581 46.8395 18.6932 45.338 18.6932 43.4776V21.4421C18.6932 19.5831 20.2581 18.0942 22.1972 18.0942Z" fill="#C8102E"/>
<path d="M230.435 282.644V317.844H227.022V282.644H230.435Z" fill="#C8102E"/>
<path d="M216.908 317.844C220.193 317.844 222.833 314.844 222.833 311.118V289.37C222.833 285.644 220.191 282.645 216.908 282.645H214.991C211.707 282.645 209.061 285.644 209.061 289.37V311.118C209.061 314.844 211.708 317.844 214.991 317.844H216.908ZM215.917 314.516C213.978 314.516 212.418 313.028 212.418 311.168V289.132C212.418 287.272 213.978 285.771 215.917 285.771C217.856 285.771 219.421 287.272 219.421 289.132V311.168C219.421 313.027 217.856 314.516 215.917 314.516Z" fill="#C8102E"/>
</g>
<defs>
<clipPath id="clip0_11_3779">
<rect width="238.111" height="332.599" fill="white"/>
</clipPath>
</defs>
</svg>
