<svg width="239" height="333" viewBox="0 0 239 333" fill="none" xmlns="http://www.w3.org/2000/svg">
<path d="M226.721 0H11.3895C5.09922 0 0 5.09274 0 11.375V321.225C0 327.507 5.09922 332.599 11.3895 332.599H226.721C233.012 332.599 238.111 327.507 238.111 321.225V11.375C238.111 5.09274 233.012 0 226.721 0Z" fill="white"/>
<path d="M18.3635 74.6391C16.0585 70.8325 13.6334 67.1328 10.603 63.9724C13.6334 60.812 16.0585 57.1123 18.3635 53.3057C20.6684 57.1123 23.0934 60.812 26.1239 63.9724C23.0934 67.1328 20.6684 70.8325 18.3635 74.6391Z" fill="#C8102E"/>
<path d="M174.271 86.0754C168.739 76.9396 162.919 68.0603 155.646 60.4753C162.919 52.8904 168.739 44.0112 174.271 34.8752C179.803 44.0112 185.623 52.8904 192.896 60.4753C185.623 68.0603 179.803 76.9396 174.271 86.0754Z" fill="#C8102E"/>
<path d="M219.745 279.295C217.44 275.489 215.015 271.789 211.984 268.629C215.015 265.468 217.44 261.769 219.745 257.962C222.05 261.769 224.475 265.468 227.505 268.629C224.475 271.789 222.05 275.489 219.745 279.295Z" fill="#C8102E"/>
<path d="M63.836 86.0754C58.304 76.9396 52.484 68.0603 45.2109 60.4753C52.484 52.8904 58.304 44.0112 63.836 34.8752C69.368 44.0112 75.188 52.8904 82.4611 60.4753C75.188 68.0603 69.368 76.9396 63.836 86.0754Z" fill="#C8102E"/>
<path d="M174.271 156.633C168.739 147.497 162.919 138.618 155.646 131.033C162.919 123.448 168.739 114.569 174.271 105.433C179.803 114.569 185.623 123.448 192.896 131.033C185.623 138.618 179.803 147.497 174.271 156.633Z" fill="#C8102E"/>
<path d="M63.836 156.633C58.304 147.497 52.484 138.618 45.2109 131.033C52.484 123.448 58.304 114.569 63.836 105.433C69.368 114.569 75.188 123.448 82.4611 131.033C75.188 138.618 69.368 147.497 63.836 156.633Z" fill="#C8102E"/>
<path d="M119.054 121.35C113.521 112.214 107.702 103.335 100.428 95.7502C107.702 88.1653 113.521 79.2861 119.054 70.1501C124.585 79.2861 130.405 88.1653 137.679 95.7502C130.405 103.335 124.585 112.214 119.054 121.35Z" fill="#C8102E"/>
<path d="M63.836 297.731C58.304 288.595 52.484 279.716 45.2109 272.131C52.484 264.546 58.304 255.666 63.836 246.531C69.368 255.666 75.188 264.546 82.4611 272.131C75.188 279.716 69.368 288.595 63.836 297.731Z" fill="#C8102E"/>
<path d="M174.271 297.738C168.739 288.602 162.919 279.723 155.646 272.138C162.919 264.553 168.739 255.674 174.271 246.538C179.803 255.674 185.623 264.553 192.896 272.138C185.623 279.723 179.803 288.602 174.271 297.738Z" fill="#C8102E"/>
<path d="M174.271 227.174C168.739 218.038 162.919 209.159 155.646 201.574C162.919 193.989 168.739 185.11 174.271 175.974C179.803 185.11 185.623 193.989 192.896 201.574C185.623 209.159 179.803 218.038 174.271 227.174Z" fill="#C8102E"/>
<path d="M63.836 227.14C58.304 218.004 52.484 209.125 45.2109 201.54C52.484 193.955 58.304 185.075 63.836 175.939C69.368 185.075 75.188 193.955 82.4611 201.54C75.188 209.125 69.368 218.004 63.836 227.14Z" fill="#C8102E"/>
<path d="M119.054 262.45C113.521 253.315 107.702 244.435 100.428 236.85C107.702 229.265 113.522 220.386 119.054 211.25C124.585 220.386 130.405 229.265 137.679 236.85C130.405 244.435 124.585 253.315 119.054 262.45Z" fill="#C8102E"/>
<path d="M7.67969 49.9609V14.7615H11.0918V49.9609H7.67969Z" fill="#C8102E"/>
<path d="M21.206 14.7607C17.9214 14.7607 15.2815 17.7608 15.2815 21.4872V43.2351C15.2815 46.9614 17.9228 49.9601 21.206 49.9601H23.1232C26.4077 49.9601 29.0532 46.9614 29.0532 43.2351V21.4872C29.0532 17.7608 26.4063 14.7607 23.1232 14.7607H21.206ZM22.1974 18.0891C24.1366 18.0891 25.6959 19.5765 25.6959 21.4369V43.4725C25.6959 45.3329 24.1366 46.8344 22.1974 46.8344C20.2583 46.8344 18.6935 45.3329 18.6935 43.4725V21.4369C18.6935 19.5779 20.2583 18.0891 22.1974 18.0891Z" fill="#C8102E"/>
<path d="M230.427 282.639V317.839H227.015V282.639H230.427Z" fill="#C8102E"/>
<path d="M216.9 317.84C220.185 317.84 222.825 314.84 222.825 311.113V289.365C222.825 285.639 220.184 282.64 216.9 282.64H214.983C211.699 282.64 209.053 285.639 209.053 289.365V311.113C209.053 314.84 211.7 317.84 214.983 317.84H216.9ZM215.909 314.511C213.97 314.511 212.411 313.024 212.411 311.163V289.128C212.411 287.267 213.97 285.766 215.909 285.766C217.848 285.766 219.413 287.267 219.413 289.128V311.163C219.413 313.022 217.848 314.511 215.909 314.511Z" fill="#C8102E"/>
</svg>
