<svg width="239" height="333" viewBox="0 0 239 333" fill="none" xmlns="http://www.w3.org/2000/svg">
<path d="M226.722 0H11.3894C5.09921 0 0 5.09276 0 11.375V321.225C0 327.507 5.09921 332.599 11.3894 332.599H226.722C233.012 332.599 238.111 327.507 238.111 321.225V11.375C238.111 5.09276 233.012 0 226.722 0Z" fill="white"/>
<path d="M18.3649 74.6425C18.3649 74.6425 15.9919 71.24 12.7908 67.2397C10.6492 64.5627 8.93722 61.664 8.77796 59.1672C8.59546 56.315 10.3236 53.4537 13.4522 53.315C16.5791 53.1764 17.8482 55.5141 18.3649 57.4415C18.8816 55.5141 20.1508 53.1764 23.2775 53.315C26.4062 53.4537 28.1344 56.315 27.9518 59.1672C27.7926 61.664 26.0805 64.5627 23.9391 67.2397C20.7379 71.24 18.3649 74.6425 18.3649 74.6425Z" fill="#C8102E"/>
<path d="M219.746 257.965C219.746 257.965 217.373 261.368 214.172 265.368C212.031 268.045 210.319 270.944 210.159 273.441C209.977 276.293 211.705 279.154 214.834 279.293C217.96 279.431 219.23 277.094 219.746 275.166C220.263 277.094 221.532 279.431 224.659 279.293C227.788 279.154 229.516 276.293 229.333 273.441C229.174 270.944 227.462 268.045 225.32 265.368C222.119 261.368 219.746 257.965 219.746 257.965Z" fill="#C8102E"/>
<path d="M119.055 191.904C119.055 191.904 114.078 183.738 107.364 174.137C102.872 167.712 99.2807 160.756 98.9469 154.763C98.5639 147.918 102.189 141.051 108.751 140.718C115.309 140.385 117.972 145.996 119.055 150.622C120.139 145.996 122.801 140.385 129.359 140.718C135.922 141.051 139.547 147.918 139.164 154.763C138.83 160.756 135.239 167.712 130.747 174.137C124.033 183.738 119.055 191.904 119.055 191.904Z" fill="#C8102E"/>
<path d="M7.59845 49.9651V46.9552H10.4702L16.588 14.7649H20.0701L26.8092 46.9552H29.1282V49.9651H21.2261V46.9552H23.3587L22.5071 42.0223H14.5351L13.9193 46.9552H16.0518V49.9651H7.59845ZM21.8269 38.5083L18.3612 21.279L15.1152 38.5083H21.8269Z" fill="#C8102E"/>
<path d="M208.98 282.644V285.654H211.852L217.969 317.844H221.452L228.191 285.654H230.51V282.644H222.608V285.654H224.74L223.889 290.587H215.917L215.301 285.654H217.433V282.644H208.98ZM223.208 294.101L219.743 311.33L216.497 294.101H223.208Z" fill="#C8102E"/>
</svg>
