<svg width="239" height="333" viewBox="0 0 239 333" fill="none" xmlns="http://www.w3.org/2000/svg">
<path d="M226.722 0H11.3895C5.09926 0 0 5.09275 0 11.375V321.225C0 327.507 5.09926 332.599 11.3895 332.599H226.722C233.012 332.599 238.111 327.507 238.111 321.225V11.375C238.111 5.09275 233.012 0 226.722 0Z" fill="white"/>
<path d="M18.3652 74.6383C16.0602 70.8318 13.6352 67.1321 10.6048 63.9716C13.6352 60.8113 16.0602 57.1116 18.3652 53.3049C20.6702 57.1116 23.0952 60.8113 26.1256 63.9716C23.0952 67.1321 20.6702 70.8318 18.3652 74.6383Z" fill="#C8102E"/>
<path d="M219.747 279.295C217.442 275.488 215.017 271.788 211.986 268.628C215.017 265.468 217.442 261.768 219.747 257.961C222.052 261.768 224.477 265.468 227.507 268.628C224.477 271.788 222.052 275.488 219.747 279.295Z" fill="#C8102E"/>
<path d="M119.055 191.9C113.523 182.764 107.704 173.885 100.43 166.3C107.704 158.715 113.523 149.836 119.055 140.7C124.587 149.836 130.407 158.715 137.681 166.3C130.407 173.885 124.587 182.764 119.055 191.9Z" fill="#C8102E"/>
<path d="M7.59875 49.9604V46.9505H10.4705L16.5883 14.7603H20.0703L26.8095 46.9505H29.1285V49.9604H21.2264V46.9505H23.359L22.5074 42.0175H14.5354L13.9196 46.9505H16.0521V49.9604H7.59875ZM21.8272 38.5036L18.3615 21.2743L15.1155 38.5036H21.8272Z" fill="#C8102E"/>
<path d="M208.98 282.639V285.649H211.852L217.97 317.839H221.452L228.191 285.649H230.51V282.639H222.608V285.649H224.74L223.889 290.582H215.917L215.301 285.649H217.434V282.639H208.98ZM223.209 294.096L219.743 311.325L216.497 294.096H223.209Z" fill="#C8102E"/>
</svg>
