<svg width="239" height="333" viewBox="0 0 239 333" fill="none" xmlns="http://www.w3.org/2000/svg">
<path d="M11.3893 332.6H226.721C233.012 332.6 238.111 327.507 238.111 321.225V11.3751C238.111 5.09286 233.012 0.00012207 226.721 0.00012207H11.3893C5.09906 0.00012207 -7.62939e-05 5.09286 -7.62939e-05 11.3751V321.225C-7.62939e-05 327.507 5.09906 332.6 11.3893 332.6Z" fill="white"/>
<path d="M31.9766 25.9456V306.644H206.114C206.024 221.979 206.175 118.158 206.114 25.9456H31.9766ZM81.1043 28.2949C111.825 28.316 140.909 28.3339 172.568 28.481C169.741 35.2213 162.032 47.3766 157.202 57.1332C158.37 60.1355 156.929 60.6458 157.534 61.3577C158.512 63.0263 157.804 65.3664 155.737 65.8937C146.785 66.8497 137.227 64.3843 129.333 61.3557C117.263 56.7246 107.085 55.4721 94.8493 56.5532C94.8493 56.5532 93.8436 56.4432 93.3897 54.0707C89.3568 41.66 84.9371 36.4649 81.1043 28.2949ZM34.1994 28.6338H79.5995C79.5995 28.6338 81.739 32.4313 86.215 41.1759C88.1102 44.8781 89.7116 46.45 89.8759 49.3819C89.7046 51.1037 90.4972 53.0583 91.9006 53.8454C92.3719 54.1097 93.1608 53.7905 92.8972 54.5272C92.6073 55.3381 93.4962 56.5859 93.7389 56.8511C94.0157 57.3201 93.8433 57.4349 93.8723 59.1808C93.9014 60.8683 93.9894 61.573 94.349 62.8468C95.258 66.0659 95.4598 67.6747 94.9395 69.3442C93.5885 73.5783 92.1801 76.8257 90.3585 80.7733C89.2992 83.0838 89.461 83.9861 92.7108 85.664C95.1441 86.9202 95.4681 86.9071 95.1612 88.7422C95.0175 89.602 94.8829 90.1446 95.0628 90.5605C95.1722 90.8138 95.5778 91.1685 95.8141 91.3717C96.1316 91.6447 96.0346 92.2087 95.7101 92.6276C95.3914 93.0388 95.3888 93.6248 95.7101 94.6047C96.7391 97.1206 93.8744 100.647 90.6387 101.899C89.7071 98.5722 84.9853 97.4095 82.2437 99.5551C79.8511 101.428 79.4622 103.602 80.0972 106.507C74.2735 110.034 67.9268 114.18 61.6693 117.308C60.9119 115.756 60.6594 114.431 60.1803 112.758C59.7664 111.325 59.8198 111.216 59.9742 108.426C60.1136 105.905 60.1893 105.318 59.5995 105.156C56.2427 104.785 55.4773 105.979 54.8341 108.158C54.556 109.12 54.0199 108.924 53.6884 108.518C52.411 106.181 50.7948 103.751 49.7333 102.09C48.407 99.9679 46.1727 98.9122 45.003 99.9146C44.757 100.739 44.5548 100.765 43.0725 100.426C41.2752 100.015 40.2514 101.028 40.0787 102.358C40.0094 102.888 40.3939 102.866 39.4313 103.391C37.0436 105.168 37.9533 107.594 38.3111 109.055C38.28 108.978 37.2913 109.66 37.2694 111.028C37.1552 118.132 43.2768 128.363 43.1392 128.099L34.1971 133.485L34.1994 28.6338ZM174.402 28.6338H203.469V33.9046L189.169 48.5824V59.3806C181.5 57.449 178.335 48.8112 177.714 42.8277C163.511 55.8623 163.861 75.4868 177.282 87.7977C178.828 81.5702 184.881 72.289 189.169 72.3401V111.179L180.641 102.585L163.263 102.718C166.229 99.3161 164.636 91.5891 163.022 87.3995C159.986 79.5172 155.644 66.6201 155.974 66.4305C155.974 66.4305 158.475 65.7839 158.701 64.189C159.036 61.8249 158.016 62.001 159.486 59.8666C159.816 59.3864 159.604 58.4807 159.25 57.7602C159.017 57.232 158.795 56.4372 159.23 55.8185L174.402 28.6338ZM204.441 34.4376L204.409 124.023C203.355 131.297 203.817 138.734 203.756 146.072L196.607 149.862L169.8 114.526C169.8 114.526 170.875 112.928 171.375 112.645C170.803 111.358 168.904 114.565 168.742 115.082C178.467 127.198 196.546 150.922 196.546 150.922L204.076 146.969C204.107 154.246 203.912 161.637 203.852 168.85C190.7 176.448 182.861 188.734 177.225 201.319C172.009 203.027 166.534 205.452 161.295 207.63L168.838 219.018L165.85 220.639C132.295 169.592 146.686 133.687 173.476 103.804L178.412 103.72L189.917 114.469L189.705 49.1605C194.495 44.1409 199.812 39.611 204.441 34.4376ZM176.841 45.3475C177.056 46.1114 177.515 47.983 177.565 47.93C169.677 56.1837 165.962 69.7151 177.38 83.5831C177.321 83.53 177.126 84.584 176.809 85.7678C164.532 73.7095 166.352 54.8093 176.841 45.3475ZM178.028 48.798C180.077 54.8788 185.098 58.6733 185.098 58.6733C183.206 62.8963 182.078 67.3074 185.618 72.877C182.325 75.8695 179.595 79.1569 178.079 83.0815C167.011 70.1638 170.565 56.6913 178.028 48.798ZM104.08 56.7374C109.308 56.767 115.313 57.3538 119.263 58.881C120.88 71.0825 129.448 89.1852 128.349 93.866C126.156 90.5416 116.961 91.4208 119.73 100.714C119.73 100.714 118.978 101.849 117.482 103.375C113.623 107.311 112.671 107.963 114.504 104.496C115.912 101.83 117.708 98.3511 117.748 97.677C117.781 97.14 117.365 97.0165 117.04 97.4458C116.8 97.7639 116.513 98.5375 116.263 99.125C113.964 104.54 110.033 109.42 107.323 110.595C106.625 110.898 106.66 110.575 107.143 109.98C110.331 105.991 112.767 102.302 114.498 97.4869C114.575 96.9904 113.874 96.7823 113.65 97.2538C110.659 103.557 109.766 104.987 106.091 109.427C104.646 111.173 103.302 112.054 102.228 111.959C101.299 111.877 101.575 111.722 102.434 110.801C103.09 110.098 104.059 109.12 105.628 107.135C108.394 103.634 111.176 97.9375 110.152 98.2354C109.975 97.7612 109.103 99.275 108.365 100.72C106.343 104.134 104.197 108.644 99.395 111.61C98.3921 112.028 97.2951 112.267 96.3266 112.278C95.003 112.281 95.7749 111.887 98.6632 109.872C101.483 107.905 106.13 101.686 106.67 99.3778C106.915 98.3297 106.255 98.2482 105.51 99.6873C102.087 106.305 95.6106 112.351 89.6817 112.082C86.7771 111.951 85.2079 111.162 87.6119 110.817C94.2028 110.003 99.1289 106.224 103.44 98.69C103.44 98.5211 103.05 98.5297 102.599 98.8193C98.6523 103.671 93.8276 110.287 86.0169 109.766C80.3828 109.425 79.2476 102.169 83.9628 99.9479C88.0557 98.0197 91.7401 103.274 88.2946 105.973C87.6429 106.532 86.5868 106.207 86.5868 106.207C86.5868 106.207 86.9558 106.241 87.6314 105.693C90.1332 103.666 87.292 99.6918 84.2982 101.194C82.6214 101.901 81.9432 104.315 83.4213 106.138C86.7091 110.191 93.7909 107.109 98.726 100.559C99.2433 99.8701 99.6903 98.3741 99.2537 98.5352C98.4878 98.8526 98.025 99.4564 97.5744 100.136C95.8127 102.592 94.4605 103.826 92.0752 105.146C91.1961 105.633 90.2256 105.829 90.2256 105.829C90.7981 105.41 91.0004 104.441 91.1157 103.524C91.1157 103.524 91.6047 103.034 92.0438 102.75C95.1036 100.768 96.9153 97.922 96.9897 96.1604C97.044 94.8743 96.1078 93.1937 97.1231 92.8491C98.8442 92.0314 103.539 92.6986 104.806 94.3264C105.717 95.4972 106.071 94.8184 105.387 92.9157C104.935 91.6591 104.954 90.9495 104.272 91.0778C103.41 91.5368 102.818 91.4292 101.145 90.5095C100.339 90.0663 98.9084 89.6535 98.0374 89.4515C96.4495 89.0831 96.1169 89.2374 96.152 88.5462C96.163 88.3344 96.0918 87.7397 96.138 87.3647C96.3957 85.2832 94.6662 84.575 92.3102 83.2069C90.9336 82.4074 91.4782 81.5835 93.0715 77.6226C93.8997 75.8308 94.6059 73.421 95.6279 71.6014C96.583 69.5571 96.6653 67.3199 96.0497 64.769C94.9071 60.0349 94.0857 57.6283 96.1221 57.2018C98.0878 56.9027 100.943 56.7197 104.08 56.7374ZM185.375 59.0182C187.254 60.036 188.091 60.1295 189.169 60.5073V71.1507C187.726 71.4069 186.559 72.0107 185.759 72.3205C182.113 67.8092 183.575 61.2137 185.379 59.0182H185.375ZM120.625 59.1436L122.463 59.6961C124.31 71.4771 129.878 82.4524 131.672 93.2821C133.555 101.564 123.763 106.176 120.481 99.0349C119.613 97.1464 120.618 94.7386 122.827 93.6133C126.41 91.7887 130.267 96.6429 127.44 99.3151C125.297 101.34 122.128 99.8402 122.818 97.248C123.263 95.5604 125.807 95.4525 126.228 97.1559C126.343 97.7228 126.625 98.2887 126.828 97.9769C128.145 94.8655 123.717 93.4085 121.878 96.3035C120.787 98.624 122.863 101.613 125.919 101.045C130.11 100.266 130.496 94.2214 128.806 87.9701C125.892 77.1944 121.207 67.5407 120.625 59.1436ZM123.809 60.1664L125.724 60.858C127.798 70.2354 131.274 79.9201 133.55 88.1857C135.084 93.7946 136.8 100.222 130.742 102.956L129 102.92C129 102.92 129.52 102.639 130.762 101.308C137.63 94.9963 126.487 77.1774 123.917 60.9521C123.889 60.7783 123.809 60.1664 123.809 60.1664ZM103.656 60.7444C100.576 60.6701 97.6063 61.6065 97.8412 62.9487C98.0046 63.8822 98.6874 64.1054 101.078 63.801C106.344 62.7721 111.411 64.9368 115.257 67.3436C116.293 68.0003 116.826 68.4123 117.05 68.4233C117.225 68.4313 117.317 68.1992 117.101 67.9275C114.167 64.2281 108.602 60.8843 103.656 60.7444ZM127.279 61.2401L129.241 62.0356C131.024 71.9156 135.423 82.1604 137.542 91.0464C138.788 96.2642 138.434 99.5614 135.555 102.403C134.833 102.964 134.65 103.024 134.65 103.024H132.913C137.3 99.3041 136.325 93.8141 134.701 88.2308C131.704 77.9315 126.775 61.2905 127.279 61.2401ZM130.675 62.5882L132.441 63.3484C134.259 71.8798 134.711 72.0748 139.098 85.7365C140.417 89.8456 141.635 93.4609 141.393 96.8874C141.338 98.8393 139.645 102.704 137.86 103.012L136.771 103.024C140.959 98.2413 139.102 91.6967 137.275 86.2381C133.951 76.0865 132.338 70.73 130.675 62.5882ZM133.844 63.7344L136.006 64.5103C138.182 73.2176 140.905 81.6803 143.209 88.6344C144.137 91.4369 144.961 94.3676 144.876 96.8247C144.437 100.106 143.88 100.992 141.937 102.936L140.253 102.961C140.253 102.961 142.351 99.3013 142.543 97.2636C142.919 93.2677 141.649 89.9633 140.218 85.4523C136.722 74.4303 134.942 70.8887 133.844 63.7344ZM137.336 64.963L139.17 65.5116C141.587 73.1542 143.762 80.9639 146.155 87.5704C147.408 91.151 148.016 93.9393 147.93 96.3133C147.666 99.5886 146.734 100.956 145.307 102.779L143.685 102.795C144.974 101.062 145.817 98.457 145.857 96.5973C145.896 93.8735 145.033 91.2155 144.209 88.3856C141.536 79.2051 138.816 73.113 137.336 64.963ZM101.704 65.8564C101.249 65.9557 100.883 66.2057 100.97 66.6774C101.025 66.9714 101.529 67.2259 102.075 67.0811C107.078 65.5652 111.418 68.9388 115.324 70.9234C115.518 71.0726 115.751 71.1423 115.91 71.1351C116.115 71.125 116.198 70.9868 115.939 70.7177C110.939 67.8232 107.652 64.6749 101.704 65.8564ZM140.567 65.8271L142.523 66.2189C144.95 73.6927 147.43 81.6559 149.955 88.5208C151.492 92.7011 152.098 99.8517 148.65 102.946L146.796 102.893C148.136 101.204 148.922 98.5722 148.994 96.231C149.065 93.462 148.416 90.7407 147.422 87.9212C144.517 79.6787 142.327 72.5919 140.567 65.8271ZM144.054 66.4678L145.888 66.7147C147.282 74.5278 150.901 81.8888 152.99 88.4835C154.069 91.5704 154.818 95.3661 154.432 98.2668C154.16 100.313 152.12 102.998 151.742 103.038C151.73 103.04 151.719 103.037 151.711 103.034L150.473 103.022C150.519 102.995 152.321 99.1092 152.451 96.7521C152.598 94.0802 151.954 91.1697 151.073 88.2973C148.411 80.4137 145.725 73.3249 144.054 66.4678ZM98.8476 66.6245C98.5346 66.742 98.7191 67.5676 99.2851 68.7132C99.7601 69.6744 100.175 69.9044 99.9424 70.6354C99.4114 72.3023 100.169 72.6333 101.161 71.1566C101.904 70.0005 101.988 70.0275 102.691 71.5132C103.623 73.3686 103.185 74.2249 101.771 73.0161C100.699 72.1 100.426 72.7804 100.009 73.5059C99.461 74.4598 99.5446 75.3164 100.523 75.2419C101.086 75.1992 101.611 75.4586 102.053 75.9434C102.92 76.8938 104.58 78.0858 106.171 78.3652C106.691 78.3752 106.522 77.8724 105.298 77.0132C102.381 75.0181 102.134 74.6582 104.961 74.7051C105.677 74.7476 106.799 74.2366 107.435 74.0232C111.125 72.7853 111.304 72.8839 113.069 73.3002C113.658 73.4382 114.255 73.6855 114.513 73.4491C114.912 73.0837 115.359 72.8418 114.857 72.297C114.491 71.8998 113.811 71.5963 112.983 71.1194C108.698 68.6509 108.307 68.0597 103.27 67.9275C102.693 67.9124 102.398 68.2136 102.059 68.2175C101.237 68.2276 100.805 68.0244 99.9738 67.2613C99.4029 66.7374 99.0355 66.554 98.8476 66.6245ZM154.889 66.7146C156.834 73.5718 159.434 80.4997 161.669 86.8121C163.368 92.0216 165.966 99.7447 161.161 103.069L159.874 103.038C162.217 99.8876 162.533 97.1769 161.703 93.2468C158.948 81.3588 153.716 74.5189 153.141 66.8342L154.889 66.7146ZM146.79 66.8028L148.943 66.9164C150.4 74.9947 154.611 80.8576 156.939 90.7152C158.11 95.0005 158.871 99.9521 154.767 102.967H153.533C153.533 102.967 155.471 99.5592 155.593 97.5594C155.814 93.9626 154.427 90.081 153.165 85.8559C151.221 79.3508 147.936 73.1223 146.79 66.8028ZM149.898 66.9164L151.819 66.942C153.944 76.4771 158.365 83.2847 160.673 93.7895C161.494 98.1631 160.79 100.868 158.069 102.961L156.739 102.924C156.739 102.924 156.939 102.562 157.447 101.686C159.875 97.2667 158.544 93.1858 157.327 88.6053C155.052 80.0468 150.884 73.2592 149.898 66.9164ZM106.819 70.9332C106.495 71.7827 106.217 72.9593 105.088 73.3413C104.86 73.4187 104.702 73.2416 104.724 73.1708C104.712 72.5598 105.131 71.3104 105.473 70.6549C105.582 70.363 105.771 70.3266 106.034 70.2729C106.854 70.2055 107.016 70.2395 106.819 70.9332ZM108.657 70.9542C109.224 71.2226 109.737 72.0168 109.367 72.2812C108.873 72.5573 108.019 72.9079 107.205 72.922C106.848 72.9484 106.834 72.7995 106.978 72.4733C107.219 71.9514 107.667 71.479 107.963 71.0386C108.166 70.7346 108.572 70.9139 108.657 70.9542ZM100.766 79.6682C100.312 79.7015 100.3 80.1175 101.282 80.7203C102.63 81.5472 101.966 83.721 100.333 83.6967C99.6188 83.6859 99.1322 83.373 97.3174 82.0273C95.8236 80.9196 94.4173 80.8324 94.0979 82.3329C93.9073 83.2282 94.2046 83.6253 95.1554 83.391C95.5758 83.2873 95.8229 83.5354 96.3933 83.9338C97.6213 84.6507 98.8261 85.7035 100.168 85.3994C103.346 84.5191 104.007 81.3663 101.945 80.0659C101.472 79.7669 101.039 79.6482 100.766 79.6682ZM108.282 84.2904C108.092 84.5528 108.305 84.9537 108.996 85.0545C110.994 85.7143 111.709 88.0792 109.905 89.0713C108.92 89.5906 107.345 89.2561 105.447 87.8427C102.057 85.3174 97.9013 85.1585 98.4435 87.7134C98.5751 88.3333 98.8399 88.4177 101.324 88.7578C103.341 89.034 104.25 89.6759 105.13 90.1529C106.516 90.9046 107.737 91.2162 108.771 91.1855C113.523 90.9129 113.067 85.0854 110.123 84.0983C109.454 83.8477 108.86 84.0654 108.282 84.2904ZM46.7319 101.086C47.7412 101.062 48.2031 101.864 48.6938 102.548C50.5285 105.112 51.8481 107.652 53.7202 110.564L53.4691 113.285C53.4691 113.285 52.9785 113.178 52.7039 113.311C52.165 113.571 51.8458 114.422 51.5386 115.552C51.0463 116.536 48.1399 118.773 47.0282 119.975C46.8228 120.111 46.652 120.335 46.6495 120.471C46.6606 120.911 47.9085 120.615 48.7331 119.663C49.9447 118.582 50.4628 118.953 50.4242 120.335C50.5434 122.042 51.5787 121.187 51.6308 119.52C51.764 118.203 52.2191 117.4 53.1356 116.664C54.8653 115.273 54.5776 115.624 54.4971 113.693C54.357 110.325 55.6488 107.557 56.4943 109.392C56.7946 110.044 57.1456 110.784 57.901 110.817C58.4359 110.84 58.7013 111.367 58.9957 112.67C59.4335 114.779 60.0443 116.136 60.6025 118.078L44.5425 127.225C41.7448 123.962 39.7218 118.524 38.6784 114.98C38.1632 113.215 38.1008 111.201 38.5607 110.921C39.0147 110.644 39.2251 110.94 39.1394 111.994C39.0681 112.873 39.0439 113.554 39.418 113.544C40.5037 113.262 40.5455 114.917 40.4343 115.306C40.3599 115.565 40.2264 115.748 40.1675 115.89C39.8998 116.53 40.5987 116.443 41.323 116.452C41.9637 116.436 42.1284 116.827 42.098 117.437C42.116 118.115 43.0091 117.983 43.5164 117.469C43.9801 116.999 43.8818 116.447 43.2535 116.06C42.3512 115.504 41.4983 114.137 39.3964 109.427C38.1762 106.693 38.5386 104.752 39.9929 104.774C41.0013 104.804 42.1764 107.582 43.126 109.629C43.3713 110.158 42.7553 110.749 42.5394 111.034C41.9813 111.77 42.0666 112.004 42.8945 112.016C43.6696 112.027 43.9987 111.957 44.466 112.919C44.642 113.281 44.7693 113.833 44.7073 114.185C44.3078 115.245 45.1295 115.502 45.9256 115.094C46.929 114.673 46.9202 113.773 45.39 112.3C44.4045 110.674 44.6624 110.787 45.596 109.692C45.7912 109.305 45.6744 109.067 45.2625 109.061C44.0786 109.424 42.7895 107.28 43.1417 106.545C43.5044 106.229 44.4949 105.087 43.536 105.307C41.5868 105.84 40.4006 102.969 41.5486 101.995C43.2611 101.132 43.6667 101.401 46.3043 106.7C47.1232 108.345 48.1097 110.114 48.2308 110.295C48.3521 110.477 48.4048 110.962 48.3996 111.354C48.2846 112.312 48.692 112.53 49.5198 112.149C50.1417 111.999 50.7037 111.485 49.9161 110.997C48.9966 109.402 48.6712 109.146 49.1765 108.742C50.3265 107.821 49.8267 107.857 48.5389 107.599C47.9083 107.409 47.5883 107.082 47.4147 106.69C46.7492 105.187 45.5696 103.068 45.4528 102.636C45.0628 101.534 45.7676 101.039 46.7319 101.086ZM120.387 101.815C122.455 102.693 124.29 103.525 125.939 104.319C120.824 114.422 114.82 118.058 104.266 122.542L105.247 127.054C116.488 122.843 123.641 117.802 129.282 108.007C136.127 108.105 163.853 108.302 163.882 108.215C152.573 121.148 143.657 140.654 142.682 155.863C142.443 158.826 142.855 157.401 141.552 158.285L139.504 160.74L137.895 158.322C137.895 158.322 136.732 156.831 135.996 158.073C133.934 179.282 136.116 203.468 146.278 220.325C144.475 220.445 142.679 220.494 140.952 219.467C136.977 210.415 134.635 199.233 133.618 190.85C132.331 180.24 132.512 168.273 133.822 158.111L133.145 158.017C131.165 171.223 131.836 185.27 133.654 197.547C134.587 203.952 137.591 213.971 139.657 218.595C140.228 219.873 140.671 220.203 140.13 220.392C127.746 221.44 122.054 225.594 117.605 232.229C115.773 231.063 113.531 229.627 110.939 228.907C116.512 218.813 125.476 213.403 132.977 211.29C132.721 209.998 132.541 208.711 131.297 207.918C131.341 208.114 131.889 210.408 131.768 210.879C121.435 213.532 112.341 223.712 110.015 228.96L64.6028 229.456C98.2667 196.981 99.6088 151.276 72.1424 112.966L75.301 111.111C96.4656 142.992 96.2496 173.709 89.9014 194.279C85.4005 208.864 77.3245 220.004 71.1869 226.372C71.1869 226.372 95.8084 226.712 108.063 226.258C109.843 223.519 111.498 221.282 113.891 218.697C113.891 218.697 107.664 224.744 107.825 225.794C96.4684 225.804 84.757 226.46 73.4156 225.665C86.6874 209.692 93.2297 193.201 94.3647 177.689C94.4069 175.671 94.5292 176.8 95.1926 176.059L97.2879 172.788L98.9673 176.186C100.109 176.557 102.354 175.959 103.307 176.306C107.976 155.357 103.258 130.067 97.1133 113.568C100.459 112.506 104.14 113.505 108.19 111.452C108.445 111.159 108.906 110.751 109.428 110.466C114.471 108.624 120.387 101.717 120.387 101.815ZM85.5166 102.037C86.5037 102.037 87.3039 102.841 87.3039 103.833C87.3039 104.826 86.5037 105.632 85.5166 105.632C84.5295 105.632 83.7293 104.826 83.7293 103.833C83.7293 102.841 84.5295 102.037 85.5166 102.037ZM127.27 104.076H172.075C154.861 122.702 146.974 138.437 145.733 159.721C144.551 179.992 149.679 198.505 165.254 220.78L162.034 222.921C135.428 182.456 136.617 139.479 166.311 106.902L128.743 106.959C123.961 116.448 115.996 122.231 105.803 125.794L104.914 122.814C116.629 119.032 122.555 112.763 127.27 104.076ZM58.8662 106.577C59.3822 106.803 59.0884 109.539 58.3895 109.541C57.6237 109.543 56.6272 107.225 57.2241 106.763C57.7615 106.347 58.3288 106.341 58.8662 106.577ZM80.5805 107.791C81.0412 108.613 81.6614 109.062 82.2285 109.635C81.3084 109.568 80.2244 109.105 79.3817 108.65C79.9523 108.306 80.201 108.211 80.5805 107.791ZM83.0564 111.839L88.6026 113.973L87.606 119.969L82.0087 117.727L83.0564 111.839ZM96.6503 114.116C104.119 133.42 105.747 157.201 102.828 175.888L100.882 175.816C104.075 144.15 97.8008 128.128 92.2498 114.195C92.2498 114.195 92.2629 113.636 92.4499 113.472C93.9438 112.917 95.4959 112.96 96.6503 114.116ZM71.387 113.368C108.277 165.089 84.7621 209.318 63.2628 229.999L58.8623 230.236C62.488 226.936 65.3997 223.516 68.4599 219.871C59.4035 207.346 49.3388 193.77 40.8757 182.922C40.8757 182.922 37.9464 184.666 37.9584 184.884C37.9694 184.998 38.1933 185.576 38.2468 185.448C38.3724 185.147 40.6187 183.882 40.6187 183.882L67.4024 219.23C67.4024 219.23 65.95 220.978 65.5014 221.528C63.4202 222.216 57.6298 229.428 57.3458 229.28C52.8086 225.784 39.1263 210.967 33.8561 206.425L33.7898 165.3C34.3352 163.654 48.9221 157.313 59.2256 133.655C64.4068 130.736 70.1475 129.166 75.4858 126.627C75.4858 126.627 74.1278 124.478 73.4632 123.89C74.2788 125.662 74.4227 125.998 72.5744 126.754L34.0193 142.559L34.0916 139.367C37.9573 136.36 63.5238 117.761 71.387 113.368ZM49.2575 114.546C47.932 115.431 45.0533 118.487 44.9133 118.76C44.5769 119.415 44.9253 119.55 45.0528 119.395C46.6298 118.196 48.0838 116.852 49.8026 115.821C50.447 115.438 51.2007 114.449 51.2053 114.185C50.9471 113.833 49.8391 114.158 49.2575 114.546ZM88.1043 121.198L93.0973 123.455L91.8182 129.394L86.9586 127.035L88.1043 121.198ZM91.9928 130.571L96.3776 133.691L94.3078 138.489L90.1545 135.66L91.9928 130.571ZM79.164 133.557C74.6439 144.87 70.9323 152.439 62.1073 164.482C67.54 171.636 83.1135 192.271 83.6685 192.057L83.6785 192.047C90.3936 171.057 88.377 151.009 79.164 133.557ZM58.1894 134.476C58.2406 134.487 54.8161 141.86 48.9587 149.366C43.743 156.049 34.5602 163.584 34.5329 163.522L34.2916 159.664L35.2372 161.075L36.9735 159.737L35.7611 158.12L34.2465 159.308L34.1521 157.754C43.7747 150.761 47.9264 142.728 51.8307 136.702L53.5669 135.963L55.5426 136.594L56.5098 134.874L58.1894 134.476ZM52.8531 136.888L52.0114 138.577L53.9615 139.584L54.9797 137.813L52.8531 136.888ZM50.5576 137.078C46.0885 144.736 40.8175 151.843 33.4186 157.485L33.3362 143.768L50.5576 137.078ZM51.5798 139.398L50.5616 141.191L52.4823 142.271L53.5005 140.499L51.5798 139.398ZM94.4314 140.008L98.4847 143.111L96.5071 147.512L92.4499 144.863L94.4314 140.008ZM153.524 140.349C146.549 161.356 149.139 181.045 157.33 199.252C162.191 188.881 166.975 178.184 174.72 170.102L153.524 140.349ZM50.0946 141.949L48.996 143.727L50.8441 144.867L51.9486 143.149L50.0946 141.949ZM79.6917 142.982C83.9415 156.374 85.8593 169.534 81.8125 183.832L66.5608 164.04C71.6629 157.933 75.9015 150.737 79.6917 142.982ZM48.3701 144.569L47.1616 146.288L49.0117 147.491L50.2025 145.829L48.3701 144.569ZM46.5966 147.032L45.3292 148.639L47.0498 149.971L48.3172 148.37L46.5966 147.032ZM96.7523 148.747L100.133 152.005L97.6215 156.327L94.3745 152.853L96.7523 148.747ZM44.513 149.599L43.1456 151.117L44.7995 152.558L46.1669 151.039L44.513 149.599ZM155.425 150.23L170.543 169.436C165.004 176.35 161.327 182.899 157.726 189.275C151.672 174.722 152.206 161.601 155.425 150.23ZM42.4276 151.903L41.0052 153.365L42.561 154.868L43.9833 153.406L42.4276 151.903ZM40.2185 154.215L38.7039 155.585L40.1165 157.088L41.631 155.73L40.2185 154.215ZM78.5009 154.966L71.4812 164.529L79.4406 174.354C79.9358 174.354 80.3662 161.326 78.5009 154.966ZM37.9132 156.292L36.3457 157.589L37.6974 159.153L39.2689 157.858L37.9132 156.292ZM97.4115 157.211L100.394 160.718L97.7961 164.23L95.0631 160.883L97.4115 157.211ZM157.74 159.427C156.879 164.988 156.685 171.443 158.762 179.848L165.742 169.7L157.74 159.427ZM139.4 161.514L141.856 165.423L139.123 168.962L136.53 165.227L139.4 161.514ZM97.7333 165.619L100.282 168.854L97.5901 172.204L95.2436 169.034L97.7333 165.619ZM139.304 169.659L142.025 172.737L139.263 176.492L136.396 173.123L139.304 169.659ZM203.54 169.706C203.568 170.733 203.57 170.919 203.569 171.41L202.837 171.93L203.563 173.154C203.553 173.78 203.548 174.26 203.54 175.763C197.895 180.307 192.099 184.335 185.479 197.2L183.466 198.175L183.586 197.817L181.739 196.938L180.794 198.773L181.438 199.022C180.423 199.605 180.414 199.49 178.431 200.471C178.431 200.471 179.924 196.985 181.015 194.935C186.233 185.819 192.992 176.741 203.54 169.706ZM201.892 172.624L200.244 173.821L201.435 175.479L203.085 174.281L201.892 172.624ZM199.171 174.658L197.594 175.949L198.873 177.54L200.454 176.249L199.171 174.658ZM196.793 176.625L195.292 178.01L196.67 179.519L198.168 178.134L196.793 176.625ZM204.044 176.744L204.337 189.414L186.876 196.799C190.716 188.165 196.479 181.522 204.044 176.744ZM139.2 177.575L142.676 180.773L140.463 185.086L137.038 181.817L139.2 177.575ZM194.333 178.935L192.926 180.412L194.394 181.827L195.802 180.35L194.333 178.935ZM192.022 181.414L190.707 182.968L192.253 184.29L193.568 182.736L192.022 181.414ZM189.926 183.929L188.673 185.546L190.276 186.806L191.529 185.189L189.926 183.929ZM140.654 186.181L144.571 189.439L142.205 193.85L138.384 190.204L140.654 186.181ZM188.051 186.377L186.907 188.072L188.587 189.222L189.73 187.533L188.051 186.377ZM186.362 188.908L185.294 190.648L187.025 191.722L188.092 189.982L186.362 188.908ZM203.762 190.623V193.679C203.762 193.679 174.929 204.432 164.558 210.366C164.558 210.366 164.306 209.991 162.974 207.965C176.692 202.503 191.047 195.289 203.762 190.623ZM184.78 191.428L183.764 193.199L185.524 194.222L186.542 192.451L184.78 191.428ZM183.254 194.197L182.238 195.968L184 196.991L185.016 195.22L183.254 194.197ZM142.58 194.867L146.828 197.806L144.87 202.894L140.654 199.805L142.58 194.867ZM203.469 199.732V304.085H157.139L146.482 284.646C146.796 283.133 146.325 282.066 145.806 281.119C145.523 280.657 145.314 280.024 145.25 279.44C145.145 278.479 145.145 278.477 143.746 277.208C143.452 276.942 143.395 276.778 143.504 276.501C143.967 275.324 143.696 272.918 142.78 270.045C141.623 266.416 141.325 266.465 143.479 261.612C143.928 260.598 144.472 259.244 145.056 258C147.716 252.507 148.126 251.018 143.561 248.09C142.276 247.266 141.898 246.55 142.219 244.908C142.472 243.616 142.524 242.791 141.907 242.063C141.507 241.591 141.144 241.512 141.244 241.148C141.312 240.9 141.611 239.825 141.511 238.922C141.242 236.487 144.052 232.929 146.59 231.645C146.773 231.552 147.148 231.433 147.148 231.433C147.148 231.433 147.342 231.893 147.536 232.234C150.179 236.89 156.759 235.003 157.196 229.45C157.311 227.982 157.111 227.411 157.111 227.411C165.132 222.603 170.143 219.324 175.856 216.025C178.347 220.385 177.468 224.251 176.948 228.026C176.999 228.682 177.555 228.799 178.396 228.809C179.82 228.826 181.869 227.375 182.314 226.021C182.693 224.871 182.936 224.125 183.279 224.13C183.625 224.14 183.793 224.6 184.651 226.258C186.435 229.71 186.712 230.148 188.38 232.152C189.711 233.751 190.845 233.962 192.149 232.771C193.056 231.943 193.027 232.663 193.799 233.081C195.131 233.993 197.134 233.177 197.183 231.894C197.224 230.817 197.233 230.007 198.317 229.936C199.525 229.857 200.05 228.289 199.71 226.053C199.531 224.876 199.496 224.687 199.853 224.256C201.021 222.849 201.175 221.876 200.532 219.912C198.701 214.312 196.046 210.542 193.552 205.45C193.552 205.45 199.709 201.834 203.469 199.732ZM145.419 204.092L150.596 207.005L149.101 212.578L143.971 209.913L145.419 204.092ZM199.559 219.947C200.663 222.357 199.585 223.951 198.159 222.008C197.605 221.253 197.888 220.772 198.159 219.312C198.209 219.048 197.963 219.15 197.505 219.075C196.784 219.153 196.437 218.504 196.464 217.406C196.919 215.832 196.289 216.683 195.991 216.761C195.42 216.751 195.294 216.408 194.974 215.754C194.775 214.832 194.37 215.099 193.782 215.707C193.295 216.21 193.295 216.198 194.276 217.376C195.971 219.223 198.319 223.391 198.928 225.929C199.095 226.629 199.035 227.187 198.908 227.559C198.142 229.293 197.076 229.301 195.914 226.879C195.716 226.467 195.326 225.803 195.05 225.402C194.603 224.752 194.327 224.194 194.342 223.16C194.686 222.294 194.741 222.276 194.444 222.157C193.707 221.864 192.398 220.526 192.339 219.328C192.279 218.111 192.073 217.463 191.121 218.185C190.035 219.009 190.498 219.342 191.568 220.398C192.69 221.74 192.758 222.903 192.092 223.872C191.983 224.197 192.029 224.29 192.441 224.25C193.744 224.123 195.01 225.782 194.105 227.044C193.688 227.783 193.738 227.974 194.327 227.994C194.633 228.005 195.14 227.945 195.39 228.087C195.775 228.813 196.579 229.828 196.571 230.659C196.192 231.824 195.605 232.296 194.984 232.291H194.974C194.269 232.279 193.523 231.658 192.989 230.751C191.75 228.65 190.245 225.118 189.284 223.17C189.042 222.679 189.034 222.242 189.049 222.008C188.974 220.867 188.593 220.436 187.919 220.95C187.256 221.456 186.336 222.302 187.415 222.438C188.499 223.259 189.104 224.466 188.433 225.2C187.939 225.741 188.131 226.091 188.529 226.113C190.049 226.135 192.314 230.681 191.247 231.66C189.806 232.982 188.212 231.347 184.821 224.581C183.327 221.593 183.258 218.324 184.539 219.943C184.974 220.351 184.886 220.138 185.396 218.852C185.78 217.885 186.095 217.428 187.558 216.013C189.34 214.29 190.42 212.927 190.46 212.629C190.536 212.058 189.497 212.592 188.739 213.585C187.046 215.248 186.984 215.692 186.999 213.487C187.013 211.493 187.115 211.128 186.758 211.141C186.201 211.162 185.903 212.74 185.643 214.643C185.333 216.357 184.448 217.222 182.973 218.176C182.569 218.437 182.562 218.619 182.64 219.375C182.912 221.796 181.543 226.311 180.919 225.194C180.832 224.943 180.56 224.355 180.415 223.944C180.298 223.307 179.9 222.587 179.291 222.539C178.534 221.969 178.535 221.661 178.273 219.575C178.034 218.146 177.455 216.835 177.154 215.423C177.154 215.423 187.184 209.148 192.426 206.143C195.376 210.47 197.645 215.705 199.559 219.947ZM33.86 207.975L47.4598 221.419C47.4598 221.419 47.7263 238.764 47.7129 245.854C47.6988 252.945 47.5964 260.034 47.6245 261.353C47.6536 262.672 47.5532 268.282 47.5107 274.042C47.4213 286.11 48.5196 284.62 46.2884 286.935L34.009 298.482L33.86 207.975ZM149.19 213.001L155.762 216.048L154.536 222.457L148.26 219.477L149.19 213.001ZM191.28 214.461C189.661 216.611 187.442 217.527 186.079 219.483C185.868 219.844 186.09 219.993 186.413 219.988C186.696 219.988 187.416 219.664 188.39 218.775C190.189 217.135 192.558 214.439 192.565 213.926C192.113 213.67 191.588 214.052 191.28 214.461ZM140.793 220.799C142.678 220.854 142.011 221.275 140.295 222.385C136.619 224.759 131.461 231.585 130.628 234C130.432 234.57 130.652 234.898 131.015 234.858C134.039 229.993 138.032 224.64 142.676 222.4C145.179 221.193 148.336 220.955 149.888 221.718C151.025 222.278 150.741 222.471 148.723 222.602C143.867 223.084 138.176 227.668 135.358 232.519C133.709 235.204 134.868 234.588 136.751 231.997C139.967 227.576 146.349 223.337 150.308 223.672C154.312 223.91 156.616 227.029 156.102 229.703C155.79 231.321 154.648 232.971 152.409 233.443C148.575 234.253 146.065 228.145 149.574 226.993C150.472 226.699 151.486 227.083 151.486 227.083C147.802 227.849 149.559 231.905 151.542 231.991C152.904 232.051 154.525 231.259 154.593 229.105C154.552 227.5 153.238 225.929 150.602 225.892C147.477 225.848 142.681 228.11 139.77 232.276C137.705 235.459 139.606 234.384 141.146 232.26C142.504 230.385 146.738 227.763 147.072 227.859C146.966 228.499 146.755 228.993 146.923 230.018C146.856 229.645 140.322 234.25 140.714 237.677C140.965 240.165 140.604 240.926 138.028 240.895C136.103 240.872 133.656 240.192 132.945 239.304C132.212 238.425 131.39 238.149 131.754 239.631C132.344 242.035 131.636 242.43 133.022 241.974C133.978 241.66 134.825 242.432 135.784 243.117C136.838 243.869 138.173 244.191 139.765 244.134C140.954 244.09 141.491 244.162 141.301 245.29C141.167 246.085 141.015 246.81 141.244 247.331C141.616 248.179 143.104 249.054 144.787 250.3C146.773 251.771 146.406 251.858 142.174 261.668C140.396 265.787 140.388 266.631 141.454 269.672C143.137 274.478 143.402 276.404 140.247 277.075C138.461 277.281 136.619 277.382 134.752 277.379C129.15 277.368 123.309 276.451 117.954 274.827C114.576 257.656 108.643 246.112 108.668 239.388C111.111 241.566 114.921 242.212 117.491 238.716C119.117 236.578 117.48 233.605 118.313 232.358C119.89 230.033 123.95 225.734 124.63 225.876C125.125 225.979 125.044 226.197 123.304 228.882C121.492 231.678 120.103 234.213 120.701 234.832C120.954 235.095 121.09 234.54 122.443 232.177C125.617 226.633 128.408 223.205 129.513 223.65C130.031 223.859 129.765 224.319 127.414 227.442C124.76 230.968 124.021 233.174 124.285 234.15C124.488 234.901 124.9 233.688 126.002 231.521C127.176 229.228 129.298 226.672 131.014 224.218C131.558 223.33 132.256 222.817 133.151 222.412C133.813 222.123 134.869 221.651 135.482 221.73C135.796 221.771 135.579 221.956 135.148 222.38C131.761 225.887 128.851 229.797 127.198 233.551C126.943 234.043 127.308 234.743 127.726 234.227C130.26 229.743 133.788 224.151 137.618 221.683C138.737 221.123 139.724 220.808 140.793 220.799ZM48.3799 222.788L56.663 230.808L74.4162 230.577C71.4895 235.353 71.4236 239.145 73.3175 243.622C76.5097 250.937 81.435 267.632 81.0572 267.576C81.0572 267.576 80.9168 267.936 80.5138 268.027C79.0421 268.357 78.1062 269.785 78.5264 271.503C78.6067 272.056 78.6027 271.925 78.2282 272.643C76.7836 275.122 78.5048 277.814 78.5048 277.814L62.945 304.085H34.1994V299.608L48.3799 285.183V274.367C53.7988 276.434 58.2201 284.029 59.7079 289.815C73.3256 279.712 73.9642 257.303 59.0978 245.921C58.9761 250.865 55.0195 260.581 48.3799 261.302V222.788ZM154.987 223.603C156.131 223.784 159.191 224.667 157.755 225.355L156.463 225.974C155.615 225.327 155.3 224.465 154.987 223.603ZM180.082 225.298C180.142 225.651 180.145 225.995 180.235 226.053C180.793 226.411 179.86 227.455 178.993 227.442C178.018 227.442 178.176 224.995 178.675 224.297C179.458 223.201 179.973 224.668 180.082 225.298ZM151.942 227.663C152.89 227.663 153.657 228.437 153.657 229.389C153.657 230.342 152.89 231.114 151.942 231.114C150.995 231.114 150.228 230.342 150.228 229.389C150.228 228.437 150.995 227.663 151.942 227.663ZM116.885 233.675C117.874 236.001 117.114 238.801 114.447 239.759C109.829 241.416 106.446 235.489 110.974 233.665C113.316 232.721 115.543 234.422 114.488 236.402C113.748 237.79 111.666 237.64 111.174 236.206C110.773 234.68 110.109 235.4 110.393 236.433C111.252 239.726 115.459 238.949 115.796 235.916C115.796 232.158 111.704 231.276 109.263 233.387C107.372 235.073 107.175 238.121 107.647 240.766C108.296 246.26 111.388 253.385 113.583 261.518C114.68 265.578 116.267 270.419 116.834 274.595L115.196 274.126C115.183 274.126 110.08 256.561 107.158 247.986C104.937 241.004 102.995 232.411 111.117 230.553C113.544 229.998 116.164 231.978 116.885 233.675ZM106.126 230.375V230.422H108.375C108.375 230.422 108.386 230.56 107.4 231.3C101.956 235.394 105.204 244.415 107.26 251.348C110.842 262.422 114.044 273.752 113.999 273.738L111.745 272.865C110.51 265.668 104.688 251.913 102.634 241.646C102.062 235.475 101.97 233.663 106.126 230.375ZM95.4124 230.385L96.9544 230.426C91.0684 241.491 99.9895 252.94 103.511 269.894L101.412 269.249C98.5601 256.68 87.6004 236.082 95.4124 230.385ZM92.958 230.426H93.6055C90.8882 234.551 91.4004 239.755 92.8501 245.378C94.7999 252.941 98.5877 261.26 99.8502 268.722C99.2051 268.362 98.2832 268.189 97.5803 267.984C95.3698 258.48 91.3298 249.132 89.4914 240.28C88.8725 235.433 89.9299 231.805 92.958 230.426ZM98.5357 230.426H100.307C98.7251 232.908 98.0728 235.087 98.3101 238.436C98.9997 249.709 104.717 260.65 106.783 271.037L104.831 270.314C102.584 257.907 91.443 239.37 98.5357 230.426ZM102.367 230.451H104.304C102.234 232.521 100.853 233.118 101.431 240.315C102.348 249.557 108.411 261.105 110.539 272.527L108.422 271.718C108.422 271.718 107.863 270.057 107.662 269.108C105.603 259.921 100.001 249.59 99.346 238.843C99.1981 235.322 99.8 232.039 102.367 230.451ZM82.7327 230.684H84.0059C81.4045 233.801 81.5329 238.051 82.6463 242.619C84.4866 250.169 88.9375 259.273 90.0466 266.837L88.1965 266.667C86.3452 258.559 82.7439 250.678 80.4059 242.568C79.9704 240.738 79.5904 238.5 79.7427 236.854C80.0625 233.404 81.4845 230.684 82.7327 230.684ZM87.3137 230.713C84.8127 234.074 84.4565 237.574 85.599 242.101C87.9441 251.393 91.4939 259.503 93.2464 267.213L91.4533 266.878C89.3536 259.401 85.7874 250.133 83.641 242.413C82.321 237.665 82.8525 231.818 85.7991 230.741L87.3137 230.713ZM77.6121 230.725C75.8253 232.406 75.2126 235.234 75.4972 238.167C76.3012 246.456 82.1343 257.951 84.2472 266.78L82.1833 267.204C80.3723 259.452 76.0252 247.627 74.4633 243.544C72.3854 239.374 73.009 233.199 76.1329 230.755L77.6121 230.725ZM80.5452 230.746C80.765 230.746 78.4515 234.34 78.65 237.419C78.5907 239.062 78.7692 240.823 79.2346 242.563C82.1412 250.92 85.0048 258.494 87.2274 266.459L85.3577 266.548C82.7993 256.638 77.8504 247.758 76.6469 238.358C76.3746 235.669 76.8222 233.042 79.0443 230.771L80.5452 230.746ZM88.9205 230.756H90.7901C88.7454 232.856 87.8228 236.146 88.5006 240.033C89.1924 244.001 91.2318 250.298 92.9227 255.836C94.8831 262.256 96.4613 267.686 96.2815 267.731L94.1646 267.406C90.1845 249.012 81.4477 237.581 88.9205 230.756ZM129.394 242.684C127.62 242.728 125.901 243.678 125.476 245.096C124.957 246.828 125.377 249.989 128.831 249.989C130.01 249.989 130.755 249.106 129.279 248.841C124.005 247.889 127.541 242.39 131.26 245.224C134.612 248.266 139.095 248.245 139.149 246.086C139.16 245.543 139.131 245.524 138.337 245.373C136.468 245.018 133.68 244.163 132.612 243.621C131.984 243.303 131.322 243.006 131.142 242.961C130.584 242.757 129.986 242.67 129.394 242.684ZM59.9649 247.665C73.3809 259.903 70.8984 277.452 60.5868 287.635L59.8374 285.45C65.5365 282.165 72.5094 263.868 59.7099 250.434L59.9649 247.665ZM137.974 248.467C135.52 248.516 133.545 250.799 135.082 253.202C135.469 253.807 136.426 254.337 136.844 254.313C136.904 254.313 136.954 254.295 136.993 254.272C137.126 254.192 136.823 253.652 136.381 253.042C134.34 250.274 137.165 249.454 139.165 250.935C141.063 252.42 143.994 252.28 143.571 250.724C143.422 250.175 143.571 249.907 142.508 249.891C141.566 249.877 141.322 249.825 140.473 249.241C139.661 248.682 138.791 248.45 137.974 248.467ZM59.396 251.374C69.4962 261.635 67.2482 276.51 59.6118 285.052C57.6558 280.993 55.43 277.399 52.3959 275.199C54.0298 271.276 54.7326 266.95 51.9643 261.114C53.906 260.043 56.6039 257.2 59.396 251.374ZM129.765 255.432C128.644 255.4 129.118 256.135 130.422 256.637C131.7 257.129 133.284 258.495 133.279 258.873C133.279 259.163 132.873 258.991 130.571 259.627C129.573 259.903 128.169 260.521 127.578 260.795C126.601 261.248 126.555 261.243 125.025 261.197C122.42 261.118 122.024 261.208 123.85 262.57C127.541 265.324 132.465 267.118 135.076 265.976C135.868 265.629 135.85 265.841 136.422 266.172C137.17 266.603 137.78 266.799 138.184 266.797C138.954 266.797 138.967 266.082 137.736 264.998C136.983 264.335 137.042 264.556 137.085 264.136C137.268 262.34 136.987 260.696 136.253 262.545C136.057 263.038 135.769 263.596 135.482 263.526C134.939 263.358 135.214 262.355 134.952 261.847C134.51 260.953 134.98 260.734 136.057 261.011C136.832 261.21 136.877 260.789 137.358 260.252C138.199 259.313 138.06 258.751 136.765 259.043C136.551 259.092 136.372 259.03 136.206 258.992C135.802 258.899 135.432 258.642 134.47 257.903C133.233 256.954 131.482 255.688 130.346 255.495C130.118 255.456 129.925 255.436 129.765 255.432ZM132.198 260.913C132.393 260.901 132.606 260.913 132.678 261.001C132.919 261.352 132.101 263.032 131.633 263.268C131.372 263.405 131.119 263.192 130.94 263.082C130.791 262.991 130.879 262.746 130.993 262.541C131.294 262 131.825 260.96 131.825 260.96C131.825 260.96 132.003 260.925 132.198 260.913ZM130.917 261.124L130.146 262.556C129.982 262.86 129.91 262.972 129.781 262.974C129.703 262.974 129.607 262.936 129.457 262.875C128.787 262.609 127.625 262.063 128.127 261.641C128.948 261.137 130.659 260.966 130.917 261.124ZM51.2502 262.08C54.882 268.415 51.8876 274.707 51.6465 274.403L48.3799 273.18V262.984L51.2502 262.08ZM122.122 262.796C121.882 262.814 121.762 262.978 121.888 263.309C121.989 263.574 123.44 264.705 124.723 265.427C127.467 267.095 130.018 268.528 132.945 268.556C133.921 268.566 134.942 268.418 136.022 268.072C137.127 267.652 136.991 266.774 135.964 266.955C135.616 267.017 135.001 267.127 134.593 267.198C132.073 267.64 128.968 266.727 125.205 264.436C124.297 263.882 123.308 263.35 123.063 263.166C122.717 262.906 122.361 262.777 122.122 262.796ZM120.077 266.015C119.479 266.082 120.217 267.194 122.006 268.284C126.645 271.109 131.337 273.197 135.939 272.994C139.341 272.845 139.899 272.592 139.91 271.848C139.93 270.447 139.359 269.825 136.196 270.169C133.459 270.467 129.494 270.039 126.761 268.856C123.645 267.508 122.904 267.191 121.784 266.611C120.905 266.156 120.349 265.984 120.077 266.015ZM124.497 277.323C130.273 278.266 137.145 278.239 143.146 277.898C144.279 277.829 144.346 280.597 144.346 280.597C145.143 288.983 151.054 295.926 155.146 305.056C125.093 304.236 94.8533 305.122 64.5773 304.885C64.5773 304.885 75.5769 285.617 78.9109 279.552C79.6409 278.219 79.7162 277.276 79.3229 276.723C78.7142 275.867 78.7646 274.419 79.4465 273.582C80.1868 273.242 79.89 272.635 79.5681 271.94C79.0297 270.093 80.4204 268.814 81.8753 268.221C96.9025 265.665 110.559 274.766 124.497 277.323Z" fill="#004C97"/>
<path d="M172.211 28.2758C172.211 28.2758 160.261 51.6269 156.019 57.7585C133.405 60.1974 138.194 48.6544 91.453 48.758L81.2926 28.5768L172.211 28.2758ZM193.116 51.5305L193.439 116.121L190.39 113.268L189.668 49.2677L203.292 36.1498L203.366 39.9927L193.116 51.5305ZM184.87 58.8009C181.625 65.3688 185.248 73.3893 185.247 73.3861C183.365 72.9192 178.12 82.9283 177.654 82.6395C169.627 72.74 168.236 57.9894 178.043 48.8479C180.519 55.2022 184.838 58.8009 184.87 58.8009ZM178.879 103.864C172.78 110.132 167.943 115.014 163.109 122.029C162.713 122.599 188.841 155.974 188.435 156.559C184.404 161.038 179.001 164.33 174.798 169.739C174.798 169.739 153.37 141.532 152.877 141.78C150.706 150.607 149.116 158.599 149.53 167.826C150.853 191.433 160.885 205.886 160.962 205.601C169.485 171.613 205.806 149.686 204.257 153.4L204.295 168.557C203.898 167.798 187.117 178.274 177.709 200.69C177.167 201.982 161.236 207.21 161.349 207.408C162.029 209.165 169.063 219.173 169.063 219.173C169.063 219.173 166.222 220.504 165.906 220.5C156.787 209.097 149.906 194.076 147.565 179.772C144.724 164.365 142.887 135.403 173.608 103.771L178.879 103.864ZM86.783 143.721C91.5901 158.725 91.4591 174.259 89.2486 185.106C85.8759 204.759 73.5245 218.832 63.6181 229.562L59.2652 229.416C66.663 222.842 71.3959 216.477 74.1845 210.845L48.5472 177.145L33.9341 180.321C33.9341 180.321 34.3749 165.246 33.9214 165.246C45.2784 155.793 53.4404 147.237 59.2993 133.463C62.8905 132.128 74.7957 126.966 74.7957 126.966C78.3422 131.695 58.367 165.893 62.2342 164.433C63.9968 165.895 83.513 192.371 83.8939 192.317C92.8906 164.617 84.1142 135.528 68.2861 115.212C70.0827 114.041 71.7087 113.13 71.5598 113.404C78.3395 122.863 84.2804 134.156 86.783 143.721ZM133.618 157.609C132.604 156.03 128.043 191.414 140.031 219.737C138.89 220.606 129 222.509 129 222.509L126.339 214.028L133.085 211.156L131.84 207.181C126.603 209.735 115.261 213.506 108.284 225.161C108.284 225.161 74.3848 225.453 73.6631 225.393C72.9599 225.333 80.5771 217.993 87.8012 203.132C91.101 196.344 93.7262 187.562 94.2731 177.257C94.3812 175.221 102.029 186.83 102.029 186.83C100.123 196.639 95.0248 206.295 89.9442 215.952C89.9442 215.952 97.7395 216.397 103.186 216.237C111.655 206.93 116.965 202.025 129.734 197.58C126.81 182.85 135.078 181.405 102.928 176.739C106.574 157.752 104.959 135.001 97.1916 113.36C104.634 112.792 104.952 112.393 108.824 111.339L111.508 119.231L104.246 122.59L105.421 127.044C105.449 127.042 121.444 122.177 129.278 108.146L164.313 108.105C150.801 122.849 145.29 137.432 142.356 156.711C139.489 156.194 133.618 157.609 133.618 157.609ZM47.4542 284.898C43.0489 288.605 34.2076 298.259 34.2076 298.259L34.0924 293.313L44.1268 282.819L44.0253 218.028L47.4201 221.3L47.4542 284.898ZM52.0917 261.184C53.8989 260.319 57.5007 256.06 59.2178 251.275C70.8427 261.72 66.0553 280.914 59.6915 284.91C57.8451 280.719 52.4977 275.162 52.6214 275.279C53.8502 270.891 54.7921 266.439 52.0917 261.184ZM155.018 304.679L65.3618 304.521C70.476 294.395 75.168 286.209 80.6038 276.24C83.4321 272.809 144.658 287.32 144.945 285.875L155.018 304.679Z" fill="#FFCD00"/>
<path d="M203.482 41.1731L204.08 126.246L193.889 116.291L193.284 50.9588L203.482 41.1731ZM156.719 57.6587C158.823 58.6834 156.792 61.3478 158.031 63.5013C156.692 67.8371 145.566 65.7571 138.745 64.2393C121.758 59.8164 117.921 54.0866 94.5043 56.2147C94.3122 55.8877 91.9258 49.7084 92.0853 49.0578C112.239 45.064 137.956 59.9433 156.719 57.6587ZM120.396 101.711C122.519 103.258 124.512 103.545 126.482 103.881C123.026 109.994 118.84 115.566 111.849 119.052L108.596 110.959C112.708 108.833 116.744 106.303 120.396 101.711ZM162.853 122.729C162.853 122.729 165.87 117.77 168.717 115.358C177.181 126.771 196.106 151.069 196.106 151.069L204.137 146.98C204.137 146.98 204.169 151.684 203.987 152.013C182.296 163.253 167.413 184.498 160.858 204.392C160.858 204.392 157.366 200.808 157.825 199.292C163.69 183.6 173.72 167.863 188.468 156.061L162.853 122.729ZM135.8 145.88L108.416 145.841L107.204 136.268C117.689 132.735 126.343 125.516 134.435 117.167L147.424 117.395C143.165 126.778 137.249 136.296 135.8 145.88ZM34.4158 186.212C33.53 183.513 34.4266 180.602 34.0823 180.724C66.8832 164.41 76.2564 128.606 76.2564 128.606C76.2564 128.606 79.3707 133.563 79.2285 134.33C62.2508 172.277 50.8918 173.407 48.7096 177.529L74.5316 211.134L68.6907 219.122L40.9948 182.88C38.2419 184.155 36.6727 185.223 34.4158 186.212ZM50.5891 137.12C45.0269 147.179 39.2887 153.027 33.5726 157.05L33.8502 143.774L50.5891 137.12ZM203.94 176.602L203.797 189.482L186.901 196.794C191.573 186.554 197.914 181.066 203.94 176.602ZM128.668 188.182L129.667 197.241C119.41 201.74 110.349 207.758 103.034 215.993C95.1747 216.373 89.8072 215.837 89.8499 215.945C89.836 215.961 96.8861 205.416 101.845 188.025L128.668 188.182ZM43.6893 283.342L34.3536 292.828L34.0591 208.005L43.4364 217.144L43.6893 283.342ZM125.74 214.407L128.702 222.801C124.042 224.557 120.515 228.382 117.229 232.17C114.816 229.425 110.797 228.88 110.846 229.075C116.66 219.92 121.567 216.889 125.74 214.407ZM143.242 277.973C143.242 277.973 144.408 278.651 144.28 279.607C143.894 280.844 145.524 283.646 145.525 283.646C125.643 289.711 96.6925 272.642 79.5098 276.233C79.6532 275.026 79.4552 273.587 79.9423 272.45C79.4011 270.032 79.019 269.954 81.3668 268.477C93.4385 265.042 106.161 272.367 117.952 275.868C127.571 278.915 135.385 278.139 143.242 277.973Z" fill="#C8102E"/>
<path d="M173.617 27.7134L80.1824 27.8878L91.4123 49.0394C91.3872 49.0697 90.5143 52.5295 92.3108 52.9464C92.888 53.0804 93.2179 53.6196 93.3349 54.1358C93.1886 55.6073 93.8524 56.2326 94.412 56.9926C103.294 55.7311 111.008 56.3601 117.382 57.8018C131.7 62.0933 143.137 68.5331 155.929 65.9705C157.995 65.4432 158.863 63.5891 158.177 61.9205C157.866 61.1624 157.392 61.1557 157.948 60.6919C158.568 59.972 158.897 58.3048 158.215 57.698C157.409 57.2339 157.204 58.0343 158.052 56.4675L173.617 27.7134ZM171.726 28.7146L164.075 42.9163C159.552 42.6831 159.713 47.0608 159.912 47.1682C156.904 45.0089 153.671 50.3774 158.071 51.9158C154.477 55.6984 149.146 52.2032 149.465 51.9315C154.594 52.9088 154.873 47.1464 151.531 46.2061C156.129 39.8527 144.087 37.3867 146.296 45.2264C140.194 44.121 141.298 51.102 145.835 51.0379C144.774 53.6395 136.398 51.6698 136.759 49.737C142.422 49.133 140.159 43.9449 137.709 43.9391C143.63 38.3016 131.781 33.1032 132.096 41.6015C127.342 40.5965 126.783 46.9427 131.352 47.3602C129.679 49.7281 123.701 48.2362 122.043 45.5281C126.761 44.8989 126.467 40.7306 122.775 40.0576C127.454 34.0665 115.938 31.8526 117.135 38.8173C113.008 37.3906 110.745 42.9267 116.091 44.5093C110.615 47.7897 104.668 42.9003 105.312 42.8006C111.562 43.1723 110.317 36.8747 105.795 37.2164C108.672 30.6773 97.2707 30.3131 100.162 37.0949C95.0342 37.0003 95.4847 42.9775 100.398 43.3767C97.304 45.6449 93.8156 45.8437 91.5712 43.7216C96.2471 42.4846 94.3031 37.018 89.5995 38.5311C89.1642 33.9579 85.4678 34.9288 85.3853 35.067L82.0756 28.8596L171.726 28.7146ZM204.821 33.8306L189.523 49.1727L189.721 112.826C186.474 109.754 183.696 106.478 179.98 103.467L173.617 103.518C157.006 120.509 147.908 135.049 145.912 161.087C144.576 178.507 150.331 200.413 165.595 221.642L169.323 219.366L161.958 208.205L177.559 201.251C183.772 188.078 191.137 175.922 204.609 168.96L204.686 151.91L204.921 151.557L204.743 146.204L198.064 149.786C196.072 146.852 189.669 138.343 183.413 130.107C176.786 121.383 170.527 113.233 170.527 113.233L170.092 113.566L170.965 112.5L198.692 149.002C198.692 149.002 203.071 146.845 204.358 146.125L204.184 127.603L204.933 127.64L204.821 33.8306ZM203.077 36.4248L203.176 39.8361L192.839 50.6892C192.827 72.1336 192.895 93.5778 192.966 115.022L190.424 112.494L190.076 49.0962L203.077 36.4248ZM103.433 37.334C104.315 37.4354 104.988 38.456 104.361 39.4933C102.965 41.8022 104.016 43.7349 107.411 45.5203C112.197 48.0367 120.017 45.2179 118.408 41.5075C117.378 40.3225 118.333 39.488 119.691 39.5305C121.229 39.5785 121.75 40.6126 120.764 41.7191C119.533 43.1322 119.856 44.5645 121.29 46.1963C125.587 52.3521 134.283 49.9112 133.132 44.5171C132.627 43.1767 134.063 42.6379 135.555 43.2337C136.504 43.6127 136.364 45.0876 135.325 45.6085C134.13 45.7301 133.96 47.4711 134.103 48.5888C134.311 50.2146 136.694 51.8166 139.053 52.6663C140.76 53.2813 142.347 53.4143 143.599 53.2991C146.241 53.0561 147.716 51.2518 147.281 48.5476C147.024 46.9522 147.468 45.2977 149.329 46.1748C150.348 46.6548 150.093 47.8142 149.053 48.8827C145.394 52.4756 152.761 56.8482 157.208 53.836C157.962 53.2128 158.513 53.1052 158.513 53.1052C155.724 60.0873 146.99 53.5476 147.071 53.2619C137.866 58.4229 133.981 51.2973 132.651 50.1484C124.604 51.9394 123.027 51.0582 118.537 46.1807C110.479 50.1427 106.574 46.7731 103.211 44.6425C99.2651 48.3506 94.261 48.4531 91.6536 46.5921C91.1653 45.7718 90.4888 44.7318 90.4333 44.4211C90.3901 44.1792 90.7583 44.4602 91.6654 45.1128C96.3976 48.518 104.252 44.2766 102.154 39.7872C101.589 38.5777 101.678 38.0582 102.522 37.573C102.823 37.3689 103.139 37.3002 103.433 37.334ZM88.3753 39.7362C89.7716 39.771 90.1119 41.9581 89.3778 42.4598C89.0958 41.8686 87.9776 39.8135 88.0829 39.7597C88.1854 39.7418 88.2822 39.7338 88.3753 39.7362ZM203.06 42.0542L203.625 125.611L194.294 116.309L193.78 51.4142L203.06 42.0542ZM103.344 45.6144C103.983 46.2961 105.191 46.9763 106.266 47.658L101.198 47.3328C101.868 46.8744 102.525 46.4496 103.344 45.6144ZM118.386 47.1584C119.204 48.0514 119.992 48.8228 120.835 49.5469L116.173 48.4124L118.386 47.1584ZM160.969 47.8736C161.184 47.8135 161.123 48.1926 160.679 49.1315C160.469 49.5862 160.27 49.9536 160.112 49.9486C159.717 49.6234 159.989 48.7344 160.31 48.43C160.613 48.1037 160.84 47.9097 160.969 47.8736ZM178.167 48.5241C165.512 61.4294 171.537 76.5527 177.971 83.8637C179.387 78.7413 186.111 73.4053 186.03 73.2791C183.136 68.7343 183.385 62.1412 185.758 58.711C185.744 58.7844 180.562 54.4598 179.835 52.2136C179.324 50.7717 179.216 49.7903 178.167 48.5241ZM177.883 49.2471L178.701 50.6069C169.57 61.2784 173.44 74.3886 178.76 80.5955L177.783 82.5255C165.495 67.1945 173.595 53.1616 177.883 49.2471ZM96.8369 49.5175C106.737 49.4043 117.794 50.1521 126.132 53.4481C135.472 56.2353 144.08 61.6262 156.936 58.0154C157.304 58.0204 157.497 58.5703 157.475 59.0774C157.454 59.5733 157.271 59.9719 156.859 60.2883C140.068 64.5479 131.077 55.4244 117.664 52.8896C111.032 51.7362 102.327 51.0454 96.6368 51.4926C93.3749 51.8226 92.687 51.7178 92.7071 50.3503C92.7202 49.4935 92.6268 49.5133 96.8369 49.5175ZM132.483 51.1183L134.949 54.2024L129.391 52.098C130.672 51.8436 131.575 51.4802 132.483 51.1183ZM178.877 52.1372C178.952 52.1203 179.039 52.1641 179.193 52.3077C179.975 53.207 177.85 53.2813 178.65 52.3273C178.743 52.231 178.803 52.1542 178.877 52.1372ZM99.5129 53.3756C112.709 53.2033 123.86 55.9546 132.12 59.7142C140.361 62.8239 147.929 63.8647 153.91 62.9472C157.195 62.4433 157.678 62.3633 157.665 63.2509C157.03 66.0169 153.482 65.7576 150.897 65.7726C143.657 65.8162 135.52 63.6619 129.881 61.1191C118.554 56.0111 107.467 54.5619 96.109 55.9874C95.5656 56.0694 95.0032 55.9934 94.5984 55.5603C93.5682 54.4089 94.2687 53.6879 96.8467 53.4481C97.7443 53.41 98.6332 53.3871 99.5129 53.3756ZM179.44 53.9222C179.968 53.9482 180.594 54.19 180.843 54.5179C181.483 55.3619 180.664 57.7065 179.811 57.6941C179.155 57.684 178.223 54.6977 178.701 54.1358C178.842 53.9693 179.124 53.9066 179.44 53.9222ZM147.038 54.4101C148.023 55.2617 149.142 56.0902 150.455 56.8868C147.851 56.9133 145.255 56.6332 142.869 56.2206C144.243 55.7099 145.611 55.2391 147.038 54.4101ZM177.316 54.8118C177.545 54.8188 177.731 55.2044 177.951 55.9737C178.422 57.6172 178.377 57.8002 177.443 58.0409C176.894 58.1736 176.428 58.4616 175.891 58.5307C175.332 58.5247 175.511 57.6929 176.427 55.9286C176.816 55.1788 177.087 54.805 177.316 54.8118ZM182.034 56.5752L184.586 58.7717C182.87 62.8567 182.021 67.2161 184.91 72.7677L182.244 75.2718C178.544 67.7911 178.776 61.9474 182.034 56.5752ZM178.634 58.7737C179.124 58.7757 179.467 58.9376 179.548 59.387C179.347 60.5906 178.746 62.67 178.085 62.524C177.061 62.2977 175.338 59.5614 176.843 59.1244C177.509 58.931 178.144 58.7719 178.634 58.7737ZM187.259 59.5418L185.526 65.7197L187.429 72.0799L188.392 71.7939L186.572 65.7099L188.226 59.8122L187.259 59.5418ZM174.82 60.6155C175.464 60.5929 177.184 62.5036 177.165 63.0961C177.116 63.3946 175.294 64.5909 174.571 65.0771C174.221 65.347 174.244 65.2079 174.239 64.8909C174.226 63.9863 174.299 61.6493 174.618 60.7527C174.658 60.661 174.728 60.6187 174.82 60.6155ZM178.297 64.1032C178.651 64.1438 178.615 64.6434 178.593 66.1645C178.576 67.3107 178.644 68.0544 178.342 68.0808C178.106 68.1014 177.423 67.6619 176.755 67.1501C175.062 65.853 175.437 64.964 177.361 64.3364C177.694 64.2277 177.939 64.1431 178.12 64.113C178.187 64.1018 178.246 64.0977 178.297 64.1032ZM174.665 66.8366C174.892 66.893 175.214 67.125 175.66 67.5224C176.946 68.6679 177.168 68.9408 175.989 69.8834C175.644 70.1594 175.184 70.5329 174.967 70.534C174.49 70.536 174.27 69.6291 174.212 68.0651C174.177 67.1368 174.287 66.7426 174.665 66.8366ZM178.446 69.2466C178.975 69.2162 179.255 69.8056 179.682 71.6743C179.957 72.9103 180.143 73.4071 179.803 73.3927C179.146 73.4066 178.521 73.2379 178.002 73.0792C175.515 72.3189 175.434 70.6556 177.818 69.4602C178.065 69.3364 178.269 69.2568 178.446 69.2466ZM175.931 73.4299C176.321 73.432 178.019 73.8688 178.516 74.443C178.448 75.0185 177.911 76.4827 177.437 76.8765C176.816 76.828 175.932 74.862 175.85 73.4574C175.85 73.4391 175.874 73.4296 175.931 73.4299ZM180.084 74.3215C180.193 74.3028 180.3 74.3383 180.398 74.441C180.634 74.9063 180.912 75.3089 181.13 75.791C181.385 76.3662 181.217 76.6454 180.631 77.2175C179.829 77.9606 179.185 78.0192 178.593 77.5623C178.374 77.196 179.319 74.4515 180.084 74.3215ZM178.907 78.6165L179.523 78.7399L179.111 79.5413C179.028 79.2924 178.552 78.5699 178.907 78.6165ZM120.493 101.148C116.004 106.871 108.64 110.611 108.593 110.523L108.345 111.215C108.345 111.215 106.996 111.675 105.809 111.903C105.428 111.975 104.647 112.124 104.129 112.306C103.328 112.588 102.931 112.887 101.695 112.78C99.1217 112.533 96.5395 113.284 96.5936 113.298C104.254 134.544 106.066 153.724 103.074 176.004C100.251 175.982 94.0628 175.875 94.0628 175.875C93.4402 182.135 92.6514 188.398 90.7393 194.309C88.2845 201.897 85.3238 208.952 80.5571 215.402C77.8655 219.453 75.5154 222.335 72.7331 226.131L108.059 226.049C112.734 218.147 121.741 211.548 128.981 208.799C131.445 207.868 131.794 208.006 132.202 209.171C132.931 211.253 132.895 211.163 130.968 211.716C121.508 215.072 115.662 221.047 110.786 228.661C110.268 229.463 110.157 229.802 110.384 229.937C113.55 229.436 115.506 231.489 117.421 232.995C119.437 230.083 122.822 226.241 125.463 225.103C126.185 225.07 127.313 224.413 127.805 223.776C128.427 222.972 128.97 223.076 129.659 223.135C130.48 223.147 131.728 222.966 133.418 222.191C134.376 221.752 134.814 221.653 136.218 221.582C137.469 221.624 138.663 221.133 139.72 220.786C140.947 220.425 140.51 220.074 139.806 218.484C136.226 209.254 133.661 198.499 132.726 189.74C131.676 179.69 131.995 167.502 133.393 158.195C136.82 158.172 138.971 158.349 142.58 158.287C145.042 138.161 151.722 122.181 165.071 107.808L128.982 107.714C124.848 118.803 105.98 127.263 105.359 126.639L104.365 122.591C104.365 122.591 117.938 120.642 127.079 103.321C126.144 103.889 122.741 103.494 120.493 101.148ZM120.584 101.957C122.965 103.716 124.365 103.9 125.834 104.298C121.783 111.888 116.999 115.874 111.967 118.645L108.989 110.811C113.104 109.133 117.371 105.542 120.584 101.957ZM178.379 103.881C158.747 122.811 150.061 139.012 149.376 160.386C148.589 184.968 156.054 201.319 168.628 218.742L165.931 220.279C153.869 204.186 145.248 182.352 146.691 160.811C148.072 135.762 157.515 121.327 174.1 103.981L178.379 103.881ZM154.546 108.266L163.4 108.278L156.93 116.68L149.102 116.443L154.546 108.266ZM129.32 108.337L153.135 108.354L147.819 116.65L133.72 116.721C126.906 125.037 118.498 131.669 107.417 135.474C107.417 135.474 106.049 127.702 105.744 127.137C118.401 122.33 125.808 115.246 129.32 108.337ZM146.063 108.581L142.828 112.295L145.339 115.539L148.878 112.275L146.063 108.581ZM138.494 108.907L135.59 112.698L138.678 115.704L141.656 112.537L138.494 108.907ZM129.948 109.105L129.31 114.015L133.63 116.376L134.138 111.593L129.948 109.105ZM155.164 109.61L152.076 114.377L155.831 114.542L159.421 109.62L155.164 109.61ZM108.053 111.742L110.823 119.337C110.065 119.787 109.273 120.117 108.438 120.295L106.121 112.295L108.053 111.742ZM105.23 112.675L107.52 120.598C106.586 121.084 105.652 121.323 104.718 121.627L102.183 113.208L105.23 112.675ZM71.405 112.967L68.0777 114.93L67.5695 114.587L33.0736 134.543L33.0554 140.604L73.0958 123.71C73.8903 124.56 74.3573 125.508 75.0262 126.555L58.982 133.413C54.1582 146.725 43.2874 157.754 33.1497 165.492C33.199 178.707 33.2614 206.373 33.2614 206.373L57.3869 230.534C60.4807 227.69 63.224 224.764 65.9683 221.589L38.2683 184.923L40.7245 183.317L68.1322 219.793C67.9018 220.071 67.6609 220.33 67.4279 220.604C66.946 219.984 61.3802 212.82 54.9757 204.488C48.3 195.803 41.2272 186.504 39.777 184.279L39.1844 184.663C40.7145 187.011 47.7396 196.23 54.4166 204.917C60.8663 213.308 66.549 220.622 66.9569 221.147C64.0414 224.508 60.9478 227.547 57.8519 230.583L63.3588 230.503C67.2276 226.531 95.2455 200.577 90.5272 161.375C88.5092 144.609 83.8531 130.103 71.405 112.967ZM100.922 113.092C106.076 127.864 110.172 148.896 106.005 175.951C106.005 175.951 104.512 175.978 103.843 175.963C108.129 154.607 104.197 131.933 97.5845 113.46L100.922 113.092ZM71.3324 113.529C95.9052 146.643 100.351 195.628 62.8061 229.433L59.5905 229.286C62.3465 226.724 64.861 224.106 67.1928 221.452L67.3988 221.719L67.956 221.286C67.956 221.286 67.6719 220.918 67.6657 220.91C96.4299 187.695 92.6936 147.955 68.5917 115.187L71.3324 113.529ZM169.99 113.692C170.011 113.719 176.235 121.827 182.85 130.535C189.072 138.724 195.469 147.238 197.439 150.123L196.487 150.632L169.066 114.822L169.99 113.692ZM168.609 115.694L195.555 150.748L188.757 155.685L163.437 122.248L168.609 115.694ZM124.539 115.704L124.38 120.44L128.659 121.102L128.606 116.051L124.539 115.704ZM148.403 117.587L150.96 117.703L147.595 120.011L149.753 122.785L153.208 120.518L151.284 117.714L156.332 117.822L152.855 123.234C152.888 123.182 145.412 123.019 145.412 123.019L148.403 117.587ZM146.957 117.744C146.675 117.703 136.492 137.026 135.319 145.412L108.752 145.542L107.712 136.521C116.495 133.309 125.963 127.86 134.246 117.842C135.662 117.935 146.957 117.744 146.957 117.744ZM119.619 120.622L118.771 125.043L122.593 125.869L123.348 121.473L119.619 120.622ZM162.725 123.322L187.7 156.514L185.102 158.335L160.822 126.052L162.725 123.322ZM144.789 124.098L152.292 124.304L149.082 130.621L141.704 130.527L144.789 124.098ZM113.503 124.484L112.958 129.018L116.891 130.104L117.478 125.331L113.503 124.484ZM147.199 124.51L143.691 126.88L145.945 130.047L149.592 127.676L147.199 124.51ZM108.085 127.218L106.745 131.271L110.466 133.274L111.643 129.5L108.085 127.218ZM72.9804 128.007C74.086 129.377 72.3258 135.596 70.2436 131.626C69.7916 130.819 69.1959 129.645 69.1959 129.645L70.2612 129.247C71.1198 132.199 71.9094 131.102 72.0014 128.497C72.7202 128.174 72.7972 128.123 72.9804 128.007ZM76.6021 129.82L78.8269 133.983C64.7697 168.818 45.8222 179.092 34.3665 186.06L34.3292 181.177C64.9643 165.896 76.437 129.819 76.6021 129.82ZM67.9756 130.113C68.5525 131.307 69.5397 132.547 69.7786 133.84C69.873 134.406 69.5893 134.612 68.9684 134.963C67.282 135.793 65.4065 136.311 64.0499 135.594C63.6459 134.924 65.2937 131.183 65.2937 131.183L67.9756 130.113ZM159.135 130.919C160.183 130.988 161.62 131.606 162.837 132.594C165.114 134.443 166.092 136.919 166.36 141.786C166.533 144.914 166.764 145.551 167.669 144.26C169.296 141.382 173.192 142.79 173.678 145.83C173.951 147.439 172.54 148.602 172.085 147.143C170.878 144.111 167.922 144.839 168.403 147.85C168.72 149.837 170.697 150.933 174.602 152.039C179.297 153.369 180.693 154.984 181.608 158.856C182.013 160.57 181.948 161.467 181.047 162.363C180.602 162.806 180.037 163.257 180.037 163.257C180.037 163.257 179.41 160.65 179.148 159.444C178.683 157.227 175.583 157.35 175.933 159.661C176.137 161.011 176.184 160.983 175.511 160.952C172.31 160.795 172.866 155.72 176.555 156.113C177.324 156.02 177.425 155.703 176.774 155.431C176.127 155.16 173.648 154.52 173.266 154.522C169.253 154.535 163.464 148.331 163.606 142.824C163.698 139.223 162.485 136.632 161.244 136.338C160.257 136.105 158.824 137.007 158.948 138.11C159.12 139.631 157.891 139.155 157.183 138.063C156.102 136.553 157.496 134.375 160.069 134.546C161.164 134.331 159.263 133.632 157.856 133.223C156.579 133.15 157.658 131.569 157.895 131.287C158.075 131.076 158.359 130.957 158.711 130.923C158.843 130.91 158.985 130.909 159.135 130.919ZM141.215 131.499L148.739 131.518L146.33 137.877L138.72 137.804L141.215 131.499ZM63.8929 131.842C58.0784 147.941 45.644 161.73 34.2684 168.782L34.2212 165.196C36.6229 163.429 51.8731 152.317 59.763 133.611L63.8929 131.842ZM143.728 131.949L140.236 134.371L142.924 137.032L146.569 134.712L143.728 131.949ZM72.7097 134.032C73.1359 134.032 73.4807 134.38 73.4807 134.808C73.4807 135.237 73.1359 135.582 72.7097 135.582C72.2836 135.582 71.9406 135.237 71.9406 134.808C71.9406 134.38 72.2836 134.032 72.7097 134.032ZM79.3134 134.706C86.8158 152.353 89.5628 169.531 83.7061 191.699L62.6334 164.197C68.9203 156.155 75.1913 146.917 79.3134 134.706ZM70.1043 135.749C70.5087 135.805 70.5429 136.26 70.4241 137.35C70.138 139.974 68.3945 142.856 67.3243 142.949C66.9675 142.981 66.4919 142.283 66.3512 141.682C66.1803 140.952 64.9226 139.111 64.1303 138.229C63.1343 137.12 63.1863 136.965 64.613 136.85C66.3121 136.714 67.9725 136.378 68.9291 136.029C69.4853 135.826 69.8616 135.715 70.1043 135.749ZM51.3898 136.454L32.8853 143.633L32.9364 158.213C45.5575 149.041 50.4055 137.909 51.3898 136.454ZM68.1581 137.383C67.4269 137.459 66.1077 138.097 66.0118 138.555C66.0329 138.828 66.936 140.411 67.4793 140.483C68.3995 140.338 68.7867 138.239 68.627 137.52C68.5808 137.393 68.4018 137.357 68.1581 137.383ZM49.9184 137.634C44.6186 146.637 39.4275 152.202 34.282 156.316L34.0918 144.27L49.9184 137.634ZM155.005 137.64L176.898 166.603L174.85 168.653L153.592 141.216L155.005 137.64ZM62.5981 138.51C63.9026 138.486 66.0966 143.451 65.4252 144.345C65.0894 144.84 62.4958 144.621 61.1129 144.421C59.7518 144.156 59.5498 144.13 60.0084 143.001C60.6208 141.502 62.0022 138.797 62.3509 138.582C62.4292 138.534 62.5111 138.511 62.5981 138.51ZM138.274 138.729L146.116 138.878L144.221 145.722L136.169 145.675L138.274 138.729ZM141.453 139.056L137.631 141.658L140.646 144.701L144.338 142.15L141.453 139.056ZM153.061 142.46L174.206 170.124C166.094 179.309 160.64 189.825 157.304 198.933C149.474 181.748 147.612 162.098 153.061 142.46ZM67.7265 144.204C68.1527 144.204 68.4974 144.549 68.4974 144.978C68.4974 145.406 68.1527 145.754 67.7265 145.753C67.3002 145.754 66.9555 145.406 66.9555 144.978C66.9554 144.549 67.3002 144.204 67.7265 144.204ZM59.1589 145.197C59.3798 145.173 59.7158 145.232 60.0908 145.393C61.7573 146.109 65.6249 145.349 65.7273 145.718C66.3042 146.545 65.439 148.799 63.8086 150.36C63.0121 151.122 62.2838 151.618 61.8624 151.626C61.4408 151.633 61.3629 151.047 61.0502 150.041C60.5419 148.373 59.5913 146.833 58.9137 145.491C58.8313 145.327 58.9377 145.221 59.1589 145.197ZM57.968 146.831C58.6221 146.664 59.3805 148.071 60.028 150.164C60.6257 152.096 60.3234 152.582 59.1883 152.598C58.6068 152.665 58.2057 152.655 57.7032 152.653C54.8036 152.636 53.8353 152.455 54.6779 151.022C55.803 149.624 56.4679 148.295 57.6952 147.002C57.7836 146.911 57.8746 146.855 57.968 146.831ZM63.0983 146.923C62.6231 146.918 62.0592 147.161 61.8114 147.491C61.5402 148.01 61.6558 149.004 62.4255 149.41C62.8745 149.646 64.116 147.795 63.7713 147.235C63.6374 147.017 63.3834 146.926 63.0983 146.923ZM136.163 146.996L143.909 147.174L142.502 155.296L136.163 146.996ZM203.527 147.705L203.576 151.716C178.897 165.843 168.776 182.53 160.31 203.691L157.96 199.643C166.521 177.722 179.846 161.429 197.896 150.772C197.906 150.783 197.928 150.817 197.935 150.828L198.53 150.446C198.53 150.441 198.514 150.424 198.511 150.419C200.146 149.47 201.815 148.562 203.527 147.705ZM62.347 153.068C62.7732 153.068 63.118 153.413 63.118 153.842C63.1181 154.271 62.7732 154.616 62.347 154.616C61.9208 154.616 61.5779 154.271 61.5779 153.842C61.5779 153.413 61.9208 153.068 62.347 153.068ZM53.7715 153.086C54.0823 153.039 54.8152 153.357 55.8982 153.476C57.3542 153.634 59.6724 153.39 60.2458 153.795C60.4958 154.121 60.2649 154.983 59.7985 155.954C59.1409 157.321 57.9454 158.486 57.0538 159.015C54.7956 160.064 55.321 158.73 54.9565 157.381C54.7442 156.594 54.4217 155.592 54.1757 154.882C53.5714 153.542 53.4607 153.132 53.7715 153.086ZM52.2942 154.487C52.8776 154.431 53.298 155.238 53.6812 156.728C54.4425 159.218 54.616 160.174 52.7121 159.957C52.1828 159.952 51.4336 159.932 50.554 159.749C48.3265 159.287 48.0642 159.088 49.4024 157.514C49.8985 156.93 50.6365 156.05 51.0405 155.556C51.5345 154.864 51.9443 154.52 52.2942 154.487ZM203.584 154.641L203.567 156.808C201.748 157.447 200.59 158.971 203.646 159.46L203.695 161.166C202.297 160.657 201.097 159.904 199.655 159.411C198.72 159.091 198.977 158.338 199.946 157.269C201.026 155.987 202.087 155.356 203.584 154.641ZM57.4991 154.947C57.1518 154.928 56.7761 154.965 56.5319 155.055C55.7807 155.332 56.2928 157.165 57.0342 157.161C57.7261 156.97 58.7207 155.681 58.2936 155.174C58.1659 155.042 57.8466 154.966 57.4991 154.947ZM196.711 157.518C197.137 157.518 197.482 157.865 197.482 158.294C197.482 158.722 197.137 159.068 196.711 159.068C196.285 159.068 195.942 158.722 195.942 158.294C195.942 157.865 196.285 157.518 196.711 157.518ZM131.641 158.096C132.242 158.132 132.908 158.284 132.908 158.284C132.642 158.195 131.723 169.991 131.796 177.402C131.935 191.513 134.315 205.473 139.822 219.458C138.772 220.104 136.183 220.434 136.183 220.434C132.707 209.828 129.627 198.421 129.249 187.598C128.911 175.812 128.742 168.705 130.701 158.345C130.727 158.209 130.878 158.139 131.09 158.108C131.248 158.084 131.441 158.084 131.641 158.096ZM114.494 158.339H122.958V163.958H129.002L128.514 170.364H122.958V175.983H114.494V170.364H107.873L108.387 163.958H114.494V158.339ZM47.6603 159.947C47.8642 159.908 48.1813 160.007 48.6118 160.235C49.448 160.689 51.6618 161.032 52.8593 160.937C54.2219 160.829 54.1823 161.197 53.7833 162.348C53.0765 164.387 50.3405 166.581 49.0493 166.582C48.6189 166.582 48.3429 166.356 48.3508 165.818C48.3619 165.13 47.8696 162.154 47.5955 161.335C47.2971 160.464 47.3209 160.014 47.6603 159.947ZM198.44 160.143C199.182 160.114 200.44 160.63 202.12 161.587C203.584 162.422 203.857 162.932 203.126 163.443C201.888 164.199 198.262 167.124 197.596 166.944C196.713 166.186 196.888 161.391 197.872 160.359C198.001 160.224 198.192 160.153 198.44 160.143ZM56.3495 160.353C56.7757 160.353 57.1205 160.698 57.1205 161.127C57.1205 161.556 56.7757 161.903 56.3495 161.903C55.9233 161.903 55.5785 161.556 55.5785 161.127C55.5784 160.698 55.9233 160.353 56.3495 160.353ZM195.956 160.429C196.434 160.443 196.625 160.696 196.495 161.201C195.954 163.312 196.45 166.643 196.323 167.411C194.285 166.73 192.834 165.797 190.829 165.561C190.226 165.477 190.071 165.365 190.348 164.832C191.259 163.086 192.977 161.256 194.79 160.659C195.277 160.498 195.668 160.421 195.956 160.429ZM46.0417 161.113C46.7042 161.13 47.1615 162.227 47.3444 164.097C47.5305 166.002 47.245 167.086 45.7317 166.841C45.273 166.851 44.7046 166.771 44.0209 166.613C41.3717 166.015 40.7813 165.406 43.04 163.602C43.875 162.935 44.7602 162.107 45.0175 161.789C45.3973 161.321 45.7406 161.106 46.0417 161.113ZM50.5285 162.122C50.1112 162.108 49.7104 162.166 49.5927 162.275C49.2317 162.61 49.3996 164.165 49.7006 164.352C50.4706 164.616 52.0258 162.978 51.5644 162.405C51.3794 162.223 50.9458 162.137 50.5285 162.122ZM194.443 162.924C194.216 162.941 193.899 163.094 193.486 163.386C192.508 164.076 192.549 164.51 193.65 165.173C194.205 165.652 194.837 165.708 194.994 165.432C195.164 165.133 195.121 164.452 194.863 163.282C194.807 163.026 194.67 162.907 194.443 162.924ZM188.653 163.866C189.08 163.866 189.425 164.212 189.425 164.64C189.425 165.069 189.08 165.416 188.653 165.416C188.227 165.416 187.885 165.069 187.885 164.64C187.885 164.212 188.227 163.866 188.653 163.866ZM115.397 164.413V170.011H122.136V164.413H115.397ZM203.564 164.427L203.63 168.271C185.098 179.502 177.087 200.542 177.088 200.548L172.768 202.194C178.808 187.718 187.062 175.089 203.564 164.427ZM62.4431 165.263L83.2745 192.569L81.9678 196.018L60.2929 167.436L62.4431 165.263ZM40.9938 166.443C41.1652 166.444 41.4328 166.576 41.8374 166.805C42.5266 167.198 43.9277 167.839 45.4433 167.971C46.6851 168.079 46.7758 168.594 46.3909 169.417C45.2942 171.242 43.2188 172.105 41.5606 172.678C40.6542 172.991 41.1339 170.232 40.7701 167.658C40.6917 166.801 40.7078 166.441 40.9938 166.443ZM191.453 166.674C193.229 166.819 195.621 167.821 195.608 168.7C195.608 169.081 191.614 172.472 191.18 172.466C190.198 172.452 189.111 167.309 189.994 166.85C190.337 166.672 190.861 166.626 191.453 166.674ZM187.851 167.042C188.362 167.009 188.558 167.387 188.504 168.287C188.494 169.263 188.916 170.96 189.466 172.17C189.893 173.111 190.38 173.741 189.913 173.755C189.632 173.764 188.77 173.391 188.006 173.177C186.857 172.856 185.952 172.718 184.904 172.697C182.801 172.656 182.526 172.675 183.431 170.936C184.083 169.683 185.552 168.027 186.58 167.522C187.125 167.23 187.545 167.062 187.851 167.042ZM39.2377 167.117C39.8398 167.044 40.0427 167.698 40.0912 169.345C40.1785 171.812 39.9146 173.145 38.6022 173.173C38.0056 173.186 36.9829 172.818 36.0498 172.362C33.5758 171.153 33.6427 170.875 36.9954 168.483C38.0604 167.67 38.7695 167.174 39.2377 167.117ZM48.7138 167.977C49.1401 167.977 49.4847 168.322 49.4848 168.751C49.4848 169.18 49.1401 169.527 48.7138 169.527C48.2876 169.527 47.9447 169.18 47.9447 168.751C47.9447 168.322 48.2876 167.977 48.7138 167.977ZM42.5613 168.653C42.3035 168.682 42.1865 168.869 42.2278 169.319C42.397 170.934 42.3321 171.104 43.7738 170.209C44.5791 169.701 44.9073 169.336 43.7386 168.933C43.2186 168.754 42.8192 168.624 42.5613 168.653ZM186.903 169.419C186.611 169.38 186.283 169.551 185.948 169.94C185.009 171.03 185.207 171.527 186.558 171.814C187.122 171.933 187.577 171.894 187.951 171.812C188.572 171.674 187.951 170.866 187.647 170.162C187.452 169.708 187.196 169.458 186.903 169.419ZM56.2885 171.48C56.6662 171.519 56.7791 172.212 56.8223 173.007C57.0534 177.262 63.0072 177.919 60.9226 174.151C60.2376 172.935 60.665 172.462 61.8918 173.081C63.8286 174.06 64.4701 176.379 62.5921 177.449C60.3593 178.347 61.1141 178.541 63.9675 179.51C70.0406 181.597 72.6479 185.424 72.9667 192.716C72.8501 196.04 73.3015 197.226 74.856 197.68C76.2794 198.095 77.8907 196.276 76.8689 195.318C76.3139 194.798 75.8604 194.326 76.1548 194.039C77.0986 193.117 79.4605 194.613 79.437 196.218C79.4219 197.267 79.0271 197.484 77.4653 198.718C77.0321 199.06 77.4 199.704 78.0343 199.713C80.4214 198.94 80.2541 202.116 78.9701 202.219C74.576 202.098 69.9555 197.281 70.4241 193.31C70.7544 190.512 70.2201 188.436 69.4628 189.581C67.7888 192.113 62.8578 190.431 62.9022 187.391C62.9253 185.773 64.0001 185.505 64.6169 186.966C65.5283 189.123 68.0882 189.178 68.4661 186.916C68.8204 184.797 67.0348 183.238 62.2587 181.503C56.662 180.182 53.0757 174.978 55.2822 172.238C55.7398 171.67 56.0623 171.457 56.2885 171.48ZM181.012 171.516C181.438 171.516 181.781 171.867 181.781 172.296C181.781 172.724 181.438 173.07 181.012 173.07C180.586 173.07 180.235 172.724 180.235 172.296C180.235 171.867 180.586 171.516 181.012 171.516ZM34.3763 172.811C35.5694 173.169 36.3078 173.676 37.6682 174.132C38.502 174.413 38.9954 174.614 38.2589 175.497C37.1051 176.881 35.8668 177.746 34.4607 178.603L34.4506 176.822C36.698 175.82 36.4797 174.895 34.4014 174.384L34.3763 172.811ZM185.65 173.559C187.25 173.621 188.489 174.137 189.05 174.717C189.212 174.595 185.351 179.236 184.643 179.675C183.042 178.284 182.825 175.786 182.883 173.891C183.605 173.692 184.297 173.59 184.943 173.561C185.186 173.55 185.421 173.551 185.65 173.559ZM181.455 173.987C181.82 173.967 181.869 174.349 181.967 175.384C182.134 177.394 183.15 179.353 183.592 180.897C182.15 180.784 180.503 180.305 178.974 180.321C177.153 180.36 176.619 180.483 176.629 179.804C176.608 177.976 178.308 175.381 180.384 174.402C180.908 174.155 181.241 173.998 181.459 173.987H181.455ZM41.0212 173.998C41.4475 173.998 41.7923 174.346 41.7922 174.774C41.7923 175.203 41.4475 175.548 41.0212 175.548C40.5951 175.548 40.2502 175.203 40.2502 174.774C40.2502 174.346 40.595 173.998 41.0212 173.998ZM204.874 175.474C196.313 181.214 189.57 189.486 185.903 197.672L204.77 189.701L204.874 175.474ZM51.5409 175.583L76.1665 207.692L74.3773 210.312L49.1788 177.464L51.5409 175.583ZM179.994 176.606C179.802 176.625 179.598 176.748 179.384 176.979C178.618 177.8 178.514 178.452 178.997 178.803C179.707 179.089 180.231 179.128 181.022 179.132C181.742 179.082 181.362 178.647 180.828 177.382C180.596 176.835 180.313 176.575 179.994 176.606ZM203.635 177.19L203.589 189.266L187.453 196.098C190.69 189.043 196.682 182.047 203.635 177.19ZM94.5474 177.711L101.289 187.281L93.3194 187.232L94.5474 177.711ZM48.2881 178.182L73.6748 211.18L68.3288 218.22L41.7 183.104L48.2881 178.182ZM174.881 179.197C175.307 179.197 175.652 179.542 175.652 179.971C175.652 180.399 175.307 180.744 174.881 180.744C174.455 180.744 174.11 180.399 174.11 179.971C174.11 179.542 174.455 179.197 174.881 179.197ZM178.134 181.121C179.761 181.139 182.261 181.512 182.621 181.885C183.115 182.316 181.516 184.168 180.618 185.471C180.155 186.016 179.642 187.493 178.938 186.84C177.682 185.663 176.096 181.532 176.91 181.234C177.146 181.148 177.591 181.115 178.134 181.121ZM175.03 181.846C175.639 181.909 175.986 182.649 176.211 184.034C176.342 184.835 177.179 186.197 177.916 187.271C178.739 188.472 178.4 188.663 176.313 188.18C174.857 187.896 173.059 188.243 171.713 188.31C170.397 188.216 171.639 184.003 173.619 182.467C174.205 182.013 174.664 181.807 175.03 181.846ZM174.355 184.265C174.155 184.295 173.92 184.446 173.617 184.71C172.495 185.69 172.967 186.751 174.502 186.699C175.716 186.658 175.796 186.492 175.22 185.177C174.927 184.506 174.689 184.216 174.355 184.265ZM169.29 187.804C169.716 187.804 170.059 188.155 170.059 188.584C170.059 189.013 169.716 189.36 169.29 189.36C168.863 189.36 168.513 189.013 168.513 188.584C168.513 188.155 168.863 187.804 169.29 187.804ZM128.469 188.372C128.518 191.256 128.889 194.14 129.316 197.023C118.009 201.184 109.252 207.404 102.811 215.626L90.6708 215.694C94.3355 208.84 99.3916 201.024 102.23 188.394L128.469 188.372ZM93.1291 188.426L101.09 188.545L98.9892 194.78L91.3889 194.696L93.1291 188.426ZM175.201 188.819C176.388 188.809 177.885 189.101 177.718 189.65C177.321 190.708 174.698 195.062 174.451 195.058C173.753 195.048 172.169 192.611 171.725 190.863C171.395 189.566 171.744 189.293 174.19 188.927C174.444 188.857 174.805 188.822 175.201 188.819ZM96.3701 189.16L92.6209 191.488L95.6305 194.396L99.1697 191.933L96.3701 189.16ZM170.112 190.661C170.528 190.639 170.83 190.994 171.012 191.849C171.163 192.557 171.905 194.058 172.841 195.266C173.928 196.671 173.917 196.704 172.329 196.804C170.574 196.777 169.134 197.625 167.765 197.791C165.906 197.85 166.824 192.803 169.239 191.08C169.571 190.824 169.862 190.675 170.112 190.661ZM204.468 192.295L163.376 210.018L169.303 218.798L204.509 198.156L204.468 192.295ZM169.853 193.683C169.484 193.642 169.162 193.957 168.874 194.629C168.592 195.284 168.845 195.635 169.603 195.646C170.975 195.666 171.385 195.022 170.569 194.139C170.311 193.86 170.074 193.707 169.853 193.683ZM90.7669 196.104L98.6557 196.162L96.2053 201.946L88.7835 201.812L90.7669 196.104ZM94.5043 196.518L90.3961 198.46L92.7267 201.377L96.4368 199.234L94.5043 196.518ZM172.548 197.711C173.338 197.758 173.458 198.257 172.88 199.504C171.742 201.959 171.293 203.278 170.539 203.284C169.953 203.284 169.241 202.554 168.438 201.134C167.277 199.081 167.314 198.947 169.223 198.356C170.511 198.013 171.497 197.769 172.17 197.717C172.31 197.706 172.435 197.704 172.548 197.707V197.711ZM164.911 197.711C165.337 197.711 165.68 198.064 165.68 198.493C165.68 198.922 165.337 199.267 164.911 199.267C164.485 199.267 164.134 198.922 164.134 198.493C164.134 198.064 164.485 197.711 164.911 197.711ZM129.455 198.166L130.134 201.526L125.977 200.397L125.098 204.524L129.244 205.809L130.138 201.548L131.211 206.869C131.211 206.869 116.978 210.32 107.759 225.088L84.5791 224.978L89.6742 216.901L103.413 216.725C111.635 206.532 120.465 201.559 129.455 198.166ZM166.462 199.955C166.695 199.999 166.917 200.174 167.194 200.476C167.577 200.891 169.309 203.732 169.309 203.732L167.83 204.481C166.034 201.593 166.036 202.989 165.356 205.451L163.631 206.24C163.418 206.283 164.329 201.144 165.668 200.217C165.988 199.996 166.23 199.91 166.462 199.955ZM88.1576 202.948L95.7325 203.062L92.5836 209.462L84.9382 209.414L88.1576 202.948ZM90.5354 203.043L87.3572 205.594C87.2899 205.648 89.682 208.941 89.682 208.941L93.1291 206.052L90.5354 203.043ZM119.764 203.17L118.971 207.835L123.126 208.702L124.184 204.354L119.764 203.17ZM113.929 206.683L113.142 211.997L117.05 212.803L118.18 208.331L113.929 206.683ZM33.2423 206.743C33.2423 206.743 33.376 269.692 33.5581 300.09L47.933 285.259L47.8777 221.452L33.2423 206.743ZM34.4607 208.477L43.0439 217.106V283.527L34.4607 292.176V208.477ZM84.3103 210.551L92.0147 210.615L89.1994 215.819L81.2282 215.693L84.3103 210.551ZM87.1492 210.93L83.3804 212.38L85.819 215.329L89.2406 213.346L87.1492 210.93ZM132.387 211.739L135.17 220.56L132.879 221.058L129.85 212.582L132.387 211.739ZM112.526 212.587L107.863 212.701L108.202 217.355L112.675 217.127L112.526 212.587ZM129.041 212.926L131.66 221.483L129.4 222.371L126.462 214.178L129.041 212.926ZM125.589 214.676L128.417 222.676C121.483 225.923 119.629 229.176 117.172 231.829C115.584 230.119 113.701 229.119 111.222 228.793C115.185 222.54 120.025 217.649 125.589 214.676ZM80.2218 216.937L88.5872 216.968L83.145 225.045L73.9849 225.065L80.2218 216.937ZM103.637 217.106L103.031 221.64L107.237 223.779L107.786 218.475L103.637 217.106ZM98.4183 217.384L95.399 220.819L98.5419 224.31L101.726 220.768L98.4183 217.384ZM92.0401 217.627L88.6971 220.923L91.332 224.393L94.5573 221.021L92.0401 217.627ZM44.6213 218.701L47.1187 221.287V284.401L34.4626 297.77V294.098L44.6231 283.559L44.6213 218.701ZM80.469 218.773L77.2985 223.487L81.9934 223.581L85.0047 218.846L80.469 218.773ZM59.1903 250.727C57.4543 254.646 55.1317 259.638 51.3722 261.225C54.1708 266.817 53.8069 272.407 51.8214 275.472C54.6608 278.13 57.5755 281.313 59.3845 285.892C68.3559 277.926 69.7979 261.565 59.1903 250.727ZM59.4081 251.467C66.4808 258.969 69.5776 274.824 59.4592 284.362L58.8413 282.831C66.8313 272.998 64.3655 260.09 58.5783 253.201L59.4081 251.467ZM57.5855 255.952C57.6749 255.939 57.7603 255.941 57.8385 255.962C58.3603 256.073 58.5899 256.817 58.0779 257.791C57.7582 258.709 57.0119 259.482 56.3887 259.407C55.6294 259.308 55.7616 257.565 56.681 256.536C57.001 256.179 57.3159 255.997 57.5855 255.957V255.952ZM59.7004 256.985C60.0307 256.957 60.4079 257.496 61.0265 258.788C61.6899 260.173 61.9634 261.058 61.4936 261.09C60.392 260.841 59.3588 260.446 58.5919 259.54C58.1403 259.007 58.7354 257.973 59.3786 257.197C59.485 257.068 59.5904 256.994 59.7004 256.985ZM54.8251 259.346C56.3239 259.978 59.6221 272.321 55.1272 277.325L52.7612 275.329C54.0678 271.91 54.9241 267.57 52.3 261.341C52.5912 261.322 54.2914 259.634 54.8251 259.346ZM57.9463 260.645C58.8586 260.659 60.3415 261.231 60.752 261.882C61.2022 262.595 59.8966 264.724 58.9568 265.287C58.6227 265.546 58.3422 265.435 58.2447 265.348C57.7013 264.953 56.9578 261.219 57.2853 260.834C57.4019 260.697 57.6423 260.64 57.9463 260.645ZM49.8182 261.766L48.855 262.054L50.6757 268.136L49.0198 274.036L49.9871 274.306L51.7214 268.128L49.8182 261.766ZM62.0684 263.145C62.5 263.084 62.7467 263.734 62.8492 265.238C62.9095 266.121 62.9747 266.807 62.7099 266.845C62.5041 266.874 61.8609 266.444 61.2522 266.08C60.194 265.449 60.1701 265.171 61.0816 263.994C61.4832 263.475 61.8093 263.182 62.0684 263.145ZM58.6684 266.016C59.4877 266.072 61.1751 266.596 61.4582 267.648C61.9354 268.546 60.0311 269.979 58.9156 269.956C58.709 269.956 58.5291 269.903 58.3977 269.797L58.2231 266.114C58.2231 266.031 58.3953 265.998 58.6684 266.016ZM87.8143 267.476C81.5042 267.439 78.1546 269.089 79.3545 272.068C80.1231 272.844 79.5984 273.137 79.2682 273.603C77.9323 274.974 78.6775 275.973 79.4918 277.492C79.4918 277.492 69.0366 296.276 63.8143 305.635L156.047 305.872L152.415 298.994L153.043 298.565C152.054 296.909 151.213 295.045 150.202 293.402L149.474 293.486C148.282 291.188 147.798 290.337 146.237 287.614H146.942C146.579 286.404 145.648 285.599 145.629 284.73C145.618 283.649 145.897 282.552 145.237 281.82C144.455 280.954 144.36 280.714 144.521 280.206C144.947 278.857 143.733 277.364 142.5 277.498C133.808 278.666 124.971 277.606 116.097 274.984C107.176 272.348 99.3894 268.291 90.6942 267.591C89.6765 267.516 88.7156 267.477 87.8142 267.472L87.8143 267.476ZM86.6528 267.926C98.2568 267.659 106.22 272.638 116.02 275.544C125.373 278.318 132.188 279.188 142.663 278.101C143.954 278.209 143.937 278.976 143.948 279.728C132.713 281.234 122.382 280.11 110.965 275.77C99.9133 271.597 87.7444 267.432 79.7588 271.167C79.7588 271.167 79.7095 269.578 80.622 269.127C80.622 269.127 81.4644 268.442 84.2829 268.052C85.0905 267.985 85.8792 267.944 86.6528 267.926ZM62.5569 268.767C62.9865 268.767 63.0246 269.584 62.8138 271.23C62.6471 272.531 62.4164 273.386 62.0643 273.383C61.7542 273.383 61.2665 272.625 60.6676 271.637C60.2005 270.867 60.2968 270.576 61.3307 269.639C61.9016 269.058 62.299 268.766 62.5569 268.767ZM58.4565 270.899C58.7782 270.878 61.0218 272.784 60.7971 273.769C60.3397 275.017 58.7767 274.751 57.8189 274.71L58.4191 270.93C58.4191 270.911 58.4355 270.9 58.4565 270.899ZM86.6725 271.72C87.0504 271.71 87.4336 271.71 87.8221 271.72C94.6609 271.892 103.047 274.817 109.35 277.157C124.088 282.627 135.558 282.31 143.752 281.685C144.473 281.827 145.047 283.72 143.891 283.733C128.567 283.902 131.044 285.825 107.223 278.797C97.9654 276.065 90.5508 271.807 79.847 275.601L79.7958 273.507C81.6586 272.304 84.0269 271.778 86.6722 271.718L86.6725 271.72ZM61.5053 275.113C61.9016 275.148 61.8273 275.545 61.4912 276.481C61.1255 277.501 60.7981 278.001 60.4437 278.009C60.1681 278.019 59.8781 277.725 59.5393 277.143C58.8878 276.025 58.9736 275.81 60.2376 275.401C60.8601 275.2 61.2676 275.092 61.5053 275.113ZM57.303 276.15C57.303 276.15 58.4865 277.244 59.0863 278.319C59.4906 279.362 58.2752 279.645 57.093 279.745L55.963 278.293L57.303 276.15ZM88.6147 276.634C90.695 276.607 92.9104 276.771 95.1086 277.649L90.0862 279.363L86.5861 276.706C87.2439 276.674 87.9213 276.643 88.6147 276.634ZM83.3569 277.696C87.2906 277.524 90.0498 280.54 89.9371 280.678C95.4971 277.452 100.426 278.133 104.592 283.552C105.675 282.949 113.431 281.528 119.03 287.706C124.679 284.856 129.931 286.051 134.597 289.239C138.046 285.965 141.681 285.448 145.458 287.021L146.577 289.282C146.295 289.388 145.076 287.013 139.165 288.12C137.18 288.492 133.766 291.846 135.678 293.481C136.554 294.726 136.579 295.288 135.806 296.043C135.045 296.787 133.747 296.403 133.308 295.658C133.005 295.119 133.136 294.373 133.624 293.765C135.702 291.174 129.177 286.671 124.482 287.454C120.909 288.049 117.863 290.207 119.177 291.849C120.247 293.186 119.548 294.538 118.263 294.529C116.941 294.519 115.879 293.463 117.025 292.015C119.574 288.793 115.687 285.012 109.742 284.934C105.539 284.879 104.14 285.919 104.367 288.931C104.473 290.341 104.197 290.731 103.221 290.945C101.662 291.287 100.875 289.49 102.167 288.12C104.959 285.16 101.786 280.81 96.5074 280.529C94.5759 280.426 94.1953 280.528 92.0401 281.752C90.3558 282.708 89.7611 284.153 90.5864 285.275C91.6487 286.719 90.2174 288.444 88.5637 287.734C87.3818 287.226 86.7994 286.314 88.1066 284.769C89.8241 282.739 88.9675 281.185 85.7033 279.935C83.6362 279.144 82.194 279.21 80.9987 279.722C80.2453 280.044 79.5891 280.544 78.9367 281.115C79.7476 279.707 80.467 278.399 80.467 278.399C81.4789 277.945 82.4491 277.735 83.3569 277.696ZM102.091 279.263C104.374 279.984 106.594 280.784 108.659 281.779L105.132 282.506L102.091 279.263ZM82.8919 280.5C83.1201 280.49 83.3537 280.49 83.5903 280.51C84.7264 280.582 85.9231 280.958 86.8176 281.838C83.152 281.344 81.8535 286.221 86.3311 287.305C80.428 291.718 91.5023 298.324 91.6341 289.196C96.8415 290.118 96.1654 283.198 92.8622 282.659C94.552 280.786 99.5196 280.734 102.116 284.683C97.6991 282.376 95.309 288.33 99.8976 289.997C94.2343 294.991 105.325 299.595 105.065 291.525C109.245 294.017 112.119 287.666 106.538 286.692C106.857 285.549 114.164 285.54 116.018 288.494C110.837 287.305 110.598 293.648 115.171 294.165C110.581 300.022 122.231 302.985 120.276 294.992C124.777 296.782 126.478 291.139 122.094 289.327C121.851 288.429 129.193 287.664 131.763 290.904C126.12 291.756 128.095 297.256 131.75 296.816C131.75 296.816 131.698 296.972 131.492 297.507C129.766 303.028 139.043 303.491 137.758 297.637C137.552 297.098 137.326 296.379 137.326 296.379C139.884 296.903 141.447 295.855 141.262 293.442C140.625 290.237 138.942 290.476 136.789 291.114C135.886 290.165 141.983 286.992 145.812 289.825C141.123 291.18 143.497 296.706 147.42 295.96C147.583 297.723 149.489 300.195 151.974 298.989L154.605 304.191L65.5191 304.181L73.151 290.933C77.2301 291.677 78.1879 288.227 78.2498 287.742C83.5476 289.107 82.734 282.199 80.0763 281.732C79.9829 281.184 81.294 280.563 82.8917 280.498L82.8919 280.5ZM58.8332 280.527C59.2451 280.488 59.6491 280.546 59.4864 280.756L58.7253 281.706L58.1309 280.88C58.0019 280.701 58.4213 280.566 58.8332 280.527ZM77.4947 283.415C78.0843 284.078 78.2555 285.485 76.4726 285.523L77.4947 283.415ZM117.029 284.448L121.837 285.463L119.316 286.681L117.029 284.448ZM131.902 286.399L136.779 286.428L134.627 288.121L131.902 286.399ZM147.58 291.429C147.622 291.409 147.687 291.461 147.777 291.621C147.969 291.959 148.971 293.471 148.923 293.518C148.458 293.557 147.995 293.073 147.787 292.691C147.54 292.209 147.452 291.489 147.578 291.429H147.58Z" fill="#100F08"/>
<path d="M174.027 246.525C179.559 255.661 185.379 264.54 192.652 272.125C185.379 279.71 179.559 288.589 174.027 297.725C168.495 288.589 162.675 279.71 155.402 272.125C162.675 264.54 168.495 255.661 174.027 246.525Z" fill="#C8102E"/>
<path d="M219.296 257.961C221.601 261.768 224.026 265.468 227.057 268.628C224.026 271.788 221.601 275.488 219.296 279.295C216.991 275.488 214.567 271.788 211.536 268.628C214.567 265.468 216.991 261.768 219.296 257.961Z" fill="#C8102E"/>
<path d="M64.0842 86.062C69.6161 76.9261 75.4361 68.0468 82.7092 60.4619C75.4361 52.8769 69.6161 43.9977 64.0842 34.8618C58.5522 43.9977 52.7322 52.8769 45.4591 60.4619C52.7322 68.0468 58.5522 76.9261 64.0842 86.062Z" fill="#C8102E"/>
<path d="M18.8135 74.6384C21.1185 70.8318 23.5436 67.1321 26.574 63.9717C23.5436 60.8113 21.1185 57.1115 18.8135 53.305C16.5086 57.1115 14.0836 60.8113 11.0531 63.9717C14.0836 67.1321 16.5086 70.8318 18.8135 74.6384Z" fill="#C8102E"/>
<path d="M218.446 286.517H214.905L220.107 299.514L224.081 294.024L224.053 286.517H221.262V282.645H231.098V286.517H227.858V314.468L231.098 314.455V317.839H221.118V314.341H223.872L223.931 300.718L215.219 314.455H218.294V317.839H207.677V314.455H210.479L217.651 303.229L210.628 286.511H207.511L207.495 282.639H218.413L218.446 286.517Z" fill="#C8102E"/>
<path d="M19.6644 46.0831H23.2053L18.0035 33.0857L14.029 38.5761L14.0568 46.0831H16.8477V49.9547H7.01176V46.0831H10.2527V18.1317L7.01176 18.1445V14.7603H16.9917V18.259H14.2378L14.1792 31.8821L22.8905 18.1445H19.8157V14.7603H30.4334V18.1445H27.6316L20.4589 29.3708L27.4821 46.0889H30.5993L30.6155 49.9604H19.6975L19.6644 46.0831Z" fill="#C8102E"/>
</svg>
