<svg width="239" height="333" viewBox="0 0 239 333" fill="none" xmlns="http://www.w3.org/2000/svg">
<g clip-path="url(#clip0_11_4010)">
<path d="M226.721 0H11.3894C5.09921 0 -6.10352e-05 5.09276 -6.10352e-05 11.375V321.225C-6.10352e-05 327.507 5.09921 332.599 11.3894 332.599H226.721C233.012 332.599 238.111 327.507 238.111 321.225V11.375C238.111 5.09276 233.012 0 226.721 0Z" fill="white"/>
<path d="M63.8378 34.8748C53.9967 48.9091 43.4669 56.9853 43.292 67.9344C43.2333 71.4799 45.1502 77.5061 51.1545 78.6595C55.05 79.4044 60.4133 76.2516 60.5253 69.8462C60.5082 68.5709 61.8756 68.604 61.8628 70.3515C61.6793 75.404 60.0799 81.2865 57.3919 86.0749C61.6892 86.0749 65.9865 86.0749 70.2838 86.0749C67.5958 81.2865 65.9964 75.404 65.8129 70.3515C65.8001 68.604 67.1675 68.5709 67.1504 69.8462C67.2624 76.2516 72.6257 79.4044 76.5211 78.6595C82.5254 77.5061 84.4423 71.4799 84.3837 67.9344C84.2087 56.9853 73.6789 48.9091 63.8378 34.8748Z" fill="black"/>
<path d="M18.3651 53.3049C13.7671 59.1526 8.8474 62.5177 8.7657 67.0798C8.73796 68.5571 9.63393 71.068 12.4393 71.5486C14.2593 71.859 16.7652 70.5453 16.8175 67.8764C16.8069 67.345 17.4483 67.3588 17.4423 68.0869C17.357 70.1921 16.6094 72.6432 15.3535 74.6383C17.3613 74.6383 19.369 74.6383 21.3768 74.6383C20.1209 72.6432 19.3735 70.1921 19.2879 68.0869C19.2772 67.3588 19.9207 67.345 19.9127 67.8764C19.965 70.5453 22.4709 71.859 24.291 71.5486C27.0963 71.068 27.9919 68.5571 27.9645 67.0798C27.8823 62.5177 22.963 59.1526 18.3651 53.3049Z" fill="black"/>
<path d="M219.747 279.295C215.149 273.447 210.229 270.082 210.147 265.52C210.12 264.042 211.015 261.532 213.821 261.051C215.641 260.741 218.147 262.054 218.199 264.723C218.188 265.255 218.83 265.241 218.824 264.513C218.739 262.407 217.991 259.956 216.735 257.961C218.743 257.961 220.75 257.961 222.758 257.961C221.502 259.956 220.755 262.407 220.669 264.513C220.659 265.241 221.302 265.255 221.294 264.723C221.347 262.054 223.853 260.741 225.673 261.051C228.478 261.532 229.373 264.042 229.346 265.52C229.264 270.082 224.345 273.447 219.747 279.295Z" fill="black"/>
<path d="M174.273 34.8748C164.432 48.9091 153.902 56.9853 153.727 67.9344C153.669 71.4799 155.586 77.5061 161.59 78.6595C165.485 79.4044 170.849 76.2516 170.961 69.8462C170.944 68.5709 172.311 68.604 172.298 70.3515C172.115 75.404 170.515 81.2865 167.827 86.0749C172.125 86.0749 176.422 86.0749 180.719 86.0749C178.031 81.2865 176.432 75.404 176.248 70.3515C176.235 68.604 177.603 68.5709 177.586 69.8462C177.698 76.2516 183.061 79.4044 186.957 78.6595C192.961 77.5061 194.878 71.4799 194.819 67.9344C194.644 56.9853 184.114 48.9091 174.273 34.8748Z" fill="black"/>
<path d="M63.8378 297.725C53.9967 283.691 43.4669 275.614 43.292 264.665C43.2333 261.12 45.1502 255.093 51.1545 253.94C55.05 253.195 60.4133 256.348 60.5253 262.753C60.5082 264.029 61.8756 263.996 61.8628 262.248C61.6793 257.196 60.0799 251.313 57.3919 246.525C61.6892 246.525 65.9865 246.525 70.2838 246.525C67.5958 251.313 65.9964 257.196 65.8129 262.248C65.8001 263.996 67.1675 264.029 67.1504 262.753C67.2624 256.348 72.6257 253.195 76.5211 253.94C82.5254 255.093 84.4423 261.12 84.3837 264.665C84.2087 275.614 73.6789 283.691 63.8378 297.725Z" fill="black"/>
<path d="M174.273 297.725C164.432 283.691 153.902 275.614 153.727 264.665C153.669 261.12 155.586 255.093 161.59 253.94C165.485 253.195 170.849 256.348 170.961 262.753C170.944 264.029 172.311 263.996 172.298 262.248C172.115 257.196 170.515 251.313 167.827 246.525C172.125 246.525 176.422 246.525 180.719 246.525C178.031 251.313 176.432 257.196 176.248 262.248C176.235 263.996 177.603 264.029 177.586 262.753C177.698 256.348 183.061 253.195 186.957 253.94C192.961 255.093 194.878 261.12 194.819 264.665C194.644 275.614 184.114 283.691 174.273 297.725Z" fill="black"/>
<path d="M18.6106 49.9561V46.8472H21.4165V41.7186H7.38153V38.0998L22.5684 14.7603L25.0493 14.773V38.1H29.3458V41.7188H25.0493L24.9682 46.8474H27.3201V49.9606H18.6105L18.6106 49.9561ZM21.4165 23.305L11.7741 38.1012H21.4165V23.305Z" fill="black"/>
<path d="M219.5 282.644V285.753H216.694V290.881H230.729V294.5L215.542 317.839L213.061 317.827V294.5H208.764V290.881H213.061L213.142 285.752H210.79V282.639H219.5L219.5 282.644ZM216.694 309.295L226.336 294.499H216.694V309.295Z" fill="black"/>
</g>
<defs>
<clipPath id="clip0_11_4010">
<rect width="238.111" height="332.599" fill="white"/>
</clipPath>
</defs>
</svg>
