<svg width="239" height="333" viewBox="0 0 239 333" fill="none" xmlns="http://www.w3.org/2000/svg">
<g clip-path="url(#clip0_11_3988)">
<path d="M226.722 0H11.3895C5.09927 0 6.10352e-05 5.09276 6.10352e-05 11.375V321.225C6.10352e-05 327.507 5.09927 332.599 11.3895 332.599H226.722C233.012 332.599 238.111 327.507 238.111 321.225V11.375C238.111 5.09276 233.012 0 226.722 0Z" fill="white"/>
<path d="M18.3652 53.3049C13.7672 59.1526 8.84753 62.5177 8.76582 67.0798C8.73809 68.5571 9.63393 71.068 12.4393 71.5486C14.2593 71.859 16.7652 70.5453 16.8175 67.8764C16.8069 67.345 17.4484 67.3588 17.4424 68.0869C17.3571 70.1921 16.6094 72.6432 15.3535 74.6383C17.3613 74.6383 19.3691 74.6383 21.3769 74.6383C20.121 72.6432 19.3736 70.1921 19.288 68.0869C19.2773 67.3588 19.9208 67.345 19.9128 67.8764C19.9651 70.5453 22.471 71.859 24.2911 71.5486C27.0964 71.068 27.992 68.5571 27.9646 67.0798C27.8824 62.5177 22.9631 59.1526 18.3652 53.3049Z" fill="black"/>
<path d="M219.747 279.295C215.149 273.447 210.229 270.082 210.147 265.52C210.119 264.042 211.015 261.532 213.821 261.051C215.641 260.741 218.147 262.054 218.199 264.723C218.188 265.255 218.83 265.241 218.824 264.513C218.738 262.407 217.991 259.956 216.735 257.961C218.743 257.961 220.75 257.961 222.758 257.961C221.502 259.956 220.755 262.407 220.669 264.513C220.659 265.241 221.302 265.255 221.294 264.723C221.346 262.054 223.852 260.741 225.672 261.051C228.478 261.532 229.373 264.042 229.346 265.52C229.264 270.082 224.344 273.447 219.747 279.295Z" fill="black"/>
<path d="M119.056 34.8748C109.214 48.9091 98.6846 56.9853 98.5097 67.9344C98.451 71.4799 100.368 77.5061 106.372 78.6595C110.268 79.4044 115.631 76.2516 115.743 69.8462C115.726 68.5709 117.093 68.604 117.081 70.3515C116.897 75.404 115.298 81.2865 112.61 86.0749C116.907 86.0749 121.204 86.0749 125.501 86.0749C122.813 81.2865 121.214 75.404 121.031 70.3515C121.018 68.604 122.385 68.5709 122.368 69.8462C122.48 76.2516 127.843 79.4044 131.739 78.6595C137.743 77.5061 139.66 71.4799 139.601 67.9344C139.427 56.9853 128.897 48.9091 119.056 34.8748Z" fill="black"/>
<path d="M119.056 297.725C109.214 283.691 98.6846 275.614 98.5097 264.665C98.451 261.12 100.368 255.093 106.372 253.94C110.268 253.195 115.631 256.348 115.743 262.753C115.726 264.029 117.093 263.996 117.081 262.248C116.897 257.196 115.298 251.313 112.61 246.525C116.907 246.525 121.204 246.525 125.501 246.525C122.813 251.313 121.214 257.196 121.031 262.248C121.018 263.996 122.385 264.029 122.368 262.753C122.48 256.348 127.843 253.195 131.739 253.94C137.743 255.093 139.66 261.12 139.601 264.665C139.427 275.614 128.897 283.691 119.056 297.725Z" fill="black"/>
<path d="M119.056 140.7C109.214 154.734 98.6846 162.81 98.5097 173.759C98.451 177.305 100.368 183.331 106.372 184.485C110.268 185.229 115.631 182.077 115.743 175.671C115.726 174.396 117.093 174.429 117.081 176.176C116.897 181.229 115.298 187.111 112.61 191.9C116.907 191.9 121.204 191.9 125.501 191.9C122.813 187.111 121.214 181.229 121.031 176.176C121.018 174.429 122.385 174.396 122.368 175.671C122.48 182.077 127.843 185.229 131.739 184.485C137.743 183.331 139.66 177.305 139.601 173.759C139.427 162.81 128.897 154.734 119.056 140.7Z" fill="black"/>
<path d="M6.93951 42.2444L9.64948 40.2512C12.0014 44.081 14.6317 46.6034 18.6554 46.1705C24.6923 45.7556 27.1938 39.4272 25.9307 34.6589C24.7089 30.3809 19.71 28.2969 15.7357 30.5778C14.7977 31.1183 13.8926 31.5597 13.7156 31.5597C13.2988 31.5597 12.3552 29.6825 12.4842 29.1098C15.1515 25.2145 21.6286 18.3902 21.6286 18.3902H11.509V22.9602H7.62526V14.7603H27.4036V17.5425C27.4036 17.5425 22.1044 23.0383 20.3532 26.0483C24.6662 26.206 28.1428 28.9394 29.3908 33.2608C30.119 35.536 29.7926 40.7401 28.8394 42.9832C27.2473 46.7222 22.8985 49.7558 18.9229 49.9304C12.2482 50.3787 8.70731 45.7025 6.93951 42.2444Z" fill="black"/>
<path d="M231.169 290.355L228.459 292.348C226.107 288.519 223.477 285.996 219.453 286.429C213.416 286.844 210.915 293.172 212.178 297.941C213.4 302.219 218.399 304.303 222.373 302.022C223.311 301.481 224.216 301.04 224.393 301.04C224.81 301.04 225.754 302.917 225.625 303.49C222.957 307.385 216.48 314.209 216.48 314.209H226.6V309.639H230.483V317.839H210.705V315.057C210.705 315.057 216.004 309.561 217.756 306.551C213.442 306.393 209.966 303.66 208.718 299.339C207.99 297.064 208.316 291.859 209.269 289.616C210.861 285.877 215.21 282.844 219.186 282.669C225.861 282.221 229.401 286.897 231.169 290.355Z" fill="black"/>
</g>
<defs>
<clipPath id="clip0_11_3988">
<rect width="238.111" height="332.599" fill="white"/>
</clipPath>
</defs>
</svg>
