<svg width="239" height="333" viewBox="0 0 239 333" fill="none" xmlns="http://www.w3.org/2000/svg">
<g clip-path="url(#clip0_11_4034)">
<path d="M11.3895 332.6H226.722C233.012 332.6 238.111 327.507 238.111 321.225L238.111 11.3751C238.111 5.09283 233.012 0.00012207 226.722 0.00012207H11.3895C5.09927 0.00012207 0 5.09283 0 11.3751L0 321.225C0 327.507 5.09927 332.6 11.3895 332.6Z" fill="white"/>
<path d="M174.273 297.725C184.114 283.691 194.644 275.614 194.819 264.665C194.878 261.12 192.961 255.094 186.957 253.94C183.061 253.195 177.698 256.348 177.586 262.753C177.603 264.029 176.236 263.996 176.248 262.248C176.432 257.196 178.031 251.313 180.719 246.525C176.422 246.525 172.125 246.525 167.827 246.525C170.515 251.313 172.115 257.196 172.298 262.248C172.311 263.996 170.944 264.029 170.961 262.753C170.849 256.348 165.485 253.195 161.59 253.94C155.586 255.094 153.669 261.12 153.727 264.665C153.902 275.614 164.432 283.691 174.273 297.725Z" fill="black"/>
<path d="M219.746 279.295C224.344 273.447 229.264 270.082 229.345 265.52C229.373 264.043 228.477 261.532 225.672 261.051C223.852 260.741 221.346 262.054 221.294 264.723C221.304 265.255 220.663 265.241 220.669 264.513C220.754 262.408 221.502 259.956 222.758 257.961C220.75 257.961 218.742 257.961 216.734 257.961C217.99 259.956 218.738 262.408 218.823 264.513C218.834 265.241 218.19 265.255 218.198 264.723C218.146 262.054 215.64 260.741 213.82 261.051C211.015 261.532 210.119 264.043 210.146 265.52C210.229 270.082 215.148 273.447 219.746 279.295Z" fill="black"/>
<path d="M18.3645 53.305C22.9625 59.1527 27.8822 62.5177 27.9639 67.0799C27.9917 68.5572 27.0958 71.0681 24.2905 71.5487C22.4704 71.8591 19.9646 70.5454 19.9122 67.8764C19.9229 67.3451 19.2814 67.3589 19.2873 68.087C19.3727 70.1922 20.1202 72.6433 21.3761 74.6384C19.3683 74.6384 17.3607 74.6384 15.3529 74.6384C16.6088 72.6433 17.3561 70.1922 17.4417 68.087C17.4524 67.3589 16.8089 67.3451 16.8169 67.8764C16.7646 70.5454 14.2587 71.8591 12.4386 71.5487C9.63326 71.0681 8.73775 68.5572 8.76516 67.0799C8.84729 62.5177 13.7667 59.1527 18.3645 53.305Z" fill="black"/>
<path d="M63.838 297.725C73.6791 283.691 84.209 275.614 84.3839 264.665C84.4426 261.12 82.5257 255.094 76.5214 253.94C72.6259 253.195 67.2625 256.348 67.1505 262.753C67.1676 264.029 65.8002 263.996 65.813 262.248C65.9965 257.196 67.5958 251.313 70.2838 246.525C65.9866 246.525 61.6894 246.525 57.3921 246.525C60.0802 251.313 61.6795 257.196 61.863 262.248C61.8758 263.996 60.5084 264.029 60.5255 262.753C60.4135 256.348 55.0501 253.195 51.1546 253.94C45.1503 255.094 43.2334 261.12 43.2921 264.665C43.467 275.614 53.9969 283.691 63.838 297.725Z" fill="black"/>
<path d="M174.273 34.8748C184.114 48.9091 194.644 56.9853 194.819 67.9344C194.878 71.48 192.961 77.5061 186.957 78.6596C183.061 79.4045 177.698 76.2516 177.586 69.8462C177.603 68.5709 176.236 68.6041 176.248 70.3515C176.432 75.404 178.031 81.2865 180.719 86.075C176.422 86.075 172.125 86.075 167.827 86.075C170.515 81.2865 172.115 75.404 172.298 70.3515C172.311 68.6041 170.944 68.5709 170.961 69.8462C170.849 76.2516 165.485 79.4045 161.59 78.6596C155.586 77.5061 153.669 71.48 153.727 67.9344C153.902 56.9853 164.432 48.9091 174.273 34.8748Z" fill="black"/>
<path d="M63.838 34.8748C73.6791 48.9091 84.209 56.9853 84.3839 67.9344C84.4426 71.48 82.5257 77.5061 76.5214 78.6596C72.6259 79.4045 67.2625 76.2516 67.1505 69.8462C67.1676 68.5709 65.8002 68.6041 65.813 70.3515C65.9965 75.404 67.5958 81.2865 70.2838 86.075C65.9866 86.075 61.6894 86.075 57.3921 86.075C60.0802 81.2865 61.6795 75.404 61.863 70.3515C61.8758 68.6041 60.5084 68.5709 60.5255 69.8462C60.4135 76.2516 55.0501 79.4045 51.1546 78.6596C45.1503 77.5061 43.2334 71.48 43.2921 67.9344C43.467 56.9853 53.9969 48.9091 63.838 34.8748Z" fill="black"/>
<path d="M119.056 191.9C128.897 177.866 139.427 169.789 139.602 158.84C139.66 155.295 137.743 149.269 131.739 148.115C127.844 147.37 122.48 150.523 122.368 156.929C122.385 158.204 121.018 158.171 121.031 156.423C121.214 151.371 122.813 145.488 125.502 140.7C121.204 140.7 116.907 140.7 112.61 140.7C115.298 145.488 116.897 151.371 117.081 156.423C117.093 158.171 115.726 158.204 115.743 156.929C115.631 150.523 110.268 147.37 106.372 148.115C100.368 149.269 98.4511 155.295 98.5098 158.84C98.6847 169.789 109.215 177.866 119.056 191.9Z" fill="black"/>
<path d="M230.842 291.752L227.392 291.785C226.734 289.661 225.277 287.501 223.3 286.902C217.713 285.565 214.118 288.746 212.935 292.412C211.499 296.86 212.967 303.105 216.813 305.322C220 307.16 224.736 305.61 226.911 301.678L229.327 303.184L228.03 317.839H212.244V314.375H225.036L225.239 308.27C222.485 310.239 218.253 310.218 215.501 308.837C210.288 306.304 207.866 300.546 208.878 293.76C210.282 287.011 213.379 283.186 220.364 282.64C228.133 282.568 230.875 288.01 230.842 291.752Z" fill="black"/>
<path d="M7.27117 40.8476L10.7217 40.8146C11.3799 42.9392 12.8363 45.0987 14.8139 45.698C20.4009 47.0347 23.9955 43.8541 25.179 40.1874C26.6149 35.7398 25.147 29.4944 21.3006 27.2775C18.1135 25.4394 13.378 26.9899 11.2031 30.9219L8.78667 29.4161L10.0839 14.7604H25.8701V18.2246L13.0777 18.2246L12.8747 24.3302C15.6285 22.3606 19.8607 22.3816 22.613 23.7631C27.8257 26.2956 30.2476 32.0535 29.2356 38.8394C27.8313 45.589 24.7347 49.4136 17.7501 49.9598C9.98112 50.0312 7.23821 44.5898 7.27117 40.8476Z" fill="black"/>
</g>
<defs>
<clipPath id="clip0_11_4034">
<rect width="238.111" height="332.599" fill="white"/>
</clipPath>
</defs>
</svg>
