<svg width="239" height="333" viewBox="0 0 239 333" fill="none" xmlns="http://www.w3.org/2000/svg">
<g clip-path="url(#clip0_11_3947)">
<path d="M226.722 0H11.3896C5.09936 0 0.00012207 5.09276 0.00012207 11.375V321.225C0.00012207 327.507 5.09936 332.599 11.3896 332.599H226.722C233.012 332.599 238.111 327.507 238.111 321.225V11.375C238.111 5.09276 233.012 0 226.722 0Z" fill="white"/>
<path d="M18.3653 53.3049C13.7673 59.1526 8.84762 62.5177 8.76591 67.0798C8.73818 68.5571 9.63408 71.068 12.4394 71.5486C14.2595 71.859 16.7653 70.5453 16.8177 67.8764C16.807 67.345 17.4485 67.3588 17.4425 68.0869C17.3572 70.1921 16.6096 72.6432 15.3537 74.6383C17.3615 74.6383 19.3692 74.6383 21.377 74.6383C20.1211 72.6432 19.3737 70.1921 19.2881 68.0869C19.2774 67.3588 19.921 67.345 19.913 67.8764C19.9652 70.5453 22.4711 71.859 24.2912 71.5486C27.0965 71.068 27.9921 68.5571 27.9647 67.0798C27.8826 62.5177 22.9632 59.1526 18.3653 53.3049Z" fill="black"/>
<path d="M219.747 279.295C215.149 273.447 210.229 270.082 210.147 265.52C210.12 264.042 211.015 261.532 213.821 261.051C215.641 260.741 218.147 262.054 218.199 264.723C218.188 265.255 218.83 265.241 218.824 264.513C218.739 262.407 217.991 259.956 216.735 257.961C218.743 257.961 220.75 257.961 222.758 257.961C221.502 259.956 220.755 262.407 220.669 264.513C220.659 265.241 221.302 265.255 221.294 264.723C221.347 262.054 223.852 260.741 225.673 261.051C228.478 261.532 229.373 264.042 229.346 265.52C229.264 270.082 224.345 273.447 219.747 279.295Z" fill="black"/>
<path d="M119.056 140.7C109.215 154.734 98.6847 162.81 98.5097 173.759C98.4511 177.305 100.368 183.331 106.372 184.485C110.268 185.229 115.631 182.077 115.743 175.671C115.726 174.396 117.093 174.429 117.081 176.176C116.897 181.229 115.298 187.111 112.61 191.9C116.907 191.9 121.204 191.9 125.502 191.9C122.813 187.111 121.214 181.229 121.031 176.176C121.018 174.429 122.385 174.396 122.368 175.671C122.48 182.077 127.843 185.229 131.739 184.485C137.743 183.331 139.66 177.305 139.601 173.759C139.427 162.81 128.897 154.734 119.056 140.7Z" fill="black"/>
<path d="M7.59885 49.9604V46.9505H10.4707L16.5884 14.7603H20.0705L26.8096 46.9505H29.1286V49.9604H21.2265V46.9505H23.3591L22.5075 42.0175H14.5355L13.9197 46.9505H16.0522V49.9604H7.59885ZM21.8273 38.5035L18.3617 21.2742L15.1156 38.5035H21.8273Z" fill="black"/>
<path d="M208.98 282.639V285.649H211.852L217.97 317.839H221.452L228.191 285.649H230.51V282.639H222.608V285.649H224.741L223.889 290.582H215.917L215.301 285.649H217.434V282.639H208.98ZM223.209 294.096L219.743 311.325L216.497 294.096H223.209Z" fill="black"/>
</g>
<defs>
<clipPath id="clip0_11_3947">
<rect width="238.111" height="332.599" fill="white"/>
</clipPath>
</defs>
</svg>
