<svg width="239" height="333" viewBox="0 0 239 333" fill="none" xmlns="http://www.w3.org/2000/svg">
<g clip-path="url(#clip0_11_4059)">
<path d="M226.722 0H11.3895C5.09927 0 0 5.09276 0 11.375V321.225C0 327.507 5.09927 332.599 11.3895 332.599H226.722C233.012 332.599 238.111 327.507 238.111 321.225V11.375C238.111 5.09276 233.012 0 226.722 0Z" fill="white"/>
<path d="M63.8376 34.8748C53.9965 48.9091 43.4668 56.9853 43.2918 67.9344C43.2332 71.4799 45.1501 77.5061 51.1544 78.6595C55.0498 79.4044 60.4131 76.2516 60.5251 69.8462C60.508 68.5709 61.8754 68.604 61.8626 70.3515C61.6791 75.404 60.0797 81.2865 57.3917 86.0749C61.689 86.0749 65.9863 86.0749 70.2836 86.0749C67.5956 81.2865 65.9962 75.404 65.8127 70.3515C65.7999 68.604 67.1673 68.5709 67.1502 69.8462C67.2622 76.2516 72.6255 79.4044 76.521 78.6595C82.5252 77.5061 84.4422 71.4799 84.3835 67.9344C84.2086 56.9853 73.6787 48.9091 63.8376 34.8748Z" fill="black"/>
<path d="M18.3649 53.3049C13.7669 59.1526 8.84722 62.5177 8.76551 67.0798C8.73778 68.5571 9.63375 71.068 12.4391 71.5486C14.2592 71.859 16.765 70.5453 16.8174 67.8764C16.8067 67.345 17.4481 67.3588 17.4421 68.0869C17.3568 70.1921 16.6092 72.6432 15.3533 74.6383C17.3611 74.6383 19.3688 74.6383 21.3766 74.6383C20.1207 72.6432 19.3733 70.1921 19.2877 68.0869C19.277 67.3588 19.9206 67.345 19.9126 67.8764C19.9648 70.5453 22.4708 71.859 24.2908 71.5486C27.0962 71.068 27.9917 68.5571 27.9643 67.0798C27.8821 62.5177 22.9628 59.1526 18.3649 53.3049Z" fill="black"/>
<path d="M219.747 279.295C215.149 273.447 210.229 270.082 210.147 265.52C210.12 264.042 211.015 261.532 213.821 261.051C215.641 260.741 218.147 262.054 218.199 264.723C218.189 265.255 218.83 265.241 218.824 264.513C218.739 262.407 217.991 259.956 216.735 257.961C218.743 257.961 220.751 257.961 222.758 257.961C221.502 259.956 220.755 262.407 220.67 264.513C220.659 265.241 221.302 265.255 221.294 264.723C221.347 262.054 223.853 260.741 225.673 261.051C228.478 261.532 229.374 264.042 229.346 265.52C229.264 270.082 224.344 273.447 219.747 279.295Z" fill="black"/>
<path d="M174.273 34.8748C164.432 48.9091 153.902 56.9853 153.727 67.9344C153.668 71.4799 155.585 77.5061 161.59 78.6595C165.485 79.4044 170.849 76.2516 170.961 69.8462C170.943 68.5709 172.311 68.604 172.298 70.3515C172.115 75.404 170.515 81.2865 167.827 86.0749C172.124 86.0749 176.422 86.0749 180.719 86.0749C178.031 81.2865 176.431 75.404 176.248 70.3515C176.235 68.604 177.603 68.5709 177.586 69.8462C177.698 76.2516 183.061 79.4044 186.956 78.6595C192.961 77.5061 194.878 71.4799 194.819 67.9344C194.644 56.9853 184.114 48.9091 174.273 34.8748Z" fill="black"/>
<path d="M63.8376 140.7C53.9965 154.734 43.4668 162.81 43.2918 173.759C43.2332 177.305 45.1501 183.331 51.1544 184.485C55.0498 185.229 60.4131 182.077 60.5251 175.671C60.508 174.396 61.8754 174.429 61.8626 176.176C61.6791 181.229 60.0797 187.111 57.3917 191.9C61.689 191.9 65.9863 191.9 70.2836 191.9C67.5956 187.111 65.9962 181.229 65.8127 176.176C65.7999 174.429 67.1673 174.396 67.1502 175.671C67.2622 182.077 72.6255 185.229 76.521 184.485C82.5252 183.331 84.4422 177.305 84.3835 173.759C84.2086 162.81 73.6787 154.734 63.8376 140.7Z" fill="black"/>
<path d="M63.8376 297.725C53.9965 283.691 43.4668 275.614 43.2918 264.665C43.2332 261.12 45.1501 255.093 51.1544 253.94C55.0498 253.195 60.4131 256.348 60.5251 262.753C60.508 264.029 61.8754 263.996 61.8626 262.248C61.6791 257.196 60.0797 251.313 57.3917 246.525C61.689 246.525 65.9863 246.525 70.2836 246.525C67.5956 251.313 65.9962 257.196 65.8127 262.248C65.7999 263.996 67.1673 264.029 67.1502 262.753C67.2622 256.348 72.6255 253.195 76.521 253.94C82.5252 255.093 84.4422 261.12 84.3835 264.665C84.2086 275.614 73.6787 283.691 63.8376 297.725Z" fill="black"/>
<path d="M174.273 297.725C164.432 283.691 153.902 275.614 153.727 264.665C153.668 261.12 155.585 255.093 161.59 253.94C165.485 253.195 170.849 256.348 170.961 262.753C170.943 264.029 172.311 263.996 172.298 262.248C172.115 257.196 170.515 251.313 167.827 246.525C172.124 246.525 176.422 246.525 180.719 246.525C178.031 251.313 176.431 257.196 176.248 262.248C176.235 263.996 177.603 264.029 177.586 262.753C177.698 256.348 183.061 253.195 186.956 253.94C192.961 255.093 194.878 261.12 194.819 264.665C194.644 275.614 184.114 283.691 174.273 297.725Z" fill="black"/>
<path d="M174.273 140.7C164.432 154.734 153.902 162.81 153.727 173.759C153.668 177.305 155.585 183.331 161.59 184.485C165.485 185.229 170.849 182.077 170.961 175.671C170.943 174.396 172.311 174.429 172.298 176.176C172.115 181.229 170.515 187.111 167.827 191.9C172.124 191.9 176.422 191.9 180.719 191.9C178.031 187.111 176.431 181.229 176.248 176.176C176.235 174.429 177.603 174.396 177.586 175.671C177.698 182.077 183.061 185.229 186.956 184.485C192.961 183.331 194.878 177.305 194.819 173.759C194.644 162.81 184.114 154.734 174.273 140.7Z" fill="black"/>
<path d="M8.02636 39.1307C7.59297 36.1681 7.604 28.5095 7.95813 26.2438C9.05115 19.3031 11.702 16.1268 16.1425 15.0903C20.4556 14.0805 26.5145 15.2049 27.8433 21.0058L24.238 21.0763C22.2879 17.154 17.3536 18.2016 14.5738 19.9084C12.3563 21.2676 11.3537 26.9428 11.7829 27.2919C11.7829 27.2919 15.9767 24.1855 19.2832 24.4146C26.3486 25.1507 29.2628 31.2784 29.0159 37.064C28.791 44.0243 26.5845 49.5905 19.0953 49.9607C11.9749 49.6855 8.71201 45.8033 8.02636 39.1307ZM25.5871 37.2925C25.6255 32.4638 23.4341 28.8447 19.2829 28.448C15.1358 28.0485 10.9516 32.0964 11.241 37.0187C11.5303 41.9621 13.4433 46.1203 18.4737 46.098C23.8838 46.0766 25.5611 40.7301 25.5871 37.2925Z" fill="black"/>
<path d="M230.082 293.469C230.516 296.431 230.505 304.09 230.15 306.356C229.057 313.297 226.407 316.473 221.966 317.509C217.653 318.519 211.594 317.395 210.265 311.594L213.87 311.523C215.82 315.446 220.755 314.398 223.535 312.691C225.752 311.332 226.755 305.657 226.326 305.308C226.326 305.308 222.132 308.414 218.825 308.185C211.76 307.449 208.846 301.321 209.093 295.536C209.317 288.575 211.524 283.009 219.013 282.639C226.133 282.914 229.397 286.796 230.082 293.469ZM212.521 295.307C212.483 300.136 214.674 303.755 218.826 304.152C222.973 304.551 227.157 300.503 226.868 295.581C226.578 290.638 224.665 286.479 219.635 286.502C214.225 286.523 212.547 291.87 212.521 295.307Z" fill="black"/>
</g>
<defs>
<clipPath id="clip0_11_4059">
<rect width="238.111" height="332.599" fill="white"/>
</clipPath>
</defs>
</svg>
