<svg width="239" height="333" viewBox="0 0 239 333" fill="none" xmlns="http://www.w3.org/2000/svg">
<g clip-path="url(#clip0_11_3967)">
<path d="M226.722 0H11.3894C5.09921 0 0 5.09276 0 11.375V321.225C0 327.507 5.09921 332.599 11.3894 332.599H226.722C233.012 332.599 238.111 327.507 238.111 321.225V11.375C238.111 5.09276 233.012 0 226.722 0Z" fill="white"/>
<path d="M18.3652 53.3049C13.7672 59.1526 8.84746 62.5177 8.76576 67.0798C8.73802 68.5571 9.63393 71.068 12.4393 71.5486C14.2593 71.859 16.7652 70.5453 16.8175 67.8764C16.8069 67.345 17.4484 67.3588 17.4424 68.0869C17.3571 70.1921 16.6094 72.6432 15.3535 74.6383C17.3613 74.6383 19.369 74.6383 21.3768 74.6383C20.1209 72.6432 19.3736 70.1921 19.2879 68.0869C19.2773 67.3588 19.9208 67.345 19.9128 67.8764C19.9651 70.5453 22.471 71.859 24.2911 71.5486C27.0964 71.068 27.992 68.5571 27.9646 67.0798C27.8824 62.5177 22.9631 59.1526 18.3652 53.3049Z" fill="black"/>
<path d="M219.747 279.295C215.149 273.447 210.229 270.082 210.147 265.52C210.119 264.042 211.015 261.532 213.821 261.051C215.641 260.741 218.147 262.054 218.199 264.723C218.188 265.255 218.83 265.241 218.824 264.513C218.738 262.407 217.991 259.956 216.735 257.961C218.743 257.961 220.75 257.961 222.758 257.961C221.502 259.956 220.755 262.407 220.669 264.513C220.659 265.241 221.302 265.255 221.294 264.723C221.346 262.054 223.852 260.741 225.672 261.051C228.478 261.532 229.373 264.042 229.346 265.52C229.264 270.082 224.344 273.447 219.747 279.295Z" fill="black"/>
<path d="M119.055 34.8748C109.214 48.9091 98.6845 56.9853 98.5096 67.9344C98.4509 71.4799 100.368 77.5061 106.372 78.6595C110.268 79.4044 115.631 76.2516 115.743 69.8462C115.726 68.5709 117.093 68.604 117.08 70.3515C116.897 75.404 115.298 81.2865 112.61 86.0749C116.907 86.0749 121.204 86.0749 125.501 86.0749C122.813 81.2865 121.214 75.404 121.031 70.3515C121.018 68.604 122.385 68.5709 122.368 69.8462C122.48 76.2516 127.843 79.4044 131.739 78.6595C137.743 77.5061 139.66 71.4799 139.601 67.9344C139.426 56.9853 128.897 48.9091 119.055 34.8748Z" fill="black"/>
<path d="M119.055 297.725C109.214 283.691 98.6845 275.614 98.5096 264.665C98.4509 261.12 100.368 255.093 106.372 253.94C110.268 253.195 115.631 256.348 115.743 262.753C115.726 264.029 117.093 263.996 117.08 262.248C116.897 257.196 115.298 251.313 112.61 246.525C116.907 246.525 121.204 246.525 125.501 246.525C122.813 251.313 121.214 257.196 121.031 262.248C121.018 263.996 122.385 264.029 122.368 262.753C122.48 256.348 127.843 253.195 131.739 253.94C137.743 255.093 139.66 261.12 139.601 264.665C139.426 275.614 128.897 283.691 119.055 297.725Z" fill="black"/>
<path d="M8.34552 49.8849L8.51707 47.7143C9.05873 41.0067 10.5 38.7439 18.6749 31.7416C22.6438 28.3474 23.9453 26.6726 24.1277 24.7297C24.6475 20.1467 20.5922 18.7164 17.9509 18.6954C14.5278 18.6645 10.655 20.7474 12.5036 25.5887L8.66232 26.7382C7.89026 22.2224 8.6847 17.9859 12.2787 16.1058C17.0786 13.6543 23.2334 14.6153 26.3411 18.4775C28.4297 21.0686 28.907 24.6543 27.7865 27.4605C24.513 34.6289 13.4088 37.7829 12.4926 46.0772H24.7653V41.4593H28.3817V49.9604L8.34552 49.8849Z" fill="black"/>
<path d="M229.763 282.715L229.592 284.885C229.05 291.593 227.609 293.856 219.434 300.858C215.465 304.252 214.163 305.927 213.981 307.87C213.461 312.453 217.517 313.883 220.158 313.904C223.581 313.935 227.454 311.852 225.605 307.011L229.446 305.861C230.218 310.377 229.424 314.614 225.83 316.494C221.03 318.945 214.875 317.984 211.768 314.122C209.679 311.531 209.202 307.945 210.322 305.139C213.596 297.971 224.7 294.817 225.616 286.522H213.343V291.14H209.727V282.639L229.763 282.715Z" fill="black"/>
</g>
<defs>
<clipPath id="clip0_11_3967">
<rect width="238.111" height="332.599" fill="white"/>
</clipPath>
</defs>
</svg>
