<svg width="239" height="333" viewBox="0 0 239 333" fill="none" xmlns="http://www.w3.org/2000/svg">
<g clip-path="url(#clip0_11_4137)">
<path d="M240.722 0H25.3894C19.0991 0 14 5.09276 14 11.375V321.225C14 327.507 19.0991 332.599 25.3894 332.599H240.722C247.012 332.599 252.111 327.507 252.111 321.225V11.375C252.111 5.09276 247.012 0 240.722 0Z" fill="white"/>
<path d="M77.838 34.8748C67.9969 48.9091 57.467 56.9853 57.2921 67.9344C57.2334 71.4799 59.1503 77.5061 65.1546 78.6595C69.0501 79.4044 74.4135 76.2516 74.5255 69.8462C74.5084 68.5709 75.8758 68.604 75.863 70.3515C75.6795 75.404 74.0801 81.2865 71.3921 86.0749C75.6894 86.0749 79.9865 86.0749 84.2838 86.0749C81.5958 81.2865 79.9964 75.404 79.813 70.3515C79.8002 68.604 81.1675 68.5709 81.1505 69.8462C81.2625 76.2516 86.6259 79.4044 90.5213 78.6595C96.5256 77.5061 98.4425 71.4799 98.3839 67.9344C98.2089 56.9853 87.6791 48.9091 77.838 34.8748Z" fill="black"/>
<path d="M32.3653 53.3049C27.7673 59.1526 22.8477 62.5177 22.766 67.0798C22.7383 68.5571 23.6341 71.068 26.4395 71.5486C28.2595 71.859 30.7652 70.5453 30.8176 67.8764C30.8069 67.345 31.4486 67.3588 31.4426 68.0869C31.3573 70.1921 30.6097 72.6432 29.3538 74.6383C31.3616 74.6383 33.3692 74.6383 35.377 74.6383C34.1211 72.6432 33.3738 70.1921 33.2882 68.0869C33.2775 67.3588 33.9209 67.345 33.9129 67.8764C33.9652 70.5453 36.4713 71.859 38.2913 71.5486C41.0967 71.068 41.9922 68.5571 41.9648 67.0798C41.8826 62.5177 36.9631 59.1526 32.3653 53.3049Z" fill="black"/>
<path d="M77.838 227.175C67.9969 213.14 57.467 205.064 57.2921 194.115C57.2334 190.57 59.1503 184.543 65.1546 183.39C69.0501 182.645 74.4135 185.798 74.5255 192.203C74.5084 193.479 75.8758 193.445 75.863 191.698C75.6795 186.646 74.0801 180.763 71.3921 175.975C75.6894 175.975 79.9865 175.975 84.2838 175.975C81.5958 180.763 79.9964 186.646 79.813 191.698C79.8002 193.445 81.1675 193.479 81.1505 192.203C81.2625 185.798 86.6259 182.645 90.5213 183.39C96.5256 184.543 98.4425 190.57 98.3839 194.115C98.2089 205.064 87.6791 213.14 77.838 227.175Z" fill="black"/>
<path d="M233.747 279.295C229.149 273.447 224.229 270.082 224.147 265.52C224.12 264.042 225.015 261.532 227.821 261.051C229.641 260.741 232.147 262.054 232.199 264.723C232.189 265.255 232.83 265.241 232.824 264.513C232.739 262.407 231.991 259.956 230.735 257.961C232.743 257.961 234.751 257.961 236.758 257.961C235.502 259.956 234.755 262.407 234.67 264.513C234.659 265.241 235.302 265.255 235.294 264.723C235.347 262.054 237.853 260.741 239.673 261.051C242.478 261.532 243.374 264.042 243.346 265.52C243.264 270.082 238.344 273.447 233.747 279.295Z" fill="black"/>
<path d="M188.273 34.8748C178.432 48.9091 167.902 56.9853 167.727 67.9344C167.669 71.4799 169.586 77.5061 175.59 78.6595C179.485 79.4044 184.849 76.2516 184.961 69.8462C184.944 68.5709 186.311 68.604 186.298 70.3515C186.115 75.404 184.515 81.2865 181.827 86.0749C186.125 86.0749 190.422 86.0749 194.719 86.0749C192.031 81.2865 190.432 75.404 190.248 70.3515C190.235 68.604 191.603 68.5709 191.586 69.8462C191.698 76.2516 197.061 79.4044 200.957 78.6595C206.961 77.5061 208.878 71.4799 208.819 67.9344C208.644 56.9853 198.114 48.9091 188.273 34.8748Z" fill="black"/>
<path d="M77.838 105.425C67.9969 119.459 57.467 127.535 57.2921 138.484C57.2334 142.03 59.1503 148.056 65.1546 149.209C69.0501 149.954 74.4135 146.801 74.5255 140.396C74.5084 139.121 75.8758 139.154 75.863 140.901C75.6795 145.954 74.0801 151.836 71.3921 156.625C75.6894 156.625 79.9865 156.625 84.2838 156.625C81.5958 151.836 79.9964 145.954 79.813 140.901C79.8002 139.154 81.1675 139.121 81.1505 140.396C81.2625 146.801 86.6259 149.954 90.5213 149.209C96.5256 148.056 98.4425 142.03 98.3839 138.484C98.2089 127.535 87.6791 119.459 77.838 105.425Z" fill="black"/>
<path d="M188.273 105.425C178.432 119.459 167.902 127.535 167.727 138.484C167.669 142.03 169.586 148.056 175.59 149.209C179.485 149.954 184.849 146.801 184.961 140.396C184.944 139.121 186.311 139.154 186.298 140.901C186.115 145.954 184.515 151.836 181.827 156.625C186.125 156.625 190.422 156.625 194.719 156.625C192.031 151.836 190.432 145.954 190.248 140.901C190.235 139.154 191.603 139.121 191.586 140.396C191.698 146.801 197.061 149.954 200.957 149.209C206.961 148.056 208.878 142.03 208.819 138.484C208.644 127.535 198.114 119.459 188.273 105.425Z" fill="black"/>
<path d="M77.838 297.725C67.9969 283.691 57.467 275.614 57.2921 264.665C57.2334 261.12 59.1503 255.093 65.1546 253.94C69.0501 253.195 74.4135 256.348 74.5255 262.753C74.5084 264.029 75.8758 263.996 75.863 262.248C75.6795 257.196 74.0801 251.313 71.3921 246.525C75.6894 246.525 79.9865 246.525 84.2838 246.525C81.5958 251.313 79.9964 257.196 79.813 262.248C79.8002 263.996 81.1675 264.029 81.1505 262.753C81.2625 256.348 86.6259 253.195 90.5213 253.94C96.5256 255.093 98.4425 261.12 98.3839 264.665C98.2089 275.614 87.6791 283.691 77.838 297.725Z" fill="black"/>
<path d="M188.273 297.725C178.432 283.691 167.902 275.614 167.727 264.665C167.669 261.12 169.586 255.093 175.59 253.94C179.485 253.195 184.849 256.348 184.961 262.753C184.944 264.029 186.311 263.996 186.298 262.248C186.115 257.196 184.515 251.313 181.827 246.525C186.125 246.525 190.422 246.525 194.719 246.525C192.031 251.313 190.432 257.196 190.248 262.248C190.235 263.996 191.603 264.029 191.586 262.753C191.698 256.348 197.061 253.195 200.957 253.94C206.961 255.093 208.878 261.12 208.819 264.665C208.644 275.614 198.114 283.691 188.273 297.725Z" fill="black"/>
<path d="M188.273 227.175C178.432 213.14 167.902 205.064 167.727 194.115C167.669 190.57 169.586 184.543 175.59 183.39C179.485 182.645 184.849 185.798 184.961 192.203C184.944 193.479 186.311 193.445 186.298 191.698C186.115 186.646 184.515 180.763 181.827 175.975C186.125 175.975 190.422 175.975 194.719 175.975C192.031 180.763 190.432 186.646 190.248 191.698C190.235 193.445 191.603 193.479 191.586 192.203C191.698 185.798 197.061 182.645 200.957 183.39C206.961 184.543 208.878 190.57 208.819 194.115C208.644 205.064 198.114 213.14 188.273 227.175Z" fill="black"/>
<path d="M133.056 140.7C123.215 154.734 112.685 162.81 112.51 173.759C112.451 177.305 114.368 183.331 120.372 184.485C124.268 185.229 129.631 182.077 129.743 175.671C129.726 174.396 131.094 174.429 131.081 176.176C130.897 181.229 129.298 187.111 126.61 191.9C130.907 191.9 135.204 191.9 139.502 191.9C136.814 187.111 135.214 181.229 135.031 176.176C135.018 174.429 136.385 174.396 136.368 175.671C136.48 182.077 141.844 185.229 145.739 184.485C151.743 183.331 153.66 177.305 153.602 173.759C153.427 162.81 142.897 154.734 133.056 140.7Z" fill="black"/>
<path d="M22.5308 43.1748L25.7509 42.1539C26.9673 45.3998 29.4207 46.3607 32.0181 46.1526C36.6783 45.7811 38.2264 40.5714 38.5749 35.9665C36.7591 37.8925 34.0315 38.8701 31.7069 38.7711C24.2766 38.373 22.3744 32.4259 22.3058 26.2008C22.1028 20.9519 24.2723 17.1501 27.9944 15.4042C29.9664 14.5201 34.481 14.5201 36.4642 15.5677C41.0173 17.9699 42.7055 22.1196 42.3996 32.0278C42.3996 40.1788 40.6688 49.6723 31.9316 49.879C26.8863 50.5774 23.0506 46.6498 22.5308 43.1748ZM35.1793 34.2429C36.6947 33.2833 37.5478 32.3825 38.228 31.0347C38.7848 29.9271 38.9781 29.3488 38.8176 27.0583C38.4047 21.1488 35.3081 17.794 30.8139 18.4588C28.3069 18.836 26.9357 20.2382 26.1485 22.8459C24.6962 27.6687 26.5394 33.3099 29.99 34.6089C31.5423 35.1982 33.9424 35.0293 35.1793 34.2429Z" fill="black"/>
<path d="M243.578 289.425L240.358 290.446C239.141 287.2 236.688 286.239 234.09 286.447C229.43 286.818 227.882 292.028 227.534 296.633C229.349 294.707 232.077 293.729 234.402 293.829C241.832 294.227 243.734 300.174 243.803 306.399C244.006 311.648 241.836 315.45 238.114 317.195C236.142 318.08 231.627 318.079 229.644 317.032C225.091 314.63 223.403 310.48 223.709 300.572C223.709 292.421 225.44 282.927 234.177 282.721C239.222 282.022 243.058 285.95 243.578 289.425ZM230.929 298.357C229.414 299.316 228.561 300.217 227.881 301.565C227.324 302.673 227.13 303.251 227.291 305.541C227.704 311.451 230.8 314.806 235.295 314.141C237.802 313.764 239.173 312.361 239.96 309.754C241.412 304.931 239.569 299.29 236.119 297.991C234.566 297.401 232.166 297.57 230.929 298.357Z" fill="black"/>
</g>
<defs>
<clipPath id="clip0_11_4137">
<rect width="238.111" height="332.599" fill="white"/>
</clipPath>
</defs>
</svg>
