<svg width="239" height="333" viewBox="0 0 239 333" fill="none" xmlns="http://www.w3.org/2000/svg">
<g clip-path="url(#clip0_11_4110)">
<path d="M226.722 0H11.3894C5.09914 0 0 5.09276 0 11.375V321.225C0 327.507 5.09914 332.599 11.3894 332.599H226.722C233.012 332.599 238.111 327.507 238.111 321.225V11.375C238.111 5.09276 233.012 0 226.722 0Z" fill="white"/>
<path d="M63.8377 34.8748C53.9966 48.9091 43.4668 56.9853 43.2918 67.9344C43.2332 71.4799 45.1501 77.5061 51.1544 78.6595C55.0498 79.4044 60.4132 76.2516 60.5252 69.8462C60.5081 68.5709 61.8755 68.604 61.8627 70.3515C61.6793 75.404 60.0799 81.2865 57.3919 86.0749C61.6892 86.0749 65.9863 86.0749 70.2836 86.0749C67.5956 81.2865 65.9962 75.404 65.8127 70.3515C65.7999 68.604 67.1673 68.5709 67.1502 69.8462C67.2622 76.2516 72.6256 79.4044 76.5211 78.6595C82.5254 77.5061 84.4423 71.4799 84.3836 67.9344C84.2087 56.9853 73.6788 48.9091 63.8377 34.8748Z" fill="black"/>
<path d="M18.3653 53.3049C13.7673 59.1526 8.84746 62.5177 8.76576 67.0798C8.73802 68.5571 9.63386 71.068 12.4392 71.5486C14.2593 71.859 16.7652 70.5453 16.8176 67.8764C16.8069 67.345 17.4483 67.3588 17.4423 68.0869C17.357 70.1921 16.6094 72.6432 15.3535 74.6383C17.3613 74.6383 19.3689 74.6383 21.3767 74.6383C20.1208 72.6432 19.3736 70.1921 19.2879 68.0869C19.2773 67.3588 19.9209 67.345 19.9129 67.8764C19.9652 70.5453 22.471 71.859 24.2911 71.5486C27.0964 71.068 27.9919 68.5571 27.9645 67.0798C27.8824 62.5177 22.9631 59.1526 18.3653 53.3049Z" fill="black"/>
<path d="M219.747 279.295C215.149 273.447 210.229 270.082 210.147 265.52C210.119 264.042 211.015 261.532 213.821 261.051C215.641 260.741 218.147 262.054 218.199 264.723C218.188 265.255 218.83 265.241 218.824 264.513C218.738 262.407 217.991 259.956 216.735 257.961C218.743 257.961 220.751 257.961 222.758 257.961C221.502 259.956 220.755 262.407 220.669 264.513C220.659 265.241 221.302 265.255 221.294 264.723C221.347 262.054 223.852 260.741 225.672 261.051C228.478 261.532 229.373 264.042 229.346 265.52C229.264 270.082 224.344 273.447 219.747 279.295Z" fill="black"/>
<path d="M174.273 34.8748C164.432 48.9091 153.902 56.9853 153.727 67.9344C153.668 71.4799 155.585 77.5061 161.59 78.6595C165.485 79.4044 170.848 76.2516 170.96 69.8462C170.943 68.5709 172.311 68.604 172.298 70.3515C172.114 75.404 170.515 81.2865 167.827 86.0749C172.124 86.0749 176.422 86.0749 180.719 86.0749C178.031 81.2865 176.432 75.404 176.248 70.3515C176.235 68.604 177.603 68.5709 177.586 69.8462C177.698 76.2516 183.061 79.4044 186.956 78.6595C192.96 77.5061 194.877 71.4799 194.819 67.9344C194.644 56.9853 184.114 48.9091 174.273 34.8748Z" fill="black"/>
<path d="M119.055 87.7871C109.214 101.821 98.6843 109.898 98.5094 120.847C98.4507 124.392 100.368 130.418 106.372 131.572C110.267 132.317 115.631 129.164 115.743 122.759C115.726 121.483 117.093 121.516 117.08 123.264C116.897 128.316 115.297 134.199 112.609 138.987C116.907 138.987 121.204 138.987 125.501 138.987C122.813 134.199 121.214 128.316 121.031 123.264C121.018 121.516 122.385 121.483 122.368 122.759C122.48 129.164 127.843 132.317 131.739 131.572C137.743 130.418 139.66 124.392 139.601 120.847C139.426 109.898 128.896 101.821 119.055 87.7871Z" fill="black"/>
<path d="M63.8377 140.7C53.9966 154.734 43.4668 162.81 43.2918 173.759C43.2332 177.305 45.1501 183.331 51.1544 184.485C55.0498 185.229 60.4132 182.077 60.5252 175.671C60.5081 174.396 61.8755 174.429 61.8627 176.176C61.6793 181.229 60.0799 187.111 57.3919 191.9C61.6892 191.9 65.9863 191.9 70.2836 191.9C67.5956 187.111 65.9962 181.229 65.8127 176.176C65.7999 174.429 67.1673 174.396 67.1502 175.671C67.2622 182.077 72.6256 185.229 76.5211 184.485C82.5254 183.331 84.4423 177.305 84.3836 173.759C84.2087 162.81 73.6788 154.734 63.8377 140.7Z" fill="black"/>
<path d="M63.8377 297.725C53.9966 283.691 43.4668 275.614 43.2918 264.665C43.2332 261.12 45.1501 255.093 51.1544 253.94C55.0498 253.195 60.4132 256.348 60.5252 262.753C60.5081 264.029 61.8755 263.996 61.8627 262.248C61.6793 257.196 60.0799 251.313 57.3919 246.525C61.6892 246.525 65.9863 246.525 70.2836 246.525C67.5956 251.313 65.9962 257.196 65.8127 262.248C65.7999 263.996 67.1673 264.029 67.1502 262.753C67.2622 256.348 72.6256 253.195 76.5211 253.94C82.5254 255.093 84.4423 261.12 84.3836 264.665C84.2087 275.614 73.6788 283.691 63.8377 297.725Z" fill="black"/>
<path d="M174.273 297.725C164.432 283.691 153.902 275.614 153.727 264.665C153.668 261.12 155.585 255.093 161.59 253.94C165.485 253.195 170.848 256.348 170.96 262.753C170.943 264.029 172.311 263.996 172.298 262.248C172.114 257.196 170.515 251.313 167.827 246.525C172.124 246.525 176.422 246.525 180.719 246.525C178.031 251.313 176.432 257.196 176.248 262.248C176.235 263.996 177.603 264.029 177.586 262.753C177.698 256.348 183.061 253.195 186.956 253.94C192.96 255.093 194.877 261.12 194.819 264.665C194.644 275.614 184.114 283.691 174.273 297.725Z" fill="black"/>
<path d="M119.055 244.812C109.214 230.778 98.6843 222.702 98.5094 211.753C98.4507 208.207 100.368 202.181 106.372 201.028C110.267 200.283 115.631 203.436 115.743 209.841C115.726 211.116 117.093 211.083 117.08 209.336C116.897 204.283 115.297 198.401 112.609 193.612C116.907 193.612 121.204 193.612 125.501 193.612C122.813 198.401 121.214 204.283 121.031 209.336C121.018 211.083 122.385 211.116 122.368 209.841C122.48 203.436 127.843 200.283 131.739 201.028C137.743 202.181 139.66 208.207 139.601 211.753C139.426 222.702 128.896 230.778 119.055 244.812Z" fill="black"/>
<path d="M174.273 140.7C164.432 154.734 153.902 162.81 153.727 173.759C153.668 177.305 155.585 183.331 161.59 184.485C165.485 185.229 170.848 182.077 170.96 175.671C170.943 174.396 172.311 174.429 172.298 176.176C172.114 181.229 170.515 187.111 167.827 191.9C172.124 191.9 176.422 191.9 180.719 191.9C178.031 187.111 176.432 181.229 176.248 176.176C176.235 174.429 177.603 174.396 177.586 175.671C177.698 182.077 183.061 185.229 186.956 184.485C192.96 183.331 194.877 177.305 194.819 173.759C194.644 162.81 184.114 154.734 174.273 140.7Z" fill="black"/>
<path d="M6.92917 39.6497C7.09642 34.9243 8.80522 33.1517 12.1693 30.6794C9.48544 28.7434 8.35398 25.8897 8.58438 23.4607C9.13702 17.5787 13.6792 14.6384 18.6355 14.7641C23.5958 14.8954 27.865 18.8274 28.1982 23.1017C28.4876 26.8172 27.3836 28.6107 24.7477 30.5648C27.8759 33.2062 29.8741 34.941 29.8001 39.5951C29.7265 44.2493 25.7666 49.7877 18.8657 49.9568C11.9648 50.1257 6.75765 44.3751 6.92917 39.6497ZM26.1933 39.6667C26.4881 35.3883 22.7057 32.5025 18.4365 32.4606C14.2798 32.4158 10.562 35.9638 10.562 39.8051C10.562 43.9298 15.3989 46.1717 18.523 46.1815C22.3204 46.1986 25.9368 43.3501 26.1933 39.6667ZM24.8271 24.3619C24.9082 20.7623 21.5866 18.1796 18.1581 18.283C15.1096 18.3768 11.8854 20.7009 11.88 23.7124C11.88 27.4824 15.5497 29.3652 18.6834 29.4379C21.5276 29.5019 24.7627 27.0843 24.8271 24.3619Z" fill="black"/>
<path d="M208.311 292.95C208.478 297.675 210.187 299.448 213.551 301.92C210.867 303.856 209.735 306.71 209.966 309.139C210.518 315.021 215.061 317.961 220.017 317.835C224.977 317.704 229.246 313.772 229.58 309.498C229.869 305.782 228.765 303.989 226.129 302.035C229.257 299.393 231.255 297.659 231.181 293.004C231.108 288.35 227.148 282.812 220.247 282.643C213.346 282.474 208.139 288.224 208.311 292.95ZM227.575 292.933C227.869 297.211 224.087 300.097 219.818 300.139C215.661 300.184 211.943 296.636 211.943 292.795C211.943 288.67 216.78 286.428 219.904 286.418C223.702 286.401 227.318 289.249 227.575 292.933ZM226.208 308.238C226.29 311.837 222.968 314.42 219.539 314.317C216.491 314.223 213.267 311.899 213.261 308.887C213.261 305.117 216.931 303.234 220.065 303.162C222.909 303.098 226.144 305.515 226.208 308.238Z" fill="black"/>
</g>
<defs>
<clipPath id="clip0_11_4110">
<rect width="238.111" height="332.599" fill="white"/>
</clipPath>
</defs>
</svg>
