<svg width="239" height="333" viewBox="0 0 239 333" fill="none" xmlns="http://www.w3.org/2000/svg">
<g clip-path="url(#clip0_11_4084)">
<path d="M226.722 0H11.3894C5.09914 0 0 5.09276 0 11.375V321.225C0 327.507 5.09914 332.599 11.3894 332.599H226.722C233.012 332.599 238.111 327.507 238.111 321.225V11.375C238.111 5.09276 233.012 0 226.722 0Z" fill="white"/>
<path d="M63.838 34.8748C53.9969 48.9091 43.467 56.9853 43.2921 67.9344C43.2334 71.4799 45.1503 77.5061 51.1546 78.6595C55.0501 79.4044 60.4135 76.2516 60.5255 69.8462C60.5084 68.5709 61.8758 68.604 61.863 70.3515C61.6795 75.404 60.0801 81.2865 57.3921 86.0749C61.6894 86.0749 65.9865 86.0749 70.2838 86.0749C67.5958 81.2865 65.9964 75.404 65.813 70.3515C65.8002 68.604 67.1675 68.5709 67.1505 69.8462C67.2625 76.2516 72.6259 79.4044 76.5213 78.6595C82.5256 77.5061 84.4425 71.4799 84.3839 67.9344C84.2089 56.9853 73.6791 48.9091 63.838 34.8748Z" fill="black"/>
<path d="M18.3655 53.3049C13.7675 59.1526 8.84771 62.5177 8.766 67.0798C8.73827 68.5571 9.63411 71.068 12.4395 71.5486C14.2595 71.859 16.7655 70.5453 16.8179 67.8764C16.8072 67.345 17.4486 67.3588 17.4426 68.0869C17.3573 70.1921 16.6097 72.6432 15.3538 74.6383C17.3616 74.6383 19.3692 74.6383 21.377 74.6383C20.1211 72.6432 19.3738 70.1921 19.2882 68.0869C19.2775 67.3588 19.9209 67.345 19.9129 67.8764C19.9652 70.5453 22.4713 71.859 24.2913 71.5486C27.0967 71.068 27.9922 68.5571 27.9648 67.0798C27.8826 62.5177 22.9634 59.1526 18.3655 53.3049Z" fill="black"/>
<path d="M219.747 279.295C215.149 273.447 210.229 270.082 210.147 265.52C210.12 264.042 211.015 261.532 213.821 261.051C215.641 260.741 218.147 262.054 218.199 264.723C218.189 265.255 218.83 265.241 218.824 264.513C218.739 262.407 217.991 259.956 216.735 257.961C218.743 257.961 220.751 257.961 222.758 257.961C221.502 259.956 220.755 262.407 220.67 264.513C220.659 265.241 221.303 265.255 221.295 264.723C221.347 262.054 223.853 260.741 225.673 261.051C228.478 261.532 229.374 264.042 229.346 265.52C229.264 270.082 224.345 273.447 219.747 279.295Z" fill="black"/>
<path d="M174.273 34.8748C164.432 48.9091 153.902 56.9853 153.727 67.9344C153.669 71.4799 155.586 77.5061 161.59 78.6595C165.486 79.4044 170.849 76.2516 170.961 69.8462C170.944 68.5709 172.311 68.604 172.298 70.3515C172.115 75.404 170.515 81.2865 167.827 86.0749C172.125 86.0749 176.422 86.0749 180.719 86.0749C178.031 81.2865 176.432 75.404 176.249 70.3515C176.236 68.604 177.603 68.5709 177.586 69.8462C177.698 76.2516 183.061 79.4044 186.957 78.6595C192.961 77.5061 194.878 71.4799 194.819 67.9344C194.644 56.9853 184.114 48.9091 174.273 34.8748Z" fill="black"/>
<path d="M119.055 87.7871C109.214 101.821 98.6845 109.898 98.5096 120.847C98.4509 124.392 100.368 130.418 106.372 131.572C110.268 132.317 115.631 129.164 115.743 122.759C115.726 121.483 117.093 121.516 117.08 123.264C116.897 128.316 115.298 134.199 112.61 138.987C116.907 138.987 121.204 138.987 125.501 138.987C122.813 134.199 121.214 128.316 121.031 123.264C121.018 121.516 122.385 121.483 122.368 122.759C122.48 129.164 127.843 132.317 131.739 131.572C137.743 130.418 139.66 124.392 139.601 120.847C139.426 109.898 128.897 101.821 119.055 87.7871Z" fill="black"/>
<path d="M63.838 140.7C53.9969 154.734 43.467 162.81 43.2921 173.759C43.2334 177.305 45.1503 183.331 51.1546 184.485C55.0501 185.229 60.4135 182.077 60.5255 175.671C60.5084 174.396 61.8758 174.429 61.863 176.176C61.6795 181.229 60.0801 187.111 57.3921 191.9C61.6894 191.9 65.9865 191.9 70.2838 191.9C67.5958 187.111 65.9964 181.229 65.813 176.176C65.8002 174.429 67.1675 174.396 67.1505 175.671C67.2625 182.077 72.6259 185.229 76.5213 184.485C82.5256 183.331 84.4425 177.305 84.3839 173.759C84.2089 162.81 73.6791 154.734 63.838 140.7Z" fill="black"/>
<path d="M63.838 297.725C53.9969 283.691 43.467 275.614 43.2921 264.665C43.2334 261.12 45.1503 255.093 51.1546 253.94C55.0501 253.195 60.4135 256.348 60.5255 262.753C60.5084 264.029 61.8758 263.996 61.863 262.248C61.6795 257.196 60.0801 251.313 57.3921 246.525C61.6894 246.525 65.9865 246.525 70.2838 246.525C67.5958 251.313 65.9964 257.196 65.813 262.248C65.8002 263.996 67.1675 264.029 67.1505 262.753C67.2625 256.348 72.6259 253.195 76.5213 253.94C82.5256 255.093 84.4425 261.12 84.3839 264.665C84.2089 275.614 73.6791 283.691 63.838 297.725Z" fill="black"/>
<path d="M174.273 297.725C164.432 283.691 153.902 275.614 153.727 264.665C153.669 261.12 155.586 255.093 161.59 253.94C165.486 253.195 170.849 256.348 170.961 262.753C170.944 264.029 172.311 263.996 172.298 262.248C172.115 257.196 170.515 251.313 167.827 246.525C172.125 246.525 176.422 246.525 180.719 246.525C178.031 251.313 176.432 257.196 176.249 262.248C176.236 263.996 177.603 264.029 177.586 262.753C177.698 256.348 183.061 253.195 186.957 253.94C192.961 255.093 194.878 261.12 194.819 264.665C194.644 275.614 184.114 283.691 174.273 297.725Z" fill="black"/>
<path d="M174.273 140.7C164.432 154.734 153.902 162.81 153.727 173.759C153.669 177.305 155.586 183.331 161.59 184.485C165.486 185.229 170.849 182.077 170.961 175.671C170.944 174.396 172.311 174.429 172.298 176.176C172.115 181.229 170.515 187.111 167.827 191.9C172.125 191.9 176.422 191.9 180.719 191.9C178.031 187.111 176.432 181.229 176.249 176.176C176.236 174.429 177.603 174.396 177.586 175.671C177.698 182.077 183.061 185.229 186.957 184.485C192.961 183.331 194.878 177.305 194.819 173.759C194.644 162.81 184.114 154.734 174.273 140.7Z" fill="black"/>
<path d="M12.9528 49.9565C15.2678 37.7183 17.732 28.5306 24.2024 18.5593H11.0508V22.8515H7.55908V14.7603H26.7956L29.1683 18.5593C22.2961 26.0612 16.0067 50.3112 17.1203 49.9565H12.9528Z" fill="black"/>
<path d="M225.156 282.643C222.841 294.881 220.377 304.069 213.906 314.04H227.058V309.748H230.55V317.839H211.313L208.94 314.04C215.813 306.538 222.102 282.288 220.988 282.643H225.156Z" fill="black"/>
</g>
<defs>
<clipPath id="clip0_11_4084">
<rect width="238.111" height="332.599" fill="white"/>
</clipPath>
</defs>
</svg>
