<svg width="239" height="333" viewBox="0 0 239 333" fill="none" xmlns="http://www.w3.org/2000/svg">
<g clip-path="url(#clip0_11_4165)">
<path d="M261.722 -17H46.3894C40.0991 -17 35 -11.9072 35 -5.625V304.225C35 310.507 40.0991 315.599 46.3894 315.599H261.722C268.012 315.599 273.111 310.507 273.111 304.225V-5.625C273.111 -11.9072 268.012 -17 261.722 -17Z" fill="white"/>
<path d="M98.8377 17.8748C88.9966 31.9091 78.4668 39.9853 78.2918 50.9344C78.2332 54.4799 80.1501 60.5061 86.1544 61.6595C90.0498 62.4044 95.4132 59.2516 95.5252 52.8462C95.5081 51.5709 96.8755 51.604 96.8627 53.3515C96.6793 58.404 95.0799 64.2865 92.3919 69.0749C96.6892 69.0749 100.986 69.0749 105.284 69.0749C102.596 64.2865 100.996 58.404 100.813 53.3515C100.8 51.604 102.167 51.5709 102.15 52.8462C102.262 59.2516 107.626 62.4044 111.521 61.6595C117.525 60.5061 119.442 54.4799 119.384 50.9344C119.209 39.9853 108.679 31.9091 98.8377 17.8748Z" fill="black"/>
<path d="M53.3653 36.3049C48.7673 42.1526 43.8475 45.5177 43.7658 50.0798C43.738 51.5571 44.6339 54.068 47.4392 54.5486C49.2593 54.859 51.7652 53.5453 51.8176 50.8764C51.8069 50.345 52.4483 50.3588 52.4423 51.0869C52.357 53.1921 51.6094 55.6432 50.3535 57.6383C52.3613 57.6383 54.3689 57.6383 56.3767 57.6383C55.1208 55.6432 54.3736 53.1921 54.2879 51.0869C54.2773 50.3588 54.9209 50.345 54.9129 50.8764C54.9652 53.5453 57.471 54.859 59.2911 54.5486C62.0964 54.068 62.9919 51.5571 62.9645 50.0798C62.8824 45.5177 57.9631 42.1526 53.3653 36.3049Z" fill="black"/>
<path d="M98.8377 210.175C88.9966 196.14 78.4668 188.064 78.2918 177.115C78.2332 173.57 80.1501 167.543 86.1544 166.39C90.0498 165.645 95.4132 168.798 95.5252 175.203C95.5081 176.479 96.8755 176.445 96.8627 174.698C96.6793 169.646 95.0799 163.763 92.3919 158.975C96.6892 158.975 100.986 158.975 105.284 158.975C102.596 163.763 100.996 169.646 100.813 174.698C100.8 176.445 102.167 176.479 102.15 175.203C102.262 168.798 107.626 165.645 111.521 166.39C117.525 167.543 119.442 173.57 119.384 177.115C119.209 188.064 108.679 196.14 98.8377 210.175Z" fill="black"/>
<path d="M209.273 17.8748C199.432 31.9091 188.902 39.9853 188.727 50.9344C188.669 54.4799 190.586 60.5061 196.59 61.6595C200.485 62.4044 205.848 59.2516 205.961 52.8462C205.943 51.5709 207.311 51.604 207.298 53.3515C207.115 58.404 205.515 64.2865 202.827 69.0749C207.124 69.0749 211.422 69.0749 215.719 69.0749C213.031 64.2865 211.432 58.404 211.248 53.3515C211.235 51.604 212.603 51.5709 212.586 52.8462C212.698 59.2516 218.061 62.4044 221.956 61.6595C227.961 60.5061 229.878 54.4799 229.819 50.9344C229.644 39.9853 219.114 31.9091 209.273 17.8748Z" fill="black"/>
<path d="M98.8377 88.4246C88.9966 102.459 78.4668 110.535 78.2918 121.484C78.2332 125.03 80.1501 131.056 86.1544 132.209C90.0498 132.954 95.4132 129.801 95.5252 123.396C95.5081 122.121 96.8755 122.154 96.8627 123.901C96.6793 128.954 95.0799 134.836 92.3919 139.625C96.6892 139.625 100.986 139.625 105.284 139.625C102.596 134.836 100.996 128.954 100.813 123.901C100.8 122.154 102.167 122.121 102.15 123.396C102.262 129.801 107.626 132.954 111.521 132.209C117.525 131.056 119.442 125.03 119.384 121.484C119.209 110.535 108.679 102.459 98.8377 88.4246Z" fill="black"/>
<path d="M154.055 63.3579C144.214 77.3922 133.685 85.4685 133.51 96.4176C133.451 99.9631 135.368 105.989 141.372 107.143C145.268 107.888 150.631 104.735 150.743 98.3293C150.726 97.0541 152.093 97.0872 152.08 98.8346C151.897 103.887 150.297 109.77 147.609 114.558C151.907 114.558 156.204 114.558 160.501 114.558C157.813 109.77 156.214 103.887 156.031 98.8346C156.018 97.0872 157.385 97.0541 157.368 98.3293C157.48 104.735 162.843 107.888 166.739 107.143C172.743 105.989 174.66 99.9631 174.601 96.4176C174.426 85.4685 163.896 77.3922 154.055 63.3579Z" fill="black"/>
<path d="M209.273 88.4246C199.432 102.459 188.902 110.535 188.727 121.484C188.669 125.03 190.586 131.056 196.59 132.209C200.485 132.954 205.848 129.801 205.961 123.396C205.943 122.121 207.311 122.154 207.298 123.901C207.115 128.954 205.515 134.836 202.827 139.625C207.124 139.625 211.422 139.625 215.719 139.625C213.031 134.836 211.432 128.954 211.248 123.901C211.235 122.154 212.603 122.121 212.586 123.396C212.698 129.801 218.061 132.954 221.956 132.209C227.961 131.056 229.878 125.03 229.819 121.484C229.644 110.535 219.114 102.459 209.273 88.4246Z" fill="black"/>
<path d="M98.8377 280.725C88.9966 266.691 78.4668 258.614 78.2918 247.665C78.2332 244.12 80.1501 238.093 86.1544 236.94C90.0498 236.195 95.4132 239.348 95.5252 245.753C95.5081 247.029 96.8755 246.996 96.8627 245.248C96.6793 240.196 95.0799 234.313 92.3919 229.525C96.6892 229.525 100.986 229.525 105.284 229.525C102.596 234.313 100.996 240.196 100.813 245.248C100.8 246.996 102.167 247.029 102.15 245.753C102.262 239.348 107.626 236.195 111.521 236.94C117.525 238.093 119.442 244.12 119.384 247.665C119.209 258.614 108.679 266.691 98.8377 280.725Z" fill="black"/>
<path d="M209.273 280.725C199.432 266.691 188.902 258.614 188.727 247.665C188.669 244.12 190.586 238.093 196.59 236.94C200.485 236.195 205.848 239.348 205.961 245.753C205.943 247.029 207.311 246.996 207.298 245.248C207.115 240.196 205.515 234.313 202.827 229.525C207.124 229.525 211.422 229.525 215.719 229.525C213.031 234.313 211.432 240.196 211.248 245.248C211.235 246.996 212.603 247.029 212.586 245.753C212.698 239.348 218.061 236.195 221.956 236.94C227.961 238.093 229.878 244.12 229.819 247.665C229.644 258.614 219.114 266.691 209.273 280.725Z" fill="black"/>
<path d="M154.055 235.242C144.214 221.207 133.685 213.131 133.51 202.182C133.451 198.637 135.368 192.61 141.372 191.457C145.268 190.712 150.631 193.865 150.743 200.27C150.726 201.546 152.093 201.512 152.08 199.765C151.897 194.712 150.297 188.83 147.609 184.042C151.907 184.042 156.204 184.042 160.501 184.042C157.813 188.83 156.214 194.712 156.031 199.765C156.018 201.512 157.385 201.546 157.368 200.27C157.48 193.865 162.843 190.712 166.739 191.457C172.743 192.61 174.66 198.637 174.601 202.182C174.426 213.131 163.896 221.207 154.055 235.242Z" fill="black"/>
<path d="M209.273 210.175C199.432 196.14 188.902 188.064 188.727 177.115C188.669 173.57 190.586 167.543 196.59 166.39C200.485 165.645 205.848 168.798 205.961 175.203C205.943 176.479 207.311 176.445 207.298 174.698C207.115 169.646 205.515 163.763 202.827 158.975C207.124 158.975 211.422 158.975 215.719 158.975C213.031 163.763 211.432 169.646 211.248 174.698C211.235 176.445 212.603 176.479 212.586 175.203C212.698 168.798 218.061 165.645 221.956 166.39C227.961 167.543 229.878 173.57 229.819 177.115C229.644 188.064 219.114 196.14 209.273 210.175Z" fill="black"/>
<path d="M42.6768 32.9604V-2.23901H46.0887V32.9604H42.6768Z" fill="black"/>
<path d="M56.2028 -2.23975C52.9182 -2.23975 50.2783 0.760371 50.2783 4.48674V26.2346C50.2783 29.961 52.9196 32.9597 56.2028 32.9597H58.12C61.4045 32.9597 64.05 29.961 64.05 26.2346V4.48674C64.05 0.760371 61.4031 -2.23975 58.12 -2.23975H56.2028ZM57.1942 1.08858C59.1334 1.08858 60.6927 2.57606 60.6927 4.43645V26.4721C60.6927 28.3325 59.1334 29.8339 57.1942 29.8339C55.2551 29.8339 53.6903 28.3325 53.6903 26.4721V4.43645C53.6903 2.57745 55.2551 1.08858 57.1942 1.08858Z" fill="black"/>
</g>
<defs>
<clipPath id="clip0_11_4165">
<rect width="238.111" height="332.599" fill="white"/>
</clipPath>
</defs>
</svg>
